<?xml version="1.0" encoding="utf-8"?>
<!-- Generator: Adobe Illustrator 25.4.1, SVG Export Plug-In . SVG Version: 6.00 Build 0)  -->
<svg version="1.1" id="Layer_1" xmlns="http://www.w3.org/2000/svg" xmlns:xlink="http://www.w3.org/1999/xlink" x="0px" y="0px"
	 viewBox="0 0 56 32.25" style="enable-background:new 0 0 56 32.25;" xml:space="preserve">
<style type="text/css">
	.st0{fill:#020203;}
</style>
<g>
	<path d="M31.71,15.3c0.13,0.12,0.34,0.11,0.46-0.02c0.12-0.13,0.11-0.33-0.02-0.46c-0.34-0.32-0.72-0.6-1.11-0.85
		c-0.15-0.09-0.35-0.05-0.45,0.1c-0.03,0.05-0.05,0.11-0.05,0.17c0,0.11,0.05,0.21,0.15,0.27C31.05,14.74,31.4,15.01,31.71,15.3z"/>
	<path d="M29.55,13.93c0.17,0.07,0.35-0.01,0.42-0.18c0.07-0.16-0.02-0.35-0.18-0.42c-0.44-0.17-0.89-0.3-1.34-0.4
		c-0.18-0.03-0.34,0.08-0.38,0.25c0,0.02-0.01,0.04-0.01,0.06c0,0.15,0.11,0.28,0.26,0.31C28.74,13.65,29.15,13.78,29.55,13.93z"/>
	<polygon points="23.73,23.64 24.79,23.59 28.66,19.72 27.65,18.7 23.77,22.57 	"/>
	<path d="M36.28,27.56h-6.25c0.87-0.38,1.67-0.92,2.36-1.61c2.35-2.35,2.93-5.91,1.45-8.88c0-0.01,0-0.02-0.01-0.02
		c0-0.01-0.01-0.02-0.01-0.02c0,0,0-0.01,0-0.01c0,0,0,0-0.01-0.01c-0.2-0.4-0.44-0.79-0.72-1.15c-0.11-0.14-0.31-0.17-0.45-0.06
		c-0.08,0.06-0.13,0.16-0.13,0.26c0,0.07,0.02,0.14,0.07,0.19c0.25,0.33,0.48,0.7,0.67,1.07c1.38,2.73,0.85,6.01-1.31,8.18
		c-1.33,1.33-3.11,2.07-5,2.07c-1.7,0-3.31-0.6-4.59-1.7l0.85-0.23l1.98-0.54l0,0l4.44-4.43l-0.75-0.75l-3.87,3.87l-0.05,1.07
		l-2.43,0.65l-0.67-0.67l0.65-2.43l1.07-0.05l3.87-3.88l-0.75-0.75l-4.43,4.44l0,0l-0.53,1.99l-0.35,1.32
		c-0.05,0.2-0.01,0.35,0.09,0.44c0,0,0.01,0.01,0.01,0.02c0.69,0.69,1.49,1.23,2.36,1.61h-4.12c-0.18,0-0.32,0.14-0.32,0.32
		c0,0.18,0.14,0.32,0.32,0.32h16.55c0.18,0,0.32-0.14,0.32-0.32C36.6,27.7,36.45,27.56,36.28,27.56z"/>
	<path d="M27.1,17.35l2.91,2.91l0.9-0.9c0.19-0.18,0.19-0.48,0-0.67l-2.25-2.25c-0.18-0.18-0.48-0.18-0.67,0L27.1,17.35z"/>
	<path d="M38.57,16.15l-10.33-8.7c-0.07-0.06-0.16-0.09-0.25-0.09c-0.09,0-0.18,0.03-0.25,0.09L17.43,16
		c-0.09,0.07-0.14,0.18-0.14,0.3v6.4h0.78v-6.22l9.91-8.23l9.94,8.37v6.07h0.78v-6.26C38.71,16.33,38.66,16.22,38.57,16.15z"/>
	<path d="M42.97,16.36L28.57,4.23c-0.14-0.12-0.33-0.19-0.52-0.19c-0.2,0-0.38,0.06-0.52,0.19l-6.04,5.02l0-1.26
		c0-0.25-0.2-0.45-0.44-0.45l-1.81-0.01c-0.25,0-0.45,0.2-0.45,0.44v3.51l-5.75,4.77c-0.34,0.29-0.39,0.81-0.11,1.15
		c0.15,0.19,0.38,0.29,0.62,0.29c0.19,0,0.38-0.07,0.52-0.19L28.04,5.92l13.89,11.69c0.14,0.12,0.33,0.19,0.52,0.19
		c0.24,0,0.47-0.1,0.62-0.29C43.36,17.16,43.32,16.65,42.97,16.36z"/>
</g>
</svg>
