<?xml version="1.0" encoding="utf-8"?>
<!-- Generator: Adobe Illustrator 25.4.1, SVG Export Plug-In . SVG Version: 6.00 Build 0)  -->
<svg version="1.1" id="Layer_1" xmlns="http://www.w3.org/2000/svg" xmlns:xlink="http://www.w3.org/1999/xlink" x="0px" y="0px"
	 viewBox="0 0 56 32.25" style="enable-background:new 0 0 56 32.25;" xml:space="preserve">
<style type="text/css">
	.st0{fill:#020203;}
</style>
<g>
	<path class="st0" d="M17.08,20.39c-0.16,0.09-0.35,0.13-0.52,0.13c-0.23,0-0.47-0.07-0.66-0.22c-0.35-0.25-0.52-0.68-0.45-1.1
		l0.47-2.71l-1.97-1.92c-0.31-0.3-0.42-0.75-0.29-1.16c0.13-0.41,0.49-0.71,0.91-0.77l2.72-0.4l1.22-2.47
		c0.19-0.38,0.58-0.63,1.01-0.63c0.43,0,0.82,0.24,1.01,0.63l0.62,1.25l1.17-0.17l-0.78-1.58c-0.38-0.78-1.16-1.26-2.02-1.26
		c-0.86,0-1.64,0.48-2.02,1.26l-0.96,1.94l-2.14,0.31c-0.86,0.12-1.55,0.71-1.82,1.53c-0.27,0.82-0.05,1.71,0.57,2.31l1.55,1.51
		l-0.37,2.13c-0.15,0.85,0.2,1.7,0.9,2.21c0.39,0.28,0.85,0.43,1.33,0.43c0.37,0,0.73-0.09,1.05-0.26l1.91-1l0.95,0.5l0.2-1.17
		l-1.15-0.61L17.08,20.39z M43.42,13.06c-0.27-0.82-0.96-1.41-1.82-1.53l-2.14-0.31l-0.96-1.94c-0.38-0.78-1.16-1.26-2.02-1.26
		c-0.86,0-1.64,0.48-2.02,1.26l-0.78,1.58l1.17,0.17l0.62-1.25c0.19-0.38,0.58-0.63,1.01-0.63c0.43,0,0.82,0.24,1.01,0.63l1.22,2.47
		l2.72,0.4c0.42,0.06,0.78,0.36,0.91,0.77c0.13,0.41,0.02,0.86-0.29,1.16l-1.97,1.92l0.47,2.71c0.07,0.42-0.1,0.85-0.45,1.1
		c-0.2,0.14-0.43,0.22-0.66,0.22c-0.18,0-0.36-0.04-0.52-0.13l-2.44-1.28l-1.15,0.61l0.2,1.17l0.95-0.5l1.91,1
		c0.32,0.17,0.69,0.26,1.05,0.26c0.48,0,0.94-0.15,1.33-0.43c0.7-0.51,1.04-1.35,0.9-2.21l-0.37-2.13l1.55-1.51
		C43.47,14.77,43.69,13.88,43.42,13.06z M34.03,18.81l2.76-2.69c0.62-0.6,0.84-1.49,0.57-2.31c-0.27-0.82-0.97-1.41-1.82-1.54
		l-3.81-0.55l-1.7-3.45C29.64,7.49,28.86,7.01,28,7.01c-0.86,0-1.64,0.48-2.02,1.26l-1.7,3.45l-3.81,0.55
		c-0.86,0.12-1.55,0.71-1.82,1.53c-0.27,0.82-0.05,1.71,0.57,2.31l2.76,2.69l-0.65,3.8c-0.15,0.85,0.2,1.7,0.9,2.21
		c0.39,0.28,0.85,0.43,1.33,0.43c0.37,0,0.73-0.09,1.05-0.26L28,23.19l3.41,1.79c0.32,0.17,0.68,0.26,1.05,0.26
		c0.48,0,0.94-0.15,1.32-0.43c0.7-0.51,1.04-1.35,0.9-2.21L34.03,18.81z M32.82,18.41l0.75,4.38c0.07,0.42-0.1,0.85-0.45,1.1
		c-0.2,0.14-0.43,0.22-0.66,0.22c-0.18,0-0.36-0.04-0.52-0.13L28,21.91l-3.93,2.07c-0.16,0.09-0.35,0.13-0.52,0.13
		c-0.23,0-0.47-0.07-0.66-0.22c-0.35-0.25-0.52-0.68-0.45-1.1l0.75-4.38L20,15.31c-0.31-0.3-0.42-0.75-0.29-1.16
		c0.13-0.41,0.49-0.71,0.91-0.77l4.4-0.64l1.97-3.98c0.19-0.38,0.58-0.63,1.01-0.63c0.43,0,0.82,0.24,1.01,0.63l1.97,3.98l4.4,0.64
		c0.42,0.06,0.78,0.36,0.91,0.77c0.13,0.41,0.02,0.86-0.29,1.16L32.82,18.41z"/>
</g>
</svg>
