<?xml version="1.0" encoding="utf-8"?>
<!-- Generator: Adobe Illustrator 25.4.1, SVG Export Plug-In . SVG Version: 6.00 Build 0)  -->
<svg version="1.1" id="Layer_1" xmlns="http://www.w3.org/2000/svg" xmlns:xlink="http://www.w3.org/1999/xlink" x="0px" y="0px"
	 viewBox="0 0 56 32.25" style="enable-background:new 0 0 56 32.25;" xml:space="preserve">
<style type="text/css">
	.st0{fill:#020203;}
</style>
<g>
	<path d="M36.05,14.62c-0.08-0.45-0.46-0.78-0.92-0.78h-2.38l-1.42-0.95c-0.24-0.16-0.54-0.2-0.82-0.11l-1.46,0.49
		c-0.14,0.05-0.26,0.12-0.37,0.23l-2.09,2.09c-0.22,0.22-0.31,0.53-0.26,0.83c0.45,2.51,0.54,2.71,0.58,2.8
		c0.18,0.42,0.6,0.48,1.84,0.45c0.61-0.01,1.28-0.05,1.71-0.08l0.35,1.05c0.11,0.33,0.38,0.56,0.71,0.62l0.48,2.85
		c0.03,0.19,0.12,0.37,0.26,0.51l0.85,0.85c0.18,0.18,0.42,0.27,0.66,0.27c0.18,0,0.36-0.05,0.52-0.16l1.37-0.91
		c0.16-0.11,0.28-0.25,0.35-0.43l1.08-2.7l1.88-2.81c0.19-0.29,0.21-0.66,0.05-0.96c-0.16-0.31-0.48-0.49-0.83-0.49h-1.69
		L36.05,14.62z M36.12,20.92c-0.04,0.05-0.07,0.11-0.09,0.17l-1.06,2.66l-1.18,0.78l-0.68-0.68l-0.49-2.94
		c-0.07-0.4-0.38-0.71-0.77-0.77l-0.36-1.07c-0.13-0.4-0.53-0.67-0.95-0.64c-1.34,0.09-2.23,0.1-2.64,0.08
		c-0.08-0.37-0.22-1.1-0.42-2.19l1.98-1.98l1.32-0.44l1.39,0.93c0.15,0.1,0.33,0.16,0.52,0.16h2.26l0.44,2.65
		c0.08,0.45,0.46,0.78,0.92,0.78h1.48L36.12,20.92z"/>
	<path d="M41.15,16.08c0-0.18-0.01-0.35-0.01-0.53c0-0.03,0-0.06,0-0.09c-0.01-0.18-0.02-0.36-0.04-0.54c0-0.03-0.01-0.06-0.01-0.09
		c-0.02-0.18-0.04-0.36-0.07-0.55c0-0.02-0.01-0.05-0.01-0.07c-0.03-0.19-0.06-0.37-0.09-0.56c0-0.01-0.01-0.03-0.01-0.04
		c-0.47-2.41-1.6-4.59-3.2-6.34l0,0c-0.26-0.28-0.53-0.55-0.81-0.81l0,0c-1.9-1.75-4.32-2.96-7-3.35c-0.01,0-0.02,0-0.03,0
		c-0.2-0.03-0.39-0.05-0.59-0.07c-0.01,0-0.03,0-0.04,0c-0.2-0.02-0.4-0.03-0.59-0.04c-0.01,0-0.02,0-0.04,0
		c-0.2-0.01-0.41-0.01-0.61-0.01c0,0,0,0,0,0c0,0,0,0,0,0c-0.12,0-0.24,0-0.35,0c-0.02,0-0.04,0-0.06,0c-0.1,0-0.2,0.01-0.29,0.01
		c-0.02,0-0.03,0-0.05,0c-0.1,0.01-0.21,0.01-0.31,0.02c-0.01,0-0.01,0-0.02,0c-0.59,0.05-1.16,0.14-1.73,0.26l0,0
		c-0.37,0.08-0.74,0.18-1.11,0.29l0,0c-1.59,0.5-3.06,1.29-4.33,2.32c-0.01,0.01-0.02,0.01-0.03,0.02C19.68,5.93,19.63,5.96,19.59,6
		c-0.01,0.01-0.02,0.03-0.04,0.04c-0.01,0.01-0.02,0.02-0.02,0.03c-1.88,1.58-3.3,3.68-4.07,6.07l0,0c-0.11,0.36-0.21,0.73-0.3,1.1
		l0,0c-0.21,0.93-0.32,1.89-0.32,2.88c0,3.41,1.3,6.52,3.44,8.86l0,0c0.26,0.28,0.53,0.55,0.81,0.81l0,0c1.9,1.76,4.32,2.96,7,3.35
		c0,0,0.01,0,0.01,0c0.2,0.03,0.4,0.05,0.6,0.07c0.01,0,0.02,0,0.03,0c0.2,0.02,0.4,0.03,0.6,0.04c0.01,0,0.02,0,0.03,0
		c0.2,0.01,0.41,0.01,0.62,0.01c0,0,0,0,0,0c0,0,0,0,0.01,0c0.12,0,0.23,0,0.35,0c0.03,0,0.05,0,0.08,0c0.09,0,0.19-0.01,0.28-0.01
		c0.02,0,0.04,0,0.06,0c0.1-0.01,0.2-0.01,0.3-0.02c0.01,0,0.02,0,0.03,0c0.58-0.05,1.15-0.14,1.71-0.26l0,0
		c0.37-0.08,0.74-0.18,1.11-0.29l0,0c4.08-1.28,7.31-4.49,8.61-8.57l0,0c0.11-0.36,0.21-0.73,0.3-1.1l0,0
		c0.05-0.23,0.1-0.46,0.14-0.7c0,0,0-0.01,0-0.01c0.02-0.11,0.03-0.21,0.05-0.32c0-0.02,0.01-0.04,0.01-0.06
		c0.01-0.09,0.02-0.18,0.03-0.26c0-0.04,0.01-0.07,0.01-0.11c0.01-0.07,0.01-0.15,0.02-0.22c0-0.05,0.01-0.1,0.01-0.15
		c0-0.06,0.01-0.12,0.01-0.18c0-0.06,0.01-0.12,0.01-0.19c0-0.04,0-0.08,0.01-0.12c0.01-0.19,0.01-0.38,0.01-0.58
		C41.15,16.11,41.15,16.09,41.15,16.08z M36.94,8.12c1.67,1.86,2.76,4.24,3.01,6.86h-1.64l-0.44-2.65
		c-0.08-0.45-0.46-0.78-0.92-0.78h-2.38l-1.42-0.95c-0.24-0.16-0.54-0.2-0.82-0.11l-1.38,0.46l-1.24,0.02v-0.56
		c0-0.32-0.26-0.57-0.57-0.57V9.26h0.22l0.41,0.83c0.08,0.15,0.22,0.27,0.39,0.3c0.17,0.04,0.34,0,0.48-0.11l2.7-2.16H36.94z
		 M19.98,7.2l0.75,0.75c0.11,0.11,0.25,0.17,0.4,0.17h1.72v1.96l-2.58,1.55c-0.04,0.02-0.08,0.05-0.11,0.09l-1.72,1.72
		c-0.04,0.04-0.08,0.09-0.11,0.15l-0.99,1.97h-1.35C16.16,12.24,17.67,9.28,19.98,7.2z M16.85,20.57c-0.48-1.21-0.78-2.51-0.84-3.87
		h1.29l0.39,1.17l-0.52,2.06L16.85,20.57z M21.25,25.85c-0.09-0.02-0.18-0.01-0.26,0.01c-1.48-1.07-2.72-2.47-3.58-4.09
		c0.1-0.05,0.19-0.14,0.24-0.25l0.57-1.14c0.02-0.04,0.03-0.08,0.04-0.12l0.42-1.69l1.09,0.36l2.91,1.46
		c-0.47,1.14-0.45,1.44-0.38,1.62c0.03,0.34,0.02,1.88-0.02,3.23c0,0.12,0.03,0.24,0.1,0.33l0.38,0.57L21.25,25.85z M28,28.13
		c-1.32,0-2.59-0.22-3.79-0.62c0.1-0.04,0.19-0.11,0.26-0.21c0.13-0.19,0.13-0.44,0-0.64l-1.04-1.56c0.07-2.34,0.04-3.07-0.01-3.34
		c0.05-0.23,0.3-0.89,0.53-1.41c0.12-0.28,0-0.6-0.27-0.74l-3.43-1.72c-0.02-0.01-0.05-0.02-0.07-0.03l-1.44-0.48l-0.41-1.22l1-1.99
		l1.6-1.6l2.8-1.68c0.17-0.1,0.28-0.29,0.28-0.49V7.55c0-0.32-0.26-0.57-0.57-0.57h-2.05l-0.51-0.51c2-1.48,4.46-2.35,7.13-2.35
		c2.96,0,5.67,1.08,7.76,2.86h-2.62c-0.13,0-0.26,0.04-0.36,0.13l-2.31,1.85l-0.26-0.51c-0.1-0.19-0.29-0.32-0.51-0.32h-1.14
		C28.26,8.12,28,8.37,28,8.69v1.72c0,0.32,0.26,0.57,0.57,0.57v0.57c0,0.15,0.06,0.3,0.17,0.41c0.11,0.11,0.26,0.17,0.41,0.16
		l1.91-0.03c0.06,0,0.12-0.01,0.17-0.03l1.37-0.46l1.39,0.93c0.15,0.1,0.33,0.16,0.52,0.16h2.26l0.44,2.65
		c0.08,0.45,0.46,0.78,0.92,0.78h1.87C40.01,22.74,34.62,28.13,28,28.13z"/>
</g>
</svg>
