<?xml version="1.0" encoding="utf-8"?>
<!-- Generator: Adobe Illustrator 18.1.1, SVG Export Plug-In . SVG Version: 6.00 Build 0)  -->
<svg version="1.1" id="Layer_1" xmlns="http://www.w3.org/2000/svg" xmlns:xlink="http://www.w3.org/1999/xlink" x="0px" y="0px"
	 viewBox="0 0 100 100" style="enable-background:new 0 0 100 100;" xml:space="preserve">
<style type="text/css">
	.st0{fill:#545758;}
	.st1{fill:#FAC312;}
</style>
<g>
	<path class="st0" d="M100,19.4l-5.1,7.9H58.5c-0.4-0.4-0.7-0.9-1.1-1.3c-0.1-0.2-0.3-0.3-0.4-0.5c-0.1-0.1-0.1-0.2-0.2-0.2
		c-0.1-0.1-0.1-0.1-0.2-0.2l0,0c-0.1-0.1-0.1-0.1-0.2-0.2c-0.1-0.1-0.1-0.1-0.2-0.2c-0.1-0.1-0.1-0.1-0.2-0.2
		c-0.1-0.1-0.1-0.1-0.2-0.2l0,0c-0.1-0.1-0.2-0.2-0.3-0.3l-0.1-0.1c-0.1-0.1-0.2-0.2-0.3-0.3c-0.1-0.1-0.2-0.2-0.3-0.3
		c-0.1-0.1-0.2-0.2-0.3-0.3c-1.5-1.4-3.2-2.6-4.9-3.6C49.6,19.4,100,19.4,100,19.4z"/>
	<polygon class="st0" points="89.4,36 84.3,43.9 71.8,43.9 64.4,36 	"/>
	<path class="st0" d="M66.2,54.7c-0.3,2.7-1,5.3-1.9,7.8l0,0c0.9-2.3,1.5-4.7,1.8-7.1C66.2,55.2,66.2,55,66.2,54.7z"/>
	<path class="st0" d="M65.9,72.7l-5.1,7.9H49.5c1.8-1.1,3.6-2.4,5.2-3.9c0.1-0.1,0.2-0.1,0.2-0.2l0.2-0.2l0.1-0.1
		c0.1,0,0.1-0.1,0.2-0.1c0.1-0.1,0.2-0.2,0.3-0.3c0.1-0.1,0.2-0.2,0.3-0.3c0.1-0.1,0.2-0.2,0.3-0.3c0.2-0.2,0.4-0.4,0.6-0.6
		c0.6-0.6,1.1-1.2,1.6-1.8L65.9,72.7L65.9,72.7z"/>
	<path class="st0" d="M66.2,54.7c0,0.2-0.1,0.5-0.1,0.7c-0.4,2.4-1,4.8-1.8,7.1l0,0C65.2,60,65.9,57.4,66.2,54.7z M49.5,80.6
		L49.5,80.6c1.8-1.1,3.6-2.4,5.2-3.9C53.1,78.1,51.3,79.4,49.5,80.6z M49.5,19.4L49.5,19.4c0.2,0.1,0.4,0.2,0.5,0.4
		c0.1,0.1,0.2,0.1,0.3,0.2c0.2,0.1,0.4,0.3,0.6,0.4c0.1,0.1,0.1,0.1,0.2,0.2c0.2,0.1,0.4,0.3,0.5,0.4s0.2,0.1,0.3,0.2
		s0.2,0.1,0.3,0.2l0.1,0.1c0.1,0.1,0.2,0.1,0.2,0.2c0.1,0.1,0.2,0.2,0.3,0.2c0.1,0.1,0.2,0.2,0.3,0.2c0.1,0.1,0.2,0.2,0.3,0.2l0,0
		C52.3,21.3,50.9,20.3,49.5,19.4z M56,24.6l-0.1-0.1L56,24.6L56,24.6z M57.4,26c0.4,0.4,0.8,0.9,1.1,1.3
		C58.1,26.9,57.8,26.4,57.4,26z"/>
	<g>
		<path class="st0" d="M58.5,72.7c-0.5,0.6-1,1.2-1.6,1.8C57.5,73.9,58,73.3,58.5,72.7z M69.5,49.3L66.3,46l-1.9-2l-5.8-6.2l0,0
			l-4.5,4.8l-1.2,1.3l-5,5.4h7.4c0,0.2,0,0.4,0,0.7c0,1.6-0.1,3.1-0.4,4.6c-0.5,2.8-1.5,5.5-3,7.9c-1,1.8-2.3,3.4-3.8,4.9
			c-2.3,2.3-4.9,4-7.7,5.2c-3,1.3-6.3,2-9.7,2c-6.6,0-12.8-2.6-17.4-7.2C8.5,62.8,5.9,56.6,5.9,50s2.6-12.8,7.2-17.4
			c4.7-4.7,10.9-7.2,17.4-7.2c3.4,0,6.7,0.7,9.7,2c2.8,1.2,5.5,3,7.7,5.2c0.4,0.4,0.8,0.9,1.2,1.3h7.3c-1.5-2.4-3.4-4.6-5.5-6.6
			c-5.4-4.9-12.6-7.9-20.5-7.9C13.7,19.4,0,33.1,0,50s13.7,30.6,30.6,30.6c7.9,0,15.1-3,20.5-7.9c3.1-2.8,5.6-6.3,7.4-10.1
			c1.1-2.5,1.9-5.1,2.3-7.9c0.2-1.5,0.3-3.1,0.3-4.6c0-0.2,0-0.4,0-0.7L69.5,49.3L69.5,49.3z"/>
		<path class="st0" d="M77.4,54.6l-5.1,7.9h-8.1c0.9-2.5,1.6-5.1,1.9-7.8v-0.1C66.1,54.6,77.4,54.6,77.4,54.6z"/>
		<path class="st1" d="M43.3,51.5c-0.7,0-1.2,0-1.7,0c0-1.1,0.1-2.2,0.1-3.4c0.1-1.3,0.1-2.7,0.2-4.1c0.1-1.1,0.1-2.3,0.2-3.6
			c-1,0-1.9,0-2.6,0c-0.8,0-1.8,0-3,0c-0.5,0.7-0.9,1.3-1.2,1.8c-0.3,0.4-0.6,0.9-0.9,1.3L34,44l-2.9,3.9c-0.6,0.8-1,1.4-1.3,1.8
			l-1,1.3c0,0.4,0,1-0.1,2c0,1-0.1,1.5-0.1,1.7h1.9h3h0.6h3l0,0v0.1c0,0.2,0,0.3,0,0.5c0,0,0,0,0,0.1l0,0l0,0v0.1v0.1
			c0,0.2,0,0.3,0,0.5v0.1c0,0,0,0,0,0.1v0.1c0,0.1,0,0.2,0,0.3l0,0v0.1l0,0c0,0,0,0,0,0.1V57c0,0.1,0,0.2,0,0.3s0,0.3,0,0.4
			c0,0.1,0,0.2,0,0.3c0,0.2,0,0.5-0.1,0.7c0,0.1,0,0.1,0,0.2c0,0,0,0,0,0.1l0,0c0,0.1,0,0.2,0,0.3c0,0,0,0,0,0.1s0,0.3,0,0.4l0,0
			v0.1c0,0.1,0,0.3,0,0.4c0,0.2,0,0.4,0,0.5c0.9,0,1.7,0,2.3,0c0.7,0,1.4,0,2.2,0V60c0-0.4,0-1.1,0-2.1s0-1.6,0-2v-0.1v-0.1
			c0-0.1,0-0.1,0-0.2c0-0.1,0-0.2,0-0.3s0-0.3,0-0.5v-0.1h3.4v-0.5c0-1,0-1.9,0-2.7C44.6,51.5,44.1,51.5,43.3,51.5z M38.1,43.9
			l-0.3,6.7c0,0.1,0,0.4,0,1h-5.6l2.9-4c0.4-0.6,1.3-1.8,2.6-3.7c0.1-0.2,0.3-0.4,0.4-0.6L38.1,43.9z"/>
		<path class="st0" d="M61.1,49.3c0,0.2,0,0.4,0,0.7c0,1.6-0.1,3.1-0.3,4.6c-0.4,2.8-1.2,5.4-2.3,7.9c-1.7,3.9-4.3,7.3-7.4,10.1
			c-5.4,4.9-12.6,7.9-20.5,7.9C13.7,80.6,0,66.9,0,50s13.7-30.6,30.6-30.6c7.9,0,15.1,3,20.5,7.9c2.1,1.9,4,4.1,5.5,6.6h-7.3
			c-0.4-0.4-0.8-0.9-1.2-1.3c-2.3-2.3-4.9-4-7.7-5.2c-3-1.3-6.3-2-9.7-2c-6.6,0-12.8,2.6-17.4,7.2C8.5,37.2,5.9,43.4,5.9,50
			s2.6,12.8,7.2,17.4c4.7,4.7,10.9,7.2,17.4,7.2c3.4,0,6.7-0.7,9.7-2c2.8-1.2,5.5-3,7.7-5.2c1.5-1.5,2.8-3.1,3.8-4.9
			c1.4-2.4,2.4-5.1,3-7.9c0.3-1.5,0.4-3.1,0.4-4.6c0-0.2,0-0.4,0-0.7h-7.4l5-5.4l1.2-1.3l4.5-4.8l0,0l5.8,6.2l1.9,2l3.1,3.4h-8.1
			C61.1,49.4,61.1,49.3,61.1,49.3z"/>
	</g>
	<g>
		<path class="st1" d="M25.6,44.6c0,0.4,0,0.8-0.1,1.1c-0.1,0.4-0.2,0.7-0.3,1c-0.3,0.6-0.6,1.2-1,1.9c-0.4,0.6-1.1,1.5-1.9,2.5
			c-0.9,1-1.8,2.1-2.9,3.2c-1,1.1-2.2,2.3-3.5,3.5h1.4h3.3c1.1,0,1.9,0,2.4,0s1.1-0.1,1.9-0.1c0,0.3-0.1,0.7-0.1,1.2s-0.1,1.2-0.2,2
			c-2.3,0-4.6,0-7.1,0c-1,0-2,0-3,0c-0.6,0-1.3,0-1.9,0h-0.1h-0.1c-0.1,0-0.3,0-0.4,0c-0.1,0-0.3,0-0.4,0c-0.1,0-0.3,0-0.4,0
			c-0.1,0-0.3,0-0.4,0l0,0c-0.1,0-0.3,0-0.4,0l0,0l0,0c-0.1,0-0.1,0-0.2,0c-0.1,0-0.1,0-0.2,0c0-0.4,0-0.7,0-0.9l0.1-2.2
			c0.2-0.2,0.4-0.3,0.5-0.5l0,0c0.1-0.1,0.2-0.1,0.2-0.2l0,0c0.4-0.4,0.8-0.8,1.2-1.2c0.5-0.5,1-0.9,1.4-1.4c1-1,2.1-2.2,3.2-3.4
			s1.9-2.2,2.4-2.9c0.4-0.6,0.7-1,0.9-1.3c0.2-0.3,0.2-0.5,0.3-0.7c0.1-0.2,0.1-0.4,0.1-0.6c0-0.5-0.2-1-0.5-1.3s-0.8-0.6-1.4-0.8
			s-1.2-0.3-2-0.3c-0.7,0-1.5,0.1-2.3,0.2H14l0,0c-0.1,0-0.1,0-0.2,0h-0.1h-0.1h-0.1c-0.1,0-0.1,0-0.2,0c-0.1,0-0.2,0-0.3,0.1h-0.1
			c-0.1,0-0.2,0-0.3,0.1l0,0h-0.1c-0.1,0-0.1,0-0.2,0h-0.1h-0.1H12h-0.1h-0.1c-0.1,0-0.2,0.1-0.4,0.1c-0.1,0-0.2,0-0.2,0.1l0.3-1.5
			c0.1-0.4,0.1-1,0.3-1.8c0.1,0,0.3-0.1,0.4-0.1c0.1,0,0.2,0,0.4-0.1l0,0c0,0,0,0,0.1,0s0.1,0,0.2,0c0,0,0,0,0.1,0s0.1,0,0.2,0
			c0.1,0,0.2,0,0.3,0s0.1,0,0.2,0c0.1,0,0.2,0,0.3,0h0.1c0.1,0,0.2,0,0.2,0l0,0l0,0c0.1,0,0.1,0,0.2,0l0,0c0.1,0,0.2,0,0.3,0
			s0.3,0,0.4,0c0,0,0,0,0.1,0s0.2,0,0.3,0h0.1c0.1,0,0.2,0,0.3,0l0,0c0.1,0,0.2,0,0.3,0h0.1l0,0h0.1c0.1,0,0.2,0,0.3,0l0,0
			c0.1,0,0.2,0,0.3,0c0.1,0,0.1,0,0.2,0c0.2,0,0.4,0,0.6,0c0.1,0,0.1,0,0.2,0l0,0c0.1,0,0.2,0,0.3,0c1,0,1.9,0.1,2.8,0.3
			s1.7,0.5,2.4,0.9c0.7,0.4,1.2,1,1.5,1.5C25.5,43.3,25.6,44,25.6,44.6z"/>
	</g>
</g>
</svg>
