<?xml version="1.0" encoding="utf-8"?>
<!-- Generator: Adobe Illustrator 18.1.1, SVG Export Plug-In . SVG Version: 6.00 Build 0)  -->
<svg version="1.1" id="Layer_1" xmlns="http://www.w3.org/2000/svg" xmlns:xlink="http://www.w3.org/1999/xlink" x="0px" y="0px"
	 viewBox="0 0 100 100" style="enable-background:new 0 0 100 100;" xml:space="preserve">
<style type="text/css">
	.st0{fill:#545758;}
	.st1{fill:#FAC312;}
</style>
<g>
	<path class="st0" d="M94.1,44.3v7.8H74.8c-0.4-2.7-1.2-5.3-2.2-7.8H94.1z"/>
	<path class="st1" d="M84.7,60v7.8H73.6c0.8-2.5,1.3-5.1,1.5-7.8C75.1,60,84.7,60,84.7,60z"/>
	<path class="st0" d="M94.1,76.7v7.8H61.4c1.4-1,2.8-2.2,4-3.4c1.3-1.3,2.6-2.8,3.7-4.3L94.1,76.7L94.1,76.7z"/>
	<rect x="35.4" y="13" class="st0" width="14.5" height="9.7"/>
	
		<rect x="7.2" y="23.9" transform="matrix(-0.7071 0.7071 -0.7071 -0.7071 45.032 38.8302)" class="st0" width="14.5" height="9.7"/>
	
		<rect x="63" y="25.2" transform="matrix(-0.7071 -0.7071 0.7071 -0.7071 98.7294 100.9587)" class="st0" width="14.5" height="9.7"/>
	<g>
		<path class="st0" d="M71.3,57.3c0,0.9,0,1.8-0.1,2.7c-0.2,2.7-0.8,5.3-1.8,7.8c-1.2,3.3-3.1,6.4-5.4,9c-2.9,3.3-6.5,6-10.6,7.8
			c-3.6,1.6-7.6,2.5-11.8,2.5c-12.7,0-23.5-7.9-27.7-19.1h5.9c3.9,8,12.2,13.6,21.8,13.6c3.4,0,6.7-0.7,9.7-2
			c3.4-1.5,6.3-3.7,8.7-6.4c1.9-2.2,3.4-4.6,4.4-7.3c0.8-2,1.3-4.2,1.5-6.4c0.1-0.7,0.1-1.4,0.1-2.2c0-1.5-0.1-2.9-0.4-4.3
			c-0.4-2.2-1.1-4.4-2.1-6.4c-4-8-12.3-13.6-21.9-13.6c-12,0-22,8.7-23.9,20.2h5.7l-5.9,6.6l-2.3,2.6L12,59l-5.1-5.7h5.4
			c2-14.5,14.4-25.6,29.4-25.6c11.7,0,21.8,6.8,26.7,16.6c1.2,2.4,2.1,5.1,2.6,7.8C71.1,53.8,71.3,55.5,71.3,57.3z"/>
	</g>
	<g>
		<path class="st1" d="M30.4,62.5c3.9-2.3,6.6-4.3,8.1-5.8c1.5-1.6,2.2-3.3,2.2-5.3c0-1.9-0.7-3.6-2.1-4.9c-1.4-1.4-3.4-2.1-6-2.1
			c-4.7,0-7.5,2.4-8.6,7.3l4.6,1c0.3-2.8,1.6-4.2,3.8-4.2c0.9,0,1.7,0.3,2.2,0.8c0.6,0.6,0.8,1.3,0.8,2.1c0,1.2-0.7,2.5-2.1,3.9
			c-1.4,1.4-3.6,3.2-6.7,5.4c-1.2,0.9-2.1,1.5-2.7,1.9v4.3h16.7l0.4-4.4H30.4z"/>
		<path class="st1" d="M58,57.9V44.3h-6l-9,13.5v3.9h9.7v5.1H58v-5.1h3.1v-3.9L58,57.9L58,57.9z M53,49.3c0,0.4,0,0.8,0,1.1v7.5h-6
			l6.1-9.5L53,49.3z"/>
	</g>
</g>
</svg>
