<?xml version="1.0" encoding="utf-8"?>
<!-- Generator: Adobe Illustrator 18.1.1, SVG Export Plug-In . SVG Version: 6.00 Build 0)  -->
<svg version="1.1" id="Layer_1" xmlns="http://www.w3.org/2000/svg" xmlns:xlink="http://www.w3.org/1999/xlink" x="0px" y="0px"
	 viewBox="0 0 100 100" style="enable-background:new 0 0 100 100;" xml:space="preserve">
<style type="text/css">
	.st0{fill:#FAC312;}
	.st1{fill:#545758;}
</style>
<g>
	<polygon class="st0" points="90.6,51.2 50,13 9.4,51.2 32.3,45.9 32.3,59.5 67.7,59.5 67.7,45.9 	"/>
	<g>
		<path class="st1" d="M20.4,63.6v4.6h5.7v18.5h5.5V68.2h5.7v-4.6H20.4z"/>
		<path class="st1" d="M55.7,66.8c-1.6-2.4-4.1-3.6-7.3-3.6c-3.2,0-5.6,1.1-7.4,3.4c-1.7,2.3-2.6,5.1-2.6,8.4c0,3.3,0.8,6.1,2.5,8.5
			c1.7,2.3,4.1,3.5,7.2,3.5c3.2,0,5.7-1.1,7.4-3.4c1.7-2.3,2.5-5.1,2.5-8.5C58.2,72,57.4,69.3,55.7,66.8z M48.4,82.6
			c-2.8,0-4.2-2.5-4.2-7.5c0-5,1.4-7.5,4.2-7.5c2.7,0,4.1,2.5,4.1,7.5C52.5,80.1,51.2,82.6,48.4,82.6z"/>
		<path class="st1" d="M78.3,66.6c-0.8-1.1-1.8-1.9-2.9-2.3c-1.1-0.4-2.6-0.6-4.7-0.6h-9.1v23h5.5v-8.6H71c1.6,0,2.9-0.1,3.6-0.3
			c0.8-0.2,1.6-0.6,2.4-1.2c0.8-0.6,1.5-1.5,1.9-2.5c0.5-1.1,0.7-2.2,0.7-3.3C79.6,69.1,79.2,67.7,78.3,66.6z M73.4,73
			c-0.5,0.6-1.5,0.9-2.8,0.9H67v-6.1h3.5c1.2,0,2.1,0.3,2.7,0.8c0.6,0.6,0.9,1.3,0.9,2.2C74.2,71.6,73.9,72.4,73.4,73z"/>
	</g>
</g>
</svg>
