<?xml version="1.0" encoding="utf-8"?>
<!-- Generator: Adobe Illustrator 18.1.1, SVG Export Plug-In . SVG Version: 6.00 Build 0)  -->
<svg version="1.1" id="Layer_1" xmlns="http://www.w3.org/2000/svg" xmlns:xlink="http://www.w3.org/1999/xlink" x="0px" y="0px"
	 viewBox="0 0 100 100" style="enable-background:new 0 0 100 100;" xml:space="preserve">
<style type="text/css">
	.st0{fill:#545758;}
	.st1{fill:#FAC312;}
</style>
<g>
	<path class="st0" d="M96.5,44.3v7.8h-24c-0.4-2.7-1.2-5.3-2.2-7.8H96.5z"/>
	<path class="st0" d="M87.1,60v7.8H71.2c0.8-2.5,1.3-5.1,1.6-7.8H87.1z"/>
	<path class="st0" d="M96.5,76.8v7.8H59c1.4-1,2.8-2.2,4-3.5c1.3-1.3,2.6-2.8,3.7-4.3H96.5z"/>
	<path class="st0" d="M43.5,59.4l5.7-8.9l0,0.9c0,0.4,0,0.7,0,1v7.1H43.5z"/>
	<path class="st0" d="M68.5,52.1c-0.5-2.7-1.4-5.4-2.6-7.8C61.1,34.5,51,27.7,39.3,27.7C23,27.7,9.7,41,9.7,57.4
		C9.7,73.7,23,87,39.3,87c4.2,0,8.2-0.9,11.8-2.4c4.1-1.8,7.7-4.5,10.6-7.8c2.3-2.6,4.1-5.7,5.3-9c0.9-2.5,1.5-5.1,1.8-7.8
		c0.1-0.9,0.1-1.8,0.1-2.6C69,55.6,68.8,53.8,68.5,52.1z M37.6,67.9H21.9v-4.1c0.5-0.4,1.4-1,2.5-1.8c2.9-2,5-3.7,6.3-5
		c1.3-1.3,2-2.5,2-3.6c0-0.8-0.3-1.5-0.8-2c-0.5-0.5-1.2-0.8-2.1-0.8c-2,0-3.2,1.3-3.6,4l-4.3-1c1-4.6,3.7-6.9,8.1-6.9
		c2.5,0,4.4,0.6,5.7,1.9c1.3,1.3,2,2.8,2,4.6c0,1.9-0.7,3.5-2.1,5c-1.4,1.5-3.9,3.3-7.6,5.5h10L37.6,67.9z M56.8,63.1h-2.9v4.8h-4.9
		v-4.8h-9.1v-3.7l8.4-12.7h5.6v12.7h2.9V63.1z"/>
	<rect x="33" y="13" class="st1" width="14.5" height="9.7"/>
	
		<rect x="4.8" y="23.9" transform="matrix(0.7071 -0.7071 0.7071 0.7071 -16.7907 16.9367)" class="st1" width="14.5" height="9.7"/>
	
		<rect x="60.7" y="25.3" transform="matrix(0.7071 0.7071 -0.7071 0.7071 41.1817 -39.2351)" class="st1" width="14.5" height="9.7"/>
</g>
</svg>
