<?xml version="1.0" encoding="utf-8"?>
<!-- Generator: Adobe Illustrator 18.1.1, SVG Export Plug-In . SVG Version: 6.00 Build 0)  -->
<svg version="1.1" id="Layer_1" xmlns="http://www.w3.org/2000/svg" xmlns:xlink="http://www.w3.org/1999/xlink" x="0px" y="0px"
	 viewBox="0 0 100 100" style="enable-background:new 0 0 100 100;" xml:space="preserve">
<style type="text/css">
	.st1{fill:#FAC312;}
	.st0{fill:#545758;}
</style>
<g>
	<path class="st1" d="M66.5,74.7c-8.2,0-8.2-8.7-16.5-8.7c-8.2,0-8.2,8.7-16.5,8.7c-8.2,0-8.2-8.7-16.4-8.7v21h65.7V66
		C74.7,66.1,74.7,74.7,66.5,74.7z"/>
	<path class="st0" d="M72,41.6h-7.2v1.1l2.5,1.5l-14.8,8.1V34.7l5.5-2.4v-2.6h-5.5v-3.8c2.4-1,4.2-3.4,4.2-6.2c0-3.7-3-6.7-6.7-6.7
		c-3.7,0-6.7,3-6.7,6.7c0,2.8,1.7,5.2,4.2,6.2v3.8H42v2.6l5.5,2.4v17.6l-14.8-8.1l2.5-1.5v-1.1H28c0,0-1.2,2.4,1.7,4.5
		c2.8,2.1,18.7,13.9,20.2,15.1c1.5-1.1,17.5-13,20.2-15.1C73.1,44,72,41.6,72,41.6z M47.2,19.7c0-1.5,1.2-2.8,2.8-2.8
		s2.8,1.2,2.8,2.8c0,1.5-1.2,2.8-2.8,2.8S47.2,21.2,47.2,19.7z"/>
</g>
</svg>
