<?xml version="1.0" encoding="utf-8"?>
<!-- Generator: Adobe Illustrator 18.1.1, SVG Export Plug-In . SVG Version: 6.00 Build 0)  -->
<svg version="1.1" id="Layer_1" xmlns="http://www.w3.org/2000/svg" xmlns:xlink="http://www.w3.org/1999/xlink" x="0px" y="0px"
	 viewBox="0 0 100 100" style="enable-background:new 0 0 100 100;" xml:space="preserve">
<style type="text/css">
	.st0{fill:#545758;}
	.st1{fill:#FAC312;}
</style>
<g>
	<g>
		<path class="st0" d="M100,60.9l-5.6,20c0,0-1.8,6.1-8,6.1c-16.6,0-61.6,0-67,0c-6.6,0-8.8-6.6-8.8-6.6L4.1,63.8H4l-3-7.7
			c-1.4-3.4-1.3-6.8,0.4-9.2c1.1-1.6,3.3-3.5,7.7-3.5h10.5l1.5-4.9c0.6-2.1,2.7-5.5,7-5.5h1.4V12.9h5v20.1h10.5l-0.5,3.3h4.9v-11
			h11.4l5.9,11h6.2l2.4,4.1h3.2V25.4h5v15.1h4.9v6.4l4,0l0,14.1H100z M78.2,77.1c0-1.4-1.1-2.5-2.5-2.5H20.7c-1.4,0-2.5,1.1-2.5,2.5
			c0,1.4,1.1,2.5,2.5,2.5h54.9C77,79.6,78.2,78.5,78.2,77.1z M86.5,52.6l-4,0v-6.4H71.9L69.5,42H37.8l0.5-3.3H28.1
			c-1,0-1.4,0.9-1.5,1.3l-2.8,9.1H9.1c-1.1,0-2.4,0.2-3,1c-0.5,0.8-0.4,2.3,0.2,3.9l1.6,4.1l78.6,0L86.5,52.6z"/>
	</g>
	<rect x="44.3" y="47.5" class="st1" width="11.7" height="5.7"/>
	<rect x="58.1" y="47.5" class="st1" width="11.7" height="5.7"/>
	<rect x="30.7" y="47.3" class="st1" width="11.7" height="5.7"/>
</g>
</svg>
