<?xml version="1.0" encoding="utf-8"?>
<!-- Generator: Adobe Illustrator 18.1.1, SVG Export Plug-In . SVG Version: 6.00 Build 0)  -->
<svg version="1.1" id="Layer_1" xmlns="http://www.w3.org/2000/svg" xmlns:xlink="http://www.w3.org/1999/xlink" x="0px" y="0px"
	 viewBox="0 0 100 100" style="enable-background:new 0 0 100 100;" xml:space="preserve">
<style type="text/css">
	.st0{fill:#545758;}
	.st1{fill:#FAC312;}
</style>
<g>
	<path class="st0" d="M40.4,28.4l-3.6,10.3L50,34.1l13.2,4.6l-3.6-10.3h2.8l3.4-2.1v-2.1h-7v-2.9l-6.2-1.8l-0.8-6.6h-3.6l-0.8,6.6
		l-6.2,1.8v2.9h-7v2.1l3.4,2.1H40.4z M45.7,26.1h8.7l1.5,4.3H44.2L45.7,26.1z"/>
	<path class="st1" d="M39,68.1c2.2-2.3,5.2-5.5,11-5.5c5.8,0,8.8,3.2,11,5.5c0.9,0.9,1.5,1.6,2.2,2.1c4.3-4.6,7.9-12.1,7.6-24.3
		C61.3,42.5,50,38.5,50,38.5s-11.3,4-20.8,7.3c-0.3,12.1,3.3,19.6,7.6,24.3C37.4,69.7,38.1,69,39,68.1z M50,43l4.2,1.5
		c0,0-4.2,13.5-4.2,13.5c0,0-4.2-13.5-4.2-13.5L50,43z"/>
	<path class="st0" d="M66,75.2c-8,0-8-8.4-16-8.4c-8,0-8,8.4-16,8.4c-8,0-8-8.4-15.9-8.4v20.3h63.7V66.7
		C73.9,66.8,73.9,75.2,66,75.2z"/>
</g>
</svg>
