<?xml version="1.0" encoding="utf-8"?>
<!-- Generator: Adobe Illustrator 18.1.1, SVG Export Plug-In . SVG Version: 6.00 Build 0)  -->
<svg version="1.1" id="Layer_1" xmlns="http://www.w3.org/2000/svg" xmlns:xlink="http://www.w3.org/1999/xlink" x="0px" y="0px"
	 viewBox="0 0 100 100" style="enable-background:new 0 0 100 100;" xml:space="preserve">
<style type="text/css">
	.st0{fill:#545758;}
	.st1{fill:#FAC312;}
</style>
<g>
	<g>
		<path class="st0" d="M45.9,52.3c-0.8-1.1-4.9-0.9-9.6,0.5c-4.9,1.5-8.6,3.8-8.2,5.2c-1.5-2.7-2.6-5.7-3.1-9
			c-1.4-8.5,1.6-16.2,6.1-20.9c4.5-4.9,10.4-6.9,15.3-7C41,31.2,41.2,42.7,45.9,52.3z"/>
		<path class="st0" d="M28.1,58c0.1,0.1,0.1,0.2,0.2,0.3C28.1,58.2,28.1,58.1,28.1,58z"/>
		<path class="st0" d="M46,52.5c0-0.1-0.1-0.1-0.1-0.2C45.9,52.3,45.9,52.4,46,52.5z"/>
		<path class="st0" d="M28.2,58.3c-0.1-0.1-0.1-0.2-0.2-0.3C28.1,58.1,28.2,58.2,28.2,58.3z"/>
	</g>
	<path class="st0" d="M90.3,59.5v9.3c0,1.1-0.2,2.1-0.7,3c-4.6,2.6-9.4,3.9-14.9,3.9c-7.1,0-14.4-2.2-21.5-4.2
		C46,69.3,38.4,67,30.8,67c-4.4,0-8.5,0.7-12.4,2.3L14,64.7c0,0,0,0,0,0l-4.9-5.1H90.3z"/>
	<rect x="47.5" y="13.5" class="st0" width="1.5" height="44"/>
	<path class="st1" d="M65.7,13v12.1c-0.4,0.2-0.5,0.3-0.9,0.4c-1.9,0.8-4.1,1-5.9-0.3c-1.3-0.9-2-2.4-3.7-1.8
		c-1.5,0.5-2.6,1.4-3.9,2.4c-0.1,0-0.1,0.1-0.2,0.1V14.5c0.6-0.6,1.4-1,2.1-1.2c1.8-0.6,3.4,0.1,5.1,0.8c1.4,0.6,2.7,1.4,4.2,1
		C63.8,14.8,64.8,14,65.7,13z"/>
	<g>
		<path class="st0" d="M90.9,74.9v2.4c-12.4,7.3-24.8,3.9-37.1,0.3c-10.6-3.1-21.2-6.4-31.8-3.4c-2.4,0.7-4.8,1.7-7.2,3.1
			c0-0.8,0-1.6,0-2.4c1.7-1,3.4-1.8,5.2-2.5c14.2-5.2,28.4,1.7,42.6,5.1C71.9,79.8,81.4,80.4,90.9,74.9z"/>
	</g>
	<g>
		<path class="st0" d="M90.9,80.4v2.4c-25.4,15-50.8-15-76.2,0c0-0.8,0-1.6,0-2.4c3.5-2,6.9-3.2,10.4-3.8c6.7-1.2,13.3-0.1,20,1.7
			C60.3,82.1,75.6,89.4,90.9,80.4z"/>
	</g>
	<path class="st0" d="M81.4,57.4c-1.8-1.9-6.8-3.9-15.1-3.9c-8.4,0-15.1,1.7-15.1,3.9V26.7L81.4,57.4z"/>
</g>
</svg>
