<?xml version="1.0" encoding="utf-8"?>
<!-- Generator: Adobe Illustrator 18.1.1, SVG Export Plug-In . SVG Version: 6.00 Build 0)  -->
<svg version="1.1" id="Layer_1" xmlns="http://www.w3.org/2000/svg" xmlns:xlink="http://www.w3.org/1999/xlink" x="0px" y="0px"
	 viewBox="0 0 100 100" style="enable-background:new 0 0 100 100;" xml:space="preserve">
<style type="text/css">
	.st0{fill:#545758;}
	.st1{fill:#FAC312;}
</style>
<g>
	<path class="st0" d="M36.3,27.3v12.2c1.1-0.4,2.2-0.8,3.3-1.2c3.3-1.3,6.8-2.5,10.4-2.5c3.6,0,7.1,1.3,10.4,2.5
		c1.1,0.4,2.2,0.8,3.3,1.2V27.3H36.3z M48.3,32.2H39v-2.5h9.3V32.2z M60.9,32.2h-9.3v-2.5h9.3V32.2z"/>
	<path class="st0" d="M69,43c-2.2,9.2-4.3,18.4-6.5,27.6H37.3C35.2,61.4,33,52.2,30.8,43c6.4,0,12.7-4.8,19.1-4.8
		C56.3,38.2,62.7,43,69,43z"/>
	<g>
		<path class="st0" d="M71.5,79.7v2.2c-2.2-0.6-4.4-1.2-6.6-1.9c-9.9-2.9-19.7-6-29.6-3.2c-2.2,0.6-4.5,1.6-6.7,2.9v-2.2
			c1.6-0.9,3.2-1.7,4.8-2.3C46,70.6,58.8,76.4,71.5,79.7z"/>
	</g>
	<g>
		<path class="st0" d="M71.5,84.8V87c-14.3-3.6-28.6-10.5-42.9-2.1v-2.2c3.2-1.9,6.4-3,9.6-3.6c6.2-1.1,12.4-0.1,18.6,1.5
			C61.7,81.9,66.6,83.5,71.5,84.8z"/>
	</g>
	<rect x="48.3" y="13" class="st0" width="3.2" height="12.2"/>
	<path class="st1" d="M67.2,13v11.3c-0.3,0.2-0.5,0.2-0.8,0.4c-1.8,0.7-3.8,0.9-5.5-0.2c-1.2-0.8-1.9-2.2-3.4-1.7
		c-1.4,0.5-2.5,1.3-3.7,2.2c-0.1,0-0.1,0.1-0.2,0.1V14.5c0.6-0.5,1.3-0.9,2-1.1c1.7-0.6,3.2,0.1,4.7,0.8c1.3,0.6,2.5,1.3,3.9,0.9
		C65.5,14.8,66.4,14,67.2,13z"/>
</g>
</svg>
