<?xml version="1.0" encoding="utf-8"?>
<!-- Generator: Adobe Illustrator 18.1.1, SVG Export Plug-In . SVG Version: 6.00 Build 0)  -->
<svg version="1.1" id="Layer_1" xmlns="http://www.w3.org/2000/svg" xmlns:xlink="http://www.w3.org/1999/xlink" x="0px" y="0px"
	 viewBox="0 0 100 100" style="enable-background:new 0 0 100 100;" xml:space="preserve">
<style type="text/css">
	.st1{fill:#FAC312;}
	.st0{fill:#595A5C;}
</style>
<g>
	<path class="st1" d="M48.4,23.9v3.4c-3.8,0.3-7.3,1.6-10.8,2.9c-2,0.7-3.9,1.5-5.7,1.9v-8.3H48.4z"/>
	<path class="st1" d="M67.9,23.9v8.3c-1.8-0.5-3.8-1.2-5.7-1.9c-3.5-1.3-7-2.6-10.8-2.9v-3.4H67.9z"/>
	<rect x="31.9" y="12.9" class="st1" width="16.5" height="8.4"/>
	<rect x="51.4" y="12.9" class="st1" width="16.5" height="8.4"/>
	<path class="st0" d="M71.9,36.4c-2.5,10.6-5,21.2-7.5,31.8h-29c-2.5-10.6-5-21.2-7.5-31.8c4.9,0,9.8-2.5,14.8-4.1
		c1.9-0.6,3.8-1.1,5.7-1.3c0.5,0,1-0.1,1.5-0.1c0.5,0,1,0,1.5,0.1c1.9,0.2,3.8,0.7,5.7,1.3C62.1,33.9,67,36.4,71.9,36.4z"/>
	<g>
		<path class="st0" d="M74.7,78.6v2.5c-2.5-0.6-5.1-1.4-7.6-2.1c-11.4-3.3-22.7-6.9-34.1-3.6c-2.6,0.7-5.1,1.8-7.7,3.3v-2.5
			c1.8-1.1,3.7-2,5.5-2.6c2.5-0.9,5-1.5,7.4-1.8c2.9-0.3,5.9-0.3,8.8,0C56.3,72.8,65.5,76.3,74.7,78.6z"/>
	</g>
	<g>
		<path class="st0" d="M74.7,84.5v2.5c-16.5-4.2-32.9-12.1-49.4-2.4v-2.5c3.7-2.2,7.4-3.5,11.1-4.1c7.1-1.2,14.3-0.1,21.4,1.8
			C63.4,81.2,69.1,83.1,74.7,84.5z"/>
	</g>
</g>
</svg>
