<?xml version="1.0" encoding="utf-8"?>
<!-- Generator: Adobe Illustrator 18.1.1, SVG Export Plug-In . SVG Version: 6.00 Build 0)  -->
<svg version="1.1" id="Layer_1" xmlns="http://www.w3.org/2000/svg" xmlns:xlink="http://www.w3.org/1999/xlink" x="0px" y="0px"
	 viewBox="0 0 100 100" style="enable-background:new 0 0 100 100;" xml:space="preserve">
<style type="text/css">
	.st0{fill:#545758;}
	.st1{fill:#FAC312;}
</style>
<g>
	<rect y="19.3" class="st0" width="6.8" height="61.4"/>
	<rect x="26.1" y="19.3" class="st0" width="6.8" height="61.4"/>
	<path class="st0" d="M64.8,70.4v10.3H58V69.3C60.2,69.9,62.5,70.3,64.8,70.4z"/>
	<rect x="10.3" y="19.3" class="st0" width="3.4" height="61.4"/>
	<rect x="16.6" y="19.3" class="st0" width="3.4" height="61.4"/>
	<path class="st0" d="M49.2,19.3v4.6c-0.7,0.6-1.4,1.2-2,1.8c-0.5,0.5-0.9,1-1.4,1.5v-7.9H49.2z"/>
	<path class="st0" d="M49.2,64.6v16.1h-3.4V61.3c0.4,0.5,0.9,1,1.4,1.5C47.8,63.4,48.5,64,49.2,64.6z"/>
	<path class="st0" d="M55.2,19.3v0.9c-1.2,0.5-2.3,1.1-3.4,1.8v-2.7C51.8,19.3,55.2,19.3,55.2,19.3z"/>
	<path class="st0" d="M55.2,68.2v12.5h-3.4V66.4C52.9,67.1,54,67.7,55.2,68.2z"/>
	<g>
		<path class="st1" d="M87.7,46.1c0.5-6.4-1.8-12.9-6.4-17.4C63,10.3,33,34.9,47.3,56.4C53.7,66.1,67,69.1,77,63.2
			c3,0.7,1,3.3,3.9,0.4c1.9-1.9,3.9-3.9,5.8-5.8c-1.4-1.4-2.4-1.5-1.4-3.4C86.6,51.8,87.4,49,87.7,46.1z M76.6,55L76.6,55
			c-14,13.9-35.7-7.6-21.7-21.6S90.4,41.1,76.6,55z"/>
		
			<rect x="85.3" y="61.3" transform="matrix(-0.7071 0.7072 -0.7072 -0.7071 203.6803 54.217)" class="st0" width="10.6" height="16"/>
	</g>
	<rect x="36.1" y="19.3" class="st0" width="2.1" height="61.4"/>
</g>
</svg>
