<?xml version="1.0" encoding="utf-8"?>
<!-- Generator: Adobe Illustrator 18.1.1, SVG Export Plug-In . SVG Version: 6.00 Build 0)  -->
<svg version="1.1" id="Layer_1" xmlns="http://www.w3.org/2000/svg" xmlns:xlink="http://www.w3.org/1999/xlink" x="0px" y="0px"
	 viewBox="0 0 100 100" style="enable-background:new 0 0 100 100;" xml:space="preserve">
<style type="text/css">
	.st0{fill:#545758;}
	.st1{fill:#FAC312;}
</style>
<g>
	<path class="st0" d="M78.1,20.7h-10v-4.1c0-2-2-3.7-4.5-3.7H37.1c-2.5,0-4.5,1.6-4.5,3.7v4.1H21.9c-2.5,0-4.5,1.6-4.5,3.7v59
		c0,2,2,3.7,4.5,3.7h56.3c2.5,0,4.5-1.6,4.5-3.7v-59C82.6,22.4,80.6,20.7,78.1,20.7z M38.2,16.5h24.2v4.2H38.2V16.5z M75.9,81.5
		H24.1V29.2h28.8L40.3,39.5l-1.4-6.2L34,34.2l2.1,8.9l0.4,1.8l0.5,2l16.4-17.7h22.6V81.5z"/>
	<path class="st1" d="M29.1,79.1h17V66.1h-17V79.1z M32.8,69.1h9.5v7h-9.5V69.1z"/>
	<polygon class="st1" points="35.3,44.6 33.5,44.6 33.5,37.6 33.6,37.6 32.9,34.5 29.7,34.5 29.7,47.6 36,47.6 	"/>
	<polygon class="st1" points="41.1,37.6 44.8,34.5 40.3,34.5 41,37.6 	"/>
	<polygon class="st1" points="43,44.6 40.4,44.6 37.6,47.6 46.7,47.6 46.7,37.8 43,41.8 	"/>
	<path class="st1" d="M29.1,63h17V49.9h-17V63z M32.8,53h9.5v7h-9.5V53z"/>
	<rect x="50.4" y="36" class="st1" width="20.9" height="2.3"/>
	<rect x="50.4" y="40.9" class="st1" width="20.9" height="2.3"/>
	<rect x="50.4" y="52.9" class="st1" width="20.9" height="2.3"/>
	<rect x="50.4" y="57.8" class="st1" width="20.9" height="2.3"/>
	<rect x="50" y="66.8" class="st1" width="20.9" height="2.3"/>
	<rect x="50" y="71.7" class="st1" width="20.9" height="2.3"/>
</g>
</svg>
