<?xml version="1.0" encoding="utf-8"?>
<!-- Generator: Adobe Illustrator 18.1.1, SVG Export Plug-In . SVG Version: 6.00 Build 0)  -->
<svg version="1.1" id="Layer_1" xmlns="http://www.w3.org/2000/svg" xmlns:xlink="http://www.w3.org/1999/xlink" x="0px" y="0px"
	 viewBox="0 0 100 100" style="enable-background:new 0 0 100 100;" xml:space="preserve">
<style type="text/css">
	.st1{fill:#FAC312;}
	.st0{fill:#545758;}
</style>
<g>
	<path class="st1" d="M79.1,76.4v-4.3H20.9v4.3h3.7v6.3h-3.7V87h58.1v-4.3h-3.7v-6.3H79.1z M68.3,82.7H31.7v-6.3h36.6V82.7z"/>
	<path class="st0" d="M69.4,13H55.8c1,3.9,1.9,7.7,2.9,11.6v17.5H41.2V24.6c1-3.9,1.9-7.7,2.9-11.6H30.6c-3.2,3.9-6.5,7.7-9.7,11.6
		h0v44.5H79V24.6h0C75.8,20.7,72.6,16.9,69.4,13z M32.6,65.1h-7.4v-7.4h7.4V65.1z M43.3,65.1h-7.4v-7.4h7.4V65.1z"/>
	<path class="st1" d="M51.7,24.6V36h-3.4V24.6c0.2-3.9,0.4-7.7,0.6-11.6h2.2C51.3,16.9,51.5,20.7,51.7,24.6z"/>
</g>
</svg>
