<?xml version="1.0" encoding="utf-8"?>
<!-- Generator: Adobe Illustrator 18.1.1, SVG Export Plug-In . SVG Version: 6.00 Build 0)  -->
<svg version="1.1" id="Layer_1" xmlns="http://www.w3.org/2000/svg" xmlns:xlink="http://www.w3.org/1999/xlink" x="0px" y="0px"
	 viewBox="0 0 100 100" style="enable-background:new 0 0 100 100;" xml:space="preserve">
<style type="text/css">
	.st1{fill:#FAC312;}
	.st0{fill:#545758;}
</style>
<g>
	<g>
		<path class="st1" d="M59.4,46.1H13.9c-0.9,0-1.6,0.7-1.6,1.6v4.8c0,0.9,0.7,1.6,1.6,1.6h2.9v8.4h-2.9c-0.9,0-1.6,0.7-1.6,1.6V69
			c0,0.9,0.7,1.6,1.6,1.6h2.9V79h-2.9c-0.9,0-1.6,0.7-1.6,1.6v4.8c0,0.9,0.7,1.6,1.6,1.6h4.5h4.9h11h4.9H50h4.9h4.5
			c0.9,0,1.6-0.7,1.6-1.6v-4.8c0-0.9-0.7-1.6-1.6-1.6h-2.9v-8.4h2.9c0.9,0,1.6-0.7,1.6-1.6v-4.8c0-0.9-0.7-1.6-1.6-1.6h-2.9v-8.4
			h2.9c0.9,0,1.6-0.7,1.6-1.6v-4.8C61,46.9,60.3,46.1,59.4,46.1z M32.6,79h-7.7v-8.4h7.7V79z M32.6,62.6h-7.7v-8.4h7.7V62.6z
			 M48.4,79h-7.7v-8.4h7.7V79z M48.4,62.6h-7.7v-8.4h7.7V62.6z"/>
		<path class="st0" d="M87.7,40.3c0-0.1,0-0.1,0-0.2c0-6.1-3.4-11.2-8.2-13V21h0.6c0.8,0,1.4-0.6,1.4-1.4v-5.3
			c0-0.8-0.6-1.4-1.4-1.4h-8.7c-0.8,0-1.4,0.6-1.4,1.4v5.3c0,0.8,0.6,1.4,1.4,1.4h0.6v6.1c-4.8,1.8-8.2,7-8.2,13c0,0.1,0,0.1,0,0.2
			c0,0.1,0,0.1,0,0.2v42.4c0,2.2,1.9,4.1,4.2,4.1h15.5c2.3,0,4.2-1.8,4.2-4.1V40.5C87.7,40.5,87.7,40.4,87.7,40.3z M80.6,69.1
			c0,1.5-1.2,2.8-2.8,2.8H70c-1.5,0-2.8-1.2-2.8-2.8v-4.7h13.4V69.1z M80.6,59.1H67.2V43.9c0-1.5,1.2-2.8,2.8-2.8h7.9
			c1.5,0,2.8,1.2,2.8,2.8V59.1z"/>
	</g>
</g>
</svg>
