<?xml version="1.0" encoding="utf-8"?>
<!-- Generator: Adobe Illustrator 18.1.1, SVG Export Plug-In . SVG Version: 6.00 Build 0)  -->
<svg version="1.1" id="Layer_1" xmlns="http://www.w3.org/2000/svg" xmlns:xlink="http://www.w3.org/1999/xlink" x="0px" y="0px"
	 viewBox="0 0 100 100" style="enable-background:new 0 0 100 100;" xml:space="preserve">
<style type="text/css">
	.st0{fill:#545758;}
	.st1{fill:#FAC312;}
</style>
<g>
	<g>
		<path class="st0" d="M88.5,76.1h-77c-1.1,0-1.9,0.9-1.9,1.9v7c0,1.1,0.9,1.9,1.9,1.9h77c1.1,0,1.9-0.9,1.9-1.9v-7
			C90.4,77,89.6,76.1,88.5,76.1z"/>
		<path class="st1" d="M55.7,47.4v25.2h28.9V47.4H55.7z M84.5,62.4H55.8v-4.9h28.7V62.4z"/>
		<path class="st0" d="M86.3,23.9H56c-2.3,0-4.1,1.8-4.1,4.1S53.7,32,56,32h5.8v12H69V32h17.4c2.3,0,4.1-1.8,4.1-4.1
			S88.6,23.9,86.3,23.9z"/>
		<path class="st1" d="M19.2,72.2c0,0.1,0.1,0.2,0.2,0.2h9.2V52h-9.5V72.2z"/>
		<rect x="33.5" y="52" class="st1" width="6.8" height="20.5"/>
		<path class="st1" d="M54.7,38.2c0-0.1-0.1-0.2-0.2-0.2h-35c-0.1,0-0.2,0.1-0.2,0.2v9h35.5V38.2z"/>
		<path class="st0" d="M17.3,21.2h16v13.4h7.2V21.2h45.8c2.3,0,4.1-1.8,4.1-4.1S88.6,13,86.3,13h-69c-2.3,0-4.1,1.8-4.1,4.1
			S15.1,21.2,17.3,21.2z"/>
		<path class="st1" d="M54.4,72.5c0.1,0,0.2-0.1,0.2-0.2V52h-9.5v20.5H54.4z"/>
	</g>
</g>
</svg>
