<?xml version="1.0" encoding="utf-8"?>
<!-- Generator: Adobe Illustrator 18.1.1, SVG Export Plug-In . SVG Version: 6.00 Build 0)  -->
<svg version="1.1" id="Layer_1" xmlns="http://www.w3.org/2000/svg" xmlns:xlink="http://www.w3.org/1999/xlink" x="0px" y="0px"
	 viewBox="0 0 100 100" style="enable-background:new 0 0 100 100;" xml:space="preserve">
<style type="text/css">
	.st0{fill:#545758;}
	.st1{fill:#FAC312;}
</style>
<g>
	<path class="st0" d="M77.5,56.6c0-15.2-12.3-27.5-27.5-27.5c-15.2,0-27.5,12.3-27.5,27.5c0,10.2,5.6,19.1,13.9,23.9
		c-2.2,2.2-4.4,4.3-6.5,6.5h40.7c-2.2-2.2-4.5-4.4-6.7-6.7C72,75.6,77.5,66.7,77.5,56.6z M71.5,51.2c0.5,1.8,0.7,3.6,0.7,5.5
		c0,2.8-0.5,5.6-1.6,8.2l-6.1-2.4c0.7-1.8,1.1-3.8,1.1-5.8c0-1.3-0.2-2.6-0.5-3.9L71.5,51.2z M61.9,37.9c2.4,1.5,4.4,3.4,6.1,5.7
		l-5.3,3.9c-1.2-1.6-2.6-3-4.3-4L61.9,37.9z M61.4,67.3l4.8,4.5c-1.9,2.1-4.2,3.7-6.7,4.9l-2.8-6C58.4,70,60,68.8,61.4,67.3z
		 M50,34.4c1.4,0,2.8,0.1,4.2,0.4L53,41.3c-1-0.2-2-0.3-3-0.3c-1,0-2,0.1-2.9,0.3l-1.2-6.5C47.2,34.6,48.6,34.4,50,34.4z M53.7,63.3
		h-7.4l3.7-22L53.7,63.3z M45.2,71.5c1.6,0.5,3.2,0.8,4.8,0.8c0.3,0,0.7,0,1,0l0.4,6.6c-0.5,0-0.9,0-1.4,0c-2.4,0-4.7-0.4-6.9-1.1
		L45.2,71.5z M38.1,37.9l3.5,5.6c-1.7,1.1-3.1,2.4-4.3,4L32,43.6C33.7,41.3,35.7,39.4,38.1,37.9z M28,59.4c-0.1-0.9-0.2-1.8-0.2-2.8
		c0-1.9,0.2-3.7,0.7-5.5l6.4,1.6c-0.3,1.3-0.5,2.6-0.5,3.9c0,0.6,0,1.3,0.1,1.9L28,59.4z M35.8,73.8c-2.2-1.8-4-4-5.3-6.4l5.8-3.2
		c1,1.7,2.2,3.3,3.7,4.5L35.8,73.8z"/>
	<polygon class="st1" points="77.5,13 22.5,13 22.5,19.8 46.2,19.8 46.2,25.6 53.8,25.6 53.8,19.8 77.5,19.8 	"/>
</g>
</svg>
