<?xml version="1.0" encoding="utf-8"?>
<!-- Generator: Adobe Illustrator 18.1.1, SVG Export Plug-In . SVG Version: 6.00 Build 0)  -->
<svg version="1.1" id="Layer_1" xmlns="http://www.w3.org/2000/svg" xmlns:xlink="http://www.w3.org/1999/xlink" x="0px" y="0px"
	 viewBox="0 0 100 100" style="enable-background:new 0 0 100 100;" xml:space="preserve">
<style type="text/css">
	.st0{fill:#545758;}
	.st1{fill:#FAC312;}
</style>
<g>
	<rect x="21.4" y="66.8" class="st0" width="57" height="13.2"/>
	<path class="st0" d="M50.2,25.7c0,0-10,11-10,16.5c0,5.5,4.5,10,10,10c5.5,0,10-4.5,10-10C60.2,36.7,50.2,25.7,50.2,25.7z
		 M41.4,42.2c0-0.9,0.3-2.1,0.9-3.3l3.4,0.6c-0.2,1.3-0.3,2.5-0.2,3.6l-3.8,1.3C41.4,43.6,41.4,42.9,41.4,42.2z M44.7,49.1
		c-1.1-0.9-2-2-2.6-3.4l3.5-1.2c0,0.2,0.1,0.4,0.1,0.5c0.3,0.9,0.6,1.7,1,2.4L44.7,49.1z M45.9,38L43,37.4c0.8-1.5,1.8-3.1,2.9-4.6
		l1,0.4C46.5,34.8,46.1,36.4,45.9,38z"/>
	<path class="st0" d="M21.4,19.8V58h57V19.8H21.4z M50.2,55.4c-9.1,0-16.4-7.4-16.4-16.5c0-9.1,7.4-16.4,16.4-16.4
		c9.1,0,16.5,7.4,16.5,16.4C66.7,48,59.3,55.4,50.2,55.4z"/>
	<g>
		<path class="st1" d="M78.3,13H38.6c0.9,1.6,1.8,3.3,2.6,5h37.1c1.2,0,2.1-1,2.1-2.2v-0.7C80.5,14,79.5,13,78.3,13L78.3,13z"/>
		<path class="st1" d="M78.3,60H57.1c0.4,1.7,0.8,3.3,1.1,5h20.1c1.2,0,2.1-1,2.1-2.1v-0.7C80.5,61,79.5,60,78.3,60L78.3,60z"/>
		<path class="st1" d="M78.3,82H60.6c0.1,1.7,0.2,3.3,0.2,5h17.5c1.2,0,2.1-1,2.1-2.1v-0.7C80.5,83,79.5,82,78.3,82L78.3,82z"/>
		<path class="st1" d="M38.6,13H21.7c-1.2,0-2.2,1-2.2,2.2v0.7c0,1.2,1,2.2,2.2,2.2h19.6C40.4,16.3,39.5,14.6,38.6,13L38.6,13z"/>
		<path class="st1" d="M57.1,60H21.7c-1.2,0-2.2,1-2.2,2.1v0.7c0,1.2,1,2.1,2.2,2.1h36.5C57.9,63.3,57.5,61.7,57.1,60L57.1,60z"/>
		<path class="st1" d="M60.6,82h-39c-1.2,0-2.2,1-2.2,2.1v0.7c0,1.2,1,2.1,2.2,2.1h39.2C60.8,85.4,60.7,83.7,60.6,82L60.6,82z"/>
	</g>
</g>
</svg>
