<?xml version="1.0" encoding="utf-8"?>
<!-- Generator: Adobe Illustrator 18.1.1, SVG Export Plug-In . SVG Version: 6.00 Build 0)  -->
<svg version="1.1" id="Layer_1" xmlns="http://www.w3.org/2000/svg" xmlns:xlink="http://www.w3.org/1999/xlink" x="0px" y="0px"
	 viewBox="0 0 100 100" style="enable-background:new 0 0 100 100;" xml:space="preserve">
<style type="text/css">
	.st0{fill:#545758;}
	.st1{fill:#FAC312;}
</style>
<g>
	<path class="st0" d="M98.6,49.8h-3v-3.2c0-1.2-1-2.2-2.2-2.2h-4.9v-1c0-1.5-1.2-2.8-2.8-2.8h-1.4v0h-2v0h-3c-1.5,0-2.8,1.2-2.8,2.8
		v11.9H100v-4C100,50.4,99.4,49.8,98.6,49.8z"/>
	<path class="st1" d="M43,42L43,42L43,30.8v-1.7h-1.6h-1.6H38h-1.6h-1.8h-1.6h-1.7h-1.6H28v1.7v9.7h-0.1v1.7H43V42z M31.2,40.5h-1.6
		v-9.7h1.6V40.5z M34.5,40.5h-1.6v-9.7h1.6V40.5z M38,40.5h-1.6v-9.7H38V40.5z M41.4,40.5h-1.6v-9.7h1.6V40.5z"/>
	<path class="st1" d="M75.5,55.8L75.5,55.8l0.1-11.2v-1.7h-1.6h-1.6h-1.7h-1.6h-1.8h-1.6h-1.7h-1.6h-1.6v1.7v9.7h-0.1V56h15.1V55.8z
		 M63.7,54.3h-1.6v-9.7h1.6V54.3z M67.1,54.3h-1.6v-9.7h1.6V54.3z M70.6,54.3h-1.6v-9.7h1.6V54.3z M73.9,54.3h-1.6v-9.7h1.6V54.3z"
		/>
	<path class="st1" d="M26.8,55.5L26.8,55.5l0.1-11.2v-1.7h-1.6h-1.6h-1.7h-1.6h-1.8h-1.6H15h-1.6h-1.6v1.7v9.7v1.7h15V55.5z
		 M15,54.1h-1.6v-9.7H15V54.1z M18.3,54.1h-1.6v-9.7h1.6V54.1z M21.8,54.1h-1.6v-9.7h1.6V54.1z M25.2,54.1h-1.6v-9.7h1.6V54.1z"/>
	<path class="st1" d="M75.8,42L75.8,42l0.1-11.2v-1.7h-1.6h-1.6h-1.7h-1.6h-1.8h-1.6H64h-1.6h-1.6v1.7v9.7v1.7h15V42z M64,40.5h-1.6
		v-9.7H64V40.5z M67.3,40.5h-1.6v-9.7h1.6V40.5z M70.8,40.5h-1.6v-9.7h1.6V40.5z M74.2,40.5h-1.6v-9.7h1.6V40.5z"/>
	<path class="st1" d="M59.2,55.5L59.2,55.5l0.1-11.2v-1.7h-1.6H56h-1.7h-1.6h-1.8h-1.6h-1.7h-1.6h-1.6v1.7v9.7h-0.1v1.7h15.1V55.5z
		 M47.4,54.1h-1.6v-9.7h1.6V54.1z M50.8,54.1h-1.6v-9.7h1.6V54.1z M54.2,54.1h-1.6v-9.7h1.6V54.1z M57.6,54.1H56v-9.7h1.6V54.1z"/>
	<path class="st1" d="M59.5,41.7L59.5,41.7l0.1-11.2v-1.7h-1.6h-1.6h-1.7h-1.6H51h-1.6h-1.7H46h-1.6v1.7v9.7h-0.1v1.7h15.1V41.7z
		 M47.7,40.2H46v-9.7h1.6V40.2z M51,40.2h-1.6v-9.7H51V40.2z M54.5,40.2h-1.6v-9.7h1.6V40.2z M57.9,40.2h-1.6v-9.7h1.6V40.2z"/>
	<path class="st1" d="M43,55.5L43,55.5L43,44.3v-1.7h-1.6h-1.6H38h-1.6h-1.8h-1.6h-1.7h-1.6H28v1.7v9.7h-0.1v1.7H43V55.5z
		 M31.2,54.1h-1.6v-9.7h1.6V54.1z M34.5,54.1h-1.6v-9.7h1.6V54.1z M38,54.1h-1.6v-9.7H38V54.1z M41.4,54.1h-1.6v-9.7h1.6V54.1z"/>
	<path class="st0" d="M10.4,50.9c0-2-1.6-3.6-3.6-3.6H0v10.2h0c0.1,1.4,0.2,2.7,0.3,3.9h98.9c0.2-1.5,0.3-3.1,0.4-4.8H10.4V50.9z"/>
	<path class="st0" d="M5,71.1h89.6c1.9,0,3.5-3.3,4.4-8.2H0.6C1.5,67.8,3.1,71.1,5,71.1z"/>
</g>
</svg>
