<?xml version="1.0" encoding="utf-8"?>
<!-- Generator: Adobe Illustrator 18.1.1, SVG Export Plug-In . SVG Version: 6.00 Build 0)  -->
<svg version="1.1" id="Layer_1" xmlns="http://www.w3.org/2000/svg" xmlns:xlink="http://www.w3.org/1999/xlink" x="0px" y="0px"
	 viewBox="0 0 100 100" style="enable-background:new 0 0 100 100;" xml:space="preserve">
<style type="text/css">
	.st0{fill:none;}
	.st1{fill:#545758;}
	.st2{fill:#FAC312;}
</style>
<g>
	<g>
		<path class="st0" d="M31.1,51.6h-5c-0.4,0.3-0.9,0.6-1.3,0.9h5C30.2,52.3,30.7,51.9,31.1,51.6z"/>
		<path class="st0" d="M29.8,58.3c-1.8,0-3.3,1.5-3.3,3.3V78c0,1.8,1.5,3.3,3.3,3.3c1.8,0,3.3-1.5,3.3-3.3V61.6
			C33.1,59.8,31.6,58.3,29.8,58.3z"/>
		<path class="st0" d="M52.9,41.6c-0.9,0.6-2.1,1-3.3,1c-1.1,0-2.2-0.3-3-0.8c-3.6,1.9-9.5,5.7-15.5,9.9h37.6
			C62.5,47.3,56.5,43.5,52.9,41.6z"/>
		<path class="st0" d="M50,58.3c-1.8,0-3.3,1.5-3.3,3.3V78c0,1.8,1.5,3.3,3.3,3.3c1.8,0,3.3-1.5,3.3-3.3V61.6
			C53.3,59.8,51.8,58.3,50,58.3z"/>
		<path class="st0" d="M29.8,52.6h40.3c0,0,0,0,0,0L29.8,52.6C29.8,52.6,29.8,52.6,29.8,52.6z"/>
		<path class="st0" d="M66.9,61.6V78c0,1.8,1.5,3.3,3.3,3.3c1.8,0,3.3-1.5,3.3-3.3V61.6c0-1.8-1.5-3.3-3.3-3.3
			C68.4,58.3,66.9,59.8,66.9,61.6z"/>
		<path class="st0" d="M70.1,52.6h5.1c-0.4-0.3-0.8-0.6-1.3-0.9h-5.1C69.2,51.9,69.6,52.3,70.1,52.6z"/>
		<path class="st1" d="M86,13H14c-1.1,0-2,0.9-2,2v5.6c0,1.1,0.9,2,2,2h33.1l2,6.7c0,1.1,0.9,2,2,2H52v5.5c0,0.5-0.1,0.9-0.4,1.2
			c-0.7-0.2-1.2-0.4-1.6-0.4c-0.5,0-1.3,0.2-2.2,0.5c-0.3-0.4-0.5-0.9-0.5-1.4c0-1-0.8-1.8-1.8-1.8c-1,0-1.8,0.8-1.8,1.8
			c0,1.1,0.3,2.1,0.8,3c-5.6,3-13.6,8.5-18.4,12h5c6-4.2,11.9-8,15.5-9.9c0.9,0.5,1.9,0.8,3,0.8c1.2,0,2.3-0.4,3.3-1
			c3.5,1.9,9.5,5.7,15.8,10h5.1c-5.3-3.7-13.5-9.3-18.9-12.2c0.4-0.8,0.7-1.8,0.7-2.8v-5.5h0.9c1.1,0,2-0.9,2-2l2-6.7H86
			c1.1,0,2-0.9,2-2V15C88,13.9,87.1,13,86,13z"/>
		<path class="st2" d="M70.1,52.6H29.8c0,0,0,0,0,0h-5c0,0,0,0,0,0h-5.5c-3.2,0-5.9,2.6-5.9,5.9v22.7c0,3.2,2.6,5.9,5.9,5.9h61.5
			c3.2,0,5.9-2.6,5.9-5.9V58.4c0-3.2-2.6-5.9-5.9-5.9h-5.6c0,0,0,0,0,0L70.1,52.6C70.1,52.6,70.1,52.6,70.1,52.6z M33.1,78
			c0,1.8-1.5,3.3-3.3,3.3c-1.8,0-3.3-1.5-3.3-3.3V61.6c0-1.8,1.5-3.3,3.3-3.3c1.8,0,3.3,1.5,3.3,3.3V78z M53.3,78
			c0,1.8-1.5,3.3-3.3,3.3c-1.8,0-3.3-1.5-3.3-3.3V61.6c0-1.8,1.5-3.3,3.3-3.3c1.8,0,3.3,1.5,3.3,3.3V78z M73.6,61.6V78
			c0,1.8-1.5,3.3-3.3,3.3c-1.8,0-3.3-1.5-3.3-3.3V61.6c0-1.8,1.5-3.3,3.3-3.3C72.1,58.3,73.6,59.8,73.6,61.6z"/>
	</g>
</g>
</svg>
