<?xml version="1.0" encoding="utf-8"?>
<!-- Generator: Adobe Illustrator 18.1.1, SVG Export Plug-In . SVG Version: 6.00 Build 0)  -->
<svg version="1.1" id="Layer_1" xmlns="http://www.w3.org/2000/svg" xmlns:xlink="http://www.w3.org/1999/xlink" x="0px" y="0px"
	 viewBox="0 0 100 100" style="enable-background:new 0 0 100 100;" xml:space="preserve">
<style type="text/css">
	.st0{fill:#545758;}
	.st1{fill:#FAC312;}
</style>
<g>
	<path class="st0" d="M7.2,27.5v15.2h48.3v36.2h15.2V42.7h12.1V27.5H7.2z M54.4,30.6L51,34l-3.4-3.4H54.4z M42.3,30.6L38.9,34
		l-3.4-3.4H42.3z M30.3,30.6L26.9,34l-3.4-3.4H30.3z M18.2,30.6L14.8,34l-3.4-3.4H18.2z M10.3,31.7l3.4,3.4l-3.4,3.4V31.7z
		 M11.4,39.6l3.4-3.4l3.4,3.4H11.4z M20.4,39.6l-4.5-4.5l4.5-4.5h0.9l4.5,4.5l-4.5,4.5H20.4z M23.4,39.6l3.4-3.4l3.4,3.4H23.4z
		 M32.4,39.6l-4.5-4.5l4.5-4.5h0.9l4.5,4.5l-4.5,4.5H32.4z M35.5,39.6l3.4-3.4l3.4,3.4H35.5z M44.5,39.6L40,35.1l4.5-4.5h0.9
		l4.5,4.5l-4.5,4.5H44.5z M47.6,39.6l3.4-3.4l3.4,3.4H47.6z M55.5,38.5l-3.4-3.4l3.4-3.4V38.5z M66.5,30.6L63.1,34l-3.4-3.4H66.5z
		 M58.6,31.7l3.4,3.4l-3.4,3.4V31.7z M58.6,43.8l3.4,3.4l-3.4,3.4V43.8z M58.6,55.8l3.4,3.4l-3.4,3.4V55.8z M58.6,67.9l3.4,3.4
		l-3.4,3.4V67.9z M59.7,75.8l3.4-3.4l3.4,3.4H59.7z M67.6,74.7l-3.4-3.4l3.4-3.4V74.7z M67.6,65.7l-4.5,4.5l-4.5-4.5v-0.9l4.5-4.5
		l4.5,4.5V65.7z M67.6,62.7l-3.4-3.4l3.4-3.4V62.7z M67.6,53.7l-4.5,4.5l-4.5-4.5v-0.9l4.5-4.5l4.5,4.5V53.7z M67.6,50.6l-3.4-3.4
		l3.4-3.4V50.6z M67.6,41.6l-4.5,4.5l-4.5-4.5v-0.9l4.5-4.5l4.5,4.5V41.6z M67.6,38.5l-3.4-3.4l3.4-3.4V38.5z M78.6,30.6L75.2,34
		l-3.4-3.4H78.6z M70.7,31.7l3.4,3.4l-3.4,3.4V31.7z M71.8,39.6l3.4-3.4l3.4,3.4H71.8z M79.7,38.5l-3.4-3.4l3.4-3.4V38.5z"/>
	<g>
		<rect x="15.5" y="41.1" class="st0" width="2.1" height="17.4"/>
	</g>
	<path class="st1" d="M41.6,46.1v13.2l4.4,4.4h6V46.1H41.6z M47.9,55.8h-5.2v-7.2h5.2V55.8z"/>
	<rect x="85.7" y="27.5" class="st1" width="8" height="6.4"/>
	<rect x="85.7" y="36.4" class="st1" width="8" height="6.1"/>
	<g>
		<path class="st1" d="M20.8,68.9c-0.6,2.3-2.7,4.1-5.2,4.1c-2.9,0-5.3-2.4-5.3-5.3c0-2.4,1.5-4.4,3.7-5.1v-2h4.7v4.1h-1.8
			c-1.6,0-2.9,1.3-2.9,2.9c0,1.6,1.3,2.9,2.9,2.9c1.2,0,2.2-0.7,2.7-1.7H20.8z"/>
	</g>
	<rect x="6.3" y="82.4" class="st0" width="85" height="4.6"/>
	<g>
		<polygon class="st0" points="78.2,27.5 66.2,17.4 70.2,27.5 66.9,27.5 63.1,18 59.3,27.5 56,27.5 60.9,15.3 17.1,27.5 11.4,27.5 
			61.6,13.5 63.3,13 65,14.4 80.6,27.5 		"/>
	</g>
</g>
</svg>
