<?xml version="1.0" encoding="utf-8"?>
<!-- Generator: Adobe Illustrator 18.1.1, SVG Export Plug-In . SVG Version: 6.00 Build 0)  -->
<svg version="1.1" id="Layer_1" xmlns="http://www.w3.org/2000/svg" xmlns:xlink="http://www.w3.org/1999/xlink" x="0px" y="0px"
	 viewBox="0 0 100 100" style="enable-background:new 0 0 100 100;" xml:space="preserve">
<style type="text/css">
	.st0{fill:#545758;}
	.st1{fill:#FAC312;}
</style>
<g>
	<path class="st0" d="M97.7,72.6c0,2.4-2.1,4.4-4.7,4.4h-2c-1.4-2.5-4.2-4.2-7.3-4.2c-3.1,0-5.8,1.7-7.3,4.2H42
		c-1.4-2.5-4.2-4.2-7.3-4.2c-3.1,0-5.8,1.7-7.3,4.2h-6.9v-8.9H93C95.6,68.1,97.7,70.1,97.7,72.6z"/>
	<g>
		<polygon class="st1" points="60,41.4 60,64.1 33.4,64.1 33.4,41.4 44.1,41.4 44.1,50.8 49.3,50.8 49.3,41.4 		"/>
	</g>
	<g>
		<polygon class="st1" points="60,15.8 60,37.4 33.4,37.4 33.4,15.8 44.1,15.8 44.1,25.2 49.3,25.2 49.3,15.8 		"/>
	</g>
	<g>
		<polygon class="st1" points="90.5,41.4 90.5,64.1 63.9,64.1 63.9,41.4 74.6,41.4 74.6,50.8 79.8,50.8 79.8,41.4 		"/>
	</g>
	<g>
		<polygon class="st1" points="90.5,15.8 90.5,37.4 63.9,37.4 63.9,15.8 74.6,15.8 74.6,25.2 79.8,25.2 79.8,15.8 		"/>
	</g>
	<g>
		<g>
			<path class="st0" d="M89.5,81.2c0,3.2-2.6,5.8-5.8,5.8c-3.2,0-5.8-2.6-5.8-5.8c0-1.6,0.7-3.1,1.8-4.2c1-1,2.5-1.6,4-1.6
				c1.6,0,3,0.6,4,1.6C88.9,78.1,89.5,79.6,89.5,81.2z"/>
		</g>
		<g>
			<path class="st0" d="M40.5,81.2c0,3.2-2.6,5.8-5.8,5.8c-3.2,0-5.8-2.6-5.8-5.8c0-1.6,0.7-3.1,1.8-4.2c1-1,2.5-1.6,4-1.6
				c1.6,0,3,0.6,4,1.6C39.8,78.1,40.5,79.6,40.5,81.2z"/>
		</g>
	</g>
	<path class="st0" d="M2.6,14.2c-0.8,1.3,0,3.2,1.7,4.2l5.8,3.3c1.7,1,3.5,3.4,4,5.3l9.8,36.6c0.5,1.9,2.2,3.1,3.6,2.7
		c1.5-0.4,2.3-2.3,1.8-4.2L18.9,23.3c-0.5-1.9-2.3-4.3-4-5.3l-7.8-4.5C5.4,12.6,3.4,12.9,2.6,14.2z"/>
</g>
</svg>
