<?xml version="1.0" encoding="utf-8"?>
<!-- Generator: Adobe Illustrator 18.1.1, SVG Export Plug-In . SVG Version: 6.00 Build 0)  -->
<svg version="1.1" id="Layer_1" xmlns="http://www.w3.org/2000/svg" xmlns:xlink="http://www.w3.org/1999/xlink" x="0px" y="0px"
	 viewBox="0 0 100 100" style="enable-background:new 0 0 100 100;" xml:space="preserve">
<style type="text/css">
	.st0{fill:#545758;}
	.st1{fill:#FAC312;}
</style>
<g>
	<path class="st0" d="M86.3,76.9c0,1.8-1.4,3.2-3.2,3.2c-1.8,0-3.2-1.4-3.2-3.2c0-1.8,1.4-3.2,3.2-3.2
		C84.9,73.7,86.3,75.2,86.3,76.9z"/>
	<circle class="st0" cx="66.5" cy="76.9" r="3.2"/>
	<circle class="st0" cx="49.9" cy="76.9" r="3.2"/>
	<path class="st0" d="M83.3,66.8H16.7c-5.6,0-10.1,4.5-10.1,10.1S11.1,87,16.7,87h66.5c5.6,0,10.1-4.5,10.1-10.1
		C93.4,71.3,88.9,66.8,83.3,66.8z M83.3,85.3H16.7c-4.6,0-8.4-3.8-8.4-8.4s3.8-8.4,8.4-8.4h66.5c4.6,0,8.4,3.8,8.4,8.4
		S87.9,85.3,83.3,85.3z"/>
	<rect x="37.3" y="13.2" class="st0" width="18.1" height="13.5"/>
	<g>
		<path class="st1" d="M75.9,24.4C68,30.3,59.4,36,50.1,41.2c-11.2,6.3-22.4,11.3-33.3,15.2v8.2h59.1L75.9,24.4L75.9,24.4z"/>
		<path class="st1" d="M75.9,13h-18v15.9H34.8V13h-18v43.5c10.9-3.9,22.2-8.9,33.3-15.2c9.3-5.2,18-10.9,25.8-16.8L75.9,13L75.9,13z
			"/>
	</g>
	<g>
		<path class="st1" d="M16.7,81c-2.2,0-4.1-1.8-4.1-4.1c0-2.2,1.8-4.1,4.1-4.1c2.2,0,4.1,1.8,4.1,4.1C20.8,79.2,19,81,16.7,81
			L16.7,81z M13.9,70.6c-2.4,1.1-4.1,3.5-4.1,6.4c0,3.8,3.1,6.9,6.9,6.9s6.9-3.1,6.9-6.9c0-1.6-0.5-3-1.4-4.2
			C19.4,72,16.6,71.3,13.9,70.6L13.9,70.6z"/>
		<path class="st1" d="M90,77.8c-1,0.1-2,0.2-3,0.2c-0.5,1.7-2,3-3.9,3c-1.7,0-3.2-1.1-3.8-2.6c-1,0-2,0.1-3,0.1
			c0.7,3.1,3.5,5.4,6.8,5.4C86.7,83.9,89.6,81.2,90,77.8L90,77.8z"/>
		<path class="st1" d="M59.7,78.1c0.6,3.3,3.4,5.8,6.8,5.8c3.3,0,6.1-2.3,6.8-5.4c-0.1,0-0.3,0-0.4,0c-0.9,0-1.7,0-2.6,0
			C69.7,80,68.2,81,66.5,81c-1.8,0-3.3-1.1-3.8-2.7C61.7,78.2,60.7,78.1,59.7,78.1L59.7,78.1z"/>
		<path class="st1" d="M43,76.5c0,0.1,0,0.3,0,0.4c0,3.8,3.1,6.9,7,6.9c3.5,0,6.4-2.6,6.9-6c-1-0.1-1.9-0.1-2.9-0.2
			c-0.4,1.9-2,3.3-4,3.3c-2.2,0-4.1-1.8-4.1-4.1c0,0,0,0,0-0.1C44.9,76.7,43.9,76.6,43,76.5L43,76.5z"/>
		<path class="st1" d="M27.1,73.8c-0.5,0.9-0.7,2-0.7,3.1c0,3.8,3.1,6.9,6.9,6.9s7-3.1,7-6.9c0-0.3,0-0.6,0-0.8c-1-0.1-2-0.3-3-0.5
			c0.1,0.4,0.2,0.8,0.2,1.3c0,2.2-1.8,4.1-4.1,4.1c-2.2,0-4.1-1.8-4.1-4.1c0-1,0.3-1.8,0.9-2.5C29.1,74.2,28.1,74,27.1,73.8
			L27.1,73.8z"/>
		<path class="st1" d="M16.7,70c-1,0-2,0.2-2.8,0.6c2.7,0.8,5.5,1.5,8.3,2.1C21,71,19,70,16.7,70L16.7,70z"/>
		<path class="st1" d="M83.1,70c-3.8,0-6.9,3.1-6.9,7c0,0.5,0.1,1,0.2,1.5c1,0,2,0,3-0.1c-0.2-0.5-0.3-0.9-0.3-1.5
			c0-2.2,1.8-4.1,4.1-4.1c2.2,0,4.1,1.8,4.1,4.1c0,0.4-0.1,0.7-0.1,1.1c1-0.1,2-0.1,3-0.2c0-0.3,0.1-0.6,0.1-0.9
			C90.1,73.1,87,70,83.1,70L83.1,70z"/>
		<path class="st1" d="M66.5,70c-3.8,0-6.9,3.1-6.9,7c0,0.4,0,0.8,0.1,1.2c1,0.1,2,0.1,3,0.2c-0.1-0.4-0.2-0.9-0.2-1.3
			c0-2.2,1.8-4.1,4.1-4.1c2.2,0,4.1,1.8,4.1,4.1c0,0.5-0.1,1.1-0.3,1.5c0.9,0,1.7,0,2.6,0c0.1,0,0.3,0,0.4,0c0.1-0.5,0.2-1,0.2-1.6
			C73.5,73.1,70.4,70,66.5,70L66.5,70z"/>
		<path class="st1" d="M49.9,70c-3.7,0-6.7,2.9-6.9,6.5c1,0.1,1.9,0.2,2.9,0.4c0-2.2,1.8-4,4.1-4c2.2,0,4.1,1.8,4.1,4.1
			c0,0.3,0,0.5-0.1,0.8c1,0.1,1.9,0.2,2.9,0.2c0-0.3,0.1-0.6,0.1-1C56.9,73.1,53.8,70,49.9,70L49.9,70z"/>
		<path class="st1" d="M33.3,70c-2.7,0-5.1,1.5-6.2,3.8c1,0.2,2,0.4,3,0.6c0.7-0.9,1.9-1.5,3.2-1.5c1.8,0,3.3,1.2,3.9,2.8
			c1,0.2,2,0.3,3,0.5C39.8,72.6,36.9,70,33.3,70L33.3,70z"/>
	</g>
	<circle class="st0" cx="33.3" cy="76.9" r="3.2"/>
	<circle class="st0" cx="16.8" cy="76.9" r="3.2"/>
</g>
</svg>
