<?xml version="1.0" encoding="utf-8"?>
<!-- Generator: Adobe Illustrator 18.1.1, SVG Export Plug-In . SVG Version: 6.00 Build 0)  -->
<svg version="1.1" id="Layer_1" xmlns="http://www.w3.org/2000/svg" xmlns:xlink="http://www.w3.org/1999/xlink" x="0px" y="0px"
	 viewBox="0 0 100 100" style="enable-background:new 0 0 100 100;" xml:space="preserve">
<style type="text/css">
	.st0{fill:#545758;}
	.st1{fill:#FAC312;}
</style>
<g>
	<g>
		<path class="st1" d="M50,33.7c-8.9,0-16.2,7.3-16.2,16.2c0,8.9,7.3,16.2,16.2,16.2c8.9,0,16.2-7.3,16.2-16.2
			C66.2,41,58.9,33.7,50,33.7z M50,53.6c-2,0-3.6-1.6-3.6-3.6c0-0.6,0.1-1.1,0.4-1.6L50,37.2l3.3,11.1c0.2,0.5,0.4,1,0.4,1.6
			C53.6,51.9,52,53.6,50,53.6z"/>
		<path class="st0" d="M60.3,27.8V17.5c0-2.5-2-4.5-4.5-4.5H44.2c-2.5,0-4.5,2-4.5,4.5v10.3c-8.3,3.9-14.1,12.3-14.1,22.1
			c0,12.8,9.9,23.3,22.5,24.3v6.5c0,0.9-0.8,1.7-1.7,1.7c-0.9,0-1.7-0.8-1.7-1.7c0-1.3-1-2.3-2.3-2.3c-1.3,0-2.3,1-2.3,2.3
			c0,3.5,2.8,6.3,6.3,6.3c3.5,0,6.3-2.8,6.3-6.3v-6.6c12.2-1.4,21.6-11.7,21.6-24.2C74.4,40.1,68.6,31.7,60.3,27.8z M44.4,17.6h11.3
			v8.6c-1.8-0.4-3.7-0.7-5.6-0.7c-1.9,0-3.8,0.2-5.6,0.7V17.6z M50,68.4c-10.2,0-18.5-8.3-18.5-18.5c0-10.2,8.3-18.5,18.5-18.5
			c10.2,0,18.5,8.3,18.5,18.5C68.5,60.1,60.2,68.4,50,68.4z"/>
	</g>
</g>
</svg>
