<?xml version="1.0" encoding="utf-8"?>
<!-- Generator: Adobe Illustrator 18.1.1, SVG Export Plug-In . SVG Version: 6.00 Build 0)  -->
<svg version="1.1" id="Layer_1" xmlns="http://www.w3.org/2000/svg" xmlns:xlink="http://www.w3.org/1999/xlink" x="0px" y="0px"
	 viewBox="0 0 100 100" style="enable-background:new 0 0 100 100;" xml:space="preserve">
<style type="text/css">
	.st0{fill:#545758;}
	.st1{fill:#FAC312;}
</style>
<g>
	<path class="st0" d="M92.8,56.8v9.9c0,1.1-0.3,2.2-0.7,3.2c-4.9,2.8-10.1,4.2-15.9,4.2c-7.6,0-15.4-2.3-23-4.5
		c-7.9-2.3-16-4.7-24.1-4.7c-4.7,0-9.1,0.8-13.2,2.4l-4.7-5c0,0,0,0,0,0l-5.2-5.5H92.8z"/>
	<rect x="73.7" y="29.4" class="st0" width="11.1" height="3.9"/>
	<rect x="73.7" y="14.1" class="st0" width="2.7" height="12.7"/>
	<path class="st1" d="M94.1,13v12.2c-0.4,0.2-0.5,0.3-0.9,0.4c-2.1,0.8-4.4,1-6.3-0.3c-1.4-0.9-2.2-2.4-4-1.8
		c-1.6,0.5-2.8,1.4-4.2,2.4c-0.1,0.1-0.1,0.1-0.2,0.2V14.6c0.7-0.6,1.5-1,2.3-1.2c1.9-0.6,3.7,0.1,5.5,0.8c1.5,0.6,2.9,1.4,4.5,1
		C92.2,14.9,93.2,14,94.1,13z"/>
	<g>
		<path class="st0" d="M93.4,73.2v2.5c-13.2,7.8-26.5,4.2-39.7,0.3c-11.4-3.3-22.7-6.9-34.1-3.6c-2.6,0.7-5.2,1.8-7.7,3.3
			c0-0.8,0-1.7,0-2.5c1.8-1.1,3.7-2,5.5-2.6C32.5,65,47.7,72.4,62.9,76C73.1,78.4,83.2,79.2,93.4,73.2z"/>
	</g>
	<g>
		<path class="st0" d="M93.4,79.8v2.5c-27.2,16-54.4-16-81.6,0c0-0.8,0-1.7,0-2.5c3.7-2.2,7.4-3.5,11.1-4.1
			c7.1-1.2,14.3-0.1,21.4,1.8C60.7,81.7,77,89.5,93.4,79.8z"/>
	</g>
	<rect x="21.3" y="43.2" class="st1" width="20.3" height="9.5"/>
	<rect x="47.3" y="43.2" class="st1" width="20.3" height="9.5"/>
	<rect x="21.3" y="29.3" class="st1" width="20.3" height="9.5"/>
	<rect x="47.3" y="29.3" class="st1" width="20.3" height="9.5"/>
	<path class="st0" d="M73.7,35.7v17h19.6v-17H73.7z M90.4,44.4H76.9v-3.8h13.4V44.4z"/>
</g>
</svg>
