<?xml version="1.0" encoding="utf-8"?>
<!-- Generator: Adobe Illustrator 18.1.1, SVG Export Plug-In . SVG Version: 6.00 Build 0)  -->
<svg version="1.1" id="Layer_1" xmlns="http://www.w3.org/2000/svg" xmlns:xlink="http://www.w3.org/1999/xlink" x="0px" y="0px"
	 viewBox="0 0 100 100" style="enable-background:new 0 0 100 100;" xml:space="preserve">
<style type="text/css">
	.st0{fill:#545758;}
	.st1{fill:#FAC312;}
</style>
<g>
	<path class="st0" d="M99.3,53.4v11.3c0,1.3-0.3,2.5-0.8,3.6c-5.6,3.2-11.5,4.8-18.2,4.8c-8.6,0-17.6-2.6-26.2-5.2
		c-9-2.6-18.3-5.4-27.6-5.4c-5.4,0-10.4,0.9-15.1,2.8L6,59.7c0,0,0,0,0,0l-6-6.3H99.3z"/>
	<g>
		<path class="st0" d="M100,72.1V75c-15.1,8.9-30.3,4.8-45.4,0.3c-13-3.8-26-7.9-38.9-4.2C12.7,72,9.8,73.2,6.8,75c0-1,0-1.9,0-2.9
			c2.1-1.2,4.2-2.2,6.3-3c17.4-6.3,34.7,2.1,52.1,6.2C76.8,78.1,88.4,78.9,100,72.1z"/>
	</g>
	<g>
		<path class="st0" d="M100,78.8v2.9c-31.1,18.3-62.1-18.3-93.2,0c0-1,0-1.9,0-2.9c4.2-2.5,8.4-4,12.7-4.7c8.2-1.4,16.3-0.1,24.5,2
			C62.6,81,81.3,89.8,100,78.8z"/>
	</g>
	<path class="st1" d="M77.2,13H48.5c-3.2,5.4-6.4,10.8-9.6,16.3h47.9C83.6,23.8,80.4,18.4,77.2,13z M61.1,24.1h-9.2v-2.6h9.2V24.1z
		 M61.1,19.7h-9.2V17h9.2V19.7z M73.8,24.1h-9.2v-2.6h9.2V24.1z M73.8,19.7h-9.2V17h9.2V19.7z"/>
	<path class="st0" d="M21.1,31.9c-3.6,6.1-7.1,12.1-10.7,18.2c17.8,0,82.1,0,82.1,0V31.9C92.5,31.9,31.8,31.9,21.1,31.9z M37.9,45.1
		H26.5V42h11.4V45.1z M37.9,39.8H26.5v-3.1h11.4V39.8z M53,45.1H41.6V42H53V45.1z M53,39.8H41.6v-3.1H53V39.8z M68.3,45.1H56.9V42
		h11.4V45.1z M68.3,39.8H56.9v-3.1h11.4V39.8z M84.2,45.1H72.8V42h11.4V45.1z M84.2,39.8H72.8v-3.1h11.4V39.8z"/>
</g>
</svg>
