<?xml version="1.0" encoding="utf-8"?>
<!-- Generator: Adobe Illustrator 18.1.1, SVG Export Plug-In . SVG Version: 6.00 Build 0)  -->
<svg version="1.1" id="Layer_1" xmlns="http://www.w3.org/2000/svg" xmlns:xlink="http://www.w3.org/1999/xlink" x="0px" y="0px"
	 viewBox="0 0 100 100" style="enable-background:new 0 0 100 100;" xml:space="preserve">
<style type="text/css">
	.st0{fill:#545758;}
	.st1{fill:#FAC312;}
</style>
<g>
	<g>
		<path class="st0" d="M35.6,37.6L12.1,50.1H7.5c2.9-1.6,16.2-8.7,27-14.4C34.8,36.3,35.2,36.9,35.6,37.6z"/>
	</g>
	<g>
		<path class="st1" d="M52.4,22v0.2c-0.6-0.2-1.2-0.2-1.9-0.2H52.4z"/>
		<path class="st1" d="M52.4,22v0.2c-0.6-0.2-1.2-0.2-1.9-0.2H52.4z"/>
		<path class="st1" d="M52.4,22v0.2c-0.6-0.2-1.2-0.2-1.9-0.2H52.4z"/>
		<path class="st1" d="M52.4,22v0.2c-0.6-0.2-1.2-0.2-1.9-0.2H52.4z"/>
		<path class="st1" d="M52.4,22v0.2c-0.6-0.2-1.2-0.2-1.9-0.2H52.4z"/>
		<path class="st1" d="M58.9,37.1c-2.3,2.8-5.8,4.6-9.8,4.6c-4.4,0-8.4-2.3-10.6-5.8c-0.4-0.6-0.7-1.2-1-1.9c-0.6-1.5-1-3.1-1-4.8
			c0-5.7,3.8-10.5,9-12.1V13h6.8v9h-1.9c-4,0-7.2,3.2-7.2,7.2c0,4,3.2,7.2,7.2,7.2c1.6,0,3.1-0.5,4.3-1.4L58.9,37.1z"/>
	</g>
	<g>
		<path class="st0" d="M92.5,50.1h-4.6L50,29.8v-2.3C50.2,27.5,89.4,48.4,92.5,50.1z"/>
	</g>
	<path class="st0" d="M7.5,53v34h85V53H7.5z M18.8,82.5h-4.6V57.2h4.6V82.5z M28.4,82.5h-4.6V57.2h4.6V82.5z M38,82.5h-4.6V57.2H38
		V82.5z M47.6,82.5H43V57.2h4.6V82.5z M57.2,82.5h-4.6V57.2h4.6V82.5z M66.8,82.5h-4.6V57.2h4.6V82.5z M76.4,82.5h-4.6V57.2h4.6
		V82.5z M86,82.5h-4.6V57.2H86V82.5z"/>
</g>
</svg>
