<?xml version="1.0" encoding="utf-8"?>
<!-- Generator: Adobe Illustrator 18.1.1, SVG Export Plug-In . SVG Version: 6.00 Build 0)  -->
<svg version="1.1" id="Layer_1" xmlns="http://www.w3.org/2000/svg" xmlns:xlink="http://www.w3.org/1999/xlink" x="0px" y="0px"
	 viewBox="0 0 100 100" style="enable-background:new 0 0 100 100;" xml:space="preserve">
<style type="text/css">
	.st0{fill:#545758;}
	.st1{fill:#FAC312;}
</style>
<g>
	<path class="st0" d="M71.7,86.7c0.3,0.2,0.5,0.3,0.5,0.3H53.1c-2.1-0.2-4.2-0.2-6.3,0H27.8c0,0,0.2-0.1,0.5-0.3
		c0.3-0.2,0.8-0.4,1.4-0.7c1.2-0.6,3-1.3,5-2c1-0.3,2.2-0.6,3.4-0.9c1.2-0.3,2.5-0.5,3.8-0.7c1.3-0.2,2.6-0.3,4-0.4
		c0.2,0,0.4,0,0.6,0c-0.3-5.1-0.6-11.2-1-16.5h8.9c-0.3,5.3-0.6,11.4-1,16.4c0.2,0,0.4,0,0.6,0c1.4,0.1,2.7,0.2,4,0.4
		c1.3,0.2,2.6,0.4,3.8,0.7c1.2,0.3,2.3,0.6,3.4,0.9c2.1,0.6,3.8,1.4,5,2C70.9,86.2,71.4,86.5,71.7,86.7z"/>
	<path class="st0" d="M36.5,26.5l-8.8,9V13c0,0,0.1,0.2,0.2,0.5c0.1,0.2,0.1,0.3,0.2,0.6c0,0.1,0.1,0.2,0.2,0.3
		c0.1,0.1,0.1,0.3,0.2,0.4c0.3,0.5,0.6,1.2,1,1.9c0.4,0.7,0.9,1.5,1.4,2.4c0.8,1.2,1.7,2.6,2.7,3.9c0.4,0.5,0.8,1,1.2,1.6
		C35.4,25.2,36,25.8,36.5,26.5z"/>
	<path class="st0" d="M49.7,13l-8.5,8.7c-0.6-0.5-1.2-1.1-1.9-1.6c-0.5-0.4-1-0.8-1.5-1.1c-1.4-1.1-2.8-2-4-2.8
		c-0.8-0.5-1.6-1-2.4-1.4c-0.7-0.4-1.4-0.7-1.9-1c-0.1-0.1-0.3-0.1-0.4-0.2c-0.1-0.1-0.2-0.1-0.3-0.2c-0.2-0.1-0.4-0.2-0.6-0.2
		c-0.3-0.1-0.5-0.2-0.5-0.2H49.7z"/>
	<path class="st1" d="M72.2,13v26c0,10.6-7.4,19.4-17.3,21.7h-9.8c-8.2-1.8-14.6-8.2-16.7-16.3l12.7-13c0.6,0.5,1.1,1.1,1.7,1.6
		c1,0.9,1.9,1.7,2.9,2.5c1.9,1.5,3.8,2.9,5.5,4c0.8,0.5,1.6,1,2.4,1.4c0.7,0.4,1.4,0.7,1.9,1c0.1,0.1,0.3,0.1,0.4,0.2
		c0.1,0.1,0.2,0.1,0.3,0.2c0.2,0.1,0.4,0.2,0.6,0.2c0.3,0.1,0.5,0.2,0.5,0.2s-0.1-0.2-0.2-0.5c-0.1-0.2-0.1-0.3-0.2-0.6
		c0-0.1-0.1-0.2-0.2-0.3c-0.1-0.1-0.1-0.3-0.2-0.4c-0.3-0.5-0.6-1.2-1-1.9c-0.4-0.7-0.9-1.5-1.4-2.4c-1.1-1.7-2.4-3.6-4-5.5
		c-0.8-1-1.6-1.9-2.5-2.9c-0.5-0.6-1.1-1.2-1.7-1.8l13-13.3H72.2z"/>
	<path class="st0" d="M53.1,87h-6.3C48.9,86.8,51.1,86.8,53.1,87z"/>
</g>
</svg>
