<?xml version="1.0" encoding="utf-8"?>
<!-- Generator: Adobe Illustrator 18.1.1, SVG Export Plug-In . SVG Version: 6.00 Build 0)  -->
<svg version="1.1" id="Layer_1" xmlns="http://www.w3.org/2000/svg" xmlns:xlink="http://www.w3.org/1999/xlink" x="0px" y="0px"
	 viewBox="0 0 100 100" style="enable-background:new 0 0 100 100;" xml:space="preserve">
<style type="text/css">
	.st1{fill:#FAC312;}
</style>
<g>
	<path class="st1" d="M83.7,13H16.3c-1.8,0-3.3,1.5-3.3,3.3v67.3c0,1.8,1.5,3.3,3.3,3.3h67.3c1.8,0,3.3-1.5,3.3-3.3V16.3
		C87,14.5,85.5,13,83.7,13z M66.8,74.2H50H33.2L47,67.5V50.3C36,48.9,27.5,39.5,27.5,28h34.2l-3.1,4.1l4.4,3.6l-4.9,7.7l9.3-8.4
		l-3.3-3.3l2.7-3.6h5.8c0,11.4-8.5,20.9-19.6,22.3v17.1L66.8,74.2z"/>
</g>
</svg>
