<?xml version="1.0" encoding="utf-8"?>
<!-- Generator: Adobe Illustrator 18.1.1, SVG Export Plug-In . SVG Version: 6.00 Build 0)  -->
<svg version="1.1" id="Layer_1" xmlns="http://www.w3.org/2000/svg" xmlns:xlink="http://www.w3.org/1999/xlink" x="0px" y="0px"
	 viewBox="0 0 100 100" style="enable-background:new 0 0 100 100;" xml:space="preserve">
<style type="text/css">
	.st0{fill:#545758;}
	.st1{fill:#FAC312;}
</style>
<g>
	<path class="st0" d="M87.6,30.7l6.6-6.6V13H5.8v11.1l6.6,6.6h2.7v40.6l-4.5,4.5V81h5.3v3.5c0,1.4,1.1,2.4,2.4,2.4h0.4
		c1.4,0,2.4-1.1,2.4-2.4V81h5.3v-5.2l-4.5-4.5V30.7h56.3v40.6l-4.5,4.5V81h5.3v3.5c0,1.4,1.1,2.4,2.4,2.4h0.4c1.4,0,2.4-1.1,2.4-2.4
		V81h5.3v-5.2l-4.5-4.5V30.7H87.6z"/>
	<path class="st1" d="M42.6,49.2h14.7l4.6-13.6H38.1L42.6,49.2z M55.1,40.5l-1.3,3.8h-7.7l-1.3-3.8H55.1z"/>
	<path class="st1" d="M60.3,54.1H39.7v5.3c0,2.8,2.2,5,5,5c0,0,0.1,0,0.1,0V59h10.5v5.4c0,0,0.1,0,0.1,0c2.8,0,5-2.2,5-5L60.3,54.1z
		"/>
</g>
</svg>
