<?xml version="1.0" encoding="utf-8"?>
<!-- Generator: Adobe Illustrator 18.1.1, SVG Export Plug-In . SVG Version: 6.00 Build 0)  -->
<svg version="1.1" id="Layer_1" xmlns="http://www.w3.org/2000/svg" xmlns:xlink="http://www.w3.org/1999/xlink" x="0px" y="0px"
	 viewBox="0 0 100 100" style="enable-background:new 0 0 100 100;" xml:space="preserve">
<style type="text/css">
	.st0{fill:#545758;}
	.st1{fill:#FAC312;}
</style>
<g>
	<path class="st0" d="M12.9,29.3v54.9h35.6c-0.6-1.4-0.9-2.9-0.9-4.5c0-0.5,0-1,0.1-1.5H31.4V72h19c2.6-3.4,7-5.7,12-6H31.4v-6.3
		h32.9v6.3c2.5,0.1,4.8,0.7,6.8,1.6V29.3H12.9z M25.9,78.3h-8.4V72h8.4V78.3z M25.9,65.9h-8.4v-6.3h8.4V65.9z M25.9,53.6h-8.4v-6.3
		h8.4V53.6z M25.9,41.3h-8.4V35h8.4V41.3z M64.3,53.6H31.4v-6.3h32.9V53.6z M64.3,41.3H31.4V35h32.9V41.3z"/>
	<path class="st1" d="M65.9,87c-3.3-2.6-6.4-5.5-8.7-8.7c-0.6-0.8-1.1-1.7-1.6-2.6c-0.8-2.1-0.9-2,1.5-1.3c2.4,1,4.5,2.2,6.6,3.6
		c0.1,0.1,0.2,0.2,0.4,0.3c0.8,0.7,1.5,1.6,2.5,0.9c1.4-0.9,2.7-1.9,4-2.9c0.2-0.2,0.4-0.3,0.6-0.5c1.8-1.4,3.6-2.7,5.5-4.1
		c0,0,0,0,0.1,0c3.4-2.5,6.9-5,10.4-7.3C88.5,65.8,67.9,85.2,65.9,87z"/>
	<path class="st0" d="M60.4,21.4c-1.5,0-3.3-0.9-4-2.1l-2.7-4.2c-0.7-1.1-2.5-2.1-4-2.1H34.3c-1.5,0-3.3,0.9-4,2.1l-2.7,4.2
		c-0.7,1.1-2.5,2.1-4,2.1H12.9v4.2h58.2v-4.2H60.4z M31.8,21.4c0,0,0-0.1,0.1-0.1l2.6-4.1c0,0,0.1,0,0.1-0.1h15.1c0,0,0.1,0,0.1,0.1
		l2.6,4.1c0,0,0,0.1,0.1,0.1H31.8z"/>
</g>
</svg>
