<?xml version="1.0" encoding="utf-8"?>
<!-- Generator: Adobe Illustrator 18.1.1, SVG Export Plug-In . SVG Version: 6.00 Build 0)  -->
<svg version="1.1" id="Layer_1" xmlns="http://www.w3.org/2000/svg" xmlns:xlink="http://www.w3.org/1999/xlink" x="0px" y="0px"
	 viewBox="0 0 100 100" style="enable-background:new 0 0 100 100;" xml:space="preserve">
<style type="text/css">
	.st0{fill:#545758;}
	.st1{fill:#FAC312;}
</style>
<g>
	<path class="st0" d="M74.9,28.3h-3.6v2.1c0,3.5-2.8,6.3-6.3,6.3c-3.5,0-6.3-2.8-6.3-6.3v-2.1h-5.3v2.1c0,3.5-2.8,6.3-6.3,6.3
		c-3.5,0-6.3-2.8-6.3-6.3v-2.1h-5.3v2.1c0,3.5-2.8,6.3-6.3,6.3c-3.5,0-6.3-2.8-6.3-6.3v-2.1h-3.6c-5.9,0-10.7,4.8-10.7,10.7v32.1
		c0,5.9,4.8,10.7,10.7,10.7h40.3c-1.8-2.6-3.5-5.4-4.7-8.4L54.1,71v3.1H40.5V68h12.4l-1.6-3.9l9.2,3.7c3,1.2,5.7,2.9,8.2,4.6
		c5.5-5.7,11.1-10.1,16.8-13.3V39C85.6,33.1,80.8,28.3,74.9,28.3z M30.8,74.1H17.2V68h13.6V74.1z M30.8,61.8H17.2v-6.1h13.6V61.8z
		 M30.8,49.4H17.2v-6.1h13.6V49.4z M54.1,61.8H40.5v-6.1h13.6V61.8z M54.1,49.4H40.5v-6.1h13.6V49.4z M77.4,61.8H63.8v-6.1h13.6
		V61.8z M77.4,49.4H63.8v-6.1h13.6V49.4z"/>
	<g>
		<path class="st1" d="M33.5,17.2v13.2c0,2.3-1.9,4.2-4.2,4.2c-2.3,0-4.2-1.9-4.2-4.2V17.2c0-2.3,1.9-4.2,4.2-4.2
			C31.6,13,33.5,14.9,33.5,17.2z"/>
	</g>
	<g>
		<path class="st1" d="M51.3,17.2v13.2c0,2.3-1.9,4.2-4.2,4.2c-2.3,0-4.2-1.9-4.2-4.2V17.2c0-2.3,1.9-4.2,4.2-4.2
			C49.5,13,51.3,14.9,51.3,17.2z"/>
	</g>
	<g>
		<path class="st1" d="M69.2,17.2v13.2c0,2.3-1.9,4.2-4.2,4.2c-2.3,0-4.2-1.9-4.2-4.2V17.2c0-2.3,1.9-4.2,4.2-4.2
			C67.4,13,69.2,14.9,69.2,17.2z"/>
	</g>
	<path class="st1" d="M91.2,61c-1.4,3.4-3.3,6.7-5.6,9.7c-3,4-6.6,7.7-10.2,11c-2,1.8-4,3.6-6,5.3c-1.4-1.7-2.9-3.4-4.3-5.2
		c-2.4-3.1-4.6-6.4-6.1-10c2.8,1.1,5.4,2.8,7.9,4.5c0.5,0.3,1.9,1.8,2.4,1.8c4.7-5.2,10.2-10.3,16.3-14c1.2-0.7,2.4-1.4,3.6-2.1
		c0,0,0,0,0,0c0,0,0,0,0,0c0,0,0,0,0,0c0,0,0,0,0,0c0,0,0,0,0.1,0c0,0,0,0,0.1,0c0,0,0.1,0,0.1,0c0,0,0,0,0.1,0c0,0,0,0,0,0
		c0,0,0,0,0,0C90.1,61.5,90.6,61.2,91.2,61z"/>
</g>
</svg>
