<?xml version="1.0" encoding="utf-8"?>
<!-- Generator: Adobe Illustrator 18.1.1, SVG Export Plug-In . SVG Version: 6.00 Build 0)  -->
<svg version="1.1" id="Layer_1" xmlns="http://www.w3.org/2000/svg" xmlns:xlink="http://www.w3.org/1999/xlink" x="0px" y="0px"
	 viewBox="0 0 100 100" style="enable-background:new 0 0 100 100;" xml:space="preserve">
<style type="text/css">
	.st0{fill:#545758;}
	.st1{fill:#FAC312;}
</style>
<g>
	<path class="st0" d="M30.5,38.8h-5.9V24.9l2.5-5.5h0v-0.9c0-0.6-0.5-1.1-1.1-1.1H7.8c-0.6,0-1.1,0.5-1.1,1.1v0.9v5.5h1.6v13.9
		c-0.9,0-1.6,0.7-1.6,1.6v1.1h25.5v-1.1C32.1,39.5,31.4,38.8,30.5,38.8z M11.1,23.5H7.7v-4.2h3.4V23.5z M16,23.5h-4.3v-4.2H16V23.5z
		 M21,23.5h-4.3v-4.2H21V23.5z M21.6,23.5v-4.2h4.2L24,23.5H21.6z"/>
	<path class="st1" d="M90.5,26.7H70.9c-1.1,0-2,0.9-2,2v10.4c0,1.1,0.9,2,2,2h19.6c1.1,0,2-0.9,2-2V28.7
		C92.5,27.6,91.6,26.7,90.5,26.7z M72.5,39.2c0,0.2-0.2,0.4-0.4,0.4h-0.4c-0.2,0-0.4-0.2-0.4-0.4V28.6c0-0.2,0.2-0.4,0.4-0.4h0.4
		c0.2,0,0.4,0.2,0.4,0.4V39.2z M75,39.2c0,0.2-0.2,0.4-0.4,0.4h-0.4c-0.2,0-0.4-0.2-0.4-0.4V28.6c0-0.2,0.2-0.4,0.4-0.4h0.4
		c0.2,0,0.4,0.2,0.4,0.4V39.2z M77.5,39.2c0,0.2-0.2,0.4-0.4,0.4h-0.4c-0.2,0-0.4-0.2-0.4-0.4V28.6c0-0.2,0.2-0.4,0.4-0.4h0.4
		c0.2,0,0.4,0.2,0.4,0.4V39.2z M80,39.2c0,0.2-0.2,0.4-0.4,0.4h-0.4c-0.2,0-0.4-0.2-0.4-0.4V28.6c0-0.2,0.2-0.4,0.4-0.4h0.4
		c0.2,0,0.4,0.2,0.4,0.4V39.2z M82.5,39.2c0,0.2-0.2,0.4-0.4,0.4h-0.4c-0.2,0-0.4-0.2-0.4-0.4V28.6c0-0.2,0.2-0.4,0.4-0.4h0.4
		c0.2,0,0.4,0.2,0.4,0.4V39.2z M85,39.2c0,0.2-0.2,0.4-0.4,0.4h-0.4c-0.2,0-0.4-0.2-0.4-0.4V28.6c0-0.2,0.2-0.4,0.4-0.4h0.4
		c0.2,0,0.4,0.2,0.4,0.4V39.2z M87.5,39.2c0,0.2-0.2,0.4-0.4,0.4h-0.4c-0.2,0-0.4-0.2-0.4-0.4V28.6c0-0.2,0.2-0.4,0.4-0.4h0.4
		c0.2,0,0.4,0.2,0.4,0.4V39.2z M90,39.2c0,0.2-0.2,0.4-0.4,0.4h-0.4c-0.2,0-0.4-0.2-0.4-0.4V28.6c0-0.2,0.2-0.4,0.4-0.4h0.4
		c0.2,0,0.4,0.2,0.4,0.4V39.2z"/>
	<path class="st0" d="M17.2,63.4c5.1,0,7.6-0.8,10.3-1.6c2.9-0.9,5.8-1.8,11.6-1.8c5.8,0,8.8,0.9,11.6,1.8c2.6,0.8,5.2,1.6,10.3,1.6
		c5.1,0,7.6-0.8,10.3-1.6c2.9-0.9,5.8-1.8,11.6-1.8c1.2,0,2.3,0,3.2,0c8.3-8.3,11.6-16.8,11.6-16.8H4.3c0,7.3,2,13.7,4,18.3
		C10.6,62.5,13.1,63.4,17.2,63.4z M80.3,46.7c2.4,0,4.3,1.9,4.3,4.3c0,2.4-1.9,4.3-4.3,4.3c-2.4,0-4.3-1.9-4.3-4.3
		C75.9,48.7,77.9,46.7,80.3,46.7z"/>
	<path class="st1" d="M93.7,63c-2.6-0.5-5.3-0.6-10.7-0.6c-11,0-11,3.3-21.9,3.3c-11,0-11-3.3-21.9-3.3c-11,0-11,3.3-21.9,3.3
		c-8.8,0-11.1-3.8-17.2-3.9v22.6v4.5h100V64.5C97.3,63.8,95.5,63.4,93.7,63z"/>
	<g>
		<path class="st1" d="M67.5,28.1c-0.3-0.8-1-1.4-1.9-1.4H46c-1.1,0-2,0.9-2,2v10.4c0,0.9,0.6,1.6,1.3,1.9c0.2,0.1,0.4,0.1,0.7,0.1
			h19.6c1.1,0,2-0.9,2-2V28.7C67.6,28.5,67.5,28.3,67.5,28.1z M46.4,28.6c0-0.2,0.2-0.4,0.4-0.4h0.4c0.2,0,0.4,0.2,0.4,0.4v10.6
			c0,0.2-0.2,0.4-0.4,0.4h-0.4c-0.2,0-0.4-0.2-0.4-0.4V28.6z M50.1,39.2c0,0.2-0.2,0.4-0.4,0.4h-0.4c-0.2,0-0.4-0.2-0.4-0.4v-0.1
			V28.6c0-0.2,0.2-0.4,0.4-0.4h0.4c0.2,0,0.4,0.2,0.4,0.4v9.8V39.2z M52.6,39.2c0,0.2-0.2,0.4-0.4,0.4h-0.4c-0.2,0-0.4-0.2-0.4-0.4
			v-1.5v-9.1c0-0.2,0.2-0.4,0.4-0.4h0.4c0.2,0,0.4,0.2,0.4,0.4v8.5V39.2z M55.1,39.2c0,0.2-0.2,0.4-0.4,0.4h-0.4
			c-0.2,0-0.4-0.2-0.4-0.4v-2.8v-7.7c0-0.2,0.2-0.4,0.4-0.4h0.4c0.2,0,0.4,0.2,0.4,0.4v7.1V39.2z M57.6,39.2c0,0.2-0.2,0.4-0.4,0.4
			h-0.4c-0.2,0-0.4-0.2-0.4-0.4v-4.3v-6.3c0-0.2,0.2-0.4,0.4-0.4h0.4c0.2,0,0.4,0.2,0.4,0.4v5.6V39.2z M60.1,39.2
			c0,0.2-0.2,0.4-0.4,0.4h-0.4c-0.2,0-0.4-0.2-0.4-0.4v-5.8v-4.8c0-0.2,0.2-0.4,0.4-0.4h0.4c0.2,0,0.4,0.2,0.4,0.4v4.1V39.2z
			 M62.6,39.2c0,0.2-0.2,0.4-0.4,0.4h-0.4c-0.2,0-0.4-0.2-0.4-0.4v-7.3v-3.3c0-0.2,0.2-0.4,0.4-0.4h0.4c0.2,0,0.4,0.2,0.4,0.4v2.6
			V39.2z M65.1,39.2c0,0.2-0.2,0.4-0.4,0.4h-0.4c-0.2,0-0.4-0.2-0.4-0.4v-8.8v-1.7c0-0.2,0.2-0.4,0.4-0.4h0.4c0.2,0,0.4,0.2,0.4,0.4
			v1V39.2z"/>
		<path class="st1" d="M90.5,11.1L90.5,11.1H70.9c-1.1,0-2,0.9-2,2v10.4c0,1.1,0.9,2,2,2h0.5h19c1.1,0,2-0.9,2-2V13.1
			C92.5,12,91.6,11.1,90.5,11.1z M71.4,23.5V13c0-0.2,0.2-0.4,0.4-0.4h0.4c0.2,0,0.4,0.2,0.4,0.4v10.6c0,0.2-0.2,0.4-0.4,0.4h-0.4
			C71.5,23.9,71.4,23.8,71.4,23.5z M75,23.5c0,0.2-0.2,0.4-0.4,0.4h-0.4c-0.1,0-0.3-0.1-0.3-0.2c0-0.1-0.1-0.1-0.1-0.2V13
			c0-0.2,0.2-0.4,0.4-0.4h0.4c0.2,0,0.4,0.2,0.4,0.4v10V23.5z M77.5,23.5c0,0.2-0.2,0.4-0.4,0.4h-0.4c-0.2,0-0.4-0.2-0.4-0.4V22v-9
			c0-0.2,0.2-0.4,0.4-0.4h0.4c0.2,0,0.4,0.2,0.4,0.4v8.2V23.5z M80,23.5c0,0.2-0.2,0.4-0.4,0.4h-0.4c-0.2,0-0.4-0.2-0.4-0.4v-3.4V13
			c0-0.2,0.2-0.4,0.4-0.4h0.4c0.2,0,0.4,0.2,0.4,0.4v6.3V23.5z M82.5,23.5c0,0.2-0.2,0.4-0.4,0.4h-0.4c-0.2,0-0.4-0.2-0.4-0.4v-5.3
			V13c0-0.2,0.2-0.4,0.4-0.4h0.4c0.2,0,0.4,0.2,0.4,0.4v4.4V23.5z M85,23.5c0,0.2-0.2,0.4-0.4,0.4h-0.4c-0.2,0-0.4-0.2-0.4-0.4v-7.2
			V13c0-0.2,0.2-0.4,0.4-0.4h0.4c0.2,0,0.4,0.2,0.4,0.4v2.5V23.5z M87.5,23.5c0,0.2-0.2,0.4-0.4,0.4h-0.4c-0.2,0-0.4-0.2-0.4-0.4
			v-9.2V13c0-0.2,0.2-0.4,0.4-0.4h0.4c0.2,0,0.4,0.2,0.4,0.4v0.5V23.5z M90,23.5c0,0.2-0.2,0.4-0.4,0.4h-0.4c-0.2,0-0.4-0.2-0.4-0.4
			V13c0-0.2,0.2-0.4,0.4-0.4h0.4c0.2,0,0.4,0.2,0.4,0.4V23.5z"/>
	</g>
</g>
</svg>
