<?xml version="1.0" encoding="utf-8"?>
<!-- Generator: Adobe Illustrator 18.1.1, SVG Export Plug-In . SVG Version: 6.00 Build 0)  -->
<svg version="1.1" id="Layer_1" xmlns="http://www.w3.org/2000/svg" xmlns:xlink="http://www.w3.org/1999/xlink" x="0px" y="0px"
	 viewBox="0 0 100 100" style="enable-background:new 0 0 100 100;" xml:space="preserve">
<style type="text/css">
	.st0{fill:#545758;}
	.st1{fill:#FAC312;}
</style>
<g>
	
		<rect x="28.7" y="28.5" transform="matrix(0.7071 -0.7071 0.7071 0.7071 -12.5227 32.6168)" class="st1" width="8.8" height="5.8"/>
	
		<rect x="62.5" y="29.3" transform="matrix(0.7071 0.7071 -0.7071 0.7071 42.3889 -37.8529)" class="st1" width="8.8" height="5.8"/>
	<path class="st0" d="M67.2,45.6c-0.3-1.7-0.8-3.2-1.5-4.7c-2.4-5-7.1-8.6-12.7-9.7v-4.8h-1.8c-3.7,0-6.8-2.2-6.8-4.9
		c0-2.7,3-4.9,6.8-4.9c2.9,0,5.4,1.3,6.3,3.1h3.9c-1.1-3.8-5.8-6.7-11.5-6.7c-6.5,0-11.8,3.8-11.8,8.4c0,3.8,3.6,7.1,8.5,8.1v1.5
		c-8.5,1.4-14.9,8.8-14.9,17.7c0,9.9,8,17.9,17.9,17.9c2.5,0,5-0.5,7.1-1.5c2.5-1.1,4.7-2.7,6.4-4.7c1.4-1.6,2.5-3.4,3.2-5.4
		c0.6-1.5,0.9-3.1,1.1-4.7c0-0.5,0.1-1.1,0.1-1.6C67.5,47.6,67.4,46.6,67.2,45.6z M47,34.3l0.7,3.8c-1.4,0.2-2.7,0.8-3.9,1.5
		l-2.1-3.3C43.3,35.3,45.1,34.6,47,34.3z M37.2,56.6c-1-1.6-1.8-3.4-2.1-5.3l3.8-0.7c0.2,1.4,0.8,2.7,1.5,3.9L37.2,56.6z M39,46.4
		l-3.8-0.8c0.4-1.9,1.2-3.7,2.3-5.2l3.2,2.2C39.9,43.7,39.3,45,39,46.4z M46.4,63.1c-1.9-0.4-3.7-1.2-5.2-2.3l2.2-3.2
		c1.2,0.8,2.5,1.4,3.9,1.7L46.4,63.1z M47.6,54.3l2.6-15.2l2.6,15.2H47.6z M55.4,62.2c-1,0.5-2.1,0.8-3.3,1l-0.7-3.8
		c0.8-0.1,1.6-0.4,2.4-0.7c0.5-0.2,1-0.5,1.5-0.8l2.1,3.3C56.8,61.5,56.2,61.9,55.4,62.2z M55.7,39.9c-1.2-0.8-2.5-1.4-3.9-1.7
		l0.8-3.8c1.9,0.4,3.7,1.2,5.3,2.3L55.7,39.9z M63.3,53.9c-0.4,1.1-1,2.2-1.7,3.2l-3.2-2.2c0.5-0.7,0.9-1.5,1.3-2.4
		c0.2-0.5,0.3-1,0.4-1.5l3.8,0.8C63.8,52.6,63.6,53.2,63.3,53.9z M60.2,46.8L60.2,46.8c-0.2-1-0.5-2-0.9-2.9
		c-0.2-0.4-0.4-0.7-0.6-1.1l3.3-2.1c0.3,0.5,0.6,1,0.8,1.5c0.6,1.2,1,2.5,1.3,3.9l0,0L60.2,46.8z"/>
	<path class="st0" d="M61.7,80.7c-1.1,3.6-6,6.3-11.8,6.3c-6.6,0-12-3.6-12-8c0-3.6,3.7-6.7,8.7-7.6v-2.6h6.6v5.7h-1.8
		c-3.8,0-6.9,2-6.9,4.6c0,2.5,3.1,4.6,6.9,4.6c3,0,5.5-1.2,6.5-3H61.7z"/>
</g>
</svg>
