<?xml version="1.0" encoding="utf-8"?>
<!-- Generator: Adobe Illustrator 18.1.1, SVG Export Plug-In . SVG Version: 6.00 Build 0)  -->
<svg version="1.1" id="Layer_1" xmlns="http://www.w3.org/2000/svg" xmlns:xlink="http://www.w3.org/1999/xlink" x="0px" y="0px"
	 viewBox="0 0 100 100" style="enable-background:new 0 0 100 100;" xml:space="preserve">
<style type="text/css">
	.st0{fill:#545758;}
	.st1{fill:#FAC312;}
</style>
<g>
	<path class="st0" d="M0,54.8v10.4c0,0,18.3,2,18.4,17.6h62.6c0,0,18.9-8.3,18.9-28H0z M79.9,77.6h-33L94.3,60
		C91.9,70.5,82.8,76.1,79.9,77.6z"/>
	<polygon class="st0" points="24.9,49.7 5.5,49.7 12.7,36 24.9,36 	"/>
	<path class="st1" d="M37.6,36v13.7h22.1V36H37.6z M54.5,44.5H42.7v-3.4h11.7V44.5z"/>
	<path class="st1" d="M64.8,36v13.7h22.1V36H64.8z M81.7,44.5H70v-3.4h11.7V44.5z"/>
	<path class="st1" d="M37.6,17.2v13.7h22.1V17.2H37.6z M54.5,25.7H42.7v-3.4h11.7V25.7z"/>
	<path class="st1" d="M64.8,17.2v13.7h22.1V17.2H64.8z M81.7,25.7H70v-3.4h11.7V25.7z"/>
</g>
</svg>
