<?xml version="1.0" encoding="utf-8"?>
<!-- Generator: Adobe Illustrator 18.1.1, SVG Export Plug-In . SVG Version: 6.00 Build 0)  -->
<svg version="1.1" id="Layer_1" xmlns="http://www.w3.org/2000/svg" xmlns:xlink="http://www.w3.org/1999/xlink" x="0px" y="0px"
	 viewBox="0 0 100 100" style="enable-background:new 0 0 100 100;" xml:space="preserve">
<style type="text/css">
	.st0{fill:#545758;}
	.st1{fill:#FAC312;}
</style>
<g>
	<path class="st0" d="M59.1,18.8v46.8H100V18.8H59.1z M96.6,62.1H62.5v-40h34.1V62.1z"/>
	<rect x="66.3" y="36.1" class="st1" width="26.4" height="3.9"/>
	<rect x="66.3" y="44.9" class="st1" width="26.5" height="3.9"/>
	<rect x="66.4" y="53.4" class="st1" width="26.5" height="3.9"/>
	<path class="st0" d="M68.3,30.4h0.5c0.8,0,1.1,0.3,1.3,1.3c0.2,1,0.4,1.7,0.6,1.9h1.9c-0.2-0.3-0.4-1.4-0.7-2.3
		c-0.2-0.8-0.5-1.3-1.1-1.5v0c0.7-0.3,1.4-1,1.4-2c0-0.8-0.3-1.3-0.8-1.7c-0.6-0.5-1.4-0.6-2.6-0.6c-1,0-1.9,0.1-2.5,0.2v8.1h1.8
		V30.4z M68.3,26.8c0.1,0,0.4-0.1,0.8-0.1c0.8,0,1.4,0.4,1.4,1.1c0,0.7-0.5,1.2-1.5,1.2h-0.7V26.8z"/>
	<path class="st0" d="M75.7,31.5H78l0.6,2.1h2l-2.5-8.2h-2.4l-2.5,8.2h1.9L75.7,31.5z M76.4,28.4c0.1-0.5,0.3-1.1,0.4-1.6h0
		c0.1,0.5,0.3,1.1,0.4,1.6l0.5,1.7h-1.8L76.4,28.4z"/>
	<polygon class="st0" points="82.3,33.6 84.1,33.6 84.1,26.9 86.4,26.9 86.4,25.4 80.1,25.4 80.1,26.9 82.3,26.9 	"/>
	<polygon class="st0" points="92.6,32 89.2,32 89.2,30.1 92.2,30.1 92.2,28.6 89.2,28.6 89.2,26.9 92.4,26.9 92.4,25.4 87.4,25.4 
		87.4,33.6 92.6,33.6 	"/>
	<path class="st0" d="M92,71.8l-39.3,4.3V37.9l3.9-0.4V23.9L49,23.1L0,28.4v47.5l48.1,5.3v0l0.2,0l0.2,0v0l48.1-5.3v-7.8H92V71.8z
		 M4.6,71.8V33.6l39.3,4.3V53L4.7,48.7v14.5l39.2,4.3v8.5L4.6,71.8z"/>
</g>
</svg>
