<?xml version="1.0" encoding="utf-8"?>
<!-- Generator: Adobe Illustrator 18.1.1, SVG Export Plug-In . SVG Version: 6.00 Build 0)  -->
<svg version="1.1" id="Layer_1" xmlns="http://www.w3.org/2000/svg" xmlns:xlink="http://www.w3.org/1999/xlink" x="0px" y="0px"
	 viewBox="0 0 100 100" style="enable-background:new 0 0 100 100;" xml:space="preserve">
<style type="text/css">
	.st0{fill:#545758;}
	.st1{fill:#FAC312;}
</style>
<g>
	<path class="st0" d="M96.1,55.5v10.6c0,1.2-0.3,2.4-0.7,3.4c-5.2,3-10.8,4.5-17,4.5c-8.1,0-16.4-2.5-24.5-4.8
		c-8.4-2.5-17.1-5-25.7-5c-5,0-9.7,0.9-14.1,2.6l-5-5.3c0,0,0,0,0,0l-5.6-5.9H96.1z"/>
	<g>
		<path class="st0" d="M96.7,73v2.7c-14.1,8.3-28.3,4.5-42.4,0.3c-12.1-3.6-24.3-7.4-36.4-3.9c-2.8,0.8-5.5,1.9-8.2,3.6
			c0-0.9,0-1.8,0-2.7c2-1.2,3.9-2.1,5.9-2.8c16.2-5.9,32.4,2,48.6,5.8C75,78.7,85.9,79.4,96.7,73z"/>
	</g>
	<g>
		<path class="st0" d="M96.7,79.3V82c-29,17.1-58-17.1-87.1,0c0-0.9,0-1.8,0-2.7c3.9-2.3,7.9-3.7,11.8-4.4
			c7.6-1.3,15.2-0.1,22.9,1.9C61.8,81.4,79.3,89.6,96.7,79.3z"/>
	</g>
	<path class="st0" d="M37.6,29.9V13.6h-2.4v16.4h-6.1c-4.1,7-8.2,13.9-12.3,20.9c20.5,0,39.9,0,39.9,0V29.9
		C56.7,29.9,47.5,29.9,37.6,29.9z M39.6,45.7H25.7l2.3-4h11.5V45.7z M39.6,39h-9.9l2.4-4h7.5V39z M51.6,45.7h-9.3v-4h9.3V45.7z
		 M51.6,39h-9.3v-4h9.3V39z"/>
	<path class="st1" d="M56.7,13v13.8c-0.4,0.2-0.6,0.3-1,0.5C53.5,28.3,51,28.4,49,27c-1.5-1-2.3-2.7-4.2-2c-1.7,0.6-3,1.6-4.5,2.7
		c-0.1,0.1-0.2,0.1-0.2,0.2v-13c0.7-0.6,1.6-1.1,2.4-1.4c2.1-0.7,3.9,0.1,5.8,1c1.6,0.7,3.1,1.6,4.8,1.2
		C54.6,15.2,55.7,14.2,56.7,13z"/>
	<polygon class="st1" points="88.3,42.7 61.7,42.7 61.7,50.8 96.4,50.8 	"/>
</g>
</svg>
