<?xml version="1.0" encoding="utf-8"?>
<!-- Generator: Adobe Illustrator 18.1.1, SVG Export Plug-In . SVG Version: 6.00 Build 0)  -->
<svg version="1.1" id="Layer_1" xmlns="http://www.w3.org/2000/svg" xmlns:xlink="http://www.w3.org/1999/xlink" x="0px" y="0px"
	 viewBox="0 0 100 100" style="enable-background:new 0 0 100 100;" xml:space="preserve">
<style type="text/css">
	.st0{fill:#545758;}
	.st1{fill:#FAC312;}
</style>
<g>
	<path class="st0" d="M63.6,56.4c-0.5,1.7-1.4,3.3-2.5,4.6h1.6v21.3h-5.1V64.1c-1.2,0.7-2.4,1.3-3.7,1.6c-0.4,0.1-0.9,0.2-1.4,0.3
		v16.4h-5.1V65.9c-0.7-0.1-1.3-0.3-1.9-0.6c-1.1-0.4-2.2-1-3.1-1.7v18.8h-5.1V61h2.4c-0.2-0.3-0.4-0.6-0.6-0.9
		c-0.8-1.1-1.4-2.4-1.7-3.8c0,0,0,0,0,0H12.4V87h75.3V56.4H63.6z M22.1,82.4H17V61h5.1V82.4z M32.2,82.4h-5.1V61h5.1V82.4z
		 M72.9,82.4h-5.1V61h5.1V82.4z M83,82.4h-5.1V61H83V82.4z"/>
	<path class="st0" d="M35.4,13v10.9l6.2,4.3l1.6,3.9h13.6l1.6-3.9l6.2-4.3V13H35.4z M50,26.1c-2.1,0-3.8-1.7-3.8-3.8
		c0-2.1,1.7-3.8,3.8-3.8c2.1,0,3.8,1.7,3.8,3.8C53.8,24.4,52.1,26.1,50,26.1z"/>
	<path class="st1" d="M61.1,51.9l0-0.1l0-0.1l0-0.2c0-0.2,0-0.3-0.1-0.5c-0.1-0.6-0.2-1.2-0.4-1.7c-0.3-1.1-0.8-2-1.3-2.9
		c-1-1.7-2.1-3.1-3.3-4.5c-0.6-0.7-1.2-1.4-1.8-2.1l1.4-4.4H44.4l2.4,7.9c0,0,3.3,3,3.8,3.6c1.1,1,2,2.1,2.7,3.1
		c0.4,0.5,0.6,1,0.8,1.4c0.1,0.2,0.2,0.4,0.2,0.6l0,0.1l0,0.1l0,0l0,0l0,0c0,0,0,0,0,0l0,0.2l0,0c0,0,0,0.1,0-0.1v0l0,0l0,0l0,0.1
		c0,0.9-0.2,1.9-0.8,2.7c-0.5,0.8-1.4,1.5-2.3,1.8c-0.9,0.4-2.1,0.4-3.1,0.1c-1-0.3-2-0.9-2.7-1.7c-0.4-0.4-0.6-0.9-0.8-1.4
		c-0.1-0.3-0.2-0.5-0.2-0.8c0-0.1-0.1-0.3-0.1-0.4c0-0.2,0-0.2,0-0.4h-4.5c0,0.2,0,0.5,0,0.7c0,0.3,0,0.5,0.1,0.8
		c0.1,0.5,0.2,1,0.3,1.5c0.3,1,0.7,2,1.3,2.9c1.2,1.8,2.9,3.2,5,3.9c2,0.8,4.3,0.9,6.5,0.3c2.1-0.6,4.1-1.8,5.5-3.6
		c1.4-1.7,2.3-4,2.5-6.3l0-0.2l0-0.1l0-0.1l0-0.1l0-0.2L61.1,51.9z"/>
</g>
</svg>
