<?xml version="1.0" encoding="utf-8"?>
<!-- Generator: Adobe Illustrator 18.1.1, SVG Export Plug-In . SVG Version: 6.00 Build 0)  -->
<svg version="1.1" id="Layer_1" xmlns="http://www.w3.org/2000/svg" xmlns:xlink="http://www.w3.org/1999/xlink" x="0px" y="0px"
	 viewBox="0 0 100 100" style="enable-background:new 0 0 100 100;" xml:space="preserve">
<style type="text/css">
	.st1{fill:#FAC312;}
	.st0{fill:#545758;}
</style>
<g>
	<path class="st1" d="M75.6,43.6l5.8-7.1h3.4v-4.3h0l-6.3-15.4H58.8v15.4H40v11.4H75.6z M64.6,22.7h10.1l3.9,9.5h-14V22.7z"/>
	<path class="st0" d="M0,61.1c0,0,0,0,0,4.4c11.5,3.4,13,17.7,13,17.7h59.1C84,82.9,89.7,61.1,89.7,61.1H0z M72,77.3H41.1l40.4-10.5
		C79,72.3,75.5,77.2,72,77.3z"/>
	<path class="st0" d="M84.2,42.3l-5.8,7.1H0v5.8h100V42.3H84.2z M93.2,51.6c-1.6,0-2.9-1.3-2.9-2.9c0-1.6,1.3-2.9,2.9-2.9
		c1.6,0,2.9,1.3,2.9,2.9C96,50.4,94.7,51.6,93.2,51.6z"/>
</g>
</svg>
