<?xml version="1.0" encoding="utf-8"?>
<!-- Generator: Adobe Illustrator 18.1.1, SVG Export Plug-In . SVG Version: 6.00 Build 0)  -->
<svg version="1.1" id="Layer_1" xmlns="http://www.w3.org/2000/svg" xmlns:xlink="http://www.w3.org/1999/xlink" x="0px" y="0px"
	 viewBox="0 0 100 100" style="enable-background:new 0 0 100 100;" xml:space="preserve">
<style type="text/css">
	.st0{fill:#545758;}
	.st1{fill:#FAC312;}
</style>
<g>
	<g>
		<path class="st0" d="M46.7,60.7h30.8c3,0,5.4-2.4,5.4-5.4V24.5c0-3-2.4-5.4-5.4-5.4H46.7c-3,0-5.4,2.4-5.4,5.4v30.8
			C41.3,58.2,43.7,60.7,46.7,60.7z M68.1,28.5c0-1.5,1.2-2.8,2.8-2.8c1.5,0,2.8,1.2,2.8,2.8v22.7c0,1.5-1.2,2.8-2.8,2.8
			c-1.5,0-2.8-1.2-2.8-2.8V28.5z M50.5,28.5c0-1.5,1.2-2.8,2.8-2.8c1.5,0,2.8,1.2,2.8,2.8v22.7c0,1.5-1.2,2.8-2.8,2.8
			c-1.5,0-2.8-1.2-2.8-2.8V28.5z"/>
		<polygon class="st1" points="26.3,42.3 35.3,42.3 35.3,24 26.3,24 26.3,12.9 11.3,33.2 26.3,53.5 		"/>
		<path class="st0" d="M79.7,64H20.3c-6,0-10.9,4.9-10.9,10.9v1.3c0,6,4.9,10.9,10.9,10.9h59.3c6,0,10.9-4.9,10.9-10.9v-1.3
			C90.6,68.9,85.7,64,79.7,64z M24,81.9c-3.5,0-6.4-2.9-6.4-6.4c0-3.5,2.9-6.4,6.4-6.4s6.4,2.9,6.4,6.4C30.4,79.1,27.6,81.9,24,81.9
			z M41.3,81.9c-3.5,0-6.4-2.9-6.4-6.4c0-3.5,2.9-6.4,6.4-6.4c3.5,0,6.4,2.9,6.4,6.4C47.7,79.1,44.9,81.9,41.3,81.9z M58.7,81.9
			c-3.5,0-6.4-2.9-6.4-6.4c0-3.5,2.9-6.4,6.4-6.4c3.5,0,6.4,2.9,6.4,6.4C65,79.1,62.2,81.9,58.7,81.9z M76,81.9
			c-3.5,0-6.4-2.9-6.4-6.4c0-3.5,2.9-6.4,6.4-6.4c3.5,0,6.4,2.9,6.4,6.4C82.4,79.1,79.5,81.9,76,81.9z"/>
	</g>
</g>
</svg>
