<?xml version="1.0" encoding="utf-8"?>
<!-- Generator: Adobe Illustrator 18.1.1, SVG Export Plug-In . SVG Version: 6.00 Build 0)  -->
<svg version="1.1" id="Layer_1" xmlns="http://www.w3.org/2000/svg" xmlns:xlink="http://www.w3.org/1999/xlink" x="0px" y="0px"
	 viewBox="0 0 100 100" style="enable-background:new 0 0 100 100;" xml:space="preserve">
<style type="text/css">
	.st0{fill:#545758;}
	.st1{fill:#fac312;}
</style>
<g>
	<g>
		<path class="st1" d="M69.7,41c-1,0-1.9,0.1-2.8,0.3l0,0l0,0c-0.3,0.1-0.5,0.1-0.8,0.2c-0.1,0-0.1,0-0.2,0
			c-0.2,0.1-0.4,0.1-0.6,0.2c-0.1,0-0.1,0-0.2,0.1c-0.2,0.1-0.4,0.1-0.6,0.2c-0.1,0-0.1,0-0.2,0.1c-0.2,0.1-0.4,0.2-0.6,0.3
			c0,0-0.1,0-0.1,0c-2.2,1-4.1,2.6-5.5,4.6l0,0c0,0,0,0,0,0c-0.4,0.6-0.8,1.2-1.1,1.8c0,0,0,0,0,0c-0.3,0.6-0.6,1.3-0.8,1.9
			c0,0,0,0.1,0,0.1c-0.1,0.3-0.2,0.6-0.3,1c0,0,0,0.1,0,0.1c-0.1,0.3-0.1,0.6-0.2,0.9c0,0,0,0.1,0,0.1c-0.1,0.3-0.1,0.7-0.1,1
			c0,0.1,0,0.1,0,0.2c0,0.3,0,0.7,0,1c0,0.3,0,0.7,0,1c0,0.1,0,0.1,0,0.2c0,0.3,0.1,0.7,0.1,1c0,0,0,0.1,0,0.1
			c0.1,0.3,0.1,0.6,0.2,0.9c0,0,0,0.1,0,0.1c0.1,0.3,0.2,0.7,0.3,1c0,0,0,0.1,0,0.1c0.2,0.7,0.5,1.3,0.8,1.9c0,0,0,0,0,0
			c0.3,0.6,0.7,1.2,1.1,1.8c0,0,0,0,0,0l0,0c0.8,1.1,1.7,2.1,2.8,2.9l0,0l0,0c0.8,0.7,1.8,1.2,2.7,1.7c0,0,0.1,0,0.1,0
			c0.2,0.1,0.4,0.2,0.6,0.3c0.1,0,0.1,0,0.2,0.1c0.2,0.1,0.4,0.1,0.5,0.2c0.1,0,0.1,0,0.2,0.1c0.2,0.1,0.4,0.1,0.6,0.2
			c0.1,0,0.1,0,0.2,0.1c0.3,0.1,0.5,0.1,0.8,0.2c0,0,0,0,0,0l0,0c0.9,0.2,1.9,0.3,2.8,0.3c7.8,0,14.2-6.4,14.2-14.2
			C83.9,47.4,77.5,41,69.7,41z M68.5,63.9c-0.4,0.5-1.1,0.8-1.7,0.8c0,0,0,0,0,0c-0.2,0-0.5,0-0.7-0.1c0,0,0,0-0.1,0
			c-0.1,0-0.2-0.1-0.3-0.1c-0.1-0.1-0.2-0.1-0.3-0.2l-4.5-3.8l0,0L58.1,58l0,0l-0.7-0.6c-0.9-0.8-1.1-2.2-0.3-3.1
			c0.1-0.1,0.2-0.2,0.3-0.3c0,0,0.1-0.1,0.1-0.1c0.1,0,0.1-0.1,0.2-0.1c0.1,0,0.2-0.1,0.2-0.1c0.8-0.3,1.7-0.2,2.3,0.3l6.4,5.3
			l10.1-11.3c0.8-0.9,2.2-1,3.2-0.2c0.9,0.8,1,2.2,0.2,3.2L68.5,63.9z"/>
		<path class="st0" d="M30.8,53.2h21.3c0.5-4.5,2.8-8.5,6-11.3v-8.2H25.2v43.5h32.9v-8.5c-3.4-3-5.7-7.2-6.1-12H30.8
			c-1,0-1.7-0.8-1.7-1.7C29.1,53.9,29.8,53.2,30.8,53.2z M30.8,65.5h21.7c1,0,1.7,0.8,1.7,1.7c0,1-0.8,1.7-1.7,1.7H30.8
			c-1,0-1.7-0.8-1.7-1.7C29.1,66.3,29.8,65.5,30.8,65.5z M30.8,40.8h21.7c1,0,1.7,0.8,1.7,1.7c0,1-0.8,1.7-1.7,1.7H30.8
			c-1,0-1.7-0.8-1.7-1.7C29.1,41.6,29.8,40.8,30.8,40.8z"/>
		<path class="st0" d="M60.9,79.9H22.4V30.9h38.5v9c1.8-1,3.8-1.7,5.9-2.1V26c0-1.2-1-2.2-2.2-2.2h-9.9v-2.1c0-1.1-0.9-1.9-1.9-1.9
			h-1v-3.1c0-2-1.6-3.7-3.7-3.7H34.8c-2,0-3.7,1.6-3.7,3.7v3.1h-1c-1.1,0-1.9,0.9-1.9,1.9v2.1h-9.9c-1.2,0-2.2,1-2.2,2.2v58.7
			c0,1.2,1,2.2,2.2,2.2h46.2c1.2,0,2.2-1,2.2-2.2V72.7c-2.1-0.3-4.1-1.1-5.9-2.1V79.9z M34.6,16.7c0-0.1,0.1-0.2,0.2-0.2h13.3
			c0.1,0,0.2,0.1,0.2,0.2v3.1H34.6V16.7z"/>
	</g>
</g>
</svg>
