<?xml version="1.0" encoding="utf-8"?>
<!-- Generator: Adobe Illustrator 18.1.1, SVG Export Plug-In . SVG Version: 6.00 Build 0)  -->
<svg version="1.1" id="Layer_1" xmlns="http://www.w3.org/2000/svg" xmlns:xlink="http://www.w3.org/1999/xlink" x="0px" y="0px"
	 viewBox="0 0 100 100" style="enable-background:new 0 0 100 100;" xml:space="preserve">
<style type="text/css">
	.st0{fill:#545758;}
	.st1{fill:#FAC312;}
</style>
<g>
	<path class="st0" d="M91.6,15.6c0,1.4-1.5,2.6-3.4,2.6H80c-1.9,0-3.7,1.5-4.2,3.3L64.2,70.2c-0.4,1.8-2.3,3.3-4.2,3.3h-6
		c2.1,1.3,3.6,3.6,3.6,6.3c0,4-3.3,7.3-7.3,7.3c-4,0-7.3-3.3-7.3-7.3c0-2.7,1.4-5,3.6-6.3H28.7c2.1,1.3,3.6,3.6,3.6,6.3
		c0,4-3.3,7.3-7.3,7.3c-4,0-7.3-3.3-7.3-7.3c0-2.7,1.4-5,3.6-6.3h-5.6c-1.9,0-3.4-1.3-3.4-2.8c0-1.6,1.5-2.8,3.4-2.8h39.9
		c1.9,0,3.7-1.5,4.2-3.3l11.5-48.2c0.4-1.8,2.1-3.3,3.7-3.3h13.3C90.1,13,91.6,14.2,91.6,15.6z"/>
	<g>
		<polygon class="st1" points="24.2,35 24.2,42.3 11.8,42.3 10,35 		"/>
		<polygon class="st1" points="24.2,45.2 24.2,52.2 14.1,52.2 12.5,45.2 		"/>
		<path class="st1" d="M14.8,55.1h9.4v8.1h-7.4c-0.4-1.6-0.8-3.1-1.1-4.7c0,0,0,0,0,0L14.8,55.1z"/>
		<rect x="27.1" y="35" class="st1" width="7" height="7.3"/>
		<rect x="27.1" y="45.2" class="st1" width="7" height="7"/>
		<rect x="27.1" y="55.1" class="st1" width="7" height="8.1"/>
		<path class="st1" d="M37,55.1h19.2c-0.6,2.7-1.3,5.4-1.9,8.1H37V55.1z"/>
		<path class="st1" d="M58.6,45.2c-0.6,2.3-1.1,4.7-1.7,7H37v-7H58.6z"/>
		<path class="st1" d="M61.1,35c-0.6,2.4-1.2,4.9-1.7,7.3H37V35H61.1z"/>
		<path class="st1" d="M12.3,24h11.9v8.1H9.3l-0.8-3.4C7.9,26.1,9.6,24,12.3,24z"/>
		<rect x="27.1" y="24" class="st1" width="7" height="8.1"/>
		<path class="st1" d="M63.7,24c-0.4,1.6-0.8,3.2-1.1,4.7c-0.3,1.1-0.5,2.2-0.8,3.4H37V24H63.7z"/>
	</g>
</g>
</svg>
