<?xml version="1.0" encoding="utf-8"?>
<!-- Generator: Adobe Illustrator 18.1.1, SVG Export Plug-In . SVG Version: 6.00 Build 0)  -->
<svg version="1.1" id="Layer_1" xmlns="http://www.w3.org/2000/svg" xmlns:xlink="http://www.w3.org/1999/xlink" x="0px" y="0px"
	 viewBox="0 0 100 100" style="enable-background:new 0 0 100 100;" xml:space="preserve">
<style type="text/css">
	.st0{fill:#545758;}
	.st1{fill:#FAC312;}
</style>
<g>
	<rect x="49.4" y="18.8" class="st0" width="1.3" height="4"/>
	<rect x="49.4" y="76.9" class="st0" width="1.3" height="4"/>
	<rect x="19" y="49.2" class="st0" width="4" height="1.3"/>
	<rect x="77.1" y="49.2" class="st0" width="4" height="1.3"/>
	<circle class="st0" cx="50" cy="50" r="3.4"/>
	<path class="st0" d="M53.4,48c0.3,0.6,0.6,1.3,0.6,2s-0.2,1.4-0.6,2h12.1v-4H53.4z"/>
	<path class="st0" d="M46.1,50c0-0.7,0.2-1.4,0.6-2h-2v4h2C46.3,51.4,46.1,50.7,46.1,50z"/>
	<path class="st0" d="M50,46.1c0.4,0,0.8,0.1,1.1,0.2v-18h-2.2v18C49.2,46.1,49.6,46.1,50,46.1z"/>
	<path class="st0" d="M50,53.9c-0.4,0-0.8-0.1-1.1-0.2v1.8h2.2v-1.8C50.8,53.9,50.4,53.9,50,53.9z"/>
	<g>
		<path class="st1" d="M13,48.2c0,0.6,0,1.2,0,1.8c0,20.4,16.6,37,37,37s37-16.6,37-37c0-0.2,0-0.3,0-0.5c-1.5,0.3-3,0.5-4.5,0.8
			C82.3,68.1,67.8,82.5,50,82.5c-17.9,0-32.5-14.6-32.5-32.5c0-0.3,0-0.6,0-0.9C16,48.8,14.5,48.5,13,48.2L13,48.2z"/>
		<path class="st1" d="M23.6,50.1c0,14.5,11.8,26.3,26.4,26.3l0,0V56.2h-1.8v-2.5c-0.5-0.3-1-0.6-1.3-1H44v-0.5
			c-2.8-0.1-5.5-0.3-8.3-0.6C31.6,51.2,27.5,50.7,23.6,50.1L23.6,50.1z"/>
		<path class="st1" d="M50,13c-19.8,0-36,15.6-37,35.2c1.5,0.3,3,0.6,4.5,0.9C18,31.5,32.4,17.5,50,17.5c17.9,0,32.5,14.6,32.5,32.5
			c0,0.1,0,0.2,0,0.3c1.5-0.2,3-0.5,4.5-0.8C86.7,29.3,70.3,13,50,13L50,13z"/>
		<path class="st1" d="M31.8,30.9c-5,4.8-8.2,11.6-8.2,19.1v0.1c3.9,0.6,8,1.1,12,1.5c2.8,0.3,5.6,0.5,8.3,0.6v-4.8h2.9
			c0.1-0.1,0.2-0.2,0.3-0.3L31.8,30.9L31.8,30.9z"/>
	</g>
</g>
</svg>
