<?xml version="1.0" encoding="utf-8"?>
<!-- Generator: Adobe Illustrator 18.1.1, SVG Export Plug-In . SVG Version: 6.00 Build 0)  -->
<svg version="1.1" id="Layer_1" xmlns="http://www.w3.org/2000/svg" xmlns:xlink="http://www.w3.org/1999/xlink" x="0px" y="0px"
	 viewBox="0 0 100 100" style="enable-background:new 0 0 100 100;" xml:space="preserve">
<style type="text/css">
	.st0{fill:#545758;}
	.st1{fill:#FAC312;}
</style>
<g>
	<g>
		<path class="st0" d="M85.3,33.7H14.7c-1.6,0-2.8,1.3-2.8,2.8v47.6c0,1.6,1.3,2.8,2.8,2.8h70.6c1.6,0,2.8-1.3,2.8-2.8V36.5
			C88.1,35,86.9,33.7,85.3,33.7z M79.6,76.8c0,1.4-1.1,2.5-2.5,2.5H22.9c-1.4,0-2.5-1.1-2.5-2.5V43.9c0-1.4,1.1-2.5,2.5-2.5h54.2
			c1.4,0,2.5,1.1,2.5,2.5V76.8z"/>
		<path class="st1" d="M72,44.7H61.7c-1.4,0-2.5,1.1-2.5,2.5v10.3c0,1.4,1.1,2.5,2.5,2.5H72c1.4,0,2.5-1.1,2.5-2.5V47.2
			C74.5,45.8,73.4,44.7,72,44.7z"/>
		<path class="st1" d="M52.5,52H27.7c-1.4,0-2.5,1.1-2.5,2.5c0,1.4,1.1,2.5,2.5,2.5h24.9c1.4,0,2.5-1.1,2.5-2.5
			C55.1,53.2,53.9,52,52.5,52z"/>
		<path class="st1" d="M52.5,60.7H27.7c-1.4,0-2.5,1.1-2.5,2.5c0,1.4,1.1,2.5,2.5,2.5h24.9c1.4,0,2.5-1.1,2.5-2.5
			C55.1,61.8,53.9,60.7,52.5,60.7z"/>
		<path class="st1" d="M52.5,69.4H27.7c-1.4,0-2.5,1.1-2.5,2.5c0,1.4,1.1,2.5,2.5,2.5h24.9c1.4,0,2.5-1.1,2.5-2.5
			C55.1,70.5,53.9,69.4,52.5,69.4z"/>
		<path class="st0" d="M80.9,15.8C80,14.1,78.2,13,76.6,13H23.4c-1.6,0-3.4,1.2-4.3,2.8l-7.2,13.8h76.3L80.9,15.8z"/>
	</g>
</g>
</svg>
