<?xml version="1.0" encoding="utf-8"?>
<!-- Generator: Adobe Illustrator 18.1.1, SVG Export Plug-In . SVG Version: 6.00 Build 0)  -->
<svg version="1.1" id="Layer_1" xmlns="http://www.w3.org/2000/svg" xmlns:xlink="http://www.w3.org/1999/xlink" x="0px" y="0px"
	 viewBox="0 0 100 100" style="enable-background:new 0 0 100 100;" xml:space="preserve">
<style type="text/css">
	.st0{fill:#545758;}
	.st1{fill:#FAC312;}
</style>
<g>
	<path class="st0" d="M99.3,50.8v11.3c0,1.3-0.3,2.5-0.8,3.6C92.9,69,87,70.6,80.3,70.6c-8.6,0-17.6-2.6-26.2-5.2
		c-9-2.6-18.3-5.4-27.6-5.4c-5.4,0-10.4,0.9-15.1,2.8L6,57.1c0,0,0,0,0,0l-6-6.3H99.3z"/>
	<g>
		<path class="st0" d="M100,69.5v2.9c-15.1,8.9-30.3,4.8-45.4,0.3c-13-3.8-26-7.9-38.9-4.2c-2.9,0.8-5.9,2.1-8.8,3.8
			c0-1,0-1.9,0-2.9c2.1-1.2,4.2-2.2,6.3-3c17.4-6.3,34.7,2.1,52.1,6.2C76.8,75.6,88.4,76.4,100,69.5z"/>
	</g>
	<g>
		<path class="st0" d="M100,76.3v2.9c-31.1,18.3-62.1-18.3-93.2,0c0-1,0-1.9,0-2.9c4.2-2.5,8.4-4,12.7-4.7c8.2-1.4,16.3-0.1,24.5,2
			C62.6,78.4,81.3,87.3,100,76.3z"/>
	</g>
	<rect x="11.2" y="38.5" class="st1" width="16.8" height="8.4"/>
	<rect x="11.2" y="26.9" class="st1" width="16.8" height="8.4"/>
	<rect x="31.6" y="38.5" class="st1" width="16.8" height="8.4"/>
	<rect x="31.6" y="26.9" class="st1" width="16.8" height="8.4"/>
	<rect x="52" y="38.5" class="st1" width="16.8" height="8.4"/>
	<rect x="52" y="26.9" class="st1" width="16.8" height="8.4"/>
	<rect x="72.5" y="38.5" class="st1" width="16.8" height="8.4"/>
	<rect x="72.5" y="26.9" class="st1" width="16.8" height="8.4"/>
	<rect x="31.6" y="15.5" class="st1" width="16.8" height="8.4"/>
	<rect x="52" y="15.5" class="st1" width="16.8" height="8.4"/>
</g>
</svg>
