<?xml version="1.0" encoding="utf-8"?>
<!-- Generator: Adobe Illustrator 18.1.1, SVG Export Plug-In . SVG Version: 6.00 Build 0)  -->
<svg version="1.1" id="Layer_1" xmlns="http://www.w3.org/2000/svg" xmlns:xlink="http://www.w3.org/1999/xlink" x="0px" y="0px"
	 viewBox="0 0 100 100" style="enable-background:new 0 0 100 100;" xml:space="preserve">
<style type="text/css">
	.st0{fill:#545758;}
	.st1{fill:#FAC312;}
</style>
<g>
	<path class="st0" d="M91.8,56.3v10.3c0,1.2-0.3,2.3-0.7,3.3c-5.1,2.9-10.5,4.4-16.6,4.4c-7.9,0-16-2.4-23.9-4.7
		c-8.2-2.4-16.7-4.9-25.1-4.9c-4.9,0-9.5,0.8-13.8,2.5l-4.9-5.2c0,0,0,0,0,0l-5.4-5.7H91.8z"/>
	<rect x="77" y="29.5" class="st0" width="11.6" height="4.1"/>
	<rect x="79.6" y="14.3" class="st0" width="1.7" height="14.1"/>
	<path class="st1" d="M98.8,13.1v13.5c-0.4,0.2-0.6,0.3-1,0.5c-2.1,0.9-4.6,1.1-6.6-0.3c-1.5-1-2.3-2.6-4.1-2
		c-1.7,0.5-2.9,1.6-4.4,2.6c-0.1,0.1-0.2,0.1-0.2,0.2V14.8c0.7-0.6,1.5-1.1,2.3-1.4c2-0.7,3.8,0.1,5.7,0.9c1.5,0.7,3,1.5,4.7,1.1
		C96.7,15.2,97.8,14.2,98.8,13.1z"/>
	<g>
		<path class="st0" d="M92.4,73.3V76c-13.8,8.1-27.6,4.4-41.4,0.3c-11.8-3.5-23.7-7.2-35.5-3.8c-2.7,0.8-5.4,1.9-8.1,3.5
			c0-0.9,0-1.8,0-2.6c1.9-1.1,3.8-2,5.8-2.7c15.8-5.8,31.7,1.9,47.5,5.7C71.3,78.8,81.9,79.6,92.4,73.3z"/>
	</g>
	<g>
		<path class="st0" d="M92.4,79.5v2.6c-28.3,16.7-56.7-16.7-85,0c0-0.9,0-1.8,0-2.6c3.9-2.3,7.7-3.6,11.6-4.3
			c7.4-1.3,14.9-0.1,22.3,1.8C58.4,81.4,75.4,89.5,92.4,79.5z"/>
	</g>
	<rect x="1.2" y="43.4" class="st1" width="19.9" height="9.9"/>
	<rect x="1.2" y="30.5" class="st1" width="19.9" height="9.9"/>
	<rect x="24.5" y="43.4" class="st1" width="19.9" height="9.9"/>
	<rect x="24.5" y="30.5" class="st1" width="19.9" height="9.9"/>
	<rect x="47.7" y="43.4" class="st1" width="19.9" height="9.9"/>
	<rect x="47.7" y="30.5" class="st1" width="19.9" height="9.9"/>
	<path class="st0" d="M72,36v17.8h20.4V36H72z M80.7,50.4h-5.4v-4h5.4V50.4z M80.7,43.5h-5.4v-4h5.4V43.5z M89.2,50.4h-5.4v-4h5.4
		V50.4z M89.2,43.5h-5.4v-4h5.4V43.5z"/>
</g>
</svg>
