<?xml version="1.0" encoding="utf-8"?>
<!-- Generator: Adobe Illustrator 18.1.1, SVG Export Plug-In . SVG Version: 6.00 Build 0)  -->
<svg version="1.1" id="Layer_1" xmlns="http://www.w3.org/2000/svg" xmlns:xlink="http://www.w3.org/1999/xlink" x="0px" y="0px"
	 viewBox="0 0 100 100" style="enable-background:new 0 0 100 100;" xml:space="preserve">
<style type="text/css">
	.st0{fill:#545758;}
	.st1{fill:#FAC312;}
</style>
<g>
	<path class="st0" d="M83.7,53.1H16.3C7.3,53.1,0,60.4,0,69.4c0,9,7.3,16.3,16.3,16.3h67.4c9,0,16.3-7.3,16.3-16.3
		C100,60.4,92.7,53.1,83.7,53.1z M83.7,78.9C83.7,78.9,83.7,78.9,83.7,78.9L83.7,78.9H16.3c-5.3,0-9.5-4.3-9.5-9.5
		c0-5.3,4.3-9.5,9.5-9.5h67.4v0c0,0,0,0,0,0c5.3,0,9.5,4.3,9.5,9.5C93.3,74.7,89,78.9,83.7,78.9z"/>
	<polygon class="st1" points="88,14.3 88,48.4 54,48.4 54,14.3 67.3,14.3 67.3,27.7 74.7,27.7 74.7,14.3 	"/>
	<polygon class="st1" points="46,14.3 46,48.4 12,48.4 12,14.3 25.3,14.3 25.3,27.7 32.7,27.7 32.7,14.3 	"/>
	<circle class="st0" cx="16.3" cy="69.4" r="5.4"/>
	<circle class="st0" cx="83.6" cy="69.4" r="5.4"/>
</g>
</svg>
