<?xml version="1.0" encoding="utf-8"?>
<!-- Generator: Adobe Illustrator 18.1.1, SVG Export Plug-In . SVG Version: 6.00 Build 0)  -->
<svg version="1.1" id="Layer_1" xmlns="http://www.w3.org/2000/svg" xmlns:xlink="http://www.w3.org/1999/xlink" x="0px" y="0px"
	 viewBox="0 0 100 100" style="enable-background:new 0 0 100 100;" xml:space="preserve">
<style type="text/css">
	.st0{fill:#545758;}
	.st1{fill:#FAC312;}
</style>
<g>
	<rect x="43" y="13" class="st1" width="14.5" height="9.7"/>
	
		<rect x="14.8" y="23.9" transform="matrix(0.7071 -0.7071 0.7071 0.7071 -13.8619 24.0069)" class="st1" width="14.5" height="9.7"/>
	
		<rect x="70.7" y="25.3" transform="matrix(0.7071 0.7071 -0.7071 0.7071 44.1107 -46.3052)" class="st1" width="14.5" height="9.7"/>
	<path class="st0" d="M78.5,52.1c-0.5-2.7-1.4-5.4-2.6-7.8C71.1,34.5,61,27.7,49.3,27.7C33,27.7,19.7,41,19.7,57.4
		C19.7,73.7,33,87,49.3,87c4.2,0,8.2-0.9,11.8-2.4c4.1-1.8,7.7-4.5,10.6-7.8c2.3-2.6,4.1-5.7,5.3-9c0.9-2.5,1.5-5.1,1.8-7.8
		c0.1-0.9,0.1-1.8,0.1-2.6C79,55.6,78.8,53.8,78.5,52.1z M70.4,47c1,2,1.6,4,2,6.2l-6.7,1.2c-0.3-1.5-0.8-3-1.4-4.4
		c-0.2-0.4-0.4-0.8-0.7-1.3l5.8-3.5C69.8,45.9,70.1,46.4,70.4,47z M32.7,40.8l4.8,4.8c-1.4,1.4-2.6,3.1-3.4,5l-6.2-2.8
		C29.1,45.2,30.7,42.8,32.7,40.8z M26.9,64.4c-0.7-2.3-1.1-4.6-1.1-7c0-0.5,0-0.9,0-1.4l6.8,0.4c0,0.3,0,0.7,0,1
		c0,1.7,0.3,3.4,0.8,5L26.9,64.4z M37.3,77.5c-2.4-1.5-4.6-3.4-6.4-5.6l5.3-4.2c1.3,1.6,2.8,2.9,4.5,4L37.3,77.5z M39.7,36
		c2.6-1.2,5.4-1.9,8.2-2l0.4,6.8c-2,0.1-4,0.6-5.8,1.4L39.7,36z M49.3,80.8c-1.4,0-2.8-0.1-4.1-0.4l1.2-6.7c2,0.4,4.1,0.3,6,0
		l1.2,6.7C52.2,80.7,50.8,80.8,49.3,80.8z M46.8,67.3l3.5-25.1l3.5,25.1H46.8z M56.3,35c2.7,0.9,5.2,2.2,7.5,4l-4.2,5.3
		C58,43,56.2,42,54.3,41.4L56.3,35z M67,72.7c-1.6,1.8-3.4,3.4-5.5,4.6L58,71.6c1.5-0.9,2.8-2,3.9-3.3c0.2-0.2,0.4-0.5,0.6-0.7
		l5.4,4.1C67.6,72.1,67.3,72.4,67,72.7z M72.7,59.5c-0.1,1.6-0.4,3.2-0.9,4.7l-6.5-2c0.3-1.1,0.5-2.2,0.7-3.4c0-0.5,0.1-1,0.1-1.5
		c0-0.4,0-0.8,0-1.1l6.8-0.5c0,0.5,0.1,1.1,0.1,1.6C72.8,58.1,72.7,58.8,72.7,59.5z"/>
</g>
</svg>
