<?xml version="1.0" encoding="utf-8"?>
<!-- Generator: Adobe Illustrator 18.1.1, SVG Export Plug-In . SVG Version: 6.00 Build 0)  -->
<svg version="1.1" id="Layer_1" xmlns="http://www.w3.org/2000/svg" xmlns:xlink="http://www.w3.org/1999/xlink" x="0px" y="0px"
	 viewBox="0 0 100 100" style="enable-background:new 0 0 100 100;" xml:space="preserve">
<style type="text/css">
	.st0{fill:#545758;}
	.st1{fill:#fac312;}
	.st2{opacity:0;fill:#010101;}
</style>
<g id="business-suit_2_">
	<path class="st0" d="M73.7,18.9l-12.1-4.8l-2.7,43.3L50,66.3l-8.9-8.9l-2.7-43.3l-12.1,4.8c0,0-12.5,15.1-14.5,47.4H22
		c2-10.7,5.3-27.6,7.3-29.6c3-3,0,41.4,0,41.4S38.2,87,50,87s20.7-8.9,20.7-8.9s-3-44.4,0-41.4c2,2,5.4,18.9,7.3,29.6h10.1
		C86.2,34,73.7,18.9,73.7,18.9z"/>
	<path class="st1" d="M79.6,75.2h8.9c0-2-0.1-4-0.1-5.9h-9.8C79.2,72.8,79.6,75.2,79.6,75.2z"/>
	<path class="st1" d="M11.5,75.2h8.9c0,0,0.4-2.4,1-5.9h-9.8C11.6,71.2,11.5,73.1,11.5,75.2z"/>
	<path class="st2" d="M50,66.3l8.9-8.9l2.7-43.3L58.9,13H53v5.9H47V13h-5.9l-2.7,1.1l2.7,43.3L50,66.3z M47,21.9H53l3,26.6L50,57.4
		l-5.9-8.9L47,21.9z"/>
	<rect x="47" y="13" class="st1" width="5.9" height="5.9"/>
	<polygon class="st1" points="55.9,48.5 53,21.9 47,21.9 44.1,48.5 50,57.4 	"/>
	<path class="st2" d="M11.7,69.2h9.8c0.2-0.9,0.3-1.9,0.5-3H11.8C11.8,67.3,11.7,68.2,11.7,69.2z"/>
	<path class="st2" d="M78,66.3c0.2,1.1,0.4,2,0.5,3h9.8c0-1-0.1-2-0.2-3H78z"/>
</g>
</svg>
