<?xml version="1.0" encoding="utf-8"?>
<!-- Generator: Adobe Illustrator 18.1.1, SVG Export Plug-In . SVG Version: 6.00 Build 0)  -->
<svg version="1.1" id="Layer_1" xmlns="http://www.w3.org/2000/svg" xmlns:xlink="http://www.w3.org/1999/xlink" x="0px" y="0px"
	 viewBox="0 0 100 100" style="enable-background:new 0 0 100 100;" xml:space="preserve">
<style type="text/css">
	.st0{fill:#545758;}
	.st1{fill:#FAC312;}
</style>
<g>
	<path class="st0" d="M91.3,76.4v-5.3H8.7v5.3h2.4v5.3H8.7V87h82.7v-5.3h-2.4v-5.3H91.3z M44.6,81.7H21.9v-5.3h22.7V81.7z
		 M78.1,81.7H55.4v-5.3h22.7V81.7z"/>
	<polygon class="st0" points="46.3,30.4 41.5,25.7 36.2,25.7 36.2,31 41,35.7 	"/>
	<polygon class="st0" points="53.7,48.5 58.5,53.2 63.8,53.2 63.8,47.9 59,43.2 	"/>
	<polygon class="st1" points="63.8,31 63.8,25.7 58.5,25.7 36.2,47.9 36.2,53.2 41.5,53.2 	"/>
	<path class="st0" d="M76.4,13H23.6v52.9h52.9V13z M69,58.5H31V20.4H69V58.5z"/>
</g>
</svg>
