<?xml version="1.0" encoding="utf-8"?>
<!-- Generator: Adobe Illustrator 18.1.1, SVG Export Plug-In . SVG Version: 6.00 Build 0)  -->
<svg version="1.1" id="Layer_1" xmlns="http://www.w3.org/2000/svg" xmlns:xlink="http://www.w3.org/1999/xlink" x="0px" y="0px"
	 viewBox="0 0 100 100" style="enable-background:new 0 0 100 100;" xml:space="preserve">
<style type="text/css">
	.st0{fill:#545758;}
	.st1{fill:#FAC312;}
</style>
<g>
	<path class="st0" d="M79.6,28l-6,3.5c-1.8,1-3.7,3.5-4.2,5.5l-8.3,30.8c-0.8-0.5-1.8-0.8-2.7-1.1c-1-0.3-2-0.4-2.9-0.4l8.9-33.2
		c0.5-2,2.4-4.5,4.2-5.5l8.1-4.7c1.8-1,3.9-0.7,4.7,0.7C82.1,25,81.3,27,79.6,28z"/>
	<path class="st0" d="M19.9,66l24.6,6.6c-0.5,0.8-0.8,1.8-1.1,2.7c-0.3,1-0.4,1.9-0.4,2.9l-24.6-6.6L19.9,66z"/>
	<g>
		<polygon class="st1" points="53.6,46 47.5,68.7 21.1,61.6 27.1,39 37.8,41.8 35.3,51.2 40.4,52.6 42.9,43.2 		"/>
	</g>
	<g>
		<polygon class="st1" points="60.5,20.1 54.8,41.6 28.3,34.5 34.1,13 44.7,15.9 42.2,25.2 47.4,26.6 49.9,17.2 		"/>
	</g>
	<path class="st0" d="M60.1,71.6c-0.8-0.6-1.7-1-2.7-1.3c-1-0.3-2-0.3-3-0.3c-2.5,0.2-4.7,1.5-6.1,3.6c-0.6,0.8-1,1.7-1.3,2.7
		c-0.3,1-0.3,2-0.3,3c0.3,3.4,2.7,6.5,6.2,7.4c4.5,1.2,9.2-1.5,10.4-6C64.3,77.2,62.9,73.6,60.1,71.6z M58.8,79.5
		c-0.3,1.1-1.1,2-2.1,2.5c-0.7,0.3-1.6,0.4-2.4,0.2c-0.8-0.2-1.5-0.7-2-1.4c-0.7-0.9-0.9-2-0.6-3.2c0.3-1,0.9-1.8,1.7-2.2
		c0.1-0.1,0.3-0.1,0.4-0.2h0c0.7-0.3,1.6-0.4,2.4-0.2c0.8,0.2,1.5,0.7,2,1.4c0.1,0.1,0.2,0.3,0.3,0.4C58.9,77.5,59,78.5,58.8,79.5z"
		/>
</g>
</svg>
