<?xml version="1.0" encoding="utf-8"?>
<!-- Generator: Adobe Illustrator 18.1.1, SVG Export Plug-In . SVG Version: 6.00 Build 0)  -->
<svg version="1.1" id="Layer_1" xmlns="http://www.w3.org/2000/svg" xmlns:xlink="http://www.w3.org/1999/xlink" x="0px" y="0px"
	 viewBox="0 0 100 100" style="enable-background:new 0 0 100 100;" xml:space="preserve">
<style type="text/css">
	.st0{fill:#545758;}
	.st1{fill:#FAC312;}
	.st2{fill:none;}
</style>
<g>
	<rect x="20.4" y="60.9" class="st2" width="8.9" height="2.8"/>
	<rect x="20.4" y="55.1" class="st2" width="8.9" height="2.8"/>
	<rect x="27.8" y="81" class="st2" width="18.7" height="0.8"/>
	<rect x="20.4" y="66.6" class="st2" width="8.9" height="2.8"/>
	<polygon class="st2" points="37.8,52.9 37.8,64.2 57.7,64.2 46.4,52.9 	"/>
	<polygon class="st2" points="39.3,32.6 44,48.3 45.2,48.3 62.7,23.6 59.9,20.8 	"/>
	<path class="st1" d="M27.8,81.9H21c-2.9,0-5.2,2.3-5.2,5.2h42.7c0-2.9-2.3-5.2-5.2-5.2h-6.8v-0.1L27.8,81.9L27.8,81.9z"/>
	<path class="st0" d="M71.6,13.9L57,13l-2.5,2.5l1.3,1.3L33.6,29.5c-0.1,0-12.3-1.3-12.3-1.3c-0.3-0.8-0.8-1.5-1.4-2.1
		c-2.4-2.4-6.3-2.4-8.7,0c-2.4,2.4-2.4,6.3,0,8.7c2.4,2.4,6.3,2.4,8.7,0c0.3-0.3,0.6-0.7,0.8-1l11.8,1.2v13.3H19.4
		c-3.3,0-6.1,2.7-6.1,6.1v15.9c0,3.3,2.7,6.1,6.1,6.1h8.4V81h18.7v-4.8h11c3.3,0,6.1-2.7,6.1-6.1v-6.6L50.5,50.4l16.2-22.8
		l19.6,19.6l4.3-4.3L71.6,13.9z M29.3,69.4h-8.9v-2.8h8.9V69.4z M29.3,63.7h-8.9v-2.8h8.9V63.7z M29.3,57.9h-8.9v-2.8h8.9V57.9z
		 M57.7,64.2H37.8V52.9h8.6L57.7,64.2z M45.2,48.3H44l-4.7-15.7l20.6-11.8l2.8,2.8L45.2,48.3z"/>
</g>
</svg>
