<?xml version="1.0" encoding="utf-8"?>
<!-- Generator: Adobe Illustrator 18.1.1, SVG Export Plug-In . SVG Version: 6.00 Build 0)  -->
<svg version="1.1" id="Layer_1" xmlns="http://www.w3.org/2000/svg" xmlns:xlink="http://www.w3.org/1999/xlink" x="0px" y="0px"
	 viewBox="0 0 100 100" style="enable-background:new 0 0 100 100;" xml:space="preserve">
<style type="text/css">
	.st0{fill:#545758;}
	.st1{fill:#FAC312;}
</style>
<g>
	<path class="st1" d="M86.9,51.5L72.7,76.1c-1.5,2.6-5.1,4.7-8.1,4.7h-4.9V87l-4.9-6.3L47,70.8l7.8-9.9c0,0,4.9-6.3,4.9-6.3v6.3
		h14.9l-8.3-14.4l17.4-10l3.3,5.7C88.4,44.8,88.4,49,86.9,51.5z"/>
	<g>
		<path class="st0" d="M44.1,60.9v19.9h-7.8c-3,0-6.6-2.1-8.1-4.7L14.1,51.5c-1.5-2.6-1.5-6.8,0-9.4l3.1-5.4l-5.2-3l7.6-1.1
			l12.8-1.8L37,42.5l3,7.5l-5.5-3.2l-8.1,14.1H44.1z"/>
	</g>
	<g>
		<path class="st0" d="M81.5,19.7l-3.1,7.7l-4.6,11.4l-13.1-1.9l-7.3-1l5-2.9l-8-13.8l-8.1,14.1L25,23.3l3.2-5.6
			c1.5-2.6,5.1-4.7,8.1-4.7h28.3c3,0,6.6,2.1,8.1,4.7l3.1,5.3L81.5,19.7z"/>
	</g>
</g>
</svg>
