<?xml version="1.0" encoding="utf-8"?>
<!-- Generator: Adobe Illustrator 18.1.1, SVG Export Plug-In . SVG Version: 6.00 Build 0)  -->
<svg version="1.1" id="Layer_1" xmlns="http://www.w3.org/2000/svg" xmlns:xlink="http://www.w3.org/1999/xlink" x="0px" y="0px"
	 viewBox="0 0 100 100" style="enable-background:new 0 0 100 100;" xml:space="preserve">
<style type="text/css">
	.st0{fill:#545758;}
	.st1{fill:#FAC312;}
</style>
<g>
	<g>
		<path class="st1" d="M23.2,65.9H7.5c-1.5,0-2.8,1.2-2.8,2.8v15.7c0,1.5,1.2,2.8,2.8,2.8h15.7c1.5,0,2.8-1.2,2.8-2.8V68.6
			C25.9,67.1,24.7,65.9,23.2,65.9z M13.1,81.6c0,1.1-0.9,1.9-1.9,1.9s-1.9-0.9-1.9-1.9V71.4c0-1.1,0.9-1.9,1.9-1.9s1.9,0.9,1.9,1.9
			V81.6z M21.4,81.6c0,1.1-0.9,1.9-1.9,1.9c-1.1,0-1.9-0.9-1.9-1.9V71.4c0-1.1,0.9-1.9,1.9-1.9c1.1,0,1.9,0.9,1.9,1.9V81.6z"/>
		<path class="st1" d="M46.3,65.9H30.7c-1.5,0-2.8,1.2-2.8,2.8v15.7c0,1.5,1.2,2.8,2.8,2.8h15.7c1.5,0,2.8-1.2,2.8-2.8V68.6
			C49.1,67.1,47.8,65.9,46.3,65.9z M36.3,81.6c0,1.1-0.9,1.9-1.9,1.9c-1.1,0-1.9-0.9-1.9-1.9V71.4c0-1.1,0.9-1.9,1.9-1.9
			c1.1,0,1.9,0.9,1.9,1.9V81.6z M44.6,81.6c0,1.1-0.9,1.9-1.9,1.9c-1.1,0-1.9-0.9-1.9-1.9V71.4c0-1.1,0.9-1.9,1.9-1.9
			c1.1,0,1.9,0.9,1.9,1.9V81.6z"/>
		<path class="st1" d="M7.5,63.8h15.7c1.5,0,2.8-1.2,2.8-2.8V45.4c0-1.5-1.2-2.8-2.8-2.8H7.5c-1.5,0-2.8,1.2-2.8,2.8V61
			C4.7,62.6,6,63.8,7.5,63.8z M17.5,48.1c0-1.1,0.9-1.9,1.9-1.9c1.1,0,1.9,0.9,1.9,1.9v10.3c0,1.1-0.9,1.9-1.9,1.9
			c-1.1,0-1.9-0.9-1.9-1.9V48.1z M9.2,48.1c0-1.1,0.9-1.9,1.9-1.9s1.9,0.9,1.9,1.9v10.3c0,1.1-0.9,1.9-1.9,1.9s-1.9-0.9-1.9-1.9
			V48.1z"/>
		<path class="st0" d="M54.6,24.5c1.2,0,4.1-0.1,8.8-0.2c3.7-0.1,6.9-0.1,9.2-0.1c-5-3.5-13.6-7.8-15.8-9.1
			c-3.1-1.7-9.6-3.2-9.2-1.1C48,15.8,53.3,22.8,54.6,24.5z"/>
		<path class="st0" d="M95.3,36c0.2-5-8.1-9.4-18.5-9.7c-0.1,0-0.3,0-0.4,0C68.5,26,43.6,26,27.6,27.7c-1-0.9-9-7.9-11.1-8.6
			c-2.2-0.7-6.8-0.8-7.1,0.6c-0.2,1,3.9,6.8,6.4,10.2c-1.6,0.6-2.5,1.3-2.4,2.1c0,0.4,0.6,0.9,1.5,1.5c-2.7,1.2-5.6,2.8-5.7,3.9
			c-0.2,2.1,3,2.3,6.3,1.8c1.1-0.2,4.1-1.1,7-2.1c4.9,1.9,10.9,3.7,16.2,4.7L27.3,52.6c-0.8,0.7-0.8,2-0.1,2.7
			c0.4,0.4,0.9,0.6,1.4,0.6c0.5,0,1-0.2,1.3-0.5l13.5-12.9c2.2,0.3,4.7,0.5,7.2,0.7c-7,5.8-19.5,17.7-16,20.1
			c4.5,3.2,27.3-10.8,39.8-18.9c0.4,0,0.8,0,1.2,0c0,0,0,0,0,0c0.1,0,0.3,0,0.4,0c0.4,0,0.9,0,1.3,0l0,1c-1.6,0.5-2.8,1.9-2.8,3.6
			c-0.1,2.2,1.6,4,3.8,4c2.2,0.1,4-1.6,4-3.8c0.1-1.7-0.9-3.1-2.4-3.7l0-1.2C88.6,43.8,95.1,40.3,95.3,36z M78.4,50.7
			c-0.8,0-1.5-0.7-1.5-1.5c0-0.8,0.7-1.5,1.5-1.5c0.8,0,1.5,0.7,1.5,1.5C80,50.1,79.3,50.7,78.4,50.7z"/>
	</g>
</g>
</svg>
