<?xml version="1.0" encoding="utf-8"?>
<!-- Generator: Adobe Illustrator 18.1.1, SVG Export Plug-In . SVG Version: 6.00 Build 0)  -->
<svg version="1.1" id="Layer_1" xmlns="http://www.w3.org/2000/svg" xmlns:xlink="http://www.w3.org/1999/xlink" x="0px" y="0px"
	 viewBox="0 0 100 100" style="enable-background:new 0 0 100 100;" xml:space="preserve">
<style type="text/css">
	.st0{fill:#545758;}
	.st1{fill:#FAC312;}
</style>
<g>
	<path class="st0" d="M91.2,56.8V67c0,1.2-0.3,2.3-0.7,3.3c-5,2.9-10.4,4.3-16.4,4.3c-7.8,0-15.8-2.4-23.6-4.7
		c-8.1-2.4-16.4-4.8-24.8-4.8c-4.9,0-9.3,0.8-13.6,2.5l-4.9-5.1l0,0l-5.4-5.6h89.4V56.8z"/>
	<rect x="76.7" y="30.3" class="st0" width="11.4" height="4"/>
	<rect x="79.2" y="15.4" class="st1" width="1.6" height="13.9"/>
	<path class="st1" d="M98.1,14.2v13.3c-0.4,0.2-0.5,0.3-0.9,0.5c-2.1,0.9-4.5,1.1-6.5-0.3c-1.5-1-2.2-2.6-4.1-2
		c-1.6,0.5-2.9,1.6-4.3,2.6c-0.1,0.1-0.2,0.1-0.2,0.2V15.9c0.7-0.6,1.5-1.1,2.3-1.3c2-0.7,3.8,0.1,5.6,0.9c1.5,0.7,3,1.5,4.6,1.1
		C96.1,16.2,97.1,15.3,98.1,14.2z"/>
	<g>
		<path class="st0" d="M91.8,73.7v2.6c-13.6,8-27.2,4.3-40.8,0.3c-11.7-3.4-23.4-7.1-35-3.7c-2.6,0.8-5.3,1.9-7.9,3.4
			c0-0.9,0-1.7,0-2.6c1.9-1.1,3.8-2,5.7-2.7c15.6-5.7,31.2,1.9,46.8,5.6C71,79.1,81.4,79.8,91.8,73.7z"/>
	</g>
	<g>
		<path class="st0" d="M91.8,79.8v2.6C63.9,98.8,36,65.9,8,82.4c0-0.9,0-1.7,0-2.6c3.8-2.2,7.6-3.6,11.4-4.2
			c7.3-1.3,14.7-0.1,22,1.8C58.2,81.7,75,89.7,91.8,79.8z"/>
	</g>
	<rect x="11.6" y="44.1" class="st0" width="20.9" height="9.8"/>
	<rect x="11.6" y="31.4" class="st0" width="20.9" height="9.8"/>
	<path class="st0" d="M71.6,36.8v17.5h20.1V36.8H71.6z M80.3,51H75v-3.9h5.3V51z M80.3,44.1H75v-3.9h5.3V44.1z M88.6,51h-5.3v-3.9
		h5.3V51z M88.6,44.1h-5.3v-3.9h5.3V44.1z"/>
	<g>
		<polygon class="st0" points="42.4,18 42.4,29.5 40.7,29.5 40.7,16.1 		"/>
	</g>
	<g>
		<path class="st0" d="M45,37.2c-0.4,1.9-2.2,3.3-4.2,3.3c-2.4,0-4.3-1.9-4.3-4.3c0-1.9,1.2-3.5,3-4.1v-1.6h3.8v3.4h-1.5
			c-1.3,0-2.4,1.1-2.4,2.4c0,1.3,1.1,2.4,2.4,2.4c1,0,1.8-0.6,2.2-1.4h1V37.2z"/>
	</g>
	<rect x="59.4" y="36.3" class="st0" width="6.8" height="18"/>
	<polygon class="st0" points="66.1,32.2 66.1,34.2 59.4,34.2 40.7,12.9 43,12.9 	"/>
	<line class="st2" x1="66.1" y1="36.3" x2="59.4" y2="36.3"/>
	<polygon class="st0" points="66.1,32.2 66.1,34.2 59.4,34.2 40.7,12.9 43,12.9 	"/>
</g>
</svg>
