<?xml version="1.0" encoding="utf-8"?>
<!-- Generator: Adobe Illustrator 18.1.1, SVG Export Plug-In . SVG Version: 6.00 Build 0)  -->
<svg version="1.1" id="Layer_1" xmlns="http://www.w3.org/2000/svg" xmlns:xlink="http://www.w3.org/1999/xlink" x="0px" y="0px"
	 viewBox="0 0 100 100" style="enable-background:new 0 0 100 100;" xml:space="preserve">
<style type="text/css">
	.st0{fill:#545758;}
	.st1{fill:#FAC312;}
</style>
<g>
	<g>
		<path class="st0" d="M76.6,26.9c-1.6,0.6-3.8,1.2-6.6,1.7C64.6,29.5,57.5,30,50,30s-14.6-0.5-20-1.4c-2.8-0.5-5-1-6.6-1.7
			c-0.3-0.1-0.6-0.3-0.9-0.4v11.9h4.3l3.1,42.3c0,0,0,0,0,0c0.2,3.5,3.3,6.3,6.8,6.3h26.7c3.5,0,6.5-2.9,6.8-6.3l3.1-42.3h4.3v-12
			C77.3,26.6,76.9,26.7,76.6,26.9z M41.9,44c0.6-1,1.9-1.8,3-1.8h10.6c1.1,0,2.5,0.8,3,1.8l1.1,2l2.1-1.2l-1.2,2.9L59,51.9l-4.9-0.7
			l-2.7-0.4l1.9-1.1l-3-5.2l-3.1,5.3l-6.5-3.8L41.9,44z M47.8,67.7h-2.9c-1.1,0-2.5-0.8-3-1.8l-5.3-9.2c-0.6-1-0.6-2.5,0-3.5l1.2-2
			l-2-1.1l2.8-0.4l4.8-0.7l1.8,4.4l1.1,2.8l-2.1-1.2l-3.1,5.3h6.6V67.7z M63.9,56.7l-5.3,9.2c-0.6,1-1.9,1.8-3,1.8h-1.9V70l-1.8-2.4
			L48.9,64l2.9-3.7l1.8-2.4v2.4h5.6l-3.1-5.4l6.5-3.8l1.2,2.2C64.4,54.2,64.4,55.8,63.9,56.7z"/>
	</g>
	<path class="st1" d="M77.6,20.6c0,2.6-12.3,4.7-27.6,4.7c-15.2,0-27.6-2.1-27.6-4.7c0-2,7.5-3.7,17.9-4.4V13h19.4v3.2
		C70.2,16.9,77.6,18.6,77.6,20.6z"/>
</g>
</svg>
