<?xml version="1.0" encoding="utf-8"?>
<!-- Generator: Adobe Illustrator 18.1.1, SVG Export Plug-In . SVG Version: 6.00 Build 0)  -->
<svg version="1.1" id="Layer_1" xmlns="http://www.w3.org/2000/svg" xmlns:xlink="http://www.w3.org/1999/xlink" x="0px" y="0px"
	 viewBox="0 0 100 100" style="enable-background:new 0 0 100 100;" xml:space="preserve">
<style type="text/css">
	.st0{fill:#545758;}
	.st1{fill:#FAC312;}
</style>
<g>
	<rect x="29.9" y="13" class="st0" width="5.8" height="10.9"/>
	<rect x="64.3" y="13" class="st0" width="5.8" height="10.9"/>
	<path class="st0" d="M55.9,65.2c-1.8-1.6-2.5-2.3-2.5-4.1h-6.8c0,5.1,2.8,7.5,4.8,9.3c1.8,1.6,3,2.6,3,5.5c0,2.4-2,4.4-4.4,4.4
		c-2.4,0-4.4-2-4.4-4.4h-6.8C38.8,82,43.8,87,50,87c6.2,0,11.2-5,11.2-11.2C61.2,69.8,58.1,67.1,55.9,65.2z"/>
	<path class="st1" d="M70,27.9H30c-1.3,0-2.4,1.1-2.4,2.4v17.5c0,1.3,1.1,2.4,2.4,2.4h5.1l5,6.9h19.8l5-6.9H70
		c1.3,0,2.4-1.1,2.4-2.4V30.3C72.3,29,71.3,27.9,70,27.9z M60.1,31.9L45.8,46.2h-5.6l14.3-14.3H60.1z M31.6,31.9h6l-6,6V31.9z
		 M31.6,43.5l11.6-11.6h5.6L34.5,46.2h-2.9V43.5z M68.4,46.2h-5.8l5.8-5.8V46.2z M68.4,34.8L57,46.2h-5.6l14.3-14.3h2.7V34.8z"/>
	<path class="st0" d="M50,22.9c1.5,0,2.8,0.4,4,1.1h6.5c-2.2-3.4-6.1-5.7-10.5-5.7c-4.4,0-8.2,2.3-10.5,5.7H46
		C47.2,23.3,48.5,22.9,50,22.9z"/>
</g>
</svg>
