<?xml version="1.0" encoding="utf-8"?>
<!-- Generator: Adobe Illustrator 18.1.1, SVG Export Plug-In . SVG Version: 6.00 Build 0)  -->
<svg version="1.1" id="Layer_1" xmlns="http://www.w3.org/2000/svg" xmlns:xlink="http://www.w3.org/1999/xlink" x="0px" y="0px"
	 viewBox="0 0 100 100" style="enable-background:new 0 0 100 100;" xml:space="preserve">
<style type="text/css">
	.st0{fill:#545758;}
	.st1{fill:#FAC312;}
</style>
<g>
	<g>
		<polygon class="st0" points="43.7,60.6 26.5,46.6 22.6,52.8 39.1,66.7 		"/>
		<polygon class="st0" points="54.5,34.5 27.8,43.9 45.9,58.8 73.4,48 		"/>
		<polygon class="st0" points="51.9,68.3 77.4,58.2 74,50.7 47.7,61.1 		"/>
		<path class="st0" d="M51.3,71.5c-0.5,0-1-0.3-1.2-0.7l-3-5.2V87l27.7-11.6V62.3l-22.9,9.1C51.7,71.4,51.5,71.5,51.3,71.5z"/>
		<path class="st0" d="M39.5,70.2c-0.1,0-0.1,0-0.2,0c-0.3,0-0.6-0.1-0.9-0.3L26.2,59.6v10.8l18.1,16V64.6l-3.8,5
			C40.2,69.9,39.9,70.1,39.5,70.2z"/>
		<polygon class="st1" points="40.6,33.2 59.2,33.2 59.2,27.7 70.6,27.7 50,13 29.5,27.7 40.6,27.7 		"/>
	</g>
</g>
</svg>
