<?xml version="1.0" encoding="utf-8"?>
<!-- Generator: Adobe Illustrator 18.1.1, SVG Export Plug-In . SVG Version: 6.00 Build 0)  -->
<svg version="1.1" id="Layer_1" xmlns="http://www.w3.org/2000/svg" xmlns:xlink="http://www.w3.org/1999/xlink" x="0px" y="0px"
	 viewBox="0 0 100 100" style="enable-background:new 0 0 100 100;" xml:space="preserve">
<style type="text/css">
	.st1{fill:#FAC312;}
	.st0{fill:#545758;}
</style>
<g>
	<path class="st1" d="M51.9,26.1V39h-3.8V26.1c0.2-4.4,0.4-8.7,0.6-13.1h2.5C51.5,17.4,51.7,21.7,51.9,26.1z"/>
	<path class="st0" d="M71.9,13H56.6c1.1,4.4,2.2,8.7,3.3,13.1v19.8H40.1V26.1c1.1-4.4,2.2-8.7,3.3-13.1H28.1
		c-3.6,4.4-7.3,8.7-10.9,13.1c0,0,0,60.9,0,60.9h65.6V26.1h0C79.2,21.7,75.5,17.4,71.9,13z M30.4,82.5h-8.3v-8.3h8.3V82.5z
		 M42.4,82.5h-8.3v-8.3h8.3V82.5z"/>
</g>
</svg>
