<?xml version="1.0" encoding="utf-8"?>
<!-- Generator: Adobe Illustrator 18.1.1, SVG Export Plug-In . SVG Version: 6.00 Build 0)  -->
<svg version="1.1" id="Layer_1" xmlns="http://www.w3.org/2000/svg" xmlns:xlink="http://www.w3.org/1999/xlink" x="0px" y="0px"
	 viewBox="0 0 100 100" style="enable-background:new 0 0 100 100;" xml:space="preserve">
<style type="text/css">
	.st0{fill:#545758;}
	.st1{fill:#FAC312;}
</style>
<g>
	<path class="st0" d="M43.4,13H17.7c-5.1,0-9.1,4.1-9.1,9.1v10.7h34.8V13z"/>
	<path class="st0" d="M82.3,13H56.6v19.8h34.8V22.1C91.4,17.1,87.3,13,82.3,13z"/>
	<rect x="45.6" y="13" class="st0" width="8.7" height="27.3"/>
	<g>
		<path class="st1" d="M38.7,83.2V78h22.6v5.2H38.7L38.7,83.2z M88.9,34.8h-1.7c-7.4,7.4-15.7,14.5-24.9,21.3
			c-1.3,0.9-2.6,1.9-3.8,2.8l2.9,4.1h-6.2v13.1H44.9v-8.3C34.1,74.4,23.3,79.8,13,83.7c1.6,2,4,3.3,6.7,3.3h18.8h5h13.1h9.7h14
			c4.7,0,8.6-3.8,8.6-8.6V34.8L88.9,34.8z"/>
		<path class="st1" d="M87.1,34.8H56.6v7.6H43.4v-7.6H11.1v43.6c0,2,0.7,3.9,1.9,5.3c10.4-4,21.1-9.3,31.9-15.9v-4.8h-6.2L50,46.8
			l8.4,12.1c1.3-0.9,2.6-1.8,3.8-2.8C71.4,49.4,79.7,42.2,87.1,34.8L87.1,34.8z"/>
	</g>
</g>
</svg>
