<?xml version="1.0" encoding="utf-8"?>
<!-- Generator: Adobe Illustrator 18.1.1, SVG Export Plug-In . SVG Version: 6.00 Build 0)  -->
<svg version="1.1" id="Layer_1" xmlns="http://www.w3.org/2000/svg" xmlns:xlink="http://www.w3.org/1999/xlink" x="0px" y="0px"
	 viewBox="0 0 100 100" style="enable-background:new 0 0 100 100;" xml:space="preserve">
<style type="text/css">
	.st0{fill:#545657;}
	.st1{fill:#FAC312;}
</style>
<g>
	<path class="st0" d="M36.4,72.7c0-0.2-0.2-0.4-0.4-0.4h-8.1l8.5,8.5V72.7z"/>
	<path class="st0" d="M71.7,26.8h-4.6v3.1h4.6c1.9,0,3.5,1.6,3.5,3.5v47.1c0,1.9-1.6,3.5-3.5,3.5H28.3c-1.9,0-3.5-1.6-3.5-3.5V33.3
		c0-1.9,1.6-3.5,3.5-3.5h4.6v-3.1h-4.6c-3.6,0-6.6,2.9-6.6,6.6v47.1c0,3.6,2.9,6.6,6.6,6.6h43.5c3.6,0,6.6-2.9,6.6-6.6V33.3
		C78.3,29.7,75.4,26.8,71.7,26.8z"/>
	<path class="st0" d="M62.8,22.5h-3.3c0-5.3-4.3-9.5-9.5-9.5c-5.3,0-9.5,4.3-9.5,9.5h-3.3c-1.3,0-2.4,1.1-2.4,2.4v9.1
		c0,1.3,1.1,2.4,2.4,2.4h25.6c1.3,0,2.4-1.1,2.4-2.4V25C65.2,23.6,64.2,22.5,62.8,22.5z M50,26.5c-2.2,0-4-1.8-4-4s1.8-4,4-4
		c2.2,0,4,1.8,4,4S52.2,26.5,50,26.5z"/>
	<g>
		<path class="st1" d="M72.1,35c-2.8,3.6-5.9,7.1-9.1,10.6l4.2,4.2L46.2,70.9l-5-5c-2.1,1.7-4.1,3.3-6.2,4.8h1
			c1.1,0,1.9,0.9,1.9,1.9v8.1h33.8c0.2,0,0.4-0.2,0.4-0.4V35L72.1,35z"/>
		<path class="st1" d="M71.7,33h-4.6v1.1c0,2.4-2,4.4-4.4,4.4H37.2c-2.4,0-4.4-2-4.4-4.4V33h-4.6c-0.2,0-0.4,0.2-0.4,0.4v37.4H35
			c2.1-1.5,4.2-3.1,6.2-4.8l-8.5-8.5l5.8-5.8l7.6,7.6L61.4,44l1.6,1.6c3.2-3.5,6.3-7,9.1-10.6v-1.7C72.1,33.1,71.9,33,71.7,33
			L71.7,33z"/>
	</g>
</g>
</svg>
