<?xml version="1.0" encoding="utf-8"?>
<!-- Generator: Adobe Illustrator 18.1.1, SVG Export Plug-In . SVG Version: 6.00 Build 0)  -->
<svg version="1.1" id="Layer_1" xmlns="http://www.w3.org/2000/svg" xmlns:xlink="http://www.w3.org/1999/xlink" x="0px" y="0px"
	 viewBox="0 0 100 100" style="enable-background:new 0 0 100 100;" xml:space="preserve">
<style type="text/css">
	.st0{fill:#545758;}
	.st1{fill:#FAC312;}
</style>
<g>
	<g>
		<polygon class="st1" points="47.6,32 47.6,47.7 26.8,47.7 26.8,32 34.9,32 34.9,38.3 39.4,38.3 39.4,32 		"/>
	</g>
	<g>
		<polygon class="st1" points="47.6,13 47.6,28.7 26.8,28.7 26.8,13 34.9,13 34.9,19.3 39.4,19.3 39.4,13 		"/>
	</g>
	<circle class="st0" cx="62.6" cy="25.5" r="10.6"/>
	<path class="st0" d="M71.1,41.9v15.8c0,2-1.6,3.6-3.6,3.6h-9.9c-1.2,0-2.3-0.6-2.9-1.5H57l9.5-9.5c0,0,0.7-0.7,0.7-0.7
		c2.2-2.2,2.2-5.9,0-8.1c-1.1-1.1-2.5-1.7-4.1-1.7c-1.5,0-3,0.6-4,1.7L54,46.6v-4.7c0-2,1.6-3.6,3.6-3.6h9.9
		C69.5,38.3,71.1,39.9,71.1,41.9z"/>
	<g>
		<path class="st0" d="M65.6,47.9c0,0-7.7,7.7-7.7,7.7L56,57.4H40.8c-1.8,0-3.3-1.5-3.3-3.3c0-1.8,1.5-3.3,3.3-3.3
			c0,0,12.5,0,12.5,0L54,50l6.9-6.8c1.3-1.3,3.4-1.3,4.7,0C66.9,44.5,66.9,46.6,65.6,47.9z"/>
	</g>
	<path class="st0" d="M57.4,64.2v17.7c0,2.8,2.3,5.1,5.1,5.1c2.8,0,5.1-2.3,5.1-5.1V64.2H57.4z"/>
</g>
</svg>
