<?xml version="1.0" encoding="utf-8"?>
<!-- Generator: Adobe Illustrator 18.1.1, SVG Export Plug-In . SVG Version: 6.00 Build 0)  -->
<svg version="1.1" id="Layer_1" xmlns="http://www.w3.org/2000/svg" xmlns:xlink="http://www.w3.org/1999/xlink" x="0px" y="0px"
	 viewBox="0 0 100 100" style="enable-background:new 0 0 100 100;" xml:space="preserve">
<style type="text/css">
	.st0{fill:#545758;}
	.st1{fill:#FAC312;}
</style>
<g>
	<path class="st1" d="M11.5,67.2c1.3,1.4,1.7,1.8,2.3,1.9h1.1c0.5-0.1,1-0.5,2.3-1.9c2-2.1,5.3-5.6,11.3-5.6c1.7,0,3.2,0.3,4.5,0.7
		c4.6-4.2,9.4-10.4,11-18.9l29.3,7.9h15.4v-1.9L44.4,37.5l0,0.2c0-0.1,0-0.1,0-0.2H0v24.1l0.3,0C6.2,61.7,9.4,65,11.5,67.2z"/>
	<path class="st0" d="M42.5,74.9c-7.1,0-7.1-7.5-14.1-7.5c-7.1,0-7.1,7.5-14.1,7.5c-7,0-7.1-7.4-14.1-7.5V86h56.4V67.4
		C49.6,67.5,49.6,74.9,42.5,74.9z"/>
	<rect x="62.4" y="57.1" class="st0" width="37.6" height="28.9"/>
	<path class="st0" d="M2.8,28.5H6c0.4,1.8,2,3.2,4,3.2s3.6-1.4,4-3.2h14.2c0.4,1.8,2,3.2,4,3.2c2,0,3.6-1.4,4-3.2h3.5v-6.1L28.7,19
		L25,14H10.6l-3.5,5.1l-4.2,0.8V28.5z"/>
</g>
</svg>
