<?xml version="1.0" encoding="utf-8"?>
<!-- Generator: Adobe Illustrator 18.1.1, SVG Export Plug-In . SVG Version: 6.00 Build 0)  -->
<svg version="1.1" id="Layer_1" xmlns="http://www.w3.org/2000/svg" xmlns:xlink="http://www.w3.org/1999/xlink" x="0px" y="0px"
	 viewBox="0 0 100 100" style="enable-background:new 0 0 100 100;" xml:space="preserve">
<style type="text/css">
	.st0{fill:#545758;}
	.st1{fill:#FAC312;}
</style>
<g>
	<g>
		<path class="st1" d="M80.2,31.7c-2.3,0-4.1,1.8-4.1,4.1v13.8c0.9,0.4,1.7,1.2,2.2,2.2c0.4,0.8,0.6,1.8,0.5,2.6
			c-0.1,0.5-0.2,0.9-0.3,1.3c-0.4,1-1.2,1.9-2.2,2.4c0,0,0,0,0,0c0,0,0,0,0,0l-10.3,5.2c-0.2,0.1-0.5,0.2-0.7,0.2
			c-0.6,0-1.1-0.3-1.4-0.9c-0.4-0.8-0.1-1.7,0.7-2.1l6.3-3.2l4-2c0.8-0.4,1.1-1.4,0.7-2.2c-0.4-0.8-1.4-1.1-2.2-0.7l-4,2l-11.7,5.9
			c-2.3,1.1-3.5,3.6-3.1,6c-0.1,0.3-0.1,0.6-0.1,0.9v14c0,3.1,2.5,5.7,5.7,5.7c3.1,0,5.7-2.5,5.7-5.7V68.9L81,61.3
			c1.3-0.7,2.3-1.8,2.8-3.1c0.3-0.6,0.5-1.3,0.5-2V35.8C84.3,33.5,82.5,31.7,80.2,31.7z"/>
		<path class="st1" d="M45.5,67.3c0-0.3,0-0.6-0.1-0.9c0.4-2.4-0.8-4.9-3.1-6l-11.7-5.9l-4-2c-0.8-0.4-1.8-0.1-2.2,0.7
			c-0.4,0.8-0.1,1.8,0.7,2.2l4,2l6.3,3.2c0.8,0.4,1.1,1.3,0.7,2.1c-0.3,0.6-0.8,0.9-1.4,0.9c-0.2,0-0.5-0.1-0.7-0.2l-10.3-5.2
			c0,0,0,0,0,0c0,0,0,0,0,0c-1-0.5-1.8-1.4-2.2-2.4c-0.2-0.4-0.3-0.9-0.3-1.3c-0.1-0.9,0.1-1.8,0.5-2.6c0.5-1,1.3-1.7,2.2-2.2V35.8
			c0-2.3-1.8-4.1-4.1-4.1c-2.3,0-4.1,1.8-4.1,4.1v20.5c0,0.7,0.2,1.4,0.5,2c0.5,1.3,1.4,2.4,2.8,3.1l15.2,7.6v12.4
			c0,3.1,2.5,5.7,5.7,5.7c3.1,0,5.7-2.5,5.7-5.7c0,0,0,0,0,0V67.3z"/>
	</g>
	<g>
		<path class="st0" d="M63.4,20.4c-0.3-1.2-0.7-2.4-1.2-3.5c1.8,1.3,3.4,2.9,4.7,4.7C65.7,21.2,64.5,20.8,63.4,20.4z"/>
		<path class="st0" d="M41.6,14.7c2.2-1,4.6-1.6,7.1-1.7v5.6c-3,0.1-6.1,0.4-9,1.1C40.2,18,40.8,16.4,41.6,14.7z"/>
		<path class="st0" d="M60.4,19.7c-3-0.7-6-1-9-1.1V13c2.5,0.2,4.9,0.8,7.1,1.7C59.2,16.4,59.8,18,60.4,19.7z"/>
		<path class="st0" d="M36.6,20.4c-1.2,0.3-2.4,0.7-3.5,1.2c1.3-1.8,2.9-3.4,4.7-4.7C37.4,18.1,37,19.2,36.6,20.4z"/>
		<path class="st0" d="M30.9,25.4c1.6-0.7,3.3-1.4,5-1.9c-0.7,3-1,6-1.1,9h-5.6C29.4,30,30,27.6,30.9,25.4z"/>
		<path class="st0" d="M48.7,21.2v11.2H37.4c0.1-3.3,0.6-6.6,1.4-9.9C42,21.8,45.4,21.3,48.7,21.2z"/>
		<path class="st0" d="M48.7,46.4c-3.3-0.1-6.6-0.6-9.9-1.4c-0.8-3.2-1.3-6.6-1.4-9.9h11.2V46.4z"/>
		<path class="st0" d="M35.9,44.2c-1.7-0.5-3.3-1.2-4.9-1.9c-1-2.2-1.6-4.6-1.7-7.1h5.6C34.9,38.2,35.2,41.2,35.9,44.2z"/>
		<path class="st0" d="M36.6,47.2c0.3,1.2,0.7,2.4,1.2,3.5c-1.8-1.3-3.4-2.9-4.7-4.7C34.3,46.4,35.5,46.8,36.6,47.2z"/>
		<path class="st0" d="M39.6,47.9c3,0.7,6,1,9,1.1v5.6c-2.5-0.2-4.9-0.8-7.1-1.7C40.8,51.2,40.2,49.6,39.6,47.9z"/>
		<path class="st0" d="M60.4,47.9c-0.5,1.7-1.2,3.3-1.9,4.9c-2.2,1-4.6,1.6-7.1,1.7V49C54.4,48.9,57.4,48.6,60.4,47.9z"/>
		<path class="st0" d="M61.2,45c-3.2,0.8-6.6,1.3-9.9,1.4V35.1h11.2C62.5,38.4,62,41.7,61.2,45z"/>
		<path class="st0" d="M63.4,47.2c1.2-0.3,2.4-0.7,3.5-1.2c-1.3,1.8-2.9,3.4-4.7,4.7C62.6,49.5,63,48.3,63.4,47.2z"/>
		<path class="st0" d="M70.8,35.1c-0.2,2.5-0.8,4.9-1.7,7.1c-1.6,0.7-3.3,1.4-4.9,1.9c0.7-3,1-6,1.1-9H70.8z"/>
		<path class="st0" d="M61.2,22.6c0.8,3.2,1.3,6.6,1.4,9.9H51.3V21.2C54.6,21.3,58,21.8,61.2,22.6z"/>
		<path class="st0" d="M70.8,32.5h-5.6c-0.1-3-0.4-6.1-1.1-9c1.7,0.5,3.3,1.2,4.9,1.9C70,27.6,70.6,30,70.8,32.5z"/>
	</g>
</g>
</svg>
