<?xml version="1.0" encoding="utf-8"?>
<!-- Generator: Adobe Illustrator 18.1.1, SVG Export Plug-In . SVG Version: 6.00 Build 0)  -->
<svg version="1.1" id="Layer_1" xmlns="http://www.w3.org/2000/svg" xmlns:xlink="http://www.w3.org/1999/xlink" x="0px" y="0px"
	 viewBox="0 0 100 100" style="enable-background:new 0 0 100 100;" xml:space="preserve">
<style type="text/css">
	.st0{fill:#545758;}
	.st1{fill:#FAC312;}
</style>
<g>
	<path class="st0" d="M32.4,56.6V36.4c0-2.3-1.9-4.2-4.2-4.2H15.4c-2.3,0-5.2,1.6-6.4,3.5L2.2,46.7C1,48.7,0,52.1,0,54.4V64
		c0,2.3,1.9,4.2,4.2,4.2h2.9c1.3-4.6,5.6-8,10.6-8c5,0,9.3,3.4,10.6,8h0v0h23.9c1.3-4.6,5.6-8,10.6-8c5,0,9.3,3.4,10.6,8h8.2V56.6
		H32.4z M29.1,45.6H6.8l5-8c0.2-0.4,0.7-0.9,1.6-1.3c0.8-0.5,1.6-0.6,2-0.6h12.9c0.5,0,0.8,0.4,0.8,0.8V45.6z"/>
	<path class="st1" d="M63.3,38.3h5.2v-6.5c0-0.3,0-0.6,0-0.9l0-0.8L63.3,38.3z M63.3,38.3h5.2v-6.5c0-0.3,0-0.6,0-0.9l0-0.8
		L63.3,38.3z M63.3,38.3h5.2v-6.5c0-0.3,0-0.6,0-0.9l0-0.8L63.3,38.3z M63.3,38.3h5.2v-6.5c0-0.3,0-0.6,0-0.9l0-0.8L63.3,38.3z
		 M38.1,21.1v30.5h42.7V21.1H38.1z M57.9,46.1H43.6v-3.7c0.5-0.4,1.2-0.9,2.3-1.7c2.6-1.9,4.5-3.4,5.7-4.6c1.2-1.2,1.8-2.3,1.8-3.3
		c0-0.7-0.2-1.3-0.7-1.8c-0.5-0.5-1.1-0.7-1.9-0.7c-1.9,0-2.9,1.2-3.2,3.6L43.6,33c0.9-4.2,3.3-6.3,7.4-6.3c2.3,0,4,0.6,5.2,1.8
		c1.2,1.2,1.8,2.6,1.8,4.2c0,1.7-0.6,3.2-1.9,4.5c-1.3,1.3-3.6,3-7,5h9.1L57.9,46.1z M75.4,41.7h-2.7v4.4h-4.5v-4.4h-8.3v-3.3
		l7.7-11.6h5.1v11.6h2.7V41.7z M68.5,38.3v-6.5c0-0.3,0-0.6,0-0.9l0-0.8l-5.2,8.1H68.5z M63.3,38.3h5.2v-6.5c0-0.3,0-0.6,0-0.9
		l0-0.8L63.3,38.3z M63.3,38.3h5.2v-6.5c0-0.3,0-0.6,0-0.9l0-0.8L63.3,38.3z M63.3,38.3h5.2v-6.5c0-0.3,0-0.6,0-0.9l0-0.8L63.3,38.3
		z M63.3,38.3h5.2v-6.5c0-0.3,0-0.6,0-0.9l0-0.8L63.3,38.3z"/>
	<path class="st0" d="M70.5,71.3c0,4.2-3.4,7.6-7.6,7.6c-4.2,0-7.6-3.4-7.6-7.6c0-4.2,3.4-7.6,7.6-7.6
		C67.1,63.7,70.5,67.1,70.5,71.3z"/>
	<path class="st0" d="M25.3,71.3c0,4.2-3.4,7.6-7.6,7.6c-4.2,0-7.6-3.4-7.6-7.6c0-4.2,3.4-7.6,7.6-7.6
		C21.9,63.7,25.3,67.1,25.3,71.3z"/>
	<path class="st0" d="M70.5,71.3c0,4.2-3.4,7.6-7.6,7.6c-4.2,0-7.6-3.4-7.6-7.6c0-4.2,3.4-7.6,7.6-7.6
		C67.1,63.7,70.5,67.1,70.5,71.3z"/>
	<path class="st0" d="M25.3,71.3c0,4.2-3.4,7.6-7.6,7.6c-4.2,0-7.6-3.4-7.6-7.6c0-4.2,3.4-7.6,7.6-7.6
		C21.9,63.7,25.3,67.1,25.3,71.3z"/>
	<g>
		<polygon class="st0" points="84.8,25.8 84.8,25.8 84.8,25.7 		"/>
		<polygon class="st0" points="100,21.1 100,25.8 84.8,25.8 84.8,25.7 84.8,21.1 		"/>
		<rect x="84.8" y="29.6" class="st0" width="12.3" height="4.6"/>
		<rect x="84.8" y="38.2" class="st0" width="15.2" height="4.6"/>
	</g>
</g>
</svg>
