<?xml version="1.0" encoding="utf-8"?>
<!-- Generator: Adobe Illustrator 18.1.1, SVG Export Plug-In . SVG Version: 6.00 Build 0)  -->
<svg version="1.1" id="Layer_1" xmlns="http://www.w3.org/2000/svg" xmlns:xlink="http://www.w3.org/1999/xlink" x="0px" y="0px"
	 viewBox="0 0 100 100" style="enable-background:new 0 0 100 100;" xml:space="preserve">
<style type="text/css">
	.st0{fill:#545758;}
	.st1{fill:#FAC312;}
</style>
<g>
	<g>
		<polygon class="st1" points="47.5,21.9 47.5,43.2 26.2,43.2 26.2,21.9 34.5,21.9 34.5,30.3 39.1,30.3 39.1,21.9 		"/>
	</g>
	<circle class="st0" cx="62.9" cy="23.9" r="10.9"/>
	<path class="st0" d="M59.5,37.8l-5.3,5.3v-2.4c0-2,1.7-3.7,3.7-3.7h2.6C60.1,37.2,59.8,37.5,59.5,37.8z"/>
	<path class="st0" d="M71.7,40.7v16.2c0,2-1.7,3.7-3.7,3.7H57.9c-2,0-3.7-1.7-3.7-3.7v-0.3h3.1l9.8-9.7c0,0,0.7-0.7,0.7-0.7
		c2.3-2.3,2.3-6,0-8.3c-0.3-0.3-0.7-0.6-1-0.8H68C70,37,71.7,38.7,71.7,40.7z"/>
	<g>
		<path class="st0" d="M66,44.4c0,0-7.9,7.9-7.9,7.9l-1.9,1.8H40.5c-1.9,0-3.4-1.5-3.4-3.4c0-1.9,1.5-3.4,3.4-3.4c0,0,12.9,0,12.9,0
			l0.8-0.7l7-7c1.3-1.3,3.5-1.3,4.8,0C67.3,40.9,67.3,43.1,66,44.4z"/>
	</g>
	<path class="st0" d="M57.6,63.5v18.2c0,2.9,2.4,5.3,5.3,5.3c2.9,0,5.3-2.4,5.3-5.3V63.5H57.6z"/>
</g>
</svg>
