<?xml version="1.0" encoding="utf-8"?>
<!-- Generator: Adobe Illustrator 18.1.1, SVG Export Plug-In . SVG Version: 6.00 Build 0)  -->
<svg version="1.1" id="Layer_1" xmlns="http://www.w3.org/2000/svg" xmlns:xlink="http://www.w3.org/1999/xlink" x="0px" y="0px"
	 viewBox="0 0 100 100" style="enable-background:new 0 0 100 100;" xml:space="preserve">
<style type="text/css">
	.st0{fill:#595A5C;}
	.st1{fill:#FAC312;}
</style>
<g>
	<polygon class="st1" points="51.7,36.1 51.7,38.4 51.6,38.4 51.6,36.1 	"/>
	<polygon class="st1" points="48.4,36.1 48.4,38.4 48.3,38.4 48.3,36.1 	"/>
	<polygon class="st1" points="50,13 29.8,23.1 50,33.2 70.2,23.1 	"/>
	<polygon class="st1" points="48.4,36.1 48.4,54.7 48.3,54.7 48.3,36.1 	"/>
	<polygon class="st1" points="51.7,36.1 51.7,54.7 51.6,54.7 51.6,36.1 	"/>
	<polygon class="st1" points="48.3,36.1 48.3,54.7 29.8,45.4 29.8,26.8 	"/>
	<polygon class="st1" points="48.4,36.1 48.4,54.7 48.3,54.7 48.3,36.1 	"/>
	<polygon class="st1" points="48.4,36.1 48.4,54.7 48.3,54.7 48.3,36.1 	"/>
	<polygon class="st1" points="51.7,36.1 51.7,54.7 51.6,54.7 51.6,36.1 	"/>
	<polygon class="st1" points="70.2,26.8 70.2,45.4 51.7,54.7 51.7,36.1 	"/>
	<polygon class="st1" points="51.7,36.1 51.7,54.7 51.6,54.7 51.6,36.1 	"/>
	<g>
		<path class="st0" d="M81.5,29.3c-2.4,0-4.3,1.9-4.3,4.3v14.4c1,0.5,1.8,1.3,2.3,2.3c0.4,0.9,0.6,1.8,0.5,2.8
			c-0.1,0.5-0.2,1-0.4,1.4c-0.4,1-1.2,2-2.3,2.5c0,0,0,0,0,0c0,0,0,0,0,0l-10.8,5.4c-0.2,0.1-0.5,0.2-0.7,0.2
			c-0.6,0-1.2-0.3-1.5-0.9c-0.4-0.8-0.1-1.8,0.7-2.2l6.6-3.3l4.2-2.1c0.8-0.4,1.2-1.4,0.7-2.2c-0.4-0.8-1.4-1.2-2.2-0.7L70.2,53
			L58,59.1c-2.4,1.2-3.6,3.8-3.2,6.3c-0.1,0.3-0.1,0.7-0.1,1v14.6c0,3.3,2.7,5.9,5.9,5.9c3.3,0,5.9-2.7,5.9-5.9v-13l15.8-7.9
			c1.4-0.7,2.4-1.9,2.9-3.2c0.3-0.6,0.5-1.3,0.5-2.1V33.6C85.8,31.2,83.9,29.3,81.5,29.3z"/>
		<path class="st0" d="M45.3,66.4c0-0.3,0-0.7-0.1-1c0.4-2.5-0.8-5.1-3.2-6.3L29.8,53l-4.2-2.1c-0.8-0.4-1.8-0.1-2.2,0.7
			c-0.4,0.8-0.1,1.8,0.7,2.2l4.2,2.1l6.6,3.3c0.8,0.4,1.1,1.4,0.7,2.2c-0.3,0.6-0.9,0.9-1.5,0.9c-0.2,0-0.5-0.1-0.7-0.2l-10.8-5.4
			c0,0,0,0,0,0c0,0,0,0,0,0c-1.1-0.6-1.9-1.5-2.3-2.5c-0.2-0.4-0.3-0.9-0.4-1.4c-0.1-0.9,0.1-1.9,0.5-2.8c0.5-1,1.3-1.8,2.3-2.3
			V33.6c0-2.4-1.9-4.3-4.3-4.3c-2.4,0-4.3,1.9-4.3,4.3v21.4c0,0.8,0.2,1.5,0.5,2.1c0.5,1.4,1.5,2.5,2.9,3.2l15.8,7.9v13
			c0,3.3,2.7,5.9,5.9,5.9c3.3,0,5.9-2.7,5.9-5.9c0,0,0,0,0,0V66.4z"/>
	</g>
</g>
</svg>
