<?xml version="1.0" encoding="utf-8"?>
<!-- Generator: Adobe Illustrator 18.1.1, SVG Export Plug-In . SVG Version: 6.00 Build 0)  -->
<svg version="1.1" id="Layer_1" xmlns="http://www.w3.org/2000/svg" xmlns:xlink="http://www.w3.org/1999/xlink" x="0px" y="0px"
	 viewBox="0 0 100 100" style="enable-background:new 0 0 100 100;" xml:space="preserve">
<style type="text/css">
	.st0{fill:#545758;}
	.st1{fill:#FAC312;}
</style>
<g>
	<path class="st1" d="M74.9,74c-4.5,0-4.5,3.9-8.9,3.9c-4.5,0-4.5-3.9-8.9-3.9v13h35.7V74c-4.4,0-4.4,3.9-8.9,3.9
		C79.3,77.9,79.3,74,74.9,74z"/>
	<rect x="8.2" y="73.7" class="st0" width="43.9" height="13.3"/>
	<path class="st0" d="M92.9,34.3l-42.1-21c-0.7-0.3-1.5-0.3-2.2,0l-41.5,21c-1,0.5-1.5,1.6-1.3,2.7c0.3,1.1,1.2,1.9,2.4,1.9h17.4
		v29.9h26.8V38.9h39.3c1.1,0,2.1-0.8,2.4-1.9C94.4,35.9,93.9,34.8,92.9,34.3z M18.4,34l29.2-14.8V34H18.4z M42.1,38.9l-11.6,7.9
		v-7.9H42.1z M30.5,53.9h11.6l-11.6,7.9V53.9z M35.9,64L47.6,56V64H35.9z M35.9,49l11.6-7.9V49H35.9z M52.4,34V19.5L81.5,34H52.4z"
		/>
</g>
</svg>
