<?xml version="1.0" encoding="utf-8"?>
<!-- Generator: Adobe Illustrator 18.1.1, SVG Export Plug-In . SVG Version: 6.00 Build 0)  -->
<svg version="1.1" id="Layer_1" xmlns="http://www.w3.org/2000/svg" xmlns:xlink="http://www.w3.org/1999/xlink" x="0px" y="0px"
	 viewBox="0 0 100 100" style="enable-background:new 0 0 100 100;" xml:space="preserve">
<style type="text/css">
	.st0{fill:#545758;}
	.st1{fill:#FAC312;}
</style>
<g>
	<path class="st0" d="M38.1,58.6V33.8c0-2.8-2.3-5.1-5.1-5.1H18.8c-2.8,0-6.3,1.9-7.8,4.3L2.7,46.4C1.2,48.8,0,53.1,0,55.9v11.7
		c0,2.8,2.3,5.1,5.1,5.1h3.5c1.6-5.6,6.9-9.8,13-9.8c6.1,0,11.2,4,13,9.5c0,0,0.1,0,0.1,0v0.3h29.2c1.6-5.6,6.9-9.8,13-9.8
		c6.2,0,11.4,4.1,13,9.8h10V58.6H38.1z M34,45H8.4l6.1-9.8c0.3-0.4,0.9-1.1,1.9-1.6c1-0.6,1.9-0.8,2.4-0.8H33c0.6,0,1,0.5,1,1V45z"
		/>
	<path class="st1" d="M77.6,35.2c-1.2,0-1.9,0.8-2,2.4h3.8C79.3,36,78.7,35.2,77.6,35.2z M77.6,35.2c-1.2,0-1.9,0.8-2,2.4h3.8
		C79.3,36,78.7,35.2,77.6,35.2z M77.6,35.2c-1.2,0-1.9,0.8-2,2.4h3.8C79.3,36,78.7,35.2,77.6,35.2z M89.3,35.2c-1.2,0-1.9,0.8-2,2.4
		h3.8C91,36,90.4,35.2,89.3,35.2z M89.3,35.2c-1.2,0-1.9,0.8-2,2.4h3.8C91,36,90.4,35.2,89.3,35.2z M77.6,35.2c-1.2,0-1.9,0.8-2,2.4
		h3.8C79.3,36,78.7,35.2,77.6,35.2z M77.6,35.2c-1.2,0-1.9,0.8-2,2.4h3.8C79.3,36,78.7,35.2,77.6,35.2z M89.3,35.2
		c-1.2,0-1.9,0.8-2,2.4h3.8C91,36,90.4,35.2,89.3,35.2z M89.3,35.2c-1.2,0-1.9,0.8-2,2.4h3.8C91,36,90.4,35.2,89.3,35.2z M77.6,35.2
		c-1.2,0-1.9,0.8-2,2.4h3.8C79.3,36,78.7,35.2,77.6,35.2z M44.1,14.2v39.1h54.8V14.2H44.1z M63.9,26.7h-9.8v5.1h7.8V36h-7.8v8.8
		h-5.1V22.2h14.9V26.7z M71,36.3c-0.6,0-1.2,0.1-1.5,0.3c-0.4,0.2-0.7,0.6-0.9,1.2c-0.2,0.6-0.3,1.3-0.3,2.3v4.7h-3.1V33.2h2.9v2.2
		c0.4-1.6,1.2-2.4,2.3-2.4c0.2,0,0.3,0,0.6,0V36.3z M76.2,42c0.4,0.4,0.9,0.6,1.5,0.6c1.1,0,1.7-0.6,1.9-1.8l2.9,0.2
		c-0.8,2.7-2.4,4-4.9,4c-1.1,0-2-0.2-2.7-0.7c-0.8-0.5-1.4-1.1-1.9-2c-0.5-0.9-0.7-2-0.7-3.2c0-1.8,0.5-3.3,1.5-4.5
		c1-1.1,2.2-1.7,3.8-1.7c1.4,0,2.6,0.5,3.6,1.6c1,1.1,1.5,2.7,1.5,5h-7c0,0.2,0,0.4,0,0.5C75.6,40.9,75.8,41.5,76.2,42z M87.9,42
		c0.4,0.4,0.9,0.6,1.5,0.6c1.1,0,1.7-0.6,1.9-1.8l2.9,0.2c-0.8,2.7-2.4,4-4.9,4c-1.1,0-2-0.2-2.7-0.7c-0.8-0.5-1.4-1.1-1.9-2
		c-0.5-0.9-0.7-2-0.7-3.2c0-1.8,0.5-3.3,1.5-4.5c1-1.1,2.2-1.7,3.8-1.7c1.4,0,2.6,0.5,3.6,1.6c1,1.1,1.5,2.7,1.5,5h-7
		c0,0.2,0,0.4,0,0.5C87.3,40.9,87.5,41.5,87.9,42z M89.3,35.2c-1.2,0-1.9,0.8-2,2.4h3.8C91,36,90.4,35.2,89.3,35.2z M77.6,35.2
		c-1.2,0-1.9,0.8-2,2.4h3.8C79.3,36,78.7,35.2,77.6,35.2z M77.6,35.2c-1.2,0-1.9,0.8-2,2.4h3.8C79.3,36,78.7,35.2,77.6,35.2z
		 M89.3,35.2c-1.2,0-1.9,0.8-2,2.4h3.8C91,36,90.4,35.2,89.3,35.2z M89.3,35.2c-1.2,0-1.9,0.8-2,2.4h3.8C91,36,90.4,35.2,89.3,35.2z
		 M77.6,35.2c-1.2,0-1.9,0.8-2,2.4h3.8C79.3,36,78.7,35.2,77.6,35.2z M77.6,35.2c-1.2,0-1.9,0.8-2,2.4h3.8
		C79.3,36,78.7,35.2,77.6,35.2z M89.3,35.2c-1.2,0-1.9,0.8-2,2.4h3.8C91,36,90.4,35.2,89.3,35.2z M89.3,35.2c-1.2,0-1.9,0.8-2,2.4
		h3.8C91,36,90.4,35.2,89.3,35.2z M77.6,35.2c-1.2,0-1.9,0.8-2,2.4h3.8C79.3,36,78.7,35.2,77.6,35.2z"/>
	<path class="st0" d="M86.2,76.5c0,5.1-4.2,9.3-9.3,9.3c-5.1,0-9.3-4.2-9.3-9.3c0-5.1,4.2-9.3,9.3-9.3
		C82.1,67.2,86.2,71.4,86.2,76.5z"/>
	<path class="st0" d="M31,76.5c0,5.1-4.2,9.3-9.3,9.3c-5.1,0-9.3-4.2-9.3-9.3c0-5.1,4.2-9.3,9.3-9.3C26.8,67.2,31,71.4,31,76.5z"/>
	<path class="st0" d="M86.2,76.5c0,5.1-4.2,9.3-9.3,9.3c-5.1,0-9.3-4.2-9.3-9.3c0-5.1,4.2-9.3,9.3-9.3
		C82.1,67.2,86.2,71.4,86.2,76.5z"/>
	<path class="st0" d="M31,76.5c0,5.1-4.2,9.3-9.3,9.3c-5.1,0-9.3-4.2-9.3-9.3c0-5.1,4.2-9.3,9.3-9.3C26.8,67.2,31,71.4,31,76.5z"/>
</g>
</svg>
