<?xml version="1.0" encoding="utf-8"?>
<!-- Generator: Adobe Illustrator 18.1.1, SVG Export Plug-In . SVG Version: 6.00 Build 0)  -->
<svg version="1.1" id="Layer_1" xmlns="http://www.w3.org/2000/svg" xmlns:xlink="http://www.w3.org/1999/xlink" x="0px" y="0px"
	 viewBox="0 0 100 100" style="enable-background:new 0 0 100 100;" xml:space="preserve">
<style type="text/css">
	.st0{fill:#545758;}
	.st1{fill:#FAC312;}
</style>
<g>
	<path class="st0" d="M83.3,13H16.7c-4.9,0-8.9,4-8.9,8.9v37.2c0,4.9,4,8.9,8.9,8.9h66.5c4.9,0,8.9-4,8.9-8.9V21.9
		C92.2,17,88.2,13,83.3,13z M86.9,59.1c0,2-1.6,3.7-3.7,3.7H16.7c-2,0-3.7-1.6-3.7-3.7V21.9c0-2,1.6-3.7,3.7-3.7h66.5
		c2,0,3.7,1.6,3.7,3.7V59.1z"/>
	<polygon class="st0" points="55.9,73 44.1,73 44.1,79 34.6,82 34.6,87 65.4,87 65.4,82 55.9,79 	"/>
	<path class="st1" d="M73.9,38.6L67.2,32l-6.7,6.6h4.2l0,14.3c-1.8,0.9-3,2.8-3,4.9h11c0-2.1-1.2-4-3-4.9l0-14.3H73.9z"/>
	<path class="st1" d="M42.7,23.2H18v34.6h9.8c0,0,0-11.6,9.8-17.1C53.2,32,42.7,23.2,42.7,23.2z"/>
</g>
</svg>
