<?xml version="1.0" encoding="utf-8"?>
<!-- Generator: Adobe Illustrator 18.1.1, SVG Export Plug-In . SVG Version: 6.00 Build 0)  -->
<svg version="1.1" id="Layer_1" xmlns="http://www.w3.org/2000/svg" xmlns:xlink="http://www.w3.org/1999/xlink" x="0px" y="0px"
	 viewBox="0 0 100 100" style="enable-background:new 0 0 100 100;" xml:space="preserve">
<style type="text/css">
	.st0{fill:#545758;}
	.st1{fill:#FAC312;}
	.st2{fill:none;}
</style>
<g>
	<path class="st0" d="M17,26.8c-0.8,0-1.4,0.6-1.4,1.4v4.5c0,0.8,0.6,1.4,1.4,1.4h1.9c0.8,0,1.4-0.6,1.4-1.4v-4.5
		c0-0.8-0.6-1.4-1.4-1.4C18.9,26.8,17,26.8,17,26.8z"/>
	<g>
		<path class="st2" d="M49,57.7c-0.6-0.4-1.4-0.7-2.5-0.9c1.4-0.7,2.4-1.6,3-2.6c0.7-1,1-2.1,1-3.3c0-2.1-0.8-3.8-2.5-5.2
			c-1.6-1.4-4.3-2.1-8-2.1c-3.2,0-5.7,0.6-7.5,1.9c-1.8,1.3-2.9,3.1-3.6,5.4l7.4,1.3c0.2-1.4,0.6-2.4,1.2-2.9
			c0.6-0.6,1.3-0.8,2.3-0.8c0.9,0,1.6,0.3,2.1,0.8s0.8,1.2,0.8,2.1c0,0.9-0.3,1.7-1,2.3c-0.7,0.7-1.5,1-2.6,1c-0.2,0-0.6,0-1-0.1
			l-0.4,5.6c1.1-0.3,1.9-0.5,2.5-0.5c1.2,0,2.1,0.4,2.7,1.1c0.7,0.7,1,1.7,1,3s-0.3,2.3-1.1,3.1c-0.7,0.8-1.6,1.2-2.6,1.2
			s-1.8-0.3-2.5-0.9c-0.6-0.6-1.1-1.7-1.4-3.3l-7.9,1c0.5,1.8,1.2,3.2,2.2,4.4c1,1.2,2.2,2,3.7,2.7c1.5,0.6,3.5,0.9,6.1,0.9
			s4.8-0.4,6.4-1.2c1.6-0.8,2.9-2,3.7-3.5c0.9-1.5,1.3-3.1,1.3-4.7c0-1.3-0.3-2.4-0.8-3.4C50.7,59,49.9,58.2,49,57.7z"/>
		<path class="st0" d="M24.9,26.8c-0.8,0-1.4,0.6-1.4,1.4v4.5c0,0.8,0.6,1.4,1.4,1.4h1.9c0.8,0,1.4-0.6,1.4-1.4v-4.5
			c0-0.8-0.6-1.4-1.4-1.4C26.8,26.8,24.9,26.8,24.9,26.8z"/>
		<path class="st0" d="M32.7,26.8c-0.8,0-1.4,0.6-1.4,1.4v4.5c0,0.8,0.6,1.4,1.4,1.4h1.9c0.8,0,1.4-0.6,1.4-1.4v-4.5
			c0-0.8-0.6-1.4-1.4-1.4C34.6,26.8,32.7,26.8,32.7,26.8z"/>
		<path class="st0" d="M40.8,26.8c-0.8,0-1.4,0.6-1.4,1.4v4.5c0,0.8,0.6,1.4,1.4,1.4h1.9c0.8,0,1.4-0.6,1.4-1.4v-4.5
			c0-0.8-0.6-1.4-1.4-1.4C42.7,26.8,40.8,26.8,40.8,26.8z"/>
		<path class="st0" d="M48.7,26.8c-0.8,0-1.4,0.6-1.4,1.4v4.5c0,0.8,0.6,1.4,1.4,1.4h1.9c0.8,0,1.4-0.6,1.4-1.4v-4.5
			c0-0.8-0.6-1.4-1.4-1.4C50.6,26.8,48.7,26.8,48.7,26.8z"/>
		<path class="st0" d="M56.9,26.8c-0.8,0-1.4,0.6-1.4,1.4v4.5c0,0.8,0.6,1.4,1.4,1.4h1.9c0.8,0,1.4-0.6,1.4-1.4v-4.5
			c0-0.8-0.6-1.4-1.4-1.4C58.8,26.8,56.9,26.8,56.9,26.8z"/>
		<path class="st0" d="M64.4,26.8c-0.8,0-1.4,0.6-1.4,1.4v4.5c0,0.8,0.6,1.4,1.4,1.4h1.9c0.8,0,1.4-0.6,1.4-1.4v-4.5
			c0-0.8-0.6-1.4-1.4-1.4C66.3,26.8,64.4,26.8,64.4,26.8z"/>
		<path class="st0" d="M72.4,26.8c-0.8,0-1.4,0.6-1.4,1.4v4.5c0,0.8,0.6,1.4,1.4,1.4h1.9c0.8,0,1.4-0.6,1.4-1.4v-4.5
			c0-0.8-0.6-1.4-1.4-1.4C74.3,26.8,72.4,26.8,72.4,26.8z"/>
		<path class="st0" d="M88.6,70.1h-2.4h-1.8H71.6V83v2v2C76.7,81.9,84.2,74.5,88.6,70.1z"/>
		<path class="st0" d="M80.3,26.8c-0.8,0-1.4,0.6-1.4,1.4v4.5c0,0.8,0.6,1.4,1.4,1.4h1.9c0.8,0,1.4-0.6,1.4-1.4v-4.5
			c0-0.8-0.6-1.4-1.4-1.4C82.2,26.8,80.3,26.8,80.3,26.8z"/>
		<path class="st0" d="M14.8,28.2c0-1.2,1-2.2,2.2-2.2h1.9c1.2,0,2.2,1,2.2,2.2v1h1.6v-1c0-1.2,1-2.2,2.2-2.2h1.9
			c1.2,0,2.2,1,2.2,2.2v1h1.6v-1c0-1.2,1-2.2,2.2-2.2h1.9c1.2,0,2.2,1,2.2,2.2v1h1.6v-1c0-1.2,1-2.2,2.2-2.2h1.9
			c1.2,0,2.2,1,2.2,2.2v1h1.6v-1c0-1.2,1-2.2,2.2-2.2h1.9c1.2,0,2.2,1,2.2,2.2v1h1.6v-1c0-1.2,1-2.2,2.2-2.2h1.9
			c1.2,0,2.2,1,2.2,2.2v1h1.6v-1c0-1.2,1-2.2,2.2-2.2h1.9c1.2,0,2.2,1,2.2,2.2v1h1.6v-1c0-1.2,1-2.2,2.2-2.2h1.9
			c1.2,0,2.2,1,2.2,2.2v1H78v-1c0-1.2,1-2.2,2.2-2.2h1.9c1.2,0,2.2,1,2.2,2.2v1h4.2v-6.7v-1.1v-5.7c0-1.5-1.2-2.7-2.7-2.7H13.3
			c-1.5,0-2.7,1.2-2.7,2.7v5.7v1.1v6.7h4.2V28.2z"/>
		<path class="st1" d="M84.4,31.8v0.9c0,1.2-1,2.2-2.2,2.2h-1.9c-1.2,0-2.2-1-2.2-2.2v-0.9h-1.6v0.9c0,1.2-1,2.2-2.2,2.2h-1.9
			c-1.2,0-2.2-1-2.2-2.2v-0.9h-1.6v0.9c0,1.2-1,2.2-2.2,2.2h-1.9c-1.2,0-2.2-1-2.2-2.2v-0.9h-1.6v0.9c0,1.2-1,2.2-2.2,2.2h-1.9
			c-1.2,0-2.2-1-2.2-2.2v-0.9h-1.6v0.9c0,1.2-1,2.2-2.2,2.2h-1.9c-1.2,0-2.2-1-2.2-2.2v-0.9h-1.6v0.9c0,1.2-1,2.2-2.2,2.2h-1.9
			c-1.2,0-2.2-1-2.2-2.2v-0.9H37v0.9c0,1.2-1,2.2-2.2,2.2h-1.9c-1.2,0-2.2-1-2.2-2.2v-0.9h-1.6v0.9c0,1.2-1,2.2-2.2,2.2H25
			c-1.2,0-2.2-1-2.2-2.2v-0.9h-1.6v0.9c0,1.2-1,2.2-2.2,2.2h-1.9c-1.2,0-2.2-1-2.2-2.2v-0.9h-4.2V38v34.2v2V87h12.9h1.8h43.2V72.3
			h-5.8V59.4v-5.9c-1.3,1-2.5,1.8-3.7,2.4C58,56.5,56.6,57,55,57.5c-0.1,0-0.3,0.1-0.4,0.1v-0.3v-6.2c2.7-0.9,4.8-1.9,6.2-3.1
			c1.5-1.2,2.6-2.7,3.5-4.5h6.5V61v6.7h17.1v-4.1V31.8H84.4z M49,57.7c0.9,0.6,1.7,1.3,2.2,2.3c0.5,0.9,0.8,2.1,0.8,3.4
			c0,1.6-0.4,3.2-1.3,4.7c-0.9,1.5-2.1,2.7-3.7,3.5c-1.6,0.8-3.7,1.2-6.4,1.2c-2.6,0-4.6-0.3-6.1-0.9s-2.7-1.5-3.7-2.7
			s-1.7-2.6-2.2-4.4l7.9-1c0.3,1.6,0.8,2.7,1.4,3.3c0.6,0.6,1.5,0.9,2.5,0.9c1.1,0,1.9-0.4,2.6-1.2c0.7-0.8,1.1-1.8,1.1-3.1
			c0-1.3-0.3-2.3-1-3s-1.6-1.1-2.7-1.1c-0.6,0-1.5,0.2-2.5,0.5l0.4-5.6c0.4,0.1,0.8,0.1,1,0.1c1,0,1.9-0.3,2.6-1
			c0.1-0.1,0.3-0.3,0.4-0.4c0.4-0.6,0.7-1.2,0.7-1.9c0-0.9-0.3-1.5-0.8-2.1c-0.5-0.5-1.2-0.8-2.1-0.8c-0.9,0-1.7,0.3-2.3,0.8
			c-0.4,0.4-0.7,1-1,1.9c-0.1,0.3-0.2,0.7-0.2,1.1L29,50.9c0.2-0.9,0.6-1.8,1-2.5c0.6-1.2,1.5-2.1,2.6-2.9c1.8-1.3,4.2-1.9,7.5-1.9
			c3.7,0,6.4,0.7,8,2.1c1.6,1.4,2.5,3.1,2.5,5.2c0,1.2-0.3,2.3-1,3.3c-0.3,0.4-0.6,0.8-1,1.2c-0.5,0.5-1.2,1-2,1.4
			C47.6,57,48.4,57.3,49,57.7z"/>
	</g>
</g>
</svg>
