<?xml version="1.0" encoding="utf-8"?>
<!-- Generator: Adobe Illustrator 18.1.1, SVG Export Plug-In . SVG Version: 6.00 Build 0)  -->
<svg version="1.1" id="Layer_1" xmlns="http://www.w3.org/2000/svg" xmlns:xlink="http://www.w3.org/1999/xlink" x="0px" y="0px"
	 viewBox="0 0 100 100" style="enable-background:new 0 0 100 100;" xml:space="preserve">
<style type="text/css">
	.st0{fill:#545758;}
	.st1{fill:#FAC312;}
</style>
<g>
	<g>
		<g>
			<path class="st1" d="M29.4,53.6c-3.3-5.1-5.2-12.2-4.6-20.7c-3.9,2.7-7.6,6-11.1,9.7c0,0,0,0,0,0C10.2,46.2,7,50.4,4.1,55
				c2.1-0.1,4.2-0.2,6.3-0.3C11.9,70.5,20.5,82,31.9,87c-8.2-8.3-11.3-20.4-9.2-33.1C24.9,53.8,27.2,53.7,29.4,53.6z"/>
		</g>
		<g>
			<path class="st1" d="M70.6,46.4c3.3,5.1,5.3,12.2,4.7,20.7c3.8-2.7,7.6-6,11-9.7c0,0,0,0,0,0c3.5-3.7,6.7-7.9,9.5-12.5
				c-2.1,0.1-4.2,0.2-6.3,0.4C88.1,29.4,79.4,18,68,13c8.2,8.3,11.4,20.4,9.3,33C75.1,46.1,72.8,46.3,70.6,46.4z"/>
		</g>
	</g>
	<g>
		<path class="st0" d="M66,56.6c-0.7-1.6-1.6-3-2.8-4.3C62,51,60.5,49.9,58.7,49c-1.5-0.8-3.1-1.6-4.9-2.3V28.9c0.1,0,0.2,0,0.3,0
			c1.2,0.2,2.4,0.4,3.6,0.7c1.2,0.3,2.3,0.6,3.4,1c1.1,0.4,2,0.8,2.9,1.2v-7.7c-1.8-0.7-3.7-1.4-5.9-1.8c-1.3-0.3-2.8-0.5-4.3-0.6
			v-5.3h-7.7v5.7c-0.7,0.2-1.4,0.4-2.1,0.6c-2.2,0.7-4.1,1.8-5.7,3.1c-1.6,1.3-2.9,2.9-3.9,4.8c-0.9,1.9-1.4,4-1.4,6.4
			c0,2.1,0.3,4,1,5.5c0.6,1.6,1.6,2.9,2.8,4.1c1.2,1.2,2.7,2.2,4.5,3.2c1.4,0.7,3,1.5,4.8,2.2v19.2c-0.4-0.1-0.8-0.1-1.1-0.2
			c-1.4-0.3-2.7-0.7-4.1-1.2c-1.4-0.5-2.7-1.1-3.9-1.7c-1.2-0.6-2.3-1.3-3.2-1.9v8.6c0.8,0.5,1.8,1,2.9,1.5c1.1,0.5,2.3,0.9,3.6,1.2
			c1.3,0.4,2.7,0.6,4.1,0.8c0.6,0.1,1.2,0.1,1.7,0.2v5.3h7.7V78c1-0.2,1.9-0.5,2.8-0.8c2.3-0.8,4.2-2,5.7-3.5
			c1.5-1.5,2.7-3.2,3.5-5.2c0.8-2,1.2-4.1,1.2-6.4C67,60,66.6,58.2,66,56.6z M46.1,43.3c-0.6-0.3-1.2-0.7-1.7-1.1
			c-1-0.7-1.8-1.6-2.3-2.5c-0.5-0.9-0.8-2-0.8-3.3c0-1.1,0.2-2.2,0.6-3.1c0.4-1,1-1.8,1.8-2.5c0.7-0.6,1.5-1,2.4-1.4V43.3z M58,66.2
			c-0.4,1.1-1,2-1.9,2.8c-0.6,0.6-1.4,1.1-2.3,1.4V55.3c0.6,0.4,1.2,0.7,1.7,1.1c1,0.7,1.7,1.6,2.2,2.6c0.5,1,0.8,2.2,0.8,3.7
			C58.6,64,58.4,65.2,58,66.2z"/>
	</g>
</g>
</svg>
