<?xml version="1.0" encoding="utf-8"?>
<!-- Generator: Adobe Illustrator 18.1.1, SVG Export Plug-In . SVG Version: 6.00 Build 0)  -->
<svg version="1.1" id="Layer_1" xmlns="http://www.w3.org/2000/svg" xmlns:xlink="http://www.w3.org/1999/xlink" x="0px" y="0px"
	 viewBox="0 0 100 100" style="enable-background:new 0 0 100 100;" xml:space="preserve">
<style type="text/css">
	.st0{fill:#545758;}
	.st1{fill:#FAC312;}
</style>
<g>
	<g>
		<path class="st0" d="M63.4,28.5c-2,2.6-6.4,7.6-4.6,11.2c-2.4-2-5.4-3.3-8.8-3.3c-2.7,0-5.2,0.8-7.3,2.1c-4-3.1-6.6-10.2-6.5-14.2
			c0.1-7.6,7.2-10.8,14-11.3c3.4-0.2,19.6,1.4,19.6,6.9C69.9,22.6,65,26.6,63.4,28.5z"/>
		<path class="st0" d="M36.5,50c0,2.7,0.8,5.2,2.1,7.3c-3.1,4-10.2,6.6-14.2,6.5c-7.6-0.1-10.8-7.2-11.3-14
			c-0.2-3.4,1.4-19.6,6.9-19.6c2.8,0,6.7,4.9,8.7,6.5c2.6,2,7.6,6.4,11.2,4.6C37.7,43.6,36.5,46.6,36.5,50z"/>
		<path class="st0" d="M63.7,75.6c-0.1,7.6-7.2,10.8-14,11.3c-3.4,0.2-19.6-1.4-19.6-6.9c0-2.8,4.9-6.7,6.5-8.7
			c2-2.6,6.4-7.6,4.6-11.2c2.4,2,5.4,3.3,8.8,3.3c2.7,0,5.2-0.8,7.3-2.1C61.2,64.5,63.8,71.7,63.7,75.6z"/>
		<path class="st0" d="M80.1,69.9c-2.8,0-6.7-4.9-8.7-6.5c-2.6-2-7.6-6.4-11.2-4.6c2-2.4,3.3-5.4,3.3-8.8c0-2.7-0.8-5.2-2.1-7.3
			c3.1-4,10.2-6.6,14.2-6.5c7.6,0.1,10.8,7.2,11.3,14C87.2,53.7,85.6,69.9,80.1,69.9z"/>
		<circle class="st0" cx="50" cy="50" r="8.6"/>
		<circle class="st1" cx="50" cy="50" r="8.6"/>
	</g>
</g>
</svg>
