<?xml version="1.0" encoding="utf-8"?>
<!-- Generator: Adobe Illustrator 18.1.1, SVG Export Plug-In . SVG Version: 6.00 Build 0)  -->
<svg version="1.1" id="Layer_1" xmlns="http://www.w3.org/2000/svg" xmlns:xlink="http://www.w3.org/1999/xlink" x="0px" y="0px"
	 viewBox="0 0 100 100" style="enable-background:new 0 0 100 100;" xml:space="preserve">
<style type="text/css">
	.st0{fill:#545758;}
	.st1{fill:#FAC312;}
</style>
<g>
	<path class="st0" d="M83.7,43.2l-12.3-7.6c-2.8-1.7-7.3-1.6-9.9,0.3c0,0,0,0,0,0l-13.6,9.7c0,0-0.1,0.1-0.1,0.1l-4.8,3.4l-5.2,8.5
		l2.1,1.3c2.2-3.6,6.9-4.7,10.5-2.5c3.6,2.2,4.7,6.9,2.5,10.5l4,2.5c2.1-2.3,5.5-2.9,8.3-1.2c2.7,1.7,3.8,5.1,2.6,7.9l2,1.3l5.2-8.5
		l10.7-17.4C87.4,48.7,86.5,45,83.7,43.2z M82.7,49.6l-8.9,14.4L57.2,53.9l-0.4-1.5l5.8-1.4l0.9,3.7c0.2,1,1.1,1.7,2.1,1.7
		c0.2,0,0.3,0,0.5-0.1c1.2-0.3,1.9-1.4,1.6-2.6l-2.6-10.9c-0.3-1.2-1.4-1.9-2.6-1.6c-1.2,0.3-1.9,1.4-1.6,2.6l0.9,3.8L56.1,49
		l-1-4.2l8.2-5.8l0.2-0.1c1.5-1.1,4.5-1.2,6.1-0.2l12.3,7.6C83,46.9,83.4,48.5,82.7,49.6z"/>
	<polygon class="st0" points="54.2,25.1 37.9,51.6 36.6,53.6 35.1,56.1 15.4,43.9 18.1,39.4 33.6,49 49.9,22.4 	"/>
	<polygon class="st1" points="39.3,34 32.5,45.1 19.5,37.1 26.3,26.1 31.6,29.3 28.7,33.8 31.2,35.4 34.1,30.8 	"/>
	<polygon class="st1" points="47.4,20.9 40.9,31.4 28,23.4 34.4,12.9 39.7,16.1 36.8,20.7 39.3,22.2 42.2,17.7 	"/>
	<g>
		<circle class="st1" cx="46.3" cy="63" r="5.1"/>
		<path class="st1" d="M65.5,74.8c-0.1,0.4-0.2,0.7-0.4,1c-1.2,1.9-3.6,2.5-5.5,1.3c-1.9-1.2-2.5-3.6-1.3-5.5
			c0.2-0.3,0.4-0.6,0.7-0.9c1.3-1.2,3.2-1.4,4.8-0.4C65.3,71.3,66,73.1,65.5,74.8z"/>
	</g>
	<polygon class="st0" points="13.5,52.7 13.5,87.1 68,87.1 	"/>
</g>
</svg>
