<?xml version="1.0" encoding="utf-8"?>
<!-- Generator: Adobe Illustrator 18.1.1, SVG Export Plug-In . SVG Version: 6.00 Build 0)  -->
<svg version="1.1" id="Layer_1" xmlns="http://www.w3.org/2000/svg" xmlns:xlink="http://www.w3.org/1999/xlink" x="0px" y="0px"
	 viewBox="0 0 100 100" style="enable-background:new 0 0 100 100;" xml:space="preserve">
<style type="text/css">
	.st0{fill:#545758;}
	.st1{fill:#FAC312;}
</style>
<g>
	<path class="st0" d="M25.5,82.1c0,0-5.1,0-5.1,0C20.3,82.1,25.5,82.1,25.5,82.1z"/>
	<rect x="35.6" y="62.5" class="st1" width="12.7" height="7.4"/>
	<rect x="35.6" y="72.6" class="st1" width="12.7" height="7.4"/>
	<rect x="51.7" y="62.5" class="st1" width="12.7" height="7.4"/>
	<rect x="51.7" y="72.6" class="st1" width="12.7" height="7.4"/>
	<path class="st0" d="M79.7,82.1c0,0-4.9,0-4.9,0C74.8,82.1,79.7,82.1,79.7,82.1z"/>
	<rect x="35.6" y="62.5" class="st1" width="12.7" height="7.4"/>
	<rect x="35.6" y="72.6" class="st1" width="12.7" height="7.4"/>
	<rect x="51.7" y="62.5" class="st1" width="12.7" height="7.4"/>
	<rect x="51.7" y="72.6" class="st1" width="12.7" height="7.4"/>
	<rect x="35.6" y="72.6" class="st1" width="12.7" height="7.4"/>
	<rect x="35.6" y="62.5" class="st1" width="12.7" height="7.4"/>
	<rect x="51.7" y="72.6" class="st1" width="12.7" height="7.4"/>
	<rect x="51.7" y="62.5" class="st1" width="12.7" height="7.4"/>
	<path class="st0" d="M25.5,82.1c0,0-5.1,0-5.1,0C20.3,82.1,25.5,82.1,25.5,82.1z"/>
	<path class="st0" d="M79.7,82.1c0,0-4.9,0-4.9,0C74.8,82.1,79.7,82.1,79.7,82.1z"/>
	<path class="st0" d="M25.5,82.1c0,0-5.1,0-5.1,0C20.3,82.1,25.5,82.1,25.5,82.1z"/>
	<path class="st0" d="M79.7,82.1c0,0-4.9,0-4.9,0C74.8,82.1,79.7,82.1,79.7,82.1z"/>
	<g>
		<path class="st0" d="M74.8,82.1v-37L57.2,55.8h-0.1V45.1L39.6,55.8c-0.6-9.9-1.2-10-1.8-19.9H27.3c-0.6,9.9-1.2,10-1.8,19.9v26.3
			h-5.1V87h59.3v-4.9H74.8z M69.5,82.1h-39V59.3h39V82.1z"/>
		<g>
			<path class="st0" d="M30.5,31.5c-0.4-0.5-0.6-1.7-0.6-2.4c-0.1-1.2-0.3-2.3-0.1-3.5c0.5-3.1,2.6-5.7,5.7-6.8c2.6-0.9,5.2-1,8-1.2
				c2.8-0.2,6.5-1.1,8.2-3.4c0.2-0.4,0.4-0.7,0.6-1.1c0.1,2.1-1.4,3.8-2.8,5.3c-1.6,1.7-4.2,2.6-6.5,3.1c-4.1,0.8-8.7,0.5-11.4,4.2
				c-1.4,1.8-0.9,3.2-1.1,5.5V31.5z"/>
		</g>
		<g>
			<path class="st0" d="M34.8,35.3c-0.3-0.4-0.4-1.3-0.5-1.9c-0.1-1-0.2-1.8,0-2.7c0.4-2.4,2-4.4,4.4-5.3c2-0.7,4.1-0.8,6.2-1
				c2.1-0.2,5.1-0.9,6.4-2.7c0.2-0.3,0.3-0.5,0.5-0.9c0.1,1.7-1.1,3-2.2,4.1c-1.2,1.3-3.3,2-5.1,2.4c-3.2,0.6-6.7,0.4-8.8,3.2
				c-1.1,1.4-0.7,2.5-0.8,4.3V35.3z"/>
		</g>
	</g>
</g>
</svg>
