<?xml version="1.0" encoding="utf-8"?>
<!-- Generator: Adobe Illustrator 18.1.1, SVG Export Plug-In . SVG Version: 6.00 Build 0)  -->
<svg version="1.1" id="Layer_1" xmlns="http://www.w3.org/2000/svg" xmlns:xlink="http://www.w3.org/1999/xlink" x="0px" y="0px"
	 viewBox="0 0 100 100" style="enable-background:new 0 0 100 100;" xml:space="preserve">
<style type="text/css">
	.st0{fill:#545758;}
	.st1{fill:#FAC312;}
</style>
<g>
	<g>
		<path class="st0" d="M37.6,54.6c0.3,4.1,1,8.1,2,11.9c2.9,2.4,11.1,7.5,26.1,7.5c15.4,0,22.7-5.7,25.2-8.1c1-3.6,1.6-7.5,1.9-11.3
			c-5.3,3.3-14,6.7-27,6.7C52.3,61.3,43.2,57.8,37.6,54.6z"/>
		<path class="st0" d="M92.9,44.1c-0.2-4.1-0.8-8-1.5-11.5c-4.1,3.2-12.1,7.3-25.7,7.3c-14,0-22.6-4.1-26.8-7.1
			c-0.7,3.6-1.2,7.6-1.4,11.8c2.3,2.1,10.8,8.4,28.3,8.4C83.7,53.1,91.2,46.1,92.9,44.1z"/>
		<path class="st1" d="M41.9,72.5c1.8,3.9,4.3,7.3,7.5,10c3.1,2.5,9.1,4.3,15.5,4.5v0c0.1,0,0.2,0,0.3,0c0.1,0,0.2,0,0.3,0v0
			c6.4-0.2,12.4-1.9,15.5-4.5c3.3-2.7,5.7-6.2,7.6-10.1c-4.6,2.7-11.9,5.4-22.8,5.4C54.4,77.8,46.7,75.1,41.9,72.5z"/>
		<path class="st1" d="M90.5,28.5c-1-3.9-2.3-6.9-3.4-8.4c-5.1-6.8-19.4-7-21.8-7c-2.4,0-16.7,0.3-21.8,7c-1.2,1.6-2.5,4.7-3.5,8.8
			c3.1,2.4,11.2,7.3,25.9,7.3C80.3,36.1,87.6,31.1,90.5,28.5z M48.8,21.5c0-2.6,7.4-4.8,16.4-4.8c9.1,0,16.4,2.1,16.4,4.8
			c0,2.6-7.4,4.8-16.4,4.8C56.1,26.3,48.8,24.1,48.8,21.5z"/>
		<circle class="st1" cx="49.6" cy="55.4" r="2.8"/>
		<circle class="st1" cx="65.2" cy="57.1" r="2.8"/>
		<circle class="st1" cx="80.9" cy="55.4" r="2.8"/>
		<path class="st0" d="M30.3,40.1c0-5.9-3.3-10.9-7.9-12.6v-5.9h0.6c0.7,0,1.3-0.6,1.3-1.3v-5.1c0-0.7-0.6-1.3-1.3-1.3h-8.4
			c-0.7,0-1.3,0.6-1.3,1.3v5.1c0,0.7,0.6,1.3,1.3,1.3h0.6v5.9c-4.6,1.8-7.9,6.7-7.9,12.7c0,0,0,0.1,0,0.1c0,0.1,0,0.1,0,0.2v41.2
			c0,2.2,1.8,3.9,4.1,3.9h15c2.2,0,4.1-1.8,4.1-3.9V40.4c0-0.1,0-0.1,0-0.2C30.2,40.2,30.3,40.1,30.3,40.1z M23.4,68.2
			c0,1.5-1.2,2.7-2.7,2.7H13c-1.5,0-2.7-1.2-2.7-2.7v-4.6h13V68.2z M23.4,58.4h-13V43.7c0-1.5,1.2-2.7,2.7-2.7h7.7
			c1.5,0,2.7,1.2,2.7,2.7V58.4z"/>
	</g>
</g>
</svg>
