<?xml version="1.0" encoding="utf-8"?>
<!-- Generator: Adobe Illustrator 18.1.1, SVG Export Plug-In . SVG Version: 6.00 Build 0)  -->
<svg version="1.1" id="Layer_1" xmlns="http://www.w3.org/2000/svg" xmlns:xlink="http://www.w3.org/1999/xlink" x="0px" y="0px"
	 viewBox="0 0 100 100" style="enable-background:new 0 0 100 100;" xml:space="preserve">
<style type="text/css">
	.st0{fill:#545758;}
	.st1{fill:#FAC312;}
</style>
<g>
	<g>
		<path class="st1" d="M69.1,42.6c0,2.1-2.4,4.4-4.1,5.5c4.1-8.4,0.5-19.7-8.7-22.6c-5.6-1.7-19.7-2.9-16.1-12.5
			c-6,4.1-14,13.5-8.7,20.7c2.4,3.2,6.3,4.6,8.4,8.4c2.1,3.6,1.5,6.5,0.7,10.3c-1.7-4.3-5.8-7.7-10.6-7.9c3.1,2.7,1.9,6.8,1.2,10.6
			c-0.9,5.1-0.5,9.2,3.1,13.5c3.6,4.4,8.4,7.5,13.8,9.6c2.2,0.7,5.8,1.6,7.3,1.7c1.6,0,2.4-0.3,2.4-0.3c2.4-0.8,3.8-2.2,5.9-4.6
			c2.4-2.9,3.9-6.5,5.5-9.9C71.5,59,74.3,47.9,69.1,42.6z"/>
	</g>
	<rect x="32.5" y="82" class="st0" width="36.9" height="5"/>
	<g>
		<g>
			
				<rect x="47.6" y="3.6" transform="matrix(0.7071 0.7071 -0.7071 0.7071 47.1316 -21.8973)" class="st0" width="4.9" height="84.7"/>
		</g>
		<g>
			
				<rect x="7.7" y="43.5" transform="matrix(0.7071 0.7071 -0.7071 0.7071 47.1349 -21.8974)" class="st0" width="84.7" height="4.9"/>
		</g>
	</g>
</g>
</svg>
