<?xml version="1.0" encoding="utf-8"?>
<!-- Generator: Adobe Illustrator 18.1.1, SVG Export Plug-In . SVG Version: 6.00 Build 0)  -->
<svg version="1.1" id="Layer_1" xmlns="http://www.w3.org/2000/svg" xmlns:xlink="http://www.w3.org/1999/xlink" x="0px" y="0px"
	 viewBox="0 0 100 100" style="enable-background:new 0 0 100 100;" xml:space="preserve">
<style type="text/css">
	.st0{fill:#545758;}
	.st1{fill:#FAC312;}
</style>
<g>
	<path class="st0" d="M55.5,16.9c0-1.7-1.4-3-3-3H20.8c-2.8,0-4.2,1.4-5,5l-10.6,43h1h1.6h46.4h1.6h1.1L55.5,16.9z M41.2,52.3
		c-5,2.9-12,3.3-21.3,3.5c-5.7,0.1-9.1,0.8-10.8,1.3l9.2-37.7c0.7-2.9,1.4-2.9,2.4-2.9h31.7c0.2,0,0.4,0.2,0.4,0.4l0,0.1l1,31.1
		C51.2,48.5,45.7,49.7,41.2,52.3z"/>
	<path class="st0" d="M12.6,68.2c-5,0-9.1,4.1-9.1,9.1c0,5,4.1,9.1,9.1,9.1s9.1-4.1,9.1-9.1C21.7,72.3,17.6,68.2,12.6,68.2z
		 M12.6,82.1c-2.6,0-4.8-2.1-4.8-4.8c0-2.6,2.1-4.8,4.8-4.8c2.6,0,4.8,2.1,4.8,4.8C17.3,79.9,15.2,82.1,12.6,82.1z"/>
	<circle class="st1" cx="12.6" cy="77.3" r="3.9"/>
	<path class="st0" d="M49.7,68.2c-5,0-9.1,4.1-9.1,9.1c0,5,4.1,9.1,9.1,9.1c5,0,9.1-4.1,9.1-9.1C58.8,72.3,54.7,68.2,49.7,68.2z
		 M49.7,82.1c-2.6,0-4.8-2.1-4.8-4.8c0-2.6,2.1-4.8,4.8-4.8c2.6,0,4.8,2.1,4.8,4.8C54.4,79.9,52.3,82.1,49.7,82.1z"/>
	<circle class="st1" cx="49.7" cy="77.3" r="3.9"/>
	<polygon class="st0" points="100,73 69.4,73 69.4,77.3 100,74.4 	"/>
	<path class="st0" d="M67.4,13.6h-2c-0.5,0-0.9,0.4-0.9,0.9v16.4h3.8V14.4C68.3,14,67.9,13.6,67.4,13.6z M67.1,28.6
		c0,0.3-0.2,0.5-0.5,0.5h-0.5c-0.3,0-0.5-0.2-0.5-0.5v-2.8c0-0.3,0.2-0.5,0.5-0.5h0.5c0.3,0,0.5,0.2,0.5,0.5V28.6z M67.1,24.1
		c0,0.3-0.2,0.5-0.5,0.5h-0.5c-0.3,0-0.5-0.2-0.5-0.5v-2.8c0-0.3,0.2-0.5,0.5-0.5h0.5c0.3,0,0.5,0.2,0.5,0.5V24.1z M67.1,19.6
		c0,0.3-0.2,0.5-0.5,0.5h-0.5c-0.3,0-0.5-0.2-0.5-0.5v-2.8c0-0.3,0.2-0.5,0.5-0.5h0.5c0.3,0,0.5,0.2,0.5,0.5V19.6z"/>
	<path class="st0" d="M64.1,31.4v45.9h4.5V31.4H64.1z M67.5,74.1c0,0.4-0.3,0.7-0.7,0.7H66c-0.4,0-0.7-0.3-0.7-0.7V70
		c0-0.4,0.3-0.7,0.7-0.7h0.8c0.4,0,0.7,0.3,0.7,0.7V74.1z M67.5,66.9c0,0.4-0.3,0.7-0.7,0.7H66c-0.4,0-0.7-0.3-0.7-0.7v-4.1
		c0-0.4,0.3-0.7,0.7-0.7h0.8c0.4,0,0.7,0.3,0.7,0.7V66.9z M67.5,59.6c0,0.4-0.3,0.7-0.7,0.7H66c-0.4,0-0.7-0.3-0.7-0.7v-4.1
		c0-0.4,0.3-0.7,0.7-0.7h0.8c0.4,0,0.7,0.3,0.7,0.7V59.6z M67.5,52.4c0,0.4-0.3,0.7-0.7,0.7H66c-0.4,0-0.7-0.3-0.7-0.7v-4.1
		c0-0.4,0.3-0.7,0.7-0.7h0.8c0.4,0,0.7,0.3,0.7,0.7V52.4z M67.5,45.2c0,0.4-0.3,0.7-0.7,0.7H66c-0.4,0-0.7-0.3-0.7-0.7v-4.1
		c0-0.4,0.3-0.7,0.7-0.7h0.8c0.4,0,0.7,0.3,0.7,0.7V45.2z M67.5,38c0,0.4-0.3,0.7-0.7,0.7H66c-0.4,0-0.7-0.3-0.7-0.7v-4.1
		c0-0.4,0.3-0.7,0.7-0.7h0.8c0.4,0,0.7,0.3,0.7,0.7V38z"/>
	<polygon class="st0" points="57.1,34.7 63.4,34.7 63.4,31.4 56.9,31.4 	"/>
	<g>
		<path class="st1" d="M0,71v6.3h2.2c0-2.2,0.7-4.3,1.9-6C2.7,71.2,1.3,71.1,0,71L0,71z M43.2,69.1c-7.6,1.2-15,2-22.1,2.3
			c1.2,1.7,1.9,3.7,1.9,5.9h16.2C39.2,74,40.8,71,43.2,69.1L43.2,69.1z M61.8,65.3c-0.5,0.1-1.1,0.3-1.6,0.4c-2.5,0.6-5,1.2-7.5,1.7
			c4.2,1.3,7.3,5.3,7.3,10h3v-8.7C63.1,67.3,62.6,66.2,61.8,65.3L61.8,65.3z"/>
		<path class="st1" d="M97.7,52.8c-8,3.7-16.8,7-26.1,9.8v9.2h26.1V52.8L97.7,52.8z"/>
		<path class="st1" d="M57.8,63.4H5.2c-2.9,0-5.2,2.3-5.2,5.2V71c1.3,0.1,2.7,0.2,4.1,0.3c1.9-2.7,5-4.4,8.5-4.4
			c3.5,0,6.7,1.8,8.6,4.5c7.1-0.3,14.5-1.1,22.1-2.3c1.8-1.4,4-2.2,6.4-2.2c1.1,0,2.1,0.2,3.1,0.5c2.5-0.5,5-1.1,7.5-1.7
			c0.5-0.1,1.1-0.3,1.6-0.4C60.9,64.1,59.4,63.4,57.8,63.4L57.8,63.4z"/>
		<path class="st1" d="M97.7,43.6h-7.6v11.6H79.2V43.6h-7.6v19c9.3-2.8,18-6.1,26.1-9.8V43.6L97.7,43.6z"/>
	</g>
</g>
</svg>
