<?xml version="1.0" encoding="utf-8"?>
<!-- Generator: Adobe Illustrator 18.1.1, SVG Export Plug-In . SVG Version: 6.00 Build 0)  -->
<svg version="1.1" id="Layer_1" xmlns="http://www.w3.org/2000/svg" xmlns:xlink="http://www.w3.org/1999/xlink" x="0px" y="0px"
	 viewBox="0 0 100 100" style="enable-background:new 0 0 100 100;" xml:space="preserve">
<style type="text/css">
	.st0{fill:#545758;}
	.st1{fill:#FAC312;}
</style>
<g>
	<path class="st0" d="M56.9,54.1h-0.1V43.6L39.7,54.1c-0.6-9.7-1.2-9.9-1.8-19.5H27.7c-0.6,9.7-1.2,9.9-1.8,19.5V87H74V43.6
		L56.9,54.1z M70.5,83.5h-41V57.6h41V83.5z"/>
	<rect x="36.8" y="65.5" class="st1" width="26.4" height="3.2"/>
	<rect x="36.8" y="71" class="st1" width="26.4" height="3.2"/>
	<rect x="36.8" y="76.5" class="st1" width="26.4" height="3.2"/>
	<rect x="36.8" y="65.5" class="st1" width="26.4" height="3.2"/>
	<rect x="36.8" y="71" class="st1" width="26.4" height="3.2"/>
	<rect x="36.8" y="76.5" class="st1" width="26.4" height="3.2"/>
	<rect x="36.8" y="65.5" class="st1" width="26.4" height="3.2"/>
	<rect x="36.8" y="71" class="st1" width="26.4" height="3.2"/>
	<rect x="36.8" y="76.5" class="st1" width="26.4" height="3.2"/>
	<g>
		<path class="st0" d="M30.8,30.4c-0.4-0.5-0.6-1.6-0.6-2.3c-0.1-1.2-0.2-2.1-0.1-3.3c0.5-2.9,2.6-5.3,5.6-6.4
			c2.6-0.9,5.1-0.9,7.8-1.2c2.7-0.2,6.4-1.1,8-3.2c0.2-0.3,0.4-0.6,0.6-1c0.1,2-1.4,3.6-2.7,4.9c-1.5,1.6-4.1,2.5-6.4,2.9
			c-4,0.8-8.5,0.5-11.1,3.9c-1.3,1.7-0.9,3-1,5.2V30.4z"/>
	</g>
	<g>
		<path class="st0" d="M35.1,33.9c-0.3-0.4-0.4-1.3-0.5-1.8c-0.1-0.9-0.2-1.7,0-2.6c0.4-2.2,2-4.1,4.3-5c2-0.7,4-0.7,6-0.9
			c2.1-0.2,5-0.8,6.2-2.5c0.2-0.3,0.3-0.5,0.4-0.8c0.1,1.6-1.1,2.8-2.1,3.8c-1.2,1.2-3.2,1.9-4.9,2.3c-3.1,0.6-6.6,0.4-8.6,3
			c-1,1.3-0.7,2.3-0.8,4V33.9z"/>
	</g>
</g>
</svg>
