<?xml version="1.0" encoding="utf-8"?>
<!-- Generator: Adobe Illustrator 18.1.1, SVG Export Plug-In . SVG Version: 6.00 Build 0)  -->
<svg version="1.1" id="Layer_1" xmlns="http://www.w3.org/2000/svg" xmlns:xlink="http://www.w3.org/1999/xlink" x="0px" y="0px"
	 viewBox="0 0 100 100" style="enable-background:new 0 0 100 100;" xml:space="preserve">
<style type="text/css">
	.st0{fill:#545758;}
	.st1{fill:#FAC312;}
</style>
<g>
	<g>
		<path class="st0" d="M52,28.7c-0.5-1.8-1.1-3.6-1.8-5.4c2.8,2,5.2,4.4,7.2,7.2C55.6,29.8,53.8,29.2,52,28.7z"/>
		<path class="st0" d="M18.8,20c3.3-1.5,7-2.4,10.8-2.6v8.5c-4.6,0.1-9.2,0.7-13.8,1.7C16.7,25,17.7,22.5,18.8,20z"/>
		<path class="st0" d="M47.4,27.5c-4.5-1-9.1-1.5-13.8-1.7v-8.5c3.8,0.2,7.5,1.2,10.8,2.6C45.6,22.5,46.6,25,47.4,27.5z"/>
		<path class="st0" d="M11.3,28.7c-1.8,0.5-3.6,1.1-5.4,1.8c2-2.8,4.4-5.2,7.2-7.2C12.4,25.1,11.8,26.9,11.3,28.7z"/>
		<path class="st0" d="M2.6,36.2c2.5-1.1,5-2.1,7.5-2.9c-1,4.5-1.5,9.1-1.7,13.8H0C0.2,43.1,1.2,39.5,2.6,36.2z"/>
		<path class="st0" d="M29.6,29.9V47H12.5c0.1-5.1,0.8-10.1,2.1-15C19.5,30.7,24.6,30,29.6,29.9z"/>
		<path class="st0" d="M29.6,68.1c-5.1-0.1-10.1-0.8-15-2.1c-1.2-4.9-1.9-10-2.1-15h17.1V68.1z"/>
		<path class="st0" d="M10.2,64.8c-2.6-0.8-5.1-1.8-7.5-2.9C1.2,58.5,0.2,54.8,0,51h8.5C8.6,55.6,9.2,60.2,10.2,64.8z"/>
		<path class="st0" d="M11.3,69.3c0.5,1.8,1.1,3.6,1.8,5.4c-2.8-2-5.2-4.4-7.2-7.2C7.7,68.2,9.5,68.8,11.3,69.3z"/>
		<path class="st0" d="M15.9,70.5c4.5,1,9.1,1.5,13.8,1.7v8.5c-3.8-0.2-7.5-1.2-10.8-2.6C17.7,75.5,16.7,73,15.9,70.5z"/>
		<path class="st0" d="M47.4,70.5c-0.8,2.6-1.8,5.1-2.9,7.5c-3.3,1.5-7,2.4-10.8,2.6v-8.5C38.3,72,42.9,71.5,47.4,70.5z"/>
		<path class="st0" d="M33.7,60.1l16.8-4.6c-0.3,3.5-0.9,7-1.8,10.5c-4.9,1.2-10,1.9-15,2.1V60.1z"/>
		<path class="st0" d="M52,69.3c1.8-0.5,3.6-1.1,5.4-1.8c-2,2.8-4.4,5.2-7.2,7.2C50.9,72.9,51.4,71.1,52,69.3z"/>
		<path class="st0" d="M59.4,62.4c-2.1,0.9-4.2,1.7-6.3,2.4c0.7-3.4,1.2-6.9,1.5-10.3l4.3-1.2L59.4,62.4z"/>
		<path class="st0" d="M49.7,36.6l-12.6,7.5L35.5,45l-0.7,2h-1.2V29.9c5.1,0.1,10.1,0.8,15,2.1C49.1,33.5,49.4,35,49.7,36.6z"/>
		<path class="st0" d="M54.5,33.7l-1.2,0.7c-0.1-0.4-0.2-0.8-0.2-1.2C53.6,33.4,54,33.5,54.5,33.7z"/>
		<g>
			<path class="st0" d="M29.6,17.3h2C31,17.3,30.3,17.3,29.6,17.3L29.6,17.3z"/>
			<path class="st0" d="M33.7,17.3L33.7,17.3c-0.7,0-1.3,0-2,0H33.7z"/>
		</g>
	</g>
	<g>
		<path class="st1" d="M73.6,48.4c0,0-0.6,11.4-0.8,15.3c0,0.3-0.1,0.6-0.1,0.9c-0.3,1.7-0.9,3.1-1.8,4.1l10.3,9.1l1.2,4.8l-14-3.1
			l-14.2,3.2l1.1-4.7l0.1-0.1l10.2-9.2c-0.9-1-1.5-2.5-1.8-4.1c0-0.3-0.1-0.5-0.1-0.8c-0.2-3.7-0.8-15.3-0.8-15.3l-26.4,6.5l2.8-7
			l23-12.5c-0.1-1.3-0.5-9.4-0.6-11.1c-0.2-3.5,2.7-6.4,6.6-6.4c3.9,0,6.9,2.9,6.6,6.4c-0.1,1.7-0.5,9.8-0.6,11.1l22.8,12.2l2.9,7.2
			L73.6,48.4z"/>
	</g>
</g>
</svg>
