<?xml version="1.0" encoding="utf-8"?>
<!-- Generator: Adobe Illustrator 18.1.1, SVG Export Plug-In . SVG Version: 6.00 Build 0)  -->
<svg version="1.1" id="Layer_1" xmlns="http://www.w3.org/2000/svg" xmlns:xlink="http://www.w3.org/1999/xlink" x="0px" y="0px"
	 viewBox="0 0 100 100" style="enable-background:new 0 0 100 100;" xml:space="preserve">
<style type="text/css">
	.st0{fill:#545758;}
	.st1{fill:#FAC312;}
	.st2{fill:none;stroke:#545758;stroke-width:1.1952;stroke-miterlimit:10;}
	.st3{fill:none;stroke:#545758;stroke-width:1.1952;stroke-miterlimit:10;stroke-dasharray:4.7474,4.7474;}
</style>
<g>
	<path class="st1" d="M74.9,52.8c0-7.3-3.1-13.8-8.1-18.4l-1.5,1.5c4.6,4.2,7.5,10.2,7.5,16.9c0,12.6-10.2,22.8-22.8,22.8
		c-6.6,0-12.5-2.8-16.7-7.3l-1.5,1.5c4.3,4.6,10.2,7.5,16.9,7.9v4h-2.6c-1.1,0-1.9,0.9-1.9,1.9c0,0.2,0,0.4,0.1,0.6h-4
		c-0.8,0-1.4,0.6-1.4,1.4s0.6,1.4,1.4,1.4H59c0.8,0,1.4-0.6,1.4-1.4s-0.6-1.4-1.4-1.4h-4c0.1-0.2,0.1-0.4,0.1-0.6
		c0-1.1-0.9-1.9-1.9-1.9h-2.6v-4C64.1,77.3,74.9,66.3,74.9,52.8z"/>
	<g>
		<g>
			<g>
				<path class="st2" d="M67.4,31.1c0.2,0.1,0.3,0.3,0.5,0.4"/>
				<path class="st3" d="M68.9,32.4c5.6,5,9.8,11.9,9.8,20c0,15.4-13.4,28.3-28.7,28.3c-15.4,0-28.7-12.5-28.7-27.9
					c0-14.9,8.5-26.1,21.1-29.9"/>
				<path class="st2" d="M43,22.8c0.2-0.1,0.4-0.1,0.6-0.2"/>
			</g>
		</g>
	</g>
	<path class="st1" d="M53.8,29.4c0.5-0.2,0.8-1.4,0.8-1.4l1.7-6.9l5.4-1.6c0.6-0.2,1.5-1.2,1.3-1.7c-0.1-0.5-1.4-0.9-2-0.7l-5.4,1.6
		l-5.2-4.9c0,0-0.9-0.9-1.5-0.8c-0.6,0.1-0.5,0.1-0.7,0.2c-0.1,0-0.6,0.2,0.1,1.2c0.5,0.7,2.8,4.3,3.5,5.4l-3,0.9l-2.4-1.2L44.6,20
		l2.1,2.6l-0.4,3.3l1.8-0.5l1.4-2.4l3-0.9c0,1.3,0,5.6,0,6.5c0,1.2,0.4,1.1,0.5,1C53.2,29.6,53.2,29.6,53.8,29.4z"/>
	<g>
		<path class="st0" d="M58.2,34.9C58.3,34.9,58.3,34.9,58.2,34.9C58.3,34.9,58.3,34.9,58.2,34.9z"/>
		<path class="st0" d="M58.3,35L58.3,35L58.3,35L58.3,35z"/>
		<path class="st0" d="M58.1,61.2c0,0.1,0,0.3-0.1,0.3c-0.2,0.2-0.5,0.6-0.8,0.7c-0.3,0.2-0.7,0.2-0.8,0.7c0,0.2,0.1,0.4,0.1,0.5
			l-0.2,0.5l-0.2,0.2c0,0.1,0,0.3,0.1,0.4c0,0.1,0,0.1,0,0.2c0,0.3,0.2,0.5,0.5,0.5c0.6-0.1,0.8-0.7,1-1.1c0.3-0.6,0.6-1.1,0.6-1.8
			c0,0,0.1,0,0.2,0c0,0,0-0.1,0-0.2C58.3,61.9,58.4,61.3,58.1,61.2z"/>
		<path class="st0" d="M66.5,54.8c0,0.2,0.1,0.3,0.2,0.3s0.2-0.3,0.3-0.5c0-0.4-0.2-0.5-0.3-0.7C66.6,54.2,66.5,54.4,66.5,54.8z"/>
		<path class="st0" d="M69.2,56.6c0,0.1,0,0.2,0,0.2C69.3,56.7,69.2,56.6,69.2,56.6S69.2,56.5,69.2,56.6
			C69.2,56.5,69.2,56.5,69.2,56.6L69.2,56.6z"/>
		<path class="st0" d="M69.2,56.2c0.1,0,0-0.1,0-0.2l0,0l0,0C69.1,56.1,69.2,56.2,69.2,56.2z"/>
		<path class="st0" d="M59.3,36.7L59.3,36.7L59.3,36.7z"/>
		<path class="st0" d="M69.3,54.2C69.3,54.2,69.4,54.2,69.3,54.2L69.3,54.2z"/>
		<path class="st0" d="M63,38.2c0.1,0,0.1,0,0.2,0.1c-0.1-0.1-0.2-0.2-0.3-0.3c0,0,0,0-0.1,0C62.9,38,62.9,38.1,63,38.2z"/>
		<path class="st0" d="M56.9,34.7L56.9,34.7L56.9,34.7L56.9,34.7z"/>
		<path class="st0" d="M56,34.5c0.1,0,0.1,0,0.2,0.1C56.2,34.5,56.1,34.5,56,34.5c0.1,0.1,0.2,0.1,0.2,0.1S56.1,34.6,56,34.5
			c0.1,0.1,0.2,0.1,0.3,0.1l0,0h0.1c0.1,0,0.1,0,0.2,0c0.1,0,0.2,0,0.3,0.1l0,0H57c0.1,0,0.2,0.1,0.2,0c-0.1,0-0.2-0.1-0.3-0.1
			s-0.2,0-0.3,0C56.4,34.6,56.3,34.5,56,34.5c-0.1,0-0.5-0.1-0.6-0.1c0.1,0,0.1,0,0.2,0C55.7,34.5,55.9,34.5,56,34.5z"/>
		<path class="st0" d="M58.2,34.9L58.2,34.9L58.2,34.9L58.2,34.9z"/>
		<path class="st0" d="M46.5,34.1c-0.1,0.1,0.1,0.1,0.3,0.1h-0.1c0.1,0,0.1,0,0.3,0s0.2-0.1,0.3-0.1h0.1h0.1c0.1,0,0.2,0,0.3,0
			c-0.1,0-0.4,0.1-0.5,0.1H47c0,0.1,0.3,0,0.4,0c0.1,0,0.4,0,0.4,0c-0.1,0-0.2,0-0.3,0c0,0-0.2,0-0.4,0c0,0.1,0.5,0.1,0.8,0.1
			c0.1,0,0.1-0.1,0.3-0.2c0,0,0.1,0,0.2,0c0.1-0.1,0.2-0.2,0.6-0.2c0,0,0.1,0,0.2,0h-0.1c0,0,0.1,0.1,0.2,0.1c0,0.1-0.1,0-0.2,0.1
			c0.1,0,0.3,0,0.5,0c0,0,0,0,0,0.1c0.3,0,0.4-0.1,0.6-0.1c-0.1,0-0.4,0-0.4-0.1c-0.1,0-0.2,0-0.3,0l0,0c-0.1,0-0.1,0-0.2,0h0.1
			c-0.1,0-0.6-0.1-0.8-0.1h-0.1c0,0,0-0.1-0.1-0.1s-0.1,0-0.2,0c0,0,0,0,0-0.1c0,0-0.3,0-0.4,0c-0.1,0-0.2,0-0.2,0.1s0,0.1,0.1,0.1
			c-0.2,0-0.2-0.1-0.4-0.1c-0.1,0-0.2,0-0.2,0.1l0,0c-0.1,0-0.1,0-0.2,0H47c-0.2,0-0.3,0-0.5,0c-0.1,0-0.3,0.1-0.3,0.1
			C46.3,34,46.4,34.1,46.5,34.1C46.5,34,46.5,34,46.5,34.1z"/>
		<path class="st0" d="M48.4,33.8c0,0.1,0.2,0,0.3,0c0,0,0.4,0,0.5,0c0,0-0.1,0-0.2,0c0,0-0.1,0-0.2,0c0,0,0,0,0.1,0
			c0.2,0,0.4,0,0.6,0c0.1,0,0.2,0,0.3,0c0.3,0,0.8-0.1,1-0.1c-0.1,0-0.2-0.1-0.4-0.1c-0.1,0-0.2,0-0.3,0s-0.2,0-0.3,0c0,0,0,0,0-0.1
			h-0.1c0,0-0.1,0.1-0.2,0.1c0,0-0.3,0-0.4,0c-0.1,0-0.2,0-0.3,0l0,0c-0.1,0-0.1,0-0.2,0l0,0C48.5,33.7,48.5,33.7,48.4,33.8
			C48.4,33.7,48.3,33.7,48.4,33.8C48.3,33.8,48.3,33.8,48.4,33.8z"/>
		<path class="st0" d="M46.2,34.1L46.2,34.1L46.2,34.1L46.2,34.1L46.2,34.1c-0.2,0,0.1,0.1,0.3,0.1C46.4,34.1,46.3,34.1,46.2,34.1z"
			/>
		<path class="st0" d="M39.5,41.1c0.1,0,0.1,0,0.2-0.1c0.1-0.1,0.2-0.2,0.4-0.2c0.1,0,0.2,0,0.3-0.1s0-0.1,0-0.2c0-0.1,0-0.1,0-0.2
			l0.2-0.1c0-0.1-0.1-0.2-0.3-0.2c-0.1,0-0.1,0-0.2,0c-0.1,0-0.3,0.1-0.3,0.2c0,0,0,0,0,0.1c-0.1,0-0.2,0.1-0.3,0.1
			c0,0-0.1,0-0.1,0.1s0.1,0.1,0.2,0.1c-0.1,0.2-0.3,0.2-0.3,0.4C39.3,41,39.4,41.1,39.5,41.1z"/>
		<path class="st0" d="M40.5,39.3c0.1,0,0.2-0.1,0.2-0.2C40.6,39.2,40.4,39.2,40.5,39.3C40.4,39.3,40.4,39.3,40.5,39.3z"/>
		<path class="st0" d="M40.7,39.5L40.7,39.5C40.7,39.6,40.6,39.6,40.7,39.5L40.7,39.5c0,0.1,0,0.1,0,0.2c0,0,0,0,0,0.1v0.1h0.1
			c0,0,0,0,0-0.1c0,0,0.1,0,0.2,0v0.1c0,0-0.1,0.1-0.1,0.2c0,0.1,0.1,0,0.2,0c0.1,0,0.1,0,0.2-0.1h0.1c0,0-0.1,0-0.1,0.1
			s0.1,0.1,0.2,0v0.1c-0.1,0.1-0.3,0.2-0.5,0.2c0,0.1,0.1,0.1,0.1,0.2c0,0.1-0.3,0.1-0.3,0.2l0,0c0,0,0,0,0.1,0s0.1,0.1,0.3,0
			c0.1,0,0.1,0,0.2-0.1l0,0c0,0.1-0.2,0.1-0.4,0.1l-0.4,0.3l0,0h0.1c0,0,0.1-0.1,0.2-0.1H41c0-0.1,0.1-0.1,0.2-0.1
			c0.1,0,0.1,0,0.2,0c0.2,0,0.5-0.1,0.6-0.1c0.2,0,0.3,0,0.4,0c0.1,0,0.2-0.1,0.3-0.1l0,0c-0.1,0-0.1,0-0.2,0
			c0.1-0.1,0.4-0.2,0.4-0.3s-0.1-0.1-0.2-0.1c-0.1,0-0.1,0-0.1,0s0,0,0.1,0c0,0-0.1,0-0.1,0.1l0,0c0,0,0.1,0,0.1-0.1
			s-0.1-0.1-0.1-0.1c0-0.2-0.2-0.2-0.4-0.3c-0.1-0.1-0.1-0.2-0.3-0.2c-0.1,0-0.1,0-0.2,0l0.1-0.1c0-0.1,0.4-0.2,0.3-0.4
			c-0.2,0-0.4,0.1-0.6,0.1l0,0c0-0.1,0.3-0.1,0.3-0.2h-0.1c-0.1,0-0.2,0-0.3,0s-0.2,0.1-0.2,0.1s0,0.1-0.1,0.1s-0.1,0-0.2,0.1l0,0
			C40.8,39.4,40.8,39.4,40.7,39.5C40.7,39.4,40.6,39.4,40.7,39.5c0-0.1-0.1-0.1-0.2-0.1C40.5,39.5,40.6,39.5,40.7,39.5z"/>
		<path class="st0" d="M41,40.1L41,40.1C40.9,40.1,40.9,40.2,41,40.1C40.9,40.2,41,40.2,41,40.1C41,40.2,41,40.2,41,40.1z"/>
		<g>
			<path class="st0" d="M50,31.2c-11.9,0-21.6,9.7-21.6,21.6S38.1,74.4,50,74.4s21.6-9.7,21.6-21.6C71.5,40.9,61.8,31.2,50,31.2z
				 M62.5,37.5c0.3,0.2,0.6,0.5,0.9,0.8c-0.1,0-0.2-0.1-0.2-0.1c0.1,0.1,0.2,0.3,0.1,0.2c0,0,0,0-0.1,0.1c-0.2,0-0.2,0-0.3,0
				s0-0.1-0.1-0.1c0,0,0.2,0,0.2-0.1c0,0,0,0,0-0.1c0,0-0.2-0.1-0.2-0.2c-0.1-0.1-0.1-0.2-0.1-0.3C62.5,37.7,62.5,37.6,62.5,37.5
				C62.4,37.6,62.4,37.6,62.5,37.5z M69.5,55.6C69.5,55.6,69.4,55.5,69.5,55.6c-0.1-0.2-0.1-0.3-0.1-0.3l0,0c0-0.1,0-0.3-0.1-0.3
				s0,0-0.1,0c0-0.1,0-0.1-0.1-0.1l0,0V55c0,0.1,0,0.3,0.1,0.4c0.1,0,0.1,0,0.1,0.1s0,0.2,0,0.3s0.1,0.1,0.1,0.3c0,0.1,0,0.3,0,0.3
				l0,0c0,0,0,0,0,0.1c-1.7,9.2-9.7,16.2-19.4,16.2c-7.5,0-14.1-4.2-17.4-10.4h0.1c0.1,0,0.1,0,0.1-0.1v-0.1c0-0.1,0-0.2,0.1-0.3
				v-0.2c0-0.1,0-0.1,0-0.1s0,0,0-0.1s-0.1-0.5-0.1-0.6c-0.1-0.2-0.1-0.3-0.1-0.4c0.1-0.1,0.1-0.1,0.1-0.2c0-0.1,0-0.1,0.1-0.1
				c0.1-0.3,0.3-0.6,0.2-1.2c0-0.2-0.1-0.4-0.2-0.5c-0.1-0.1-0.1,0-0.2-0.1c-0.1-0.1-0.3-0.3-0.4-0.5c-0.1-0.1-0.2-0.1-0.3-0.2
				c-0.1,0-0.1,0-0.2,0s-0.1-0.2-0.2-0.2s0,0-0.1,0.1l0,0c0-0.1,0-0.1,0-0.2c0-0.1-0.1-0.1-0.1-0.1c-0.1-0.1-0.2-0.3-0.3-0.3
				c-0.1,0-0.1,0-0.1,0c0-0.1,0-0.1,0-0.1v-0.1c0,0,0,0.1-0.1,0c-0.1,0,0,0-0.1-0.1l0,0c-0.1,0,0,0.1,0,0.2c0,0.1,0.1,0.3,0.2,0.3
				h0.1v0.1v0.1v-0.1c-0.1,0,0,0-0.1,0c0-0.1,0-0.1-0.1-0.2c0,0,0,0-0.1-0.1c0-0.2,0-0.5,0.1-0.7c0-0.1-0.1-0.1-0.1-0.2
				c0-0.1-0.1-0.4-0.1-0.5c-0.1-0.1-0.1-0.2-0.2-0.3c-0.1-0.7-0.1-1.4-0.1-2.1c0-5.6,2.4-10.7,6.2-14.3c0,0,0.1,0,0.1-0.1
				c0.2-0.1,0.3-0.2,0.5-0.4c0.1-0.1,0.2-0.1,0.3-0.2c-0.1,0-0.4,0.2-0.6,0.2c0.1-0.1,0.2-0.2,0.3-0.2s0.1,0.1,0.3,0
				c0.1,0,0.2-0.1,0.2-0.1c0-0.1-0.1-0.1-0.2-0.1l0,0c0,0,0,0,0.1,0c0.1-0.1,0.1-0.1,0.1-0.1l0,0c0.1-0.1,0.1-0.1,0.2-0.2
				c0.1,0,0.1-0.1,0.2-0.1l0,0c0,0,0.1,0,0.1-0.1c0.1-0.1,0.2-0.1,0.3-0.2h-0.1c0.1,0,0.1-0.1,0.2-0.1c0,0,0,0,0.1,0S38.9,37,39,37
				h-0.1l0,0c0,0,0,0-0.1,0c3.2-2.3,7.1-3.6,11.4-3.6c3,0,5.8,0.7,8.4,1.9c-0.1,0-0.1,0-0.2-0.1h-0.1c0,0,0.4,0.1,0.4,0.2h0.1
				c0,0,0.1,0,0.1,0.1c-0.1,0-0.3-0.1-0.2,0c0,0,0,0,0.1,0s0.1,0.1,0.1,0c0,0,0.1,0.1,0.2,0.1h0.1c0.6,0.3,1.3,0.7,1.9,1.1
				c-0.1,0-0.3-0.1-0.5-0.1c-0.1,0-0.2-0.1-0.3-0.1c-0.2,0-0.1,0-0.2,0c-0.3-0.1-0.5,0-0.7-0.1c-0.1,0-0.2,0-0.3-0.1
				c-0.1,0-0.1,0-0.1,0s0.1,0,0.1,0.1s-0.4,0-0.4,0.1c0,0,0.1,0.1,0.2,0.1c-0.1,0-0.4-0.1-0.4,0l0,0c0,0.1-0.3,0-0.2,0.1l0.2,0.1
				c0,0,0.2,0,0.3,0.1c0.2,0,0.1,0.1,0.2,0.1h0.2h0.1c0.2,0.1,0.5,0.1,0.7,0.2l0,0c-0.2-0.1-0.5-0.2-0.5-0.3c0-0.2,0.5-0.3,0.9-0.2
				c0.1,0,0.2,0,0.4,0c0.1,0,0.1,0,0.1,0c0.2,0,0.4,0.1,0.7,0.2l0,0c0.3,0.2,0.6,0.4,0.9,0.7l0,0l0,0c-0.1,0-0.1,0-0.1,0
				c-0.1,0-0.1,0.1-0.2,0.1c-0.1,0-0.2,0-0.2,0c-0.1,0,0.1,0.1,0.1,0.1c0.1,0.1-0.1,0.1,0,0.1s0.2,0.1,0.3,0.2
				c0.2,0.2,0.2,0.2,0,0.2c-0.1,0-0.3-0.1-0.4-0.2c-0.3-0.1-0.6-0.3-0.7-0.3c-1.2-0.5-0.6,0-0.6,0c-0.5,0-0.3-0.1-0.4-0.2
				c-0.3-0.1-0.8,0-1.3-0.2l0.2-0.1c-0.2-0.1-0.6,0-1.1,0c-0.2,0-0.3,0-0.5,0s0,0.2-0.5,0.1c-0.1,0-0.4-0.1-0.4-0.2
				c0,0,0.5,0.1,0.5,0s-0.7-0.4-0.9-0.3c-0.1,0,0.2,0.1,0,0.2c0,0,0.2,0.1,0.2,0.2c0,0.1-0.3,0-0.4,0c0,0,0-0.1-0.1-0.1
				c-0.2,0-0.6,0.1-0.7,0.1c-0.1,0,0.1,0.2,0.1,0.2c-0.1,0-0.5-0.1-1.1-0.2c0,0.1,0.1,0.1,0.2,0.2c0.1,0,0.2,0.1,0.4,0.1
				c-0.2,0-0.4,0.1-0.6,0c-0.1,0-0.2,0-0.3-0.1c-0.1,0,0-0.1,0-0.2c-0.1-0.1-0.3-0.2-0.4-0.3c0.5,0,0.7,0,1.2,0.1
				c0.6,0.1,1.7-0.1-0.1-0.5c-0.5-0.1-0.9-0.2-1.3-0.2c0,0-0.3-0.1-0.6-0.1c0,0-0.3,0-0.4,0c0,0-0.1,0-0.2-0.1c0.3,0,0.4,0,0.5-0.1
				c-0.1,0-0.4-0.1-0.4-0.1c-0.1,0-0.1,0-0.2,0C52,36,52,36,52,35.9c-0.2,0-0.3,0-0.5,0.1c0,0,0,0-0.1-0.1c-0.2,0-0.3,0.1-0.5,0.1
				c0.1-0.1,0.2,0,0.3-0.1c0-0.1-0.5,0-0.6,0s-0.2,0-0.3-0.1c0,0-0.2,0-0.3,0.1c0,0,0.1,0,0.2,0c-0.2,0-0.4,0-0.6,0.1c0,0,0,0,0-0.1
				c-0.3,0-0.3,0.1-0.4,0.1l0,0c-0.2,0-0.4,0-0.5,0.1h0.1c-0.1,0-0.3,0-0.4,0c-0.1,0-0.2,0.1-0.2,0.1c0.1,0,0.1,0,0.2,0l-0.2,0.1
				c-0.1,0,0,0-0.2,0c0,0,0,0-0.1,0c0,0-0.1,0-0.1,0.1h-0.1c-0.1,0-0.1,0-0.2,0.1c0,0-0.1,0,0,0l-0.2,0.1c0.3,0,0.6-0.1,0.8-0.1
				c-0.1,0.1-0.4,0.3-0.6,0.3c-0.2,0-0.4,0.1-0.5,0.2l-0.1,0.1c-0.1,0-0.1,0.1-0.2,0.2c-0.3,0.1-0.5,0.3-1,0.3c0.1,0,0.1,0,0.2,0
				c-0.4,0-0.4,0.1-0.6,0.2c-0.2,0-0.4,0.1-0.5,0.2c-0.1,0-0.2,0.1-0.2,0.2c0,0.1,0.1,0.3,0.2,0.4l-0.2,0.1c0.1,0,0.2,0,0.3-0.1
				c0,0,0,0,0,0.1l-0.2,0.1c0,0,0.4,0.1,0.5,0.1c0.5,0,0.9-0.2,1.1-0.4c0.1,0,0.1,0.1,0.2,0.1c0,0-0.1,0-0.1,0.1s0.2,0.1,0.2,0.2
				c0.1,0.1,0,0.2,0.2,0.3c0,0,0,0,0,0.1c0,0,0.1,0.3,0.2,0.3c0.3,0,0.3-0.3,0.5-0.3c0.1,0,0.3,0,0.4,0c0-0.1,0.3-0.1,0.4-0.3
				c-0.1,0-0.2,0-0.2-0.1s0-0.3,0.2-0.3c0.1,0,0.5-0.1,0.5-0.2c0-0.1,0-0.2-0.2-0.2c0,0,0-0.1-0.1-0.1c0,0-0.1-0.1-0.2-0.1
				c0.2,0,0.1-0.1,0.2-0.2c0.1-0.1,0.3-0.1,0.5-0.2c0.2-0.1,0.7-0.2,0.8-0.3c0,0,0,0,0-0.1s0.3-0.2,0.6-0.2s0.6,0,0.6,0.1
				s-0.5,0.2-0.6,0.3c-0.3,0.1-0.2,0.2-0.7,0.2v0.2c0,0.1,0,0.1,0.1,0.1L49.6,38c0,0.1,0.2,0.2,0.5,0.2c0,0.1,0,0.1,0.2,0.1
				s0.3,0,0.6,0c0.2,0,0.4,0,0.6-0.1c0.1,0.1,0.6,0.1,0.7,0.1c-0.1,0-0.3,0.2-0.4,0.2c-0.2,0-0.6-0.1-0.8-0.1
				c-0.3,0-0.9,0.2-0.8,0.3c0.2,0.1,0.4-0.1,0.6,0.1c0.1,0.1-0.1,0.2-0.2,0.2c-0.2,0-0.3-0.1-0.5-0.1s-0.4,0.3-0.4,0.5
				s-0.4,0.1-0.4,0.3c-0.1,0-0.3,0-0.4,0c0,0,0,0,0-0.1c-0.1,0-0.2,0-0.4,0c-0.1,0-0.3,0.1-0.4,0.1c-0.2,0-0.3,0-0.5,0.1
				c0,0-0.1,0.1-0.2,0.1l-0.2-0.1c0,0,0.1,0,0.1-0.1c-0.3,0-0.5,0.1-0.8,0.2c0,0-0.3-0.2-0.3-0.3c-0.1,0,0.1,0.2,0,0.2
				c0,0,0,0,0-0.1c-0.1,0-0.1,0-0.1-0.1s0.1-0.2,0.3-0.2c0,0,0.1,0,0.1-0.1l0,0c-0.1,0-0.2,0-0.2,0c0-0.1,0-0.1,0.1-0.2
				c0,0,0,0,0-0.1c-0.3,0.1-0.7,0.2-0.7,0.4c0,0.1,0.2,0.2,0.2,0.3l0.1,0.1c0,0-0.2,0.1-0.3,0.1s-0.2,0-0.3,0h-0.1c-0.1,0,0,0-0.2,0
				c-0.3,0-0.7,0.3-0.8,0.4l-0.1,0.1c0,0.1,0,0.2-0.1,0.2c0,0-0.5,0.2-0.6,0.2c0,0-0.1,0-0.2,0c-0.1,0.2,0,0.2-0.3,0.3
				c0,0-0.1,0.1-0.2,0.1c-0.1,0-0.2,0-0.3-0.1h-0.1c0,0,0,0,0,0.1v0.1c0,0,0,0,0,0.1l-0.2,0.1c-0.1,0-0.2,0-0.3,0s-0.4,0.1-0.4,0.2
				l0,0c0,0.1,0.4,0.1,0.6,0.1h0.1c0,0.1,0.1,0.4,0.3,0.4c0,0.1,0.1,0,0.1,0.1c0,0,0,0.1-0.1,0.1l0,0v0.2c0,0.1-0.2,0.2-0.2,0.3
				c0,0-0.2,0.1-0.3,0.1s-0.2,0-0.3,0c-0.2,0-0.3,0-0.5,0.1c0,0-0.1,0-0.2,0c-0.2,0-0.3,0-0.5,0.1c-0.1,0-0.1,0-0.1,0
				c-0.1,0-0.4,0.2-0.4,0.3s0.1,0.2,0.1,0.3c0,0.2-0.1,0.4-0.2,0.6c0,0-0.1,0.1-0.1,0.2c0,0.1,0.1,0.1,0.1,0.1c0,0.2,0,0.3,0,0.5
				c0,0,0,0.1,0.1,0.1c0.2,0,0.3-0.1,0.4-0.1c0.2,0,0.2,0.4,0.4,0.3c0.2,0,0.4-0.2,0.6-0.3c0,0,0.2-0.1,0.3,0l0,0
				c0.2,0.1,0.2-0.2,0.4-0.3s0.3-0.3,0.5-0.5c0,0-0.1,0-0.1-0.1c0-0.2,0.4-0.5,0.6-0.6c0.2-0.1,0.5-0.1,0.6-0.3c0,0,0-0.1-0.1-0.2
				c0-0.1,0.2-0.2,0.4-0.2s0.2,0.1,0.4,0.1c0.3,0,0.4-0.2,0.6-0.2c0.1,0,0.1-0.1,0.3-0.2c0.4,0,0.7,0.2,0.7,0.5c0,0,0.2,0.1,0.3,0.1
				c0.2,0.1,0.3,0.2,0.6,0.2l0.2,0.1l0.6,0.4c0,0.1,0.1,0.1,0.1,0.2c0,0.1-0.1,0.2-0.2,0.2c0,0,0,0.1,0.1,0.1c0.2,0,0.2-0.2,0.3-0.3
				l0.1-0.1c0-0.1-0.1-0.1-0.1-0.2c0-0.1,0-0.2,0.2-0.2c0.1,0,0.2,0.1,0.4,0.1c0-0.2-0.3-0.3-0.5-0.4c-0.1,0-0.4-0.1-0.3-0.2
				c0,0,0,0,0-0.1c-0.2,0-0.3,0-0.5,0c-0.1,0-0.2-0.2-0.2-0.3s-0.1-0.2-0.3-0.2c-0.1,0-0.2-0.1-0.2-0.2c0,0,0-0.1,0.1-0.1h-0.1
				c0-0.1,0.3-0.1,0.4-0.2c0.1,0,0,0.2,0.1,0.2s0.2,0,0.4,0c0,0.2,0.3,0.5,0.6,0.5c0,0,0.1,0,0.2,0c0,0.1,0.2,0.1,0.4,0.2
				c0.2,0.1,0.4,0.2,0.4,0.3s0,0.1,0,0.2c0,0.2-0.1,0.2,0.1,0.3c0.1,0.1,0.2,0.2,0.3,0.3c0,0,0,0.1,0.1,0.1s0.2,0,0.2,0
				s-0.2,0.2-0.2,0.3c0,0.2,0.3,0.4,0.5,0.4c0,0,0.1,0,0.2,0c-0.1,0,0-0.2,0-0.2c0-0.1,0-0.3-0.1-0.3c0,0,0,0,0-0.1
				c0,0,0.2,0.2,0.3,0.3l0,0c0-0.1,0.2-0.2,0.2-0.2v-0.1c-0.1,0-0.4-0.2-0.4-0.2V44c-0.1-0.1-0.2-0.1-0.2-0.2l0.1-0.1
				c0.1,0,0.1,0.1,0.3,0.1c0-0.1,0-0.1,0-0.2c0.2,0,0.2-0.1,0.4-0.1s0.2,0.1,0.4,0.1s0.2,0,0.4,0c0.1,0,0.3,0,0.4-0.1
				c0,0,0.1,0,0.2,0c-0.1-0.1-0.4-0.2-0.4-0.4c0-0.1,0.2-0.3,0.3-0.4c0-0.1,0-0.1,0-0.2c0,0,0,0,0.1-0.1c0-0.1,0.1-0.1,0.2-0.1v-0.1
				c0.3,0,0.3-0.3,0.6-0.3c0.1,0,0.4,0.1,0.7,0.2l-0.2,0.1c0.2,0.1,0.4,0.3,0.5,0.3c0.2,0,0.7-0.1,0.8-0.2h-0.3c0,0-0.2,0-0.2-0.1
				s0.8-0.2,1.1-0.3L55.3,42c0,0,0.4,0.3-0.3,0.4c0.3,0.5,1.6,0.5,1.7,1.2l0,0l0,0c-0.2,0.1-0.3,0.2-0.6,0.2c-0.2,0-0.4,0-0.7,0
				c-0.1,0-0.6-0.1-0.6-0.2c-0.3,0-0.3-0.1-0.6-0.1c-0.2,0-0.5,0-0.7,0.1c-0.1,0-0.3,0.2-0.5,0.2c-0.1,0-0.2,0-0.4,0h-0.3
				c0,0,0.1,0,0.1,0.1c-0.2,0.1-1.3-0.1-1.3,0.2c0,0,0.1,0,0.2,0v0.1c0,0.2-0.1,0.1-0.3,0.2c0.2,0.1,0.3,0.1,0.4,0.3
				c-0.1,0.1,0.2,0.3,0.3,0.3l-0.1,0.1h0.1c0.2-0.1,0.4,0.2,0.6,0.2c0.2,0,0.2-0.2,0.4-0.2c0.3,0,0.5,0.3,0.8,0.3
				c0.4,0,0.4-0.1,0.6-0.3c0,0,0.1,0.1,0.2,0.1c0.1,0,0.1-0.1,0.2-0.1v0.1l-0.1,0.1c0,0.1,0.1,0.3,0.1,0.5c0,0.3-0.2,0.3-0.3,0.5
				s-0.1,0.3-0.2,0.6c0,0-0.1,0-0.1,0.1c0,0,0.1,0.1,0.1,0.2c0,0,0-0.1-0.1-0.1c-0.2,0-0.2,0-0.4,0c-0.3,0-0.5-0.1-0.8-0.1
				c-0.4,0-0.2,0.1-0.6,0.1c-0.4,0-1-0.2-1.4-0.3c-0.2-0.1-0.5,0-0.6-0.1c0-0.1-0.2-0.1-0.2-0.3c-0.1,0-0.2,0-0.3,0l0,0
				c-0.4,0.1-0.7,0.1-0.7,0.5c0,0.1,0,0.2,0,0.2s-0.1,0.2-0.2,0.2c-0.9,0-1.4-0.7-2.2-0.7c-0.1,0-0.2,0-0.3,0
				c-0.2,0-0.5-0.2-0.5-0.5c0-0.2,0.2-0.3,0.2-0.4c0-0.1-0.1-0.1-0.1-0.2c0-0.1,0.2-0.1,0.2-0.3c-0.1,0-0.1,0.1-0.2,0.1
				c-0.2,0-0.1-0.2-0.3-0.2s-0.2,0.2-0.5,0.2c-0.1,0-0.2-0.1-0.3-0.1c-0.2,0-0.4,0.2-0.5,0.2s-0.2-0.1-0.4-0.1
				c-0.5,0-1.2,0.3-1.7,0.5C42,45.9,41.7,46,41.5,46c-0.4,0-0.5,0-0.7-0.2c-0.1,0.1-0.2,0.4-0.3,0.5c-0.1,0-0.1,0.1-0.2,0.1
				c-0.3,0.3-0.6,0.4-0.9,0.8c-0.1,0.2-0.2,0.5-0.2,0.7c-0.1,0.2-0.3,0.4-0.4,0.5c-0.2,0.1-0.5,0.3-0.7,0.5
				c-0.3,0.4-0.4,0.8-0.6,1.2c-0.1,0.2-0.3,0.3-0.3,0.5c0,0.4,0.2,0.8,0.2,1.2c0,0.3-0.2,0.8-0.4,0.9c0.1,0.2,0.2,0.4,0.2,0.5
				s0,0.2,0,0.3l0,0c0,0.1,0.1,0.1,0.1,0.2c0,0,0.5,0.6,0.6,0.6c0.2,0.2,0.3,0.5,0.5,0.8s0.6,0.3,1.1,1c0,0,0.2,0.1,0.3,0.1
				c0.4,0,0.7-0.2,1.1-0.2c0.2,0,0.5,0.2,0.7,0.2s0.2-0.1,0.4-0.2c0.4-0.1,1.1-0.4,1.6-0.4s0.1,0.7,0.5,0.7c0.1,0,0.5,0,0.7,0
				c0.4,0,0.6,0.2,0.8,0.5c-0.1,0.1-0.1,0.4-0.1,0.6c0,0-0.1,0.1,0,0.2c-0.1,0-0.3,0.3-0.3,0.4c0,0.5,0.7,1.1,1,1.5
				c0.2,0.2,0.1,0.4,0.2,0.7c0.1,0.3,0.2,0.4,0.3,0.9c0.1,0.2,0.2,0.3,0.2,0.6c0,0.6-0.6,0.8-0.6,1.5s0.4,1,0.7,1.5
				c0.1,0.1,0.2,0.2,0.2,0.3c0,0.1,0,0.2,0,0.3c0,0.8,0.3,1.2,0.7,1.5c0.1,0.1,0.3,0.5,0.6,0.8c0.1,0.1,0.1,0.2,0,0.3
				c0.1,0.1,0.1,0.2,0.1,0.4c0,0,0,0,0.1,0c0.1,0.1,0.2,0.2,0.4,0.2c0.4,0,0.5-0.2,1-0.2c0.1,0,0.2,0.1,0.3,0.1s0.2,0,0.3-0.1
				c0-0.1,0.4-0.1,0.6-0.1c0.5-0.2,0.6-0.4,0.9-0.7c0.2-0.2,0.3-0.2,0.6-0.4c0.1-0.1,0.4-0.3,0.4-0.6c0-0.1-0.1-0.1-0.2-0.2
				c0.1-0.2-0.1-0.2,0.4-0.4c0.1,0,0.4,0,0.5-0.1s0.2-0.5,0.2-0.7c0-0.4-0.3-0.3-0.3-0.5c0-0.1,0.2-0.3,0.4-0.3
				c0.2-0.7,1.6-0.6,1.7-1.4c0-0.1,0-0.1-0.1-0.2c0-0.2,0-0.4,0-0.7c0-0.1,0-0.2,0-0.2s0.1-0.1,0.1-0.2c0-0.2-0.4-0.4-0.4-0.8
				c0-0.3-0.2-0.6-0.2-1c0-0.3,0.3-0.4,0.4-0.7c0.1-0.4,0.5-0.4,0.8-0.6c0.1-0.1,0.1-0.5,0.3-0.6c0.3-0.2,0.6-0.4,0.9-0.7
				c0.4-0.3,0.6-0.6,0.9-1.1c0.3-0.4,0.8-1.3,0.8-2c0-0.1,0-0.1-0.1-0.2c-0.4,0.1-0.7,0.3-1.2,0.4c-0.2,0-0.3-0.1-0.5,0
				c-0.2,0-0.2,0.2-0.4,0.2s-0.4-0.4-0.5-0.5c0.1-0.1,0-0.2,0-0.4c-0.4,0-0.5-0.5-0.7-0.6c-0.2-0.2-0.3-0.2-0.5-0.4
				s-0.1-0.5-0.3-0.8c-0.2-0.2-0.5-0.5-0.6-0.8c0-0.2,0-0.4,0-0.6c-0.2-0.1-0.5-0.4-0.5-0.6c-0.4-0.7-0.7-1.3-1.1-2c0,0,0-0.1,0-0.2
				c0.2,0.2,0.4,0.7,0.7,0.7c0-0.1,0.2-0.4,0.2-0.6c0,0.1-0.1,0.3-0.1,0.4c0,0,0.2,0.2,0.2,0.3c0.1,0.2,0.2,0.3,0.4,0.5
				c0,0,0.1,0.2,0.2,0.3c0,0.1,0,0.2,0.1,0.3c0,0,0.2,0,0.2,0.1c0,0,0.1,0.1,0.2,0.2c0.1,0.2,0.2,0.3,0.2,0.5c0,0.4,0.1,0.7,0.5,0.8
				c0,0.3,0.3,0.6,0.4,0.8c0.1,0.1,0.4,0.3,0.3,0.5c0,0.1-0.1,0.3,0,0.3c0,0.2,0,0.5,0.1,0.6s0,0.1,0,0.1s0.3,0.2,0.4,0.2h0.1
				c0.2,0,0.3-0.2,0.5-0.3c0.2,0,0.3,0,0.4,0c0.1-0.1,0.6-0.4,0.7-0.4c0.3-0.1,0.5-0.2,0.8-0.3v-0.1c0-0.2,0.6-0.3,0.9-0.3
				c0-0.1,0.2-0.3,0.3-0.3c0.2,0,0.1-0.3,0.3-0.3c0.1,0,0.1-0.2,0.2-0.3c0-0.1,0.1-0.2,0.3-0.2c0-0.3,0.4-0.4,0.4-0.6
				c0-0.1-0.1-0.1-0.2-0.2l0,0c-0.1,0-0.1-0.2-0.2-0.3c-0.3-0.1-0.5-0.2-0.7-0.5c0-0.1,0-0.3,0-0.4c-0.4,0.3-0.4,0.7-1.1,0.7
				c-0.2,0-0.4-0.1-0.5-0.2c0-0.1,0.1-0.2,0.1-0.4v-0.1c-0.1,0-0.1,0.2-0.2,0.2c0-0.1-0.1-0.1-0.1-0.3c-0.3-0.1-0.6-0.5-0.7-0.8
				c0-0.1,0-0.2,0-0.3c0-0.2,0-0.3,0.2-0.3c0.3,0,0.6,0.4,0.7,0.6c0,0,0,0.1,0.1,0.2c0.1,0.1,0.3,0.1,0.4,0.2
				c0.1,0.1,0.2,0.3,0.4,0.3s0.4,0,0.5,0c0-0.1,0.1-0.2,0.2-0.2c0.2,0,0.2,0.3,0.3,0.5c0,0,0.3,0.1,0.4,0.1c0.3,0,0.7,0.2,0.9,0.2
				l0,0c0.1,0,0.1,0,0.2,0c0,0,0,0,0.1-0.1c0.1,0,0.2,0.1,0.3,0.1s0.2,0,0.3,0s0.2,0,0.3,0c0.1,0.1,0.2,0.3,0.3,0.4
				c0.1,0.2,0.4,0.4,0.5,0.4s0.1,0,0.2,0c0,0,0,0.1-0.1,0.1s-0.1,0-0.2,0c0.1,0.2,0.3,0.5,0.5,0.5s0.2-0.2,0.3-0.4c0,0,0,0,0.1,0
				v0.1c0,0.1,0.1,0.3,0.1,0.4c0,0.1,0,0.1,0,0.3l0,0v0.1c0,0.2,0.1,0.4,0.2,0.6c0.1,0.2,0.1,0.5,0.2,0.7c0,0.1,0,0.2,0.1,0.3
				s0,0.3,0.1,0.4c0,0.1,0.1,0.2,0.2,0.3c0.1,0.2,0.1,0.4,0.2,0.7c0,0,0,0.1,0.1,0.1c0,0.1,0,0.1,0.1,0.1s0.1-0.1,0.1-0.2
				c0-0.1,0-0.1,0.1-0.1s0-0.3,0.1-0.3h0.1l0,0c0-0.1,0-0.2,0-0.3c0-0.2,0.1-0.3,0.1-0.6c0-0.2-0.1-0.4-0.1-0.6
				c0-0.2,0.1-0.2,0.3-0.2c0.1,0,0.1-0.1,0.2-0.2c0.1-0.2,0.2-0.4,0.4-0.6c0.1-0.2,0.3-0.2,0.4-0.4c0.1-0.1,0-0.2,0.1-0.3
				c0-0.1,0.1,0,0.2-0.1c0,0.1,0,0.1,0.1,0.1s0.3,0,0.3-0.3c0.1,0,0.2,0.1,0.2,0.2c0,0.1,0,0.3,0.1,0.4c0,0.1,0.1,0.2,0.2,0.3
				c0.1,0.2,0.1,0.2,0.1,0.4v0.1c0,0.1,0,0.1,0,0.3c0,0.1,0,0.2,0.1,0.2s0.2-0.2,0.2-0.4c0,0.1,0,0.1,0,0.1s0,0,0.1,0
				c0,0.1-0.1,0.4,0,0.4c0,0.3,0.1,0.7,0.1,1.1c0,0.1-0.1,0.3,0,0.3l0,0l0,0c0,0.1,0,0.2,0,0.4v0.1l0,0l0,0c0.1,0,0.1,0.3,0.1,0.4
				c0,0.2,0,0.4,0,0.6c0,0,0,0,0,0.1C69.5,55.4,69.5,55.5,69.5,55.6z M59.6,44.4c0,0.1,0,0.1,0,0.2c0,0.1,0,0.2,0,0.2
				c0,0.1,0,0.1,0,0.2c-0.1,0-0.3,0-0.5,0c-0.1,0-0.4,0-0.5-0.1c-0.1,0-0.1-0.2-0.2-0.2c-0.1,0-0.3-0.1-0.3-0.2
				c-0.1-0.1,0-0.2-0.1-0.3c-0.1,0-0.1-0.1-0.2-0.1c0,0,0.1,0,0.2,0c0.1-0.1,0.1-0.3,0.3-0.4c-0.3-0.1-0.8-0.7-0.8-0.9
				c0-0.1-0.3-0.2-0.3-0.3l0.2-0.3l0.4-0.1c0.3-0.1,0.4-0.1,0.7-0.1c0.6,0.1,0.7,0.3,0.9,0.5c-0.2,0.1-0.4,0-0.5-0.1
				c-0.3,0-0.7,0.1-0.7,0.1c0,0.2,0.2,0.2,0.3,0.3c0.2,0.3,0.5,0.4,0.6,0.7c0.1,0,0.3-0.1,0.3-0.1c0,0.1,0.2,0.3,0.2,0.4
				c-0.1,0-0.2,0-0.3,0s-0.2,0.1-0.2,0.3C59.4,44.2,59.5,44.3,59.6,44.4z M54,47L54,47L54,47L54,47z M69.5,54.4c0-0.1,0-0.2,0-0.3
				l0,0c0-0.3-0.1-0.2-0.1-0.4s0.1-0.3,0.1-0.6c0-0.1,0-0.2,0-0.3c0,0-0.1-0.1,0-0.1s0.1,0,0.1,0.1v0.1l0,0c0,0,0,0,0-0.1
				C69.7,53.5,69.7,54,69.5,54.4C69.6,54.5,69.5,54.4,69.5,54.4z"/>
			<path class="st0" d="M37.1,38.7c0,0.1-0.1,0.1-0.1,0.2h-0.1c0.2-0.1,0.2,0,0.3,0c0.2,0,0.4-0.1,0.7-0.1c0.3-0.1,0.5-0.2,0.7-0.3
				c0.1-0.1,0.4-0.2,0.4-0.3l0,0c0-0.1-0.3,0-0.3-0.2c0,0,0,0,0.1-0.1c-0.1,0-0.1,0.1-0.2,0.1c-0.1,0-0.1,0-0.1,0s0,0-0.1,0
				c0,0,0,0-0.1,0.1c-0.1,0-0.2,0.1-0.3,0.1s-0.1,0-0.3,0.1l0,0c0,0,0,0-0.1,0s-0.1,0.1-0.2,0.1c-0.1,0,0,0-0.1,0c0,0,0,0,0,0.1
				l-0.1,0.1c-0.1,0-0.1,0-0.1-0.1c0,0,0,0,0-0.1c0,0,0,0-0.1,0s-0.1,0.1-0.2,0.1l0,0c-0.1,0-0.1,0-0.1,0c0,0.1,0.3,0,0.3,0
				C37.2,38.6,37.2,38.6,37.1,38.7c0,0-0.2,0.1-0.3,0.1C36.9,38.9,37,38.8,37.1,38.7z"/>
		</g>
		<path class="st0" d="M46.5,44.8C46.5,44.8,46.6,44.8,46.5,44.8c0.1,0,0.2,0,0.2,0c0-0.1-0.1-0.1-0.1-0.2l0.1-0.1
			c0,0,0-0.1,0.1-0.1c-0.2,0-0.3,0.1-0.4,0.1c-0.2,0-0.3-0.1-0.5,0c0,0,0,0,0,0.1c0,0,0.1,0,0.2,0S46.3,44.7,46.5,44.8z"/>
		<path class="st0" d="M44.8,43.4c0-0.1,0.1-0.3,0.1-0.4v-0.1c0,0-0.1,0.1-0.2,0.1h-0.1C44.7,43.1,44.7,43.3,44.8,43.4z"/>
		<path class="st0" d="M44.6,43.9c0,0.1,0,0.2,0.1,0.2S45,44,45,43.8s0-0.2-0.1-0.4l-0.1-0.1c-0.1,0-0.1,0.1-0.2,0.1
			c0,0.1,0.1,0.1,0.1,0.2C44.6,43.8,44.6,43.9,44.6,43.9z"/>
		<path class="st0" d="M42.9,44.1C42.9,44.1,42.8,44,42.9,44.1c-0.1-0.1-0.1-0.1-0.2,0C42.7,44,42.8,44.1,42.9,44.1L42.9,44.1z"/>
		<path class="st0" d="M45.6,39.4L45.6,39.4L45.6,39.4C45.5,39.5,45.6,39.5,45.6,39.4C45.6,39.5,45.6,39.5,45.6,39.4
			C45.7,39.5,45.7,39.5,45.6,39.4C45.7,39.4,45.6,39.4,45.6,39.4z"/>
		<path class="st0" d="M45.8,39.5L45.8,39.5C45.7,39.5,45.7,39.5,45.8,39.5C45.7,39.5,45.8,39.5,45.8,39.5c0.2,0,0.2-0.1,0.3-0.2
			c0-0.1,0-0.1-0.2-0.1l-0.1,0.1l0.1,0.1C45.9,39.5,45.8,39.5,45.8,39.5z"/>
		<path class="st0" d="M48.1,38.8L48.1,38.8L48.1,38.8c0.1,0,0.2,0,0.2-0.1L48.1,38.8L48.1,38.8C48.1,38.7,48.1,38.7,48.1,38.8
			C48.1,38.7,48,38.8,48.1,38.8C48,38.8,48,38.8,48.1,38.8z"/>
		<path class="st0" d="M50.5,45.3c-0.2-0.1-0.5-0.1-0.8-0.1c0.1,0.1,0.4,0.1,0.5,0.1S50.3,45.4,50.5,45.3z"/>
		<path class="st0" d="M52.7,45.4C52.7,45.4,52.8,45.4,52.7,45.4c0.2,0.1,0.4,0,0.5-0.1v-0.1c0.1,0,0.1,0,0.2-0.1
			C53.2,45.2,52.9,45.3,52.7,45.4L52.7,45.4z"/>
		<path class="st0" d="M59.8,53.2c0.1,0,0.2-0.1,0.2-0.2c-0.1,0-0.2,0-0.3,0.1L59.8,53.2z"/>
		<path class="st0" d="M57,36.5C57,36.5,56.9,36.5,57,36.5c-0.1,0.1,0,0.2,0.1,0.2c0.2,0,0.3,0,0.4,0l0,0c-0.1,0-0.2-0.1-0.3-0.1
			C57,36.5,57,36.5,57,36.5z"/>
		<path class="st0" d="M59.5,36.9c0,0.1,0.2,0.1,0.3,0.2h0.1C59.9,37,59.5,36.8,59.5,36.9z"/>
	</g>
</g>
</svg>
