<?xml version="1.0" encoding="utf-8"?>
<!-- Generator: Adobe Illustrator 18.1.1, SVG Export Plug-In . SVG Version: 6.00 Build 0)  -->
<svg version="1.1" id="Layer_1" xmlns="http://www.w3.org/2000/svg" xmlns:xlink="http://www.w3.org/1999/xlink" x="0px" y="0px"
	 viewBox="0 0 100 100" style="enable-background:new 0 0 100 100;" xml:space="preserve">
<style type="text/css">
	.st0{fill:#545758;}
	.st1{fill:#FAC312;}
</style>
<g>
	<path class="st0" d="M40.2,19.8c0.1,0,0.2,0,0.2-0.1c-0.3,0-0.5-0.1-0.8-0.1C39.6,19.8,40.1,19.8,40.2,19.8z"/>
	<path class="st0" d="M40.3,20.5c0.1,0,0.2,0,0.3-0.1c0-0.2-0.5,0.1-0.6,0.1C40.1,20.5,40.2,20.5,40.3,20.5
		C40.3,20.5,40.3,20.5,40.3,20.5z"/>
	<path class="st0" d="M52.8,21C52.8,21,52.8,21,52.8,21C52.5,21,52.8,21,52.8,21z"/>
	<path class="st0" d="M66.8,32.6c0-0.1-0.1-0.2-0.1-0.2c0.1,0,0.1-0.1,0.1-0.2c-0.1,0-0.1,0-0.2,0c0-0.1,0-0.3,0-0.4
		c-0.2,0.1-1.2-0.2-0.9-0.3c-0.2-0.1-0.3,0-0.5,0c0-0.1,0.7-1.1,0.1-0.8c-0.5,0.2-0.5,1.1-1.1,1.3c0.1,0.2,0.3,0.1,0,0.3
		c-0.3,0.2,0,0.3,0.2,0.3c0.5-0.1,1.2,0.1,1.7,0.2c0,0.1-0.2,0.1-0.2,0.2c0,0.1,0.5-0.3,0.5-0.3c0.1,0.1,0.3,0.4,0.4,0.5
		c0.1,0.1,0.3,0.1,0.3-0.1c0.1-0.2-0.1-0.3-0.1-0.4C66.9,32.6,66.9,32.6,66.8,32.6z"/>
	<path class="st0" d="M51.9,20.7c0,0.2,0.8,0.3,0.9,0.3c0.1,0,0.1,0,0.1,0c0.3,0,1.2,0.1,1.4,0C54.1,20.9,51.9,20.4,51.9,20.7z"/>
	<path class="st0" d="M41.1,22.2C41,22.3,41.4,22.2,41.1,22.2L41.1,22.2z"/>
	<path class="st0" d="M35.3,20.2c0,0-0.4,0.1-0.3,0.2c-0.2,0.1-0.4,0.2-0.1,0.2c-0.2,0.1-1,0.5-0.2,0.4c0.5-0.1,1-0.5,1.4-0.3
		c-0.1,0-0.4,0-0.4,0.2c0,0.1,1.5-0.3,1.8-0.4c0.4-0.1,0.8-0.2,1.2-0.3c0.1,0,1.5-0.4,1.2-0.6c-0.2-0.1-1.5,0.4-1.3-0.1
		c-0.2,0-0.8,0-0.9,0.4c0,0.1,0.3,0,0.4,0c0,0-0.1,0.1-0.2,0.2c0.1,0,0.2,0,0.3,0c-0.6,0.5-1.7,0.1-2.4,0.2
		C35.6,20.1,35.4,20.1,35.3,20.2C35.3,20.2,35.3,20.2,35.3,20.2z"/>
	<path class="st0" d="M69.6,58.5C69.7,58.5,69.7,58.5,69.6,58.5C69.6,58.5,69.6,58.5,69.6,58.5c-0.3,0-0.1,0.1-0.4-0.1
		c-0.3-0.2-0.5,0-0.6,0.4c0,0.3,0.5,0.6,0.7,0.4C69.4,59.2,69.9,58.5,69.6,58.5z"/>
	<path class="st0" d="M40.2,19.8C40,19.8,40.3,19.8,40.2,19.8L40.2,19.8z"/>
	<path class="st0" d="M44.3,17.3c0.1,0.3,0.4,0.2,0.7,0.2c-0.1,0-0.1,0,0.3,0c-0.1,0-0.1,0-0.3,0c0,0,0.1,0,0.2,0
		c-0.1,0-0.2,0.1-0.3,0.1c0,0.1,0.5,0,0.9,0c-0.2,0-0.3,0.1-0.3,0.1c0,0.2,0.7,0.1,0.8,0.1c-0.1,0-0.1,0.1-0.2,0.1
		c0.1,0.2,0.9,0.1,1.1,0c0.2-0.1,0.7-0.1,1-0.1c-0.1,0-0.1-0.1-0.2-0.1c0.2-0.1,1.7,0,1.7-0.3c-0.1,0-1.1-0.1-1.1-0.1
		c0,0,0.1-0.1,0.1-0.1c0-0.2-0.5-0.2-0.6-0.2c0.1,0,0.1,0,0.1,0.1c-0.2,0-0.3-0.1-0.5-0.2c-0.3,0-0.6,0.1-0.8,0
		c-0.5-0.2-0.9-0.2-1.4-0.2c0,0,0.1,0.1,0.1,0.1c-0.2,0-0.4,0.1-0.6,0.1c0.2,0,0.5,0,0.7,0c-0.1,0.1-1,0-1,0.1
		c0,0.1,0.6,0.1,0.7,0.1C44.9,17.4,44.6,17.2,44.3,17.3z M46.8,17.5c0,0-0.1,0-0.2,0C46.7,17.5,46.8,17.5,46.8,17.5z"/>
	<path class="st0" d="M44.3,18.3c0.1,0,1.3,0.1,1.3-0.1C45.7,18.1,44.5,18.2,44.3,18.3z"/>
	<path class="st0" d="M45.6,19.3C45.7,19.4,45.7,19.3,45.6,19.3L45.6,19.3z"/>
	<path class="st0" d="M42.9,22.3C42.9,22.3,43,22.3,42.9,22.3C42.8,22.3,42.9,22.3,42.9,22.3C42.8,22.3,42.8,22.3,42.9,22.3
		c-0.1,0-0.4,0-0.4,0.1c0.6,0.2,1.4,0.1,2,0c-0.2-0.2-0.6-0.2-0.8-0.3C43.2,22,43.2,22.2,42.9,22.3z"/>
	<path class="st0" d="M41.8,18.4c-0.2,0-0.5,0.1-0.6,0.1C41.4,18.6,41.8,18.5,41.8,18.4C41.9,18.4,41.9,18.4,41.8,18.4z"/>
	<path class="st0" d="M40.6,19.9C41,19.9,40.5,19.9,40.6,19.9L40.6,19.9z"/>
	<path class="st0" d="M48.8,20.2C48.5,20.3,49.3,20.2,48.8,20.2L48.8,20.2z"/>
	<path class="st0" d="M42.1,19.4c0,0.1,0.6,0,0.6,0c0.4,0,0.7,0,0.8-0.6c0-0.2-1.5-0.1-1.7,0c0.1,0.2,0.4,0.1,0.6,0
		c0,0.3-1,0-0.9,0.2c0.1,0.1,0.2,0.1,0.3,0.1c-0.4,0.1-0.8-0.2-1.2-0.2c-0.1,0-0.1,0-0.2,0c0.1,0,0,0.2,0,0.2
		c0.8,0.2,1.5-0.1,2.3-0.1C42.5,19.2,42.2,19.2,42.1,19.4z"/>
	<path class="st0" d="M40.3,20.5C40.3,20.5,40.3,20.5,40.3,20.5C40.2,20.5,40.3,20.5,40.3,20.5z"/>
	<path class="st0" d="M43.8,20.3c0-0.1-0.6,0-0.6,0c0.1-0.1,0.5-0.1,0.6-0.3c0-0.2-1.9,0-2,0.3c0,0.2,0.5,0.1,0.5,0
		c0,0.4-0.5,0.3-0.8,0.2c-0.3,0-0.3,0.1,0,0.2c0.3,0.1,0.7,0.1,1,0.1c0.4,0.1,1.3,0.3,1.6-0.3c0,0,0,0,0.1-0.2c-0.1,0-0.3,0-0.4,0
		C43.7,20.4,43.7,20.3,43.8,20.3z"/>
	<path class="st0" d="M43.4,17.8C43.4,17.7,43.3,18,43.4,17.8L43.4,17.8z"/>
	<path class="st0" d="M44.1,19.3c0.2,0,1.4,0.4,1.5-0.1c0,0,0,0,0,0c0-0.1,0,0,0,0C45.5,18.8,44.2,18.9,44.1,19.3z"/>
	<path class="st0" d="M40.2,19.3C40.2,19.3,40.2,19.3,40.2,19.3C40.1,19.3,40.2,19.3,40.2,19.3z"/>
	<path class="st0" d="M52.5,19.2c-0.1,0-0.2,0-0.2,0C52.3,19.1,52.4,19.1,52.5,19.2c-0.4-0.4-5-0.3-5-0.4c0,0,0.1,0,0.1,0
		c-0.2-0.1-0.6,0.1-0.8-0.2c0.2,0,0.5,0,0.7,0c-0.4-0.3-1-0.1-1.5-0.1c-0.3,0-1.9-0.5-2,0c0,0.2,0.9,0.2,1,0.2c0.2,0,0.4,0,0.5-0.1
		c0.2,0.1,0.4,0.3,0.7,0.4c-0.3,0-0.2,0.2,0,0.3c0.3,0.1,0.7,0.1,1,0.1c0.2,0,0.5-0.2,0.7-0.1c-0.1,0.2,0.8,0.1,0.9,0.1
		c0.4,0,0.7,0,1.1,0c0.2,0,0.6-0.1,0.8,0C50.9,19.5,52.4,19.6,52.5,19.2z"/>
	<path class="st0" d="M43.9,18c-0.1,0-0.1,0-0.2,0.1c0,0.1,0.6,0,0.7,0c0.2,0,0.4,0,0.5-0.2c0-0.1,0-0.2-0.1-0.2
		c-0.2,0-1.4-0.2-1.4,0.1C43.3,18,43.8,18,43.9,18z"/>
	<path class="st0" d="M43.1,17.3c0.2,0,0.3,0.1,0.3-0.2c-0.2,0-0.4,0-0.6,0.1C42.9,17.3,43.1,17.3,43.1,17.3z"/>
	<path class="st0" d="M65.8,32.8C65.8,32.6,65.8,32.8,65.8,32.8L65.8,32.8z"/>
	<path class="st0" d="M63.7,52.6C63.8,52.6,63.6,52.6,63.7,52.6L63.7,52.6z"/>
	<path class="st0" d="M62.4,32.8c-0.3,0-0.7,0-0.9-0.3C61.2,32.6,62.6,33.3,62.4,32.8C62.4,32.8,62.4,32.8,62.4,32.8z"/>
	<path class="st0" d="M63.5,53c0,0.1,0.4-0.2,0.4-0.4c-0.1,0-0.1,0-0.2,0C63.6,52.6,63.5,52.9,63.5,53z"/>
	<path class="st0" d="M61,32.1C61,32.1,61,32.1,61,32.1C61,32.1,61,32.2,61,32.1z"/>
	<path class="st0" d="M61.2,31c0.2,0.1,1.1,0.7,1.3,0.4c-0.3-0.2-0.7-0.4-1-0.4C61.5,31,61.4,31,61.2,31z"/>
	<path class="st0" d="M50.6,23.5c-0.1-0.1-0.1-0.2-0.4-0.1C50.2,23.4,50.4,23.4,50.6,23.5z"/>
	<path class="st0" d="M52.3,24.8c0.2,0.2,0.4,0.1,0.6,0c0,0-0.1,0-0.1,0C52.6,24.7,52.3,24.6,52.3,24.8z"/>
	<path class="st0" d="M63.5,32.8C63.5,32.9,63.5,32.7,63.5,32.8L63.5,32.8z"/>
	<path class="st0" d="M63.4,32.9c0,0,0.1-0.1,0.1-0.2c0-0.3-0.7,0.1-0.5,0.4c0.1,0.1,0.4,0.1,0.6,0C63.8,33,63.4,33,63.4,32.9z"/>
	<path class="st0" d="M50.6,24.6C50.6,24.6,50.6,24.6,50.6,24.6c-0.1,0.1-0.1,0.1-0.1,0.1c0.3,0,0.6-0.1,0.9-0.2
		C51.2,24.4,50.9,24.4,50.6,24.6z"/>
	<path class="st0" d="M52.8,22.4c0.2,0,0.3-0.1,0.4-0.1C53,22.2,52.6,22.4,52.8,22.4z"/>
	<path class="st0" d="M54.2,43.3c-0.1-0.1-0.1-0.1-0.2-0.1c0,0,0.1,0,0,0c0,0,0,0,0,0c-0.1,0-0.2,0.1-0.3,0.1
		C53.8,43.3,54,43.3,54.2,43.3z"/>
	<path class="st0" d="M51.3,46c0.1,0.2-0.1,0.1-0.2,0.3c0,0,0-0.1,0,0C51.1,46.4,51.6,46.3,51.3,46z"/>
	<path class="st0" d="M40.4,21.6c-0.2,0-0.8-0.8-0.6-0.9c0.9-0.6-0.7-0.4-0.7-0.1c-0.3,0-1.1,0.3-0.5,0.8c-0.1,0.1-0.4,0.2-0.4-0.1
		c0-0.4-0.7-0.2-0.9-0.1c0,0,0.1,0.1,0.1,0.1c-0.4,0.1-0.4,0-0.8,0c-0.3,0-0.6,0.2-0.9,0.3c-0.2-0.2-0.5-0.2-0.7-0.1
		c0.1,0,0.1-0.1,0.1-0.1c0-0.4-3.3,0.6-3.6,0.7c0,0.2,0.3,0.1,0,0.4c-0.2,0.2-0.6,0.4-0.7,0.8c0,0,0.4-0.1,0.6-0.1c0,0,0.1,0,0,0
		c0.2,0.4,1.4-0.3,1.5-0.5c0.1-0.4,0.9-0.8,1.2-0.9c0.1-0.1,0.4-0.1,0.6-0.2c-0.1,0-0.1,0.1-0.2,0.1c-0.3,0.1-1,0.4-1.1,0.8
		c0,0.1,0.9-0.1,0.9-0.1c-0.2,0.1-1.1,0.5-0.3,0.4c0.7-0.1,1.3-0.4,2-0.4c-0.7,0.2-1.4,0.3-2.1,0.7c0.3,0.2,1.5-0.2,1.6,0
		c0.2,0.3,1.5-0.1,1.9-0.3c0.5-0.2,1.3-0.6,1.8-0.5c0.6,0.1,1.5,0.3,2-0.2c0,0-0.4-0.1-0.4-0.2c0.1-0.1,0.1-0.1,0.2-0.1
		c0.2,0,0.5,0,0.7-0.1C41.3,21.6,40.8,21.7,40.4,21.6z"/>
	<path class="st0" d="M60.4,48.1C60.4,48,60.4,48.3,60.4,48.1L60.4,48.1z"/>
	<path class="st0" d="M54.7,43.5c0,0-0.1-0.1-0.1-0.2C54.5,43.4,54.6,43.5,54.7,43.5z"/>
	<path class="st0" d="M55.9,46.7c-0.3,0-0.2-0.1-0.5-0.2c-0.4-0.1-0.8-0.2-1-0.5c-0.3-0.2-0.4-0.2-0.7-0.3c-1.2-0.3-2.5-0.9-3.3,0.4
		c0.4-0.1,1.2-0.7,1.6-0.4C51.6,46,52.2,46,52.3,46c0.4,0,0.6,0.3,0.9,0.3c0.1,0,0.3,0,0.4,0c0.1,0.1,0.1,0.2,0.2,0.2
		c0.1,0.3,0.5,0.3,0.7,0.4c0,0.2-0.2,0.1-0.2,0.3c0.2,0,0.4,0.1,0.7,0.1c0.3,0,0.9,0.2,1.2-0.1c0,0,0,0,0.1-0.1
		C56.1,47,56.1,46.7,55.9,46.7z"/>
	<path class="st0" d="M60.4,48.1c0,0.3,0.7,0.3,0.8,0.1C61.2,48.1,60.4,47.9,60.4,48.1z"/>
	<path class="st0" d="M57,46.5c0-0.1,0-0.1,0-0.2c-0.1,0.2-0.4,0.1-0.4,0.3C56.7,46.6,56.9,46.5,57,46.5C57,46.5,57,46.5,57,46.5z"
		/>
	<path class="st0" d="M58.8,47.4c-0.4-0.2-0.8-0.1-1.2-0.1c-0.1,0-0.6-0.3-0.6,0c0,0.1,0.2,0.2,0.3,0.2c0,0.1,0,0.3,0.1,0.4
		c-0.2,0.1-0.8,0.1-1,0.1c0,0,0,0,0,0c0,0.1,0.1,0.3,0.2,0.3c0-0.2,0.4-0.2,0.6-0.2c0.2,0,0.4,0,0.5,0.1c0.1,0.1,0,0.3,0.2,0.3
		c0.2,0,0.3-0.5,0.5-0.3c0.1,0.1,0.3,0,0.5-0.1c0.2,0,0.5,0,0.7,0c-0.1-0.2-0.3-0.3-0.5-0.4C59.4,47.8,58.9,47.4,58.8,47.4z"/>
	<path class="st0" d="M54.2,48.1C54.1,48.1,54.1,48.2,54.2,48.1L54.2,48.1z"/>
	<path class="st0" d="M55,48.1c0.1,0-0.8-0.3-0.8,0c0,0.5,0.8,0.2,1,0.2C55.1,48.2,55.1,48.1,55,48.1z"/>
	<path class="st0" d="M54,44.3C54,44.9,54.5,44.3,54,44.3C53.9,44.3,54,44.3,54,44.3z"/>
	<path class="st0" d="M52.4,24.2C52.4,24.1,52.3,24.1,52.4,24.2c-0.2-0.1-0.4-0.1-0.6-0.1c-0.3,0-0.3-0.2-0.5-0.3
		c-0.3-0.1-1.1-0.3-1.3-0.2c-0.3-0.3-0.8-0.3-0.9,0.2c-0.1,0.3-0.4,0.2-0.5,0.4c0.3,0,0.5,0,0.8,0c-0.1,0.3,1.1,0.1,1.1-0.2
		C51.2,24.2,51.7,24.3,52.4,24.2z"/>
	<path class="st0" d="M55,22.9C55,22.9,55,22.9,55,22.9C55,22.8,55,22.8,55,22.9c-0.1-0.3-0.8-0.3-1-0.2C53.5,23,54.9,23.3,55,22.9z
		"/>
	<path class="st0" d="M55.7,22.9c-0.1,0-0.5-0.3-0.6-0.1C55.2,23,55.6,22.9,55.7,22.9z"/>
	<path class="st0" d="M52.3,29.2C52.2,29.2,52.3,29.2,52.3,29.2L52.3,29.2z"/>
	<path class="st0" d="M51.9,28.9c0,0.2,0.2,0.3,0.4,0.2C52.5,29.2,52.1,28.9,51.9,28.9z"/>
	<path class="st0" d="M53.4,24.4c0.2,0.1,0.2,0.1,0.4,0C53.5,24.3,53.6,24.3,53.4,24.4z"/>
	<path class="st0" d="M53.1,33.7C53.1,33.7,53.1,33.7,53.1,33.7C53.1,33.7,53.1,33.7,53.1,33.7z"/>
	<path class="st1" d="M71.2,17.3C72,16.6,73,16,74,15.5c1.3-0.7,2.6-1.3,4-1.7c2.8-0.9,6.1-1.1,8.6,0.7c1.4,1.1,2.5,2.6,2.9,4.3
		c0.8,3-0.2,6.3-1.5,9.1c-2,4.5-5,8.6-8.1,12.4c-2,2.4-4.1,4.8-6.3,7c2.9-3.2,5.5-6.6,7.8-10.1c1.8-2.7,3.4-5.4,4.7-8.4
		c1.2-2.7,2.3-6,1.5-9c-0.3-1.2-1-2.2-2-3c0.1,0.1-0.2-0.1-0.2-0.2c-0.4-0.3-0.9-0.5-1.4-0.6c-1.4-0.3-2.8,0-4.2,0.4
		c-2.3,0.8-4.4,2.2-6.2,3.7C72.7,19.1,71.9,18.2,71.2,17.3z"/>
	<path class="st0" d="M83.3,37.1c-0.4,0.5-0.9,1-1.3,1.5c-0.4,0.4-0.7,0.8-1.1,1.2c0.4,1.3,0.7,2.6,0.9,4c0,0,0,0,0,0
		c-0.1,0.5-0.4,0.7-0.5,1.2c-0.1,0.6-0.2,1.2-0.4,1.8c-0.2,1.1,0.5,2.1,0,3.2c-0.1,0.2,0.1,0.8,0.1,1.1c0,0.3,0.1,0.5,0.2,0.8
		c0.3,0.7,0.5,1.5,0.7,2.2c0,0,0,0,0,0c-1.8,13.1-11.2,23.7-23.6,27.4c-0.4-0.1-0.9-0.2-1-0.4c-0.1-0.2-0.5-0.3-0.4-0.6
		c0.2-0.3,0.6-0.2,0.8-0.4c0.2-0.1,0.2-0.3,0.4-0.3c0.2-0.1,0.3-0.1,0.5-0.2c0.4-0.4-1.1-0.2-0.4-0.6c0.3-0.2,0.5-0.1,0.8-0.1
		c0.3,0,0.5-0.5,0.7-0.7c-0.1,0-0.1,0-0.1-0.1c0.2,0,0.3,0.1,0.5,0c0.3-0.2-0.2-0.1-0.3-0.1c-0.2,0-0.4-0.5-0.1-0.5
		c0.3-0.1,0.5,0.1,0.8,0c0.3-0.1,0.3-0.3,0.3-0.5c0.1-0.3,0.7-0.3,0.9-0.3c0.5-0.1,1.6-0.4,1.8-1c0.1-0.2-0.5-0.9-0.5-0.9
		c0.5-0.3,1.2,0.2,1.8-0.2c0.6-0.3,1-1.1,1.5-1.5c0.4-0.4,0.6-0.6,1-1c0.3-0.4,0.5-0.4,0.6-0.9c0-0.2,0-0.6,0.1-0.6
		c0.3-0.1,0.6-0.4,0.8-0.6c0.3-0.2,0.6-0.3,0.9-0.5c0.4-0.5,1.4-0.3,1.6-1c0.2-0.5,0.7-0.9,0.9-1.5c0-0.2,0.3-0.3,0.3-0.5
		c0.1-0.3,0.1-0.5,0.2-0.8c0.1-0.3,0.1-0.5,0.1-0.8c-0.1-0.3,0.2-0.5,0.4-0.7c0.4-0.4,2.5-3.5,1.5-3.7c0.1,0,0.1,0,0,0
		c-0.1,0,0,0,0,0c-0.3-0.1-0.5,0.1-0.8-0.1c-0.4-0.3-0.4-0.6-1-0.6c-0.2,0.1-0.6,0.2-0.8,0.1c-0.4-0.2-0.5,0-0.8,0.1
		c0.1-0.6-0.5-0.7-0.9-0.9c-0.2-0.1-0.4-0.1-0.6,0.1c-0.1,0.1-0.4,0.7-0.6,0.7c-0.1,0-0.1-0.1-0.1-0.2c-0.1,0-0.3,0-0.4,0
		c0-0.3-0.3-0.3-0.4-0.4c-0.3-0.3,0.6-1.3,0.8-1.5c0.1-0.2-0.4-0.9-0.4-1.3c0-0.3-0.7-0.7-1-0.7c-0.1,0-0.3-0.1-0.5-0.2
		c-0.3-0.1-0.6,0-0.9-0.1c-0.2,0-0.5,0-0.7-0.1c-0.1,0-0.2-0.1-0.2-0.2c-0.1-0.1-0.3-0.1-0.3-0.2c-0.1-0.2-0.2-0.4-0.4-0.5
		c-0.1-0.1-0.2-0.2-0.3-0.2c-0.2,0-0.5,0.1-0.6-0.2c-0.1-0.6-1-0.3-1-0.9c0.1,0,0.2,0,0.3,0c-0.3,0-0.6,0-0.9,0
		c-0.3,0.1-0.7,0.6-1,0.2c-0.3-0.3-1.3,0.2-1.3-0.4c-0.5-0.1-0.7-0.5-1.2-0.5c0,0.2,0.3,0.2,0.4,0.4c-0.2,0-1,0-1,0.4
		c0,0.2,0.5,0.8,0,0.9c-0.8,0,0.1-1.5,0-1.7c-0.1-0.1-1,0.4-1.1,0.4c-0.4,0.1-1.1,0.2-1.3,0.5c-0.1,0.2-0.1,0.3-0.2,0.5
		c-0.1,0.2-0.4,0.2-0.4,0.5c-0.1,0-0.1,0.1-0.1,0.2c-0.2,0.1-0.2,0-0.4,0.1c0,0,0.1-0.1,0.1-0.1c-0.4-0.3-0.4-0.8-1-0.8
		c-0.5,0-1,0.6-1.5,0.3c-0.2-0.1-0.2-0.3-0.4-0.4c-0.2-0.1-0.5-0.2-0.6-0.4c-0.4-0.4-0.1-1.4,0-1.9c0-0.3,0.2-0.9-0.1-1.1
		c-0.2-0.1-0.4-0.3-0.6-0.3c-0.4-0.1-0.8,0-1.2,0c-0.3,0-0.7,0.1-1,0.1c-0.2,0-0.3-0.3-0.2-0.4c0.3-0.2,0.3-0.3,0.3-0.6
		c0-0.2,0-0.3,0-0.5c0-0.3,0.2-0.3,0.2-0.1c0.1-0.2,0.2-0.4,0.3-0.6c0-0.4,0.3-0.6,0.4-1c0-0.3-1-0.3-1.3-0.3c-0.2,0-0.5,0-0.7,0.1
		c-0.3,0.2-0.2,0.5-0.4,0.7c-0.1,0.2-0.2,0.3-0.4,0.5C46,48.2,45.9,48,45.6,48c-0.3,0-0.6,0.2-0.9,0.2c-0.3,0.1-0.5-0.1-0.8-0.3
		c-0.4-0.2-0.8-0.8-1.1-1.2c-0.3-0.3-0.3-1.1-0.3-1.5c0-0.4,0.1-0.7,0.2-1.1c0-0.2-0.1-0.5,0-0.6c0-0.1-0.1-0.4,0-0.6
		c0.1-0.2,0.2-0.5,0.4-0.6c0.2-0.2,0.4-0.2,0.7-0.2c0.2,0,0.4-0.4,0.6-0.5c0.2-0.2,0.4-0.3,0.7-0.3c0.1,0,0.3,0.1,0.4,0.1
		c0.3,0.1,0.3-0.1,0.5-0.1c0.5,0,0.9,0.6,1.5,0.4c-0.2-0.1-0.1-0.4,0-0.6c-0.1,0-0.2,0-0.3,0c0.4-0.1,0.8-0.1,1.1-0.2
		c0,0.3,0.5,0,0.7,0c0.3,0,0.5,0.2,0.8,0.3c0.4,0.2,0.5-0.2,0.9-0.1c0.6,0.1,0.6,1,0.7,1.4c0.1,0.3,0.3,0.6,0.5,0.8
		c0.2,0.2,0.3,0.8,0.8,0.6c0.6-0.3,0.1-1.3,0-1.8c-0.2-0.7-0.8-1-0.5-1.8c0.2-0.6,0.8-0.8,1.4-1.1c0.4-0.1,0.4-0.3,0.6-0.4
		c0.3-0.2,0.7-0.2,0.9-0.5c-0.5-0.3,0-0.1,0.1-0.4c-0.1,0-0.2-0.1-0.3-0.2c0.1,0,0.3-0.1,0.3-0.2c0-0.3-0.2-0.1-0.2-0.2
		c0-0.3-0.2-0.8-0.1-1.1c0,0.1,0.3,0.9,0.3,0.9c0.1,0,0.3-0.5,0.4-0.6c0.1-0.3-0.2-0.4,0-0.6c0.3,0.3,0.6-0.3,0.7-0.6
		c0-0.1-0.3-0.2-0.1-0.3c0.2-0.2,0.7,0,1-0.1c-0.1-0.1-0.6,0-0.7,0c0.3-0.2,2.1-0.2,2.1-0.5c-0.3,0.3-0.8-0.7,0-0.9
		c0.3-0.1,0.6-0.3,0.9-0.3c0.2,0,0.3,0,0.5-0.1c0.2-0.1,0-0.2,0-0.3c0.2,0,0.4,0,0.6,0.1c0.4,0,0.4-0.3,0.7-0.3
		c0,0.2,0.1,0.2,0.3,0.3c-0.6,0-1.5,0.5-0.7,1c0.1,0.1,1.1-0.5,1.4-0.6c0.4-0.1,1.3-0.4,0.4-0.6c-0.4-0.1-0.7-0.2-1-0.4
		C61.1,32.4,61,32,60.5,32c0.1-0.2,0.5-0.1,0.6-0.3c0.4-0.3-0.3-0.5-0.5-0.5c-0.4,0-0.8-0.1-1.2,0.1c-0.3,0.1-0.6,0.3-0.9,0.3
		c0.2-0.4,0.7-0.3,1-0.6c0.3-0.3,0.2-0.4,0.7-0.5c1-0.1,2,0.4,3,0.3c0.3,0,0.5-0.3,0.8-0.4c0.3-0.1,0.6-0.1,0.9-0.1
		c1-0.1-0.1-0.7-0.1-1.1c-0.3,0.1-1.6,0.4-1.8,0.1c0.3-0.1,1.2,0,1.3-0.2c0-0.2-1.1-0.4-1.3-0.5c-0.1-0.1-0.2-0.2-0.2-0.3
		c-0.3,0-0.6-0.2-0.9-0.4c0.7-0.3-0.5-0.6-0.6-0.9c-0.1-0.4-0.6-0.6-1-0.9c-0.1,0-0.3,0.1-0.4,0.2c-0.1,0.1,0.1,0.2-0.1,0.3
		c-0.3,0.1-0.9,0.4-1.2,0.3c-0.2-0.1-0.7-0.4-0.8-0.5c-0.1-0.2,0.1-0.6-0.2-0.7c-0.5-0.2-0.9-0.3-1.4-0.6c-0.4-0.2-0.8-0.1-1.1-0.2
		c-0.4-0.1-0.9-0.3-1.3-0.2c-0.4,0-0.4,0.2-0.1,0.4c0.3,0.2-0.3,0.2-0.2,0.4c0.1,0.2,0.5,0.3,0.4,0.5c-0.1,0.3-0.5,0.3-0.7,0.3
		c0.2,0.2,0.6,0.3,0.9,0.4c0.3,0.1,0.4,0.7,0.2,1c-0.3,0.4-1.1,0.6-1.5,0.7c0.5,0.2,0.4,0.6,0.6,1c0.2,0.4-0.5,0.7-0.8,0.5
		c-0.4-0.2-1-0.5-1.2-0.9c-0.2-0.4,0-0.7-0.6-0.9c-1.3-0.3-2.6-0.5-3.9-0.9C46.8,27,46.5,27,46.3,27c-0.2,0.1-0.5,0.3-0.5,0
		c-0.2-0.7-0.6-0.6-1.2-0.6c0.2-0.3,0-0.7,0.2-1c0.2-0.3,0.6-0.5,0.9-0.8c0.2-0.2,0.9-0.1,0.9-0.3c0-0.2-0.8-0.2-1-0.2
		c0.1,0,1.3,0.1,1.4,0c0.2-0.3,0.9-0.2,1.3-0.4c0.5-0.3,0.2-0.3-0.2-0.3c-0.3,0-0.7,0-1-0.2c0.5,0,0.8,0.2,1.3,0.2
		c0.1,0,1.2-0.1,0.7-0.4c0.5,0,0.9,0.2,1.4,0.2c-0.2-0.1,0.4,0,0.5-0.1c0.1,0,0.7-0.2,0.8-0.4c0-0.1-0.7-0.2-0.4-0.4
		c0.1-0.1,0.4,0,0.4-0.2c-0.1-0.2-0.3-0.1-0.5-0.2c0.4,0,0.7,0,1.1,0c0,0.4,0.9-0.1,1.1,0c0.4,0.1,0.9,0.3,1.3,0.4
		c-0.1,0-0.4,0-0.4,0.1c0.6,0.1,1.2,0.1,1.8,0.4c1.2,0.5-0.5,0.4-0.4,0.7c0,0.1,0.3,0.2,0.3,0.2c-0.3,0-2.3-0.1-2.3,0.2
		c0.1,0.4,1.3,0.1,1.5,0.2c0.3,0.1,0.6,0,0.9,0.1c0.3,0.1,0.7,0.3,1,0.4c-0.2,0.2,1,0.4,1.1,0.4c0.2,0,1.8,0.5,1.8,0.4
		c-0.1-0.4-1.1-0.5-1.3-0.7c0.3,0.1,2.2,0.8,2.1,0.2c0-0.2-0.6-0.4-0.7-0.5c-0.2-0.1-0.4,0-0.5-0.1c-0.2-0.1-0.5-0.3-0.6-0.4
		c0.1,0,0.2,0,0.3,0c0-0.2-0.2-0.1-0.4-0.1c0.4-0.3,1.1,0.3,1.5,0.5c0.1,0.1,0.7,0.4,0.8,0.1c0.1-0.2,0.3,0.1,0.3-0.2
		c1,0.2-0.2-0.5-0.6-0.5c-0.5,0-0.6-0.3-1-0.4c-0.4-0.1-0.7-0.3-1.1-0.4c0.1-0.1,0.4-0.1,0.5-0.1c-0.2-0.1-0.6-0.1-0.8-0.2
		c0.2-0.1,0.4,0,0.6,0c-0.2-0.1-0.4-0.2-0.6-0.2c-0.2,0-0.4-0.2-0.7-0.2c-0.5-0.1-0.8-0.3-1.3-0.4c-0.5,0-0.9-0.2-1.4-0.4
		c-0.4-0.2-0.9-0.2-1.3-0.2c-0.3,0-0.4,0-0.6,0.1c-0.2,0.1-0.4-0.1-0.6-0.1c-0.3,0-0.3,0.1-0.4-0.1c0-0.2-0.2-0.3-0.3-0.3
		c-0.5-0.2-1.1-0.1-1.6,0c-0.2,0-0.4,0-0.6,0.1c-0.2,0.1,0.1,0.2,0.1,0.3c0,0.2-0.7,0.2-0.5-0.1c-0.5,0,0.6-0.4,0.6-0.4
		c-0.3,0-0.6-0.1-0.9-0.1c-0.3,0-0.6,0.1-0.9,0.2c-0.2,0.1-0.2,0.2-0.3,0.2c-0.4,0.1-0.5,0.3-0.1,0.5c0.3,0.1,0.7,0,1,0.1
		c0,0.2-0.6,0.1-0.8,0.1c0.1,0.4,1.1,0.2,1.4,0.3c0.1,0,0.8,0.1,0.8,0.3c0,0.1-0.4,0.1-0.4,0.1c-0.2,0.1-0.3,0.4-0.4,0.5
		c-0.2,0.1-0.5,0.2-0.7,0c-0.2-0.2,0.3-0.2,0.3-0.3c-0.1-0.3-0.9-0.4-1-0.1c-0.1,0.1-0.4,0.4-0.4,0.1c0-0.2-0.7-0.2-0.2-0.3
		c-0.3-0.1-0.6,0-0.9-0.1c0.3-0.1,0.7-0.2,0.2-0.4c-0.4-0.1-0.4-0.4-0.9-0.5c0.1,0,0.5-0.2,0-0.2c0.1-0.2,1.9-0.1,1.8-0.5
		c-0.2,0-2.2-0.1-2.2,0.1c0,0.2-0.4-0.1-0.4,0.3c0,0.2,0.2,0.1,0.2,0.3c-0.2,0-0.1,0-0.1,0.2c-0.1,0-0.3,0-0.4,0.1
		c-0.2,0.1,0.1,0.2,0,0.3c0,0.1-0.5,0.3-0.1,0.3c0.2,0,1.4,0,0.9,0.5c0.1,0,0.3-0.1,0.4-0.1c0.1,0.1-1.2,0.7-1.3,0.7
		c-0.2-0.1,0.3-0.3-0.2-0.3c-0.3,0-0.5,0-0.8,0c-0.2,0.1-0.2,0.3-0.4,0.3c-1,0-2,0.1-3,0c-0.4-0.1-0.6-0.3-0.9-0.2
		c-0.2,0-1,0.1-1.1,0.4c0,0.2,1-0.1,1.1-0.2c0,0.2-0.5,0.2-0.6,0.3c-0.2,0-0.3,0.4-0.2,0.4c-0.4,0-0.7-0.2-1.2-0.2
		c-0.5,0.1-1,0.1-1.5,0.3c-0.1,0-0.7,0.2-0.9,0.1c-0.1-0.1,0.5-0.2,0.6-0.2c-0.2-0.1-0.4-0.2-0.6-0.1c-0.6,0.1-1.2,0.3-1.9,0.2
		c-0.4,0-1.2-0.1-1.5,0.3c-0.2,0.2-0.4-0.1-0.6,0.1c-0.2,0.1-0.4,0.3-0.6,0.3c-0.1,0-0.3-0.2-0.4-0.1c-0.2,0.1-0.3,0.3-0.5,0.4
		c-0.4,0.1-0.8,0.2-1.2,0.5c-0.3,0.2-0.6,0.3-0.9,0.4c-0.3,0.1-0.4,0.2-0.4,0.3c0,0.1-0.8,0.3-0.9,0.3c-0.3,0.1-0.5,0.2-0.7,0.4
		c3.7-3.9,8.4-6.8,13.6-8.5c0,0,0,0,0,0c0.1,0,0.1,0,0.2,0c0,0,0.1,0,0.1,0c-0.1,0-0.1,0.1-0.2,0.1c0.2,0,0.5-0.1,0.8-0.1
		c-0.1,0-0.1,0.1,0,0.1c-0.2,0.1-0.5,0.1-0.7,0.2c0.6,0.2,1.4-0.1,2-0.1c0.2,0,1.7,0.3,1.8-0.1c0-0.2-0.5-0.2-0.6-0.2
		c0.5-0.1-0.4-0.3-0.6-0.2c-0.3,0.1-0.5-0.1-0.8-0.1c-0.4,0.1-0.6,0.1-1,0.1c0,0,0,0,0,0c3-0.9,6.2-1.4,9.5-1.4c0.8,0,1.7,0,2.5,0.1
		c0,0,0,0,0,0c-0.4,0.1-0.8-0.1-1.2,0.2c-0.4,0-0.9-0.3-1.3-0.1c-0.3,0.2-0.7,0.1-1.1,0.1c-0.4,0-1.2-0.1-1.5,0.2c0.1,0,0.2,0,0.3,0
		c0,0,0,0,0,0c0,0,0,0,0,0c0.3,0,0.5-0.1,0.7-0.1c-0.2,0-0.3,0.1-0.5,0.1c0.1,0.1,0.2,0.1,0.4,0.1c0,0-0.1,0-0.1,0.1
		c0.3,0,0.5,0,0.8,0c-0.2,0-0.3,0-0.5,0.1c0.3,0.1,0.8,0.1,1.1,0.1c0.4-0.1,0.7,0.1,1.1,0.1c0.8,0,1.7-0.1,2.5,0
		c-0.2,0.1-1.8,0.1-1.8,0.1c0,0.1,0.6,0.2,0.6,0.2c-0.7,0-1.5-0.4-2.2-0.3c0,0,0.1,0,0.1,0.1c-0.1,0-0.3,0-0.3,0.1
		c0,0.3,1.1,0,1.2,0.3c0,0.4-1.5-0.2-1.5,0.4c0.6,0,0.9,0.1,1.5,0.3c-0.2,0-1.8-0.4-1.8-0.1c0,0.2,0.5,0.2,0.6,0.2
		c-0.2,0.1-1.2,0-1.3,0.3c0-0.1,5.8,0.4,5.8,0.1c0-0.1-0.7-0.1-0.7-0.1c0-0.3,0.7,0,0.7-0.2c0,0-0.1-0.1-0.1-0.1
		c0.6,0.1,1-0.1,1.6-0.1c-0.1-0.1-0.3-0.2-0.5-0.2c0.1,0,0.4,0.1,0.5,0c0.1-0.1-0.5-0.1-0.5-0.1c0.8-0.1,1.6,0.2,2.5,0
		c0.9-0.2,1.8,0.1,2.7,0c-0.4-0.1-0.8-0.1-1.2-0.3c0.1,0,0.3,0,0.6,0c2.1,0.6,4.1,1.5,6,2.5c0,0,0,0,0,0c0,0.1,0,0.1,0,0.1
		c-0.3-0.1-0.7-0.3-0.9-0.3c0,0,0.1,0.1,0.1,0.1c-0.3-0.1-0.5-0.3-0.9-0.3c-0.4-0.1-0.8-0.1-1.2-0.2c-0.3-0.1-0.6-0.1-1-0.1
		c-0.3,0-0.2,0.1-0.5,0.1c-0.2,0-2.2-0.2-2.2-0.1c0,0.2,0.8,0.2,1,0.2c0.6,0.1,0,0.2-0.3,0.2c-0.2,0-2.9-0.3-2.9-0.1
		c0.1,0.2,1.1,0.3,1.3,0.3c0.6,0.1,1.2,0.2,1.8,0.2c-0.2,0.3-2.2-0.4-2.3,0c0.4,0.1,0.9,0.2,1.3,0.2c-0.1,0-0.2,0.1-0.3,0.1
		c0.2,0.1,0.5,0.2,0.7,0.2c0.1,0,0.9,0.2,0.4,0c1.6,0.1,3.5,0.3,4.9,1.3c0.2,0.2,0.4,0.5,0.6,0.5c0.6,0.2-0.1,0.2,0,0.3
		c0,0,2.2,0.6,2,0.9c-0.1,0.1-1.1-0.3-1.3-0.4c0.1,0.1,0.2,0.2,0.3,0.2c-0.3-0.1-0.5-0.2-0.5,0c0.1,0.2,1.2,0.6,1.3,0.4c0,0,0,0,0,0
		c0,0-0.2-0.1-0.5-0.2c0.4,0.1,0.9,0.2,1.1,0.3c-0.1,0.1-0.3,0.2-0.3,0.3c0,0-0.4-0.2-0.4-0.1c-0.2,0-0.3,0.1-0.4,0.2
		c-0.3,0.2,0.1,0.2,0.2,0.3c-0.1,0.3,0.1,0.3,0.4,0.6c0.1,0.1,0.2,0.3,0.3,0.4c0.2,0.1,0.4,0,0.6,0.1c-0.7,0.1,1.3,1.4,1.5,1.6
		c0.3,0.1,0.5,0,0.8,0.1c0.2,0.1,0.4,0.4,0.7,0.4c0.2,0,0.3,0.2,0.5,0.1c0.2-0.1,0-0.3,0.3-0.3c-0.4-0.6,0.6-0.6,0.3-0.8
		c-0.4-0.3,0.3-0.3,0.5-0.2c0.2,0,0.3-0.1,0.4-0.1c0.1,0.2,0.3,0.2,0.5,0.3c0.9,0.2,0.3,0,0.3-0.4c0-0.1,0.6,0.1,0.6,0.1
		c0,0,0,0,0,0c3,3.1,5.3,6.9,6.9,11c0.6-1.1,1.2-2.1,1.8-3.2c0-0.1,0.1-0.1,0.1-0.2C76.3,21.7,63.6,13,49,13
		c-20.1,0-36.5,16.4-36.5,36.5c0,12.7,6.5,23.9,16.4,30.4c0.9-0.6,1.8-1.3,2.6-2C22,72,15.6,61.5,15.6,49.5c0-7.2,2.3-13.9,6.2-19.4
		c0,0,0,0,0,0c0.1-0.1,0.1-0.1,0.2-0.2c0,0,0,0-0.1,0c0,0,0.1-0.2,0.1-0.2c0.3-0.3,0.3,0,0.7-0.1c0.4-0.1,0.8-0.2,1.3-0.3
		c0.3-0.1,0.6,0.2,0.9,0.1c0.3-0.1,0.1-0.2,0.4-0.2c0.2,0,0.2-0.1,0.4,0c-0.4,0.5,0.1,0.2,0.4,0.1c0,0.2-0.2,0.2-0.3,0.3
		c0,0.2,0.4,0,0.5,0c0.2,0.1-0.2,0.3,0.3,0.4c0.1,0,0.5-0.1,0.4,0.1c0,0.2,0,0.4,0,0.6c0.1,0.2,0.2,0.1,0.4,0.1
		c0.1,0.1-0.1,0.2,0.1,0.3c0.4,0.1,0.3,0.6,0.9,0.5c0,0,0.8,0.3,0.9,0.3c0.2,0,0.4,0.1,0.6,0.2c0.2,0.1-0.1,0.4-0.3,0.4
		c-0.1-0.1-0.6-0.1-0.6,0.1c0,0.2,0.2,0.2,0.3,0.4c0.1,0.3-0.2,1-0.3,1.3c-0.1,0.3-0.3,0.8-0.2,1.2c0.1,0.2,0.1,0.5,0.1,0.8
		c0.1,0.3-0.2,0.3,0,0.7c0.2,0.4,0.8,0.9,0.8,1.2c0,0.2,0.1,0.3,0.2,0.4c0.2,0.2,0.2,0.4,0.3,0.7c0.1,0.2,1.2,0.5,1.4,0.7
		c0.4,0.3,0.4,0.7,0.7,1.2c0.3,0.4,0.1,0.8,0.5,1.1c0.3,0.3,1.1,1,0.3,1c0.2,0.3,0.6,0.2,0.8,0.4c0.2,0.2,0.3,0.4,0.5,0.6
		c0,0.2-0.1,0.4,0.1,0.6c0.2,0.2,0.4,0.5,0.7,0.6c0.1,0.1,0.4,0.4,0.5,0.4c0.1,0,0.1-0.3,0.1-0.4c-0.1-0.3-0.3-0.1-0.5-0.3
		c-0.4-0.4-0.4-1-0.7-1.5c-0.3-0.4-0.3-1.1-0.8-1.3c-0.4-0.2-1-1-0.6-1.4c0.2,0.2,0.6,0.2,0.8,0.3c0.1,0.1,0.1,0.4,0.2,0.5
		c0.2,0.5,0.4,0.8,0.8,1.2c0.2,0.2,0.3,0.1,0.4,0.3c0.1,0.2,0.3,0.3,0.5,0.4c0.3,0.2,0.2,0.3,0.3,0.6c0,0.3,0.4,0.4,0.6,0.5
		c0.5,0.3,0.9,1,1.2,1.5c0.1,0.2,0.3,0.5,0.3,0.7c0,0.3-0.3,0.4-0.2,0.7c0.2,0.4,0.7,0.5,1,0.7c0.2,0.1,0.3,0.2,0.6,0.3
		c0.4,0.1,0.6,0.3,0.9,0.5c0.3,0.2,0.5,0,0.8,0.1c0.2,0.1,0.4,0.2,0.6,0.3c0.4,0.2,0.8,0.1,1.2,0.3c0.5,0.3,0.6-0.3,1.1-0.3
		c0.6,0,1,0.5,1.3,1c0.4,0.5,0.9,0.6,1.5,0.7c0.3,0.1,0.5,0.2,0.7,0.3c0.3,0.1,0.5,0,0.8,0c0.2,0.1,0.8,0.8,1,1c0.3,0.3,0,1,0.6,1
		c0-0.1,0-0.1,0-0.2c0.4-0.1,0.7,0.7,1,0.8c0.3,0.2,0.4,0.1,0.8,0.1c0.4,0,0.4,0.6,0.9,0.6c0.1,0,0.2,0,0.2-0.1
		c0.2-0.3-0.1-0.1-0.1-0.3c0-0.2,0.5-0.4,0.6-0.5c0.3-0.1,0.2,0.4,0.4,0.5c-0.1,0.2-0.1,0.4,0.2,0.3c-0.1,0.3,0.2,0.4,0.3,0.6
		c0.1,0.2,0,0.3,0,0.5c-0.1,0.2,0.1,0.4,0.1,0.6c0,0.1-0.1,0.2,0,0.3c0.2,0.1,0.1,0.2-0.1,0.4c-0.3,0.2-0.6,0.2-0.8,0.6
		c-0.1,0.3-0.3,0.6-0.6,0.7c-0.3,0.1-0.2,0.2-0.2,0.5c0,0.2-0.1,0.4-0.1,0.5c-0.1,0.3-0.2,0.6-0.1,0.9c0.1,0.4,0.4,0.2,0.6,0.3
		c-0.1,0.4-0.6,0.5-0.8,0.8c-0.2,0.4,0.1,1.1,0.6,1.2c0.2,0.1,0.2,0.3,0.3,0.4c0.1,0.2,0.3,0.2,0.5,0.5c0.3,0.5,0.4,1.1,0.6,1.7
		c0.1,0.2,0.1,0.4,0.3,0.5c0.2,0.2,0.1,0.4,0.1,0.7c0.1,0.4,0.9,0.7,1.2,0.8c0.5,0.1,0.8,0.4,1.3,0.5c0.4,0.2,0.8,0.5,0.8,0.9
		c0.1,0.9-0.2,1.6-0.2,2.5C57.4,72,57.1,73.1,57,74c0,0.6-0.1,1-0.4,1.5c-0.2,0.4-0.8,0.7-0.9,1.2c0,0.1,0,0.3,0.1,0.4
		c0.1,0.1-0.2,0.3-0.2,0.3c-0.1,0.2-0.2,0.4-0.2,0.6c0,0.1,0.4-0.1,0.5-0.1c0,0.3-0.8,1.6-1.1,1.4c-0.2-0.2-0.6,0-0.3,0.3
		c0.2,0.2-0.2,0.3-0.3,0.3c-0.2,0.1,0.2,0.4,0.1,0.7c0,0.1,0.1,0.1,0.2,0.2c0.4,0.1-0.2,0.2,0.1,0.3c-0.1,0.1-0.3,0-0.3,0.1
		c0,0.2,1.6,0.3,1.7,0.2c0.1,0,0.4,0.3,0.4,0.4c0,0,0.1,0,0.1,0c-2.5,0.6-5.1,0.9-7.8,0.9c-3.1,0-6-0.4-8.8-1.2
		c-0.2,0.2-0.5,0.3-0.8,0.5c-0.8,0.5-1.7,1.1-2.7,1.6c3.8,1.4,8,2.1,12.3,2.1c20.1,0,36.5-16.4,36.5-36.5
		C85.5,45.1,84.7,41,83.3,37.1z M59.8,33.3c0,0,0-0.1-0.1-0.1C59.8,33.2,59.8,33.3,59.8,33.3z M59.8,33.1c0,0,0-0.1,0-0.2
		C59.7,33,59.7,33.1,59.8,33.1z M59.7,32.8c0-0.1,0-0.1,0-0.2C59.7,32.7,59.7,32.7,59.7,32.8z M53,34C53,34,53,34,53,34
		C53,34.1,53,34,53,34z M53,34.1c0,0,0,0.1,0.1,0.1C53,34.2,53,34.1,53,34.1z M53.1,33.7C53.4,33.6,53.2,33.7,53.1,33.7
		c0.6-0.1,1.2-0.2,1.8-0.3c0,0.4-0.6,0.4-0.9,0.4c-0.2,0-0.4,0-0.7,0c-0.2,0-0.6-0.1-0.4,0.1C52.8,33.8,52.8,33.7,53.1,33.7z
		 M52.8,34.4C52.7,34.4,52.8,34.3,52.8,34.4c0.1,0,0.1-0.1,0.2-0.1c-0.4,0.2-2,0.9-2,0.1c0.3,0.4,0.4,0.1,0.7,0
		C52,34.2,52.5,34.5,52.8,34.4z M47.5,31.1C47,31.4,47.6,31.1,47.5,31.1c0.3-0.1,0.5,0,0.7-0.3c0.2-0.3,0.5,0.2,0.6,0.3
		c0-0.1,0-0.1,0-0.2c0.3,0,0.6,0.3,0.9,0.4c0.1,0.1,0.2,0.1,0.3,0.3c0,0.4,0.4,0.5,0.7,0.6c0.3,0.1,0.6,0.1,0.9,0.3
		c0.3,0,0.4,0,0.7,0.1c0.1,0.1,0.5,0.3,0.3,0.5c-0.2,0.2-0.5-0.1-0.7-0.2c-0.2,0.5-0.5,1.5-0.8,0.5c-0.1,0-0.2,0.1-0.4,0.1
		c0.1-0.2,0.4-0.5,0.1-0.7c-0.2-0.1-0.5-0.3-0.8-0.3c-0.2,0-0.2,0.2-0.2,0.3c-0.2,0.2-0.6,0-0.6,0.4c-0.1,0.4,0.2,1.6-0.4,1.6
		c-0.9,0-0.3-1.5,0-1.9c-0.2,0-0.3,0.1-0.5,0.2c0.2-0.9,1.6-0.6,2.1-0.7c0-0.3-1-0.5-1.3-0.4c-0.5,0.2-0.6-0.1-1.1-0.1
		c0.1-0.1,0.2-0.2,0.2-0.4c-0.3,0.1-0.8,0.3-1,0.4c-0.2,0.1-0.5,0.2-0.6,0c-0.2,0-0.4,0.1-0.6,0.1C46.4,31.6,46.9,31.4,47.5,31.1z"
		/>
	<path class="st1" d="M51.3,64.4L37.8,69l3.4,3.4c0,0,0,0,0,0c-0.2,0.3-0.6,0.7-1.1,1.2c-1,1-2.4,2.4-4.2,4
		c-1.8,1.6-4.1,3.3-6.7,4.7c-1.3,0.7-2.7,1.4-4.1,1.9c-1.5,0.5-3,0.9-4.5,0.9c-1.5,0.1-3.1-0.2-4.5-0.7c-1.4-0.5-2.7-1.4-3.5-2.5
		c-0.8-1.1-1.2-2.6-1.3-3.9c0-1.4,0.2-2.7,0.5-3.8c0.6-2.4,1.6-4.2,2.2-5.5c0.7-1.3,1.1-2,1.1-2s-0.5,0.6-1.3,1.9
		c-0.8,1.2-1.8,3-2.6,5.4c-0.4,1.2-0.7,2.5-0.8,4c-0.1,1.5,0.2,3.1,1.1,4.5c0.9,1.4,2.3,2.5,3.9,3.2c1.6,0.7,3.3,1.1,5.1,1.2
		c1.8,0,3.5-0.2,5.2-0.7c1.6-0.4,3.2-1.1,4.7-1.7c2.9-1.4,5.4-3,7.5-4.5c2.1-1.5,3.7-2.9,4.8-3.9c0.5-0.5,1-0.9,1.3-1.2l3.1,3.1
		L51.3,64.4z"/>
</g>
</svg>
