<?xml version="1.0" encoding="utf-8"?>
<!-- Generator: Adobe Illustrator 18.1.1, SVG Export Plug-In . SVG Version: 6.00 Build 0)  -->
<svg version="1.1" id="Layer_1" xmlns="http://www.w3.org/2000/svg" xmlns:xlink="http://www.w3.org/1999/xlink" x="0px" y="0px"
	 viewBox="0 0 100 100" style="enable-background:new 0 0 100 100;" xml:space="preserve">
<style type="text/css">
	.st0{fill:#545758;}
	.st1{fill:#FAC312;}
</style>
<g>
	<g>
		<g>
			<path class="st0" d="M69.1,30.9c-0.5-1.7-1-3.4-1.7-5.1c2.6,1.9,4.9,4.2,6.8,6.8C72.5,31.9,70.8,31.4,69.1,30.9z"/>
			<path class="st0" d="M48.1,20.2v8c-1.9,0.1-3.8,0.2-5.6,0.4l-5.2-4.4c0.2-0.5,0.4-1,0.7-1.5C41.1,21.3,44.5,20.5,48.1,20.2z"/>
			<path class="st0" d="M64.8,29.8c-4.3-0.9-8.6-1.5-12.9-1.6v-8c3.6,0.2,7,1.1,10.2,2.5C63.2,25,64.1,27.4,64.8,29.8z"/>
			<path class="st0" d="M28.7,41.2c-0.3,2.3-0.5,4.6-0.5,7h-7.7L28.7,41.2z"/>
			<path class="st0" d="M48.1,32v16.1H32c0.1-3.6,0.5-7.1,1.2-10.7l5.3-4.4C41.7,32.5,44.9,32.1,48.1,32z"/>
			<path class="st0" d="M48.1,68c-4.8-0.1-9.5-0.8-14.1-2c-1.2-4.6-1.8-9.4-2-14.1h16.1V68z"/>
			<path class="st0" d="M29.8,64.9c-2.4-0.8-4.8-1.7-7.1-2.8c-1.4-3.2-2.3-6.6-2.5-10.2h8C28.3,56.3,28.9,60.6,29.8,64.9z"/>
			<path class="st0" d="M30.9,69.2c0.5,1.7,1,3.4,1.7,5.1c-2.6-1.9-4.9-4.2-6.8-6.8C27.5,68.1,29.2,68.7,30.9,69.2z"/>
			<path class="st0" d="M35.2,70.2c4.3,0.9,8.6,1.5,13,1.6v8c-3.6-0.2-7-1.1-10.2-2.5C36.8,75,35.9,72.6,35.2,70.2z"/>
			<path class="st0" d="M57.6,71.4l5.2,4.4c-0.2,0.5-0.4,1-0.7,1.6c-3.2,1.4-6.6,2.3-10.2,2.5v-8C53.8,71.8,55.7,71.6,57.6,71.4z"/>
			<path class="st0" d="M68,51.9c-0.1,3.6-0.5,7.1-1.2,10.6l-5.4,4.5c-3.2,0.6-6.3,0.9-9.5,1V51.9H68z"/>
			<path class="st0" d="M79.5,51.9l-8.2,6.9c0.3-2.3,0.5-4.6,0.5-6.9H79.5z"/>
			<path class="st0" d="M66,34c1.2,4.6,1.8,9.4,2,14.1H51.9V32C56.7,32.2,61.4,32.8,66,34z"/>
			<path class="st0" d="M79.8,48.1h-8c-0.1-4.3-0.6-8.7-1.6-13c2.4,0.8,4.8,1.7,7.1,2.8C78.7,41.1,79.6,44.5,79.8,48.1z"/>
		</g>
	</g>
	<g>
		<g>
			<g>
				<polygon class="st1" points="36.8,29.1 17.5,45.3 17.5,36.8 0.3,36.8 0.3,21.1 17.5,21.1 17.5,13 				"/>
			</g>
		</g>
		<g>
			<g>
				<polygon class="st1" points="99.7,63.2 99.7,78.9 82.5,78.9 82.5,87 63.2,70.9 82.5,54.7 82.5,63.2 				"/>
			</g>
		</g>
	</g>
</g>
</svg>
