<?xml version="1.0" encoding="utf-8"?>
<!-- Generator: Adobe Illustrator 18.1.1, SVG Export Plug-In . SVG Version: 6.00 Build 0)  -->
<svg version="1.1" id="Layer_1" xmlns="http://www.w3.org/2000/svg" xmlns:xlink="http://www.w3.org/1999/xlink" x="0px" y="0px"
	 viewBox="0 0 100 100" style="enable-background:new 0 0 100 100;" xml:space="preserve">
<style type="text/css">
	.st0{fill:#545758;}
	.st1{fill:#FAC312;}
</style>
<g>
	<g>
		<path class="st0" d="M68.8,45.6c-0.4-1.4-0.9-2.9-1.4-4.3c2.2,1.6,4.1,3.5,5.7,5.7C71.7,46.5,70.3,46,68.8,45.6z"/>
		<path class="st0" d="M51,36.6v6.8c-2.1,0.1-4.2,0.2-6.3,0.5l3.4-6.9C49.1,36.8,50.1,36.7,51,36.6z"/>
		<path class="st0" d="M65.2,44.7c-3.6-0.8-7.3-1.2-11-1.3v-6.8c3.1,0.2,6,0.9,8.6,2.1C63.8,40.7,64.5,42.7,65.2,44.7z"/>
		<path class="st0" d="M30.1,51.3l4.1,8.3c0,0.2,0,0.4,0,0.6h-6.8c0.2-3.1,0.9-6,2.1-8.6C29.7,51.5,29.9,51.4,30.1,51.3z"/>
		<path class="st0" d="M51,46.6v13.6H37.4c0-0.6,0-1.2,0.1-1.8l5.5-11C45.6,46.9,48.3,46.7,51,46.6z"/>
		<path class="st0" d="M51,77c-4-0.1-8-0.7-12-1.7c-1-3.9-1.5-7.9-1.7-12H51V77z"/>
		<path class="st0" d="M35.5,74.4c-2-0.7-4-1.4-6-2.3c-1.2-2.7-1.9-5.6-2.1-8.6h6.8C34.3,67.1,34.7,70.7,35.5,74.4z"/>
		<path class="st0" d="M36.5,78c0.4,1.4,0.9,2.9,1.4,4.3c-2.2-1.6-4.1-3.5-5.7-5.7C33.6,77.1,35,77.6,36.5,78z"/>
		<path class="st0" d="M40.1,78.9c3.6,0.8,7.3,1.2,11,1.3V87c-3.1-0.2-6-0.9-8.6-2.1C41.5,82.9,40.7,80.9,40.1,78.9z"/>
		<path class="st0" d="M65.2,78.9c-0.7,2-1.4,4-2.3,6c-2.7,1.2-5.6,1.9-8.6,2.1v-6.8C57.9,80.1,61.6,79.7,65.2,78.9z"/>
		<path class="st0" d="M66.2,75.4c-3.9,1-7.9,1.5-12,1.7V63.4h13.6C67.7,67.4,67.2,71.4,66.2,75.4z"/>
		<path class="st0" d="M68.8,78c1.4-0.4,2.9-0.9,4.3-1.4c-1.6,2.2-3.5,4.1-5.7,5.7C67.9,80.9,68.4,79.4,68.8,78z"/>
		<path class="st0" d="M77.8,63.4c-0.2,3.1-0.9,6-2.1,8.6c-2,0.9-4,1.7-6,2.3c0.8-3.6,1.2-7.3,1.3-11H77.8z"/>
		<path class="st0" d="M66.2,48.2c1,3.9,1.5,7.9,1.7,12H54.2V46.6C58.3,46.7,62.3,47.2,66.2,48.2z"/>
		<path class="st0" d="M77.8,60.2h-6.8c-0.1-3.7-0.5-7.3-1.3-11c2,0.7,4,1.4,6,2.3C76.9,54.2,77.6,57.1,77.8,60.2z"/>
	</g>
	<g>
		<g>
			<path class="st1" d="M35.6,13c-12,0-13.4,10-13.4,13.4c0,3.4,1.8,5.9,1.8,5.9l11.6,23.4l11.6-23.4c0,0,1.8-2.5,1.8-5.9
				C48.9,23,47.5,13,35.6,13z M35.5,34.3c-4.8,0-8.6-3.9-8.6-8.6c0-4.8,3.9-8.6,8.6-8.6c4.8,0,8.6,3.9,8.6,8.6
				C44.2,30.4,40.3,34.3,35.5,34.3z"/>
		</g>
	</g>
</g>
</svg>
