<?xml version="1.0" encoding="utf-8"?>
<!-- Generator: Adobe Illustrator 18.1.1, SVG Export Plug-In . SVG Version: 6.00 Build 0)  -->
<svg version="1.1" id="Layer_1" xmlns="http://www.w3.org/2000/svg" xmlns:xlink="http://www.w3.org/1999/xlink" x="0px" y="0px"
	 viewBox="0 0 100 100" style="enable-background:new 0 0 100 100;" xml:space="preserve">
<style type="text/css">
	.st0{fill:#545758;}
	.st1{fill:#FAC312;}
</style>
<g>
	<polygon class="st0" points="31.7,71 31.7,87 17.2,87 17.2,85.5 	"/>
	<polygon class="st0" points="42.1,60.6 53.3,60.6 53.3,87 38.8,87 38.8,63.9 	"/>
	<polygon class="st0" points="74.9,44.4 74.9,87 60.4,87 60.4,58.8 	"/>
	<rect x="82" y="37.3" class="st0" width="14.5" height="49.7"/>
	<path class="st1" d="M93.6,13l-1.2,17.5l-5-5L56.8,56.1H40.3L9.9,86.5l-6.4-6.4l31.2-31.2c0.6-0.6,1.4-1.1,2.4-1.1h15.1L81,19.1
		l-4.9-4.9L93.6,13z"/>
</g>
</svg>
