<?xml version="1.0" encoding="utf-8"?>
<!-- Generator: Adobe Illustrator 18.1.1, SVG Export Plug-In . SVG Version: 6.00 Build 0)  -->
<svg version="1.1" id="Layer_1" xmlns="http://www.w3.org/2000/svg" xmlns:xlink="http://www.w3.org/1999/xlink" x="0px" y="0px"
	 viewBox="0 0 100 100" style="enable-background:new 0 0 100 100;" xml:space="preserve">
<style type="text/css">
	.st0{fill:#545758;}
	.st1{fill:#FAC312;}
</style>
<g>
	<g>
		<path class="st0" d="M38,73.5c2.9,5.3,6.5,8.4,10.4,9.1V65.4c-4.7,0.1-9.2,0.7-13.2,1.6C36,69.4,37,71.5,38,73.5z"/>
		<path class="st0" d="M34.4,64c4.2-1,9-1.5,14.1-1.6V51.5H32.7C32.8,55.9,33.4,60.1,34.4,64z"/>
		<path class="st0" d="M32.7,48.5h15.7V37.5c-5.1-0.1-9.8-0.7-14-1.6C33.4,39.8,32.8,44,32.7,48.5z"/>
		<path class="st0" d="M38,26.5c-1.1,1.9-2,4.1-2.7,6.4c4,0.9,8.4,1.5,13.2,1.6v-17C44.6,18.1,40.9,21.2,38,26.5z"/>
		<path class="st0" d="M31.4,35.1c-3.2-0.9-6.1-2.1-8.5-3.5c-3.3,4.8-5.3,10.6-5.6,16.8h12.4C29.8,43.8,30.4,39.3,31.4,35.1z"/>
		<path class="st0" d="M35.3,25c1.3-2.4,2.8-4.5,4.5-6.1c-5.9,1.9-11.1,5.5-15,10.2c2.1,1.2,4.7,2.2,7.5,3
			C33.1,29.6,34.2,27.2,35.3,25z"/>
		<path class="st0" d="M67.7,32.1c2.8-0.8,5.4-1.8,7.5-3c-3.9-4.7-9.1-8.3-15-10.2c1.6,1.6,3.1,3.7,4.5,6.1
			C65.8,27.2,66.9,29.6,67.7,32.1z"/>
		<path class="st0" d="M32.3,67.8c-2.8,0.8-5.4,1.9-7.5,3c3.9,4.7,9.1,8.3,15.1,10.3c-1.6-1.6-3.1-3.7-4.5-6.1
			C34.1,72.8,33.1,70.4,32.3,67.8z"/>
		<path class="st0" d="M29.7,51.5H17.3c0.3,6.2,2.3,11.9,5.6,16.8c2.4-1.4,5.3-2.6,8.6-3.5C30.4,60.6,29.8,56.2,29.7,51.5z"/>
		<path class="st0" d="M64.7,75c-1.3,2.4-2.8,4.5-4.5,6.1c6-2,11.2-5.6,15.1-10.3c-2.1-1.2-4.7-2.2-7.5-3
			C66.9,70.4,65.9,72.8,64.7,75z"/>
		<path class="st0" d="M70.3,48.5h12.4c-0.3-6.2-2.3-12-5.6-16.8c-2.4,1.4-5.3,2.6-8.5,3.5C69.6,39.3,70.2,43.8,70.3,48.5z"/>
		<path class="st0" d="M68.6,64.8c3.2,0.9,6.1,2.1,8.6,3.5c3.3-4.8,5.3-10.6,5.6-16.8H70.3C70.2,56.2,69.6,60.7,68.6,64.8z"/>
		<path class="st0" d="M65.6,35.9c-4.2,1-9,1.5-14,1.6v10.9h15.7C67.2,44,66.6,39.8,65.6,35.9z"/>
		<path class="st0" d="M64.7,67c-4-0.9-8.5-1.5-13.2-1.6v17.2c3.9-0.7,7.5-3.8,10.4-9.1C63,71.5,64,69.4,64.7,67z"/>
		<path class="st0" d="M62,26.5c-2.9-5.3-6.5-8.4-10.4-9.1v17c4.7-0.1,9.2-0.6,13.2-1.6C63.9,30.6,63,28.4,62,26.5z"/>
		<path class="st0" d="M67.3,51.5H51.5v10.8c5.1,0.1,9.8,0.7,14.1,1.6C66.6,60.1,67.2,55.9,67.3,51.5z"/>
	</g>
	<path class="st1" d="M50,87c-20.4,0-37-16.6-37-37c0-20.4,16.6-37,37-37c20.4,0,37,16.6,37,37C87,70.4,70.4,87,50,87z M50,16.1
		c-18.7,0-33.9,15.2-33.9,33.9c0,18.7,15.2,33.9,33.9,33.9c18.7,0,33.9-15.2,33.9-33.9C83.9,31.3,68.7,16.1,50,16.1z"/>
</g>
</svg>
