<?xml version="1.0" encoding="utf-8"?>
<!-- Generator: Adobe Illustrator 18.1.1, SVG Export Plug-In . SVG Version: 6.00 Build 0)  -->
<svg version="1.1" id="Layer_1" xmlns="http://www.w3.org/2000/svg" xmlns:xlink="http://www.w3.org/1999/xlink" x="0px" y="0px"
	 viewBox="0 0 100 100" style="enable-background:new 0 0 100 100;" xml:space="preserve">
<style type="text/css">
	.st0{fill:#545758;}
	.st1{fill:#FAC312;}
</style>
<g>
	<g>
		<g>
			<path class="st1" d="M34.9,28.1c1-4.8,3.9-9.8,9.1-14.3c-3.7-0.6-7.6-0.9-11.7-0.8c0,0,0,0,0,0c-4,0.1-8.2,0.6-12.4,1.6
				c1.3,1.1,2.5,2.2,3.8,3.4c-8.2,9.8-9.8,21.1-6.2,30.3c0.1-9.3,5.2-17.9,13.5-23.8C32.3,25.7,33.6,26.9,34.9,28.1z"/>
		</g>
		<g>
			<path class="st1" d="M65.1,71.9c-1,4.8-3.9,9.8-9,14.3c3.7,0.6,7.6,0.9,11.7,0.8c0,0,0,0,0,0c4-0.1,8.2-0.7,12.4-1.7
				c-1.3-1.1-2.5-2.2-3.8-3.4c8.1-9.8,9.7-21.1,6-30.4c0,9.3-5.1,17.9-13.3,23.8C67.8,74.3,66.4,73.1,65.1,71.9z"/>
		</g>
	</g>
	<g>
		<path class="st0" d="M65.8,34.2c-0.4-1.4-0.9-2.8-1.4-4.2c2.2,1.6,4,3.4,5.6,5.6C68.6,35,67.2,34.6,65.8,34.2z"/>
		<path class="st0" d="M39.9,27.4c2.6-1.2,5.5-1.9,8.5-2.1V32c-3.6,0.1-7.2,0.5-10.7,1.3C38.3,31.3,39,29.3,39.9,27.4z"/>
		<path class="st0" d="M62.2,33.3c-3.5-0.8-7.1-1.2-10.7-1.3v-6.6c3,0.2,5.8,0.9,8.5,2.1C60.8,29.3,61.6,31.3,62.2,33.3z"/>
		<path class="st0" d="M34.1,34.2c-1.4,0.4-2.8,0.9-4.2,1.4c1.6-2.2,3.4-4,5.6-5.6C34.9,31.3,34.5,32.7,34.1,34.2z"/>
		<path class="st0" d="M27.3,40c1.9-0.9,3.9-1.6,5.9-2.3c-0.8,3.5-1.2,7.1-1.3,10.7h-6.6C25.4,45.5,26.1,42.6,27.3,40z"/>
		<path class="st0" d="M48.4,35.1v13.4H35c0.1-3.9,0.7-7.9,1.6-11.7C40.5,35.8,44.4,35.2,48.4,35.1z"/>
		<path class="st0" d="M48.4,65c-3.9-0.1-7.9-0.7-11.7-1.6c-1-3.9-1.5-7.8-1.6-11.7h13.4V65z"/>
		<path class="st0" d="M33.2,62.3c-2-0.6-4-1.4-5.9-2.3c-1.2-2.6-1.9-5.5-2.1-8.5h6.6C32,55.2,32.4,58.8,33.2,62.3z"/>
		<path class="st0" d="M34.1,65.9c0.4,1.4,0.9,2.8,1.4,4.2c-2.2-1.6-4-3.4-5.6-5.6C31.2,65,32.6,65.5,34.1,65.9z"/>
		<path class="st0" d="M37.6,66.8c3.5,0.8,7.1,1.2,10.7,1.3v6.6c-3-0.2-5.8-0.9-8.5-2.1C39,70.7,38.3,68.8,37.6,66.8z"/>
		<path class="st0" d="M62.2,66.8c-0.6,2-1.4,4-2.3,5.9c-2.6,1.2-5.5,1.9-8.5,2.1v-6.6C55.1,68,58.7,67.6,62.2,66.8z"/>
		<path class="st0" d="M63.2,63.3c-3.9,1-7.8,1.5-11.7,1.6V51.6h13.4C64.7,55.5,64.2,59.5,63.2,63.3z"/>
		<path class="st0" d="M65.8,65.9c1.4-0.4,2.8-0.9,4.2-1.4c-1.6,2.2-3.4,4-5.6,5.6C64.9,68.7,65.4,67.3,65.8,65.9z"/>
		<path class="st0" d="M74.6,51.6c-0.2,3-0.9,5.8-2.1,8.5c-1.9,0.9-3.9,1.6-5.9,2.3c0.8-3.5,1.2-7.1,1.3-10.7H74.6z"/>
		<path class="st0" d="M63.2,36.7c1,3.9,1.5,7.8,1.6,11.7H51.5V35.1C55.4,35.2,59.4,35.8,63.2,36.7z"/>
		<path class="st0" d="M74.6,48.5H68c-0.1-3.6-0.5-7.2-1.3-10.7c2,0.6,4,1.4,5.9,2.3C73.7,42.6,74.4,45.5,74.6,48.5z"/>
	</g>
</g>
</svg>
