<?xml version="1.0" encoding="utf-8"?>
<!-- Generator: Adobe Illustrator 18.1.1, SVG Export Plug-In . SVG Version: 6.00 Build 0)  -->
<svg version="1.1" id="Layer_1" xmlns="http://www.w3.org/2000/svg" xmlns:xlink="http://www.w3.org/1999/xlink" x="0px" y="0px"
	 viewBox="0 0 100 100" style="enable-background:new 0 0 100 100;" xml:space="preserve">
<style type="text/css">
	.st0{fill:#545758;}
	.st1{fill:#FAC312;}
</style>
<g>
	<g>
		<path class="st0" d="M62.1,23.6c-0.5-1.7-1-3.4-1.7-5c2.6,1.9,4.8,4.1,6.7,6.7C65.5,24.6,63.8,24.1,62.1,23.6z"/>
		<path class="st0" d="M31.2,15.5c3.1-1.4,6.5-2.2,10.1-2.5v7.9c-4.3,0.1-8.6,0.6-12.8,1.6C29.2,20.1,30.1,17.8,31.2,15.5z"/>
		<path class="st0" d="M57.9,22.5c-4.2-0.9-8.5-1.4-12.8-1.6V13c3.6,0.2,7,1.1,10.1,2.5C56.2,17.8,57.1,20.1,57.9,22.5z"/>
		<path class="st0" d="M24.2,23.6c-1.7,0.5-3.4,1-5,1.7c1.9-2.6,4.1-4.8,6.7-6.7C25.2,20.2,24.7,21.9,24.2,23.6z"/>
		<path class="st0" d="M16.1,30.6c2.3-1.1,4.6-2,7-2.7c-0.9,4.2-1.4,8.5-1.6,12.8h-7.9C13.8,37.1,14.7,33.7,16.1,30.6z"/>
		<path class="st0" d="M41.3,24.7v16h-16c0.1-4.7,0.8-9.4,1.9-14C31.9,25.5,36.6,24.8,41.3,24.7z"/>
		<path class="st0" d="M41.3,44.4v12.3c-0.5,0.2-1,0.5-1.4,0.9c-1,0.7-1.8,1.6-2.4,2.6c-3.4-0.3-6.9-0.9-10.2-1.7
			c-1.2-4.6-1.8-9.3-1.9-14H41.3z"/>
		<path class="st0" d="M23.1,57.3c-2.4-0.8-4.7-1.7-7-2.7c-1.4-3.1-2.2-6.5-2.5-10.1h7.9C21.7,48.7,22.2,53,23.1,57.3z"/>
		<path class="st0" d="M24.2,61.5c0.5,1.7,1,3.4,1.7,5c-2.6-1.9-4.8-4.1-6.7-6.7C20.8,60.5,22.5,61,24.2,61.5z"/>
		<path class="st0" d="M38,70.3l1.1,1.5c-2.8-0.4-5.5-1.1-7.9-2.3c-1-2.3-2-4.6-2.7-7c2.6,0.6,5.2,1,7.8,1.2
			C36,66.1,36.6,68.5,38,70.3z"/>
		<path class="st0" d="M45,44.4h3.4v11.8c-1-0.3-2-0.5-3-0.5c-0.1,0-0.2,0-0.3,0V44.4z"/>
		<path class="st1" d="M86.4,54v25.5L78.9,87H56.3L41.8,67.5c0,0-0.1-0.1-0.1-0.1c0,0,0,0,0,0c-0.1-0.1-0.2-0.3-0.2-0.4
			c0,0,0-0.1,0-0.1c0-0.1-0.1-0.2-0.1-0.3c0,0,0-0.1-0.1-0.1c0,0,0,0,0-0.1c0-0.1-0.1-0.2-0.1-0.2c0,0,0-0.1,0-0.1
			c0-0.1-0.1-0.3-0.1-0.4c0,0,0-0.1,0-0.1c0,0,0,0,0,0c0,0,0-0.1,0-0.1c0,0,0,0,0,0c0,0,0,0,0-0.1c0-0.3,0-0.6,0-0.9
			c0-0.1,0-0.1,0-0.2l0-0.1c0,0,0-0.1,0-0.1c0.1-0.7,0.4-1.4,0.9-2c0,0,0.1-0.1,0.1-0.1c0,0,0.1-0.1,0.1-0.1c0,0,0.1-0.1,0.1-0.1
			c0.1-0.1,0.3-0.2,0.4-0.4c0,0,0.1-0.1,0.1-0.1c2-1.4,4.7-1,6.2,0.9l4.3,5.7V33.4c0.8-1,2-1.6,3.4-1.6c1.4,0,2.6,0.6,3.4,1.6v25.8
			h2V48.5c0.1-0.1,0.2-0.3,0.3-0.4c0,0,0.1-0.1,0.1-0.1c0,0,0,0,0,0c0,0,0.1,0,0.1-0.1c0,0,0.1-0.1,0.1-0.1c0,0,0,0,0.1,0
			c0,0,0.1-0.1,0.1-0.1c0,0,0.1-0.1,0.1-0.1c0.2-0.1,0.5-0.3,0.7-0.4c0,0,0.1,0,0.1,0c0,0,0.1,0,0.1-0.1c0,0,0.1,0,0.1,0
			c0,0,0.1,0,0.1,0c0.1,0,0.1,0,0.2,0c0,0,0.1,0,0.1,0c0,0,0.1,0,0.1,0c0,0,0.1,0,0.1,0c0,0,0.1,0,0.1,0c0.1,0,0.1,0,0.2,0
			c0,0,0.1,0,0.1,0c0,0,0.1,0,0.1,0c0.1,0,0.2,0,0.4,0c1.4,0,2.6,0.6,3.4,1.6v10.8h2V48.5c0,0,0.1-0.1,0.1-0.1c0,0,0,0,0.1-0.1
			c0,0,0,0,0,0c0,0,0.1-0.1,0.1-0.1c0,0,0.1-0.1,0.1-0.1c0,0,0.1,0,0.1-0.1c0,0,0.1-0.1,0.1-0.1c0,0,0.1-0.1,0.1-0.1
			c0,0,0.1-0.1,0.1-0.1c0,0,0,0,0,0c0,0,0.1-0.1,0.1-0.1c0,0,0,0,0.1,0c0,0,0,0,0.1,0c0,0,0.1-0.1,0.1-0.1c0,0,0.1,0,0.1-0.1
			c0,0,0.1,0,0.1,0c0.1,0,0.2-0.1,0.2-0.1c0.1-0.1,0.3-0.1,0.4-0.2c0,0,0.1,0,0.1,0c0,0,0.1,0,0.1,0c0,0,0.1,0,0.1,0c0,0,0,0,0,0
			c0,0,0.1,0,0.1,0c0.1,0,0.1,0,0.2,0c0,0,0.1,0,0.1,0c0.2,0,0.3,0,0.5,0c1.4,0,2.6,0.6,3.4,1.6v10.7h2v-7.9
			c0.7-0.8,1.8-1.3,2.9-1.3C84.6,50.1,86.4,51.8,86.4,54z"/>
		<polygon class="st0" points="68.7,48.5 68.7,55.2 68.7,48.5 		"/>
		<path class="st0" d="M56.5,27c-2.7,0-5.3,1.2-7.1,3.3l-1.1,1.3v9H45v-16c4.7,0.1,9.4,0.8,14,1.9c0.1,0.3,0.1,0.5,0.2,0.8
			C58.4,27.2,57.5,27,56.5,27z"/>
		<path class="st0" d="M72.7,40.7h-7.9c0-0.4,0-0.9,0-1.3c-0.1-3-0.5-5.9-1-8.8c-0.2-0.9-0.3-1.8-0.5-2.7c2.4,0.8,4.7,1.7,7,2.7
			C71.6,33.7,72.5,37.1,72.7,40.7z"/>
	</g>
	<g>
		<polygon class="st0" points="68.7,48.5 68.7,59.2 68.7,48.5 		"/>
		<path class="st0" d="M68.7,48.5v10.8C68.7,59.2,68.7,48.5,68.7,48.5C68.7,48.5,68.7,48.5,68.7,48.5z"/>
		<polygon class="st0" points="68.7,48.5 68.7,59.2 68.7,48.5 		"/>
		<polygon class="st0" points="68.7,48.5 68.7,59.2 68.7,48.5 		"/>
		<polygon class="st0" points="68.7,48.5 68.7,59.2 68.7,48.5 		"/>
	</g>
</g>
</svg>
