<?xml version="1.0" encoding="utf-8"?>
<!-- Generator: Adobe Illustrator 18.1.1, SVG Export Plug-In . SVG Version: 6.00 Build 0)  -->
<svg version="1.1" id="Layer_1" xmlns="http://www.w3.org/2000/svg" xmlns:xlink="http://www.w3.org/1999/xlink" x="0px" y="0px"
	 viewBox="0 0 100 100" style="enable-background:new 0 0 100 100;" xml:space="preserve">
<style type="text/css">
	.st0{fill:#545758;}
	.st1{fill:#FAC312;}
</style>
<g>
	<path class="st0" d="M60.6,32C60.6,32,60.5,32,60.6,32C60.5,32,60.6,32.1,60.6,32z"/>
	<path class="st0" d="M61.1,32.4c-0.3,0.1,1.1,0.9,1,0.3c0,0,0,0-0.1,0C61.7,32.7,61.3,32.7,61.1,32.4z"/>
	<path class="st0" d="M61.1,30.9c0,0-0.1,0-0.3,0c0.2,0.1,1.1,0.8,1.3,0.4C61.8,31.1,61.5,30.9,61.1,30.9z"/>
	<path class="st0" d="M63.1,32.7C63.1,32.8,63.1,32.7,63.1,32.7L63.1,32.7z"/>
	<path class="st0" d="M63.2,33.1c0.2-0.2-0.2-0.2-0.2-0.2c0,0,0.1-0.1,0.1-0.2c0-0.3-0.7,0.1-0.5,0.4c0,0,0,0,0.1,0
		c-0.1,0.1-0.1,0.2-0.1,0.3c0.1,0.1,0.4,0.1,0.6,0c0.2-0.2-0.2-0.2-0.2-0.2c0,0,0,0,0,0C63.1,33.2,63.1,33.2,63.2,33.1z"/>
	<path class="st0" d="M66.6,32.4c-0.1,0-0.1,0.1-0.2,0.1c0,0,0,0,0,0c0,0,0,0,0,0c0,0,0,0,0,0c0-0.1-0.1-0.1-0.1-0.2
		c0.1,0,0.1-0.1,0.1-0.2c-0.1,0-0.1,0-0.2,0c0-0.1,0-0.3,0-0.4c-0.2,0.1-1.2-0.2-0.9-0.3c-0.1-0.1-0.2-0.1-0.3-0.1
		c0.1-0.2,0.2-0.5,0.1-0.5c0.1-0.3,0.2-0.5-0.2-0.4c-0.5,0.2-0.5,1.1-1.1,1.3c0.1,0.2,0.3,0.1,0,0.3c-0.2,0.1-0.1,0.3,0.1,0.3
		c0,0,0,0-0.1,0.1c-0.3,0.2,0,0.3,0.2,0.3c0.6-0.1,1.2,0.1,1.7,0.2c0,0.1-0.2,0.1-0.2,0.2c0,0.1,0.5-0.3,0.6-0.3
		c0.1,0.1,0.3,0.4,0.4,0.5c0.1,0.1,0.3,0.1,0.3-0.1c0-0.1,0-0.2-0.1-0.3c0,0,0,0,0.1-0.1C66.9,32.7,66.7,32.6,66.6,32.4z"/>
	<path class="st0" d="M31.6,21.3c0.3,0,1-0.2,1.2-0.4c0.1,0,0.6-0.3,0.6-0.3c0.1,0.1,0.2,0.1,0.4,0c-0.2,0.1-0.4,0.3,0,0.2
		c-0.2,0.1-0.3,0.2,0.1,0.1c0.5-0.1,1-0.4,1.5-0.2c-0.1,0-0.4,0-0.5,0.2c0,0.1,1.6-0.3,1.8-0.3c0.4-0.1,0.8-0.2,1.2-0.2
		c0.1,0,1.5-0.3,1.2-0.5c-0.1-0.1-1,0.2-1.3,0.1c0,0,0,0,0.1,0c0.1,0,1-0.3,1.2-0.6c0.1,0,0.3,0,0.4,0c0.1,0,0.2,0,0.2-0.1
		c-0.2,0-0.4-0.1-0.6-0.1c0,0,0,0,0-0.1c-0.2-0.1-1.5,0.5-1.3-0.2c-0.2,0-0.7,0-0.8,0.3c-0.5,0.1-1.1,0.3-1.1,0.4
		c0.2,0,0.3-0.1,0.5-0.1c-0.3,0.1-0.5,0.1-0.5,0.3c0,0,0,0,0,0c-0.3,0-0.6-0.1-0.8,0c-0.2,0-0.3,0.1-0.5,0.2c0,0.1,0,0.1,0.1,0.1
		c0,0-0.2,0.1-0.3,0.1c-0.1,0-0.2,0-0.3,0.1c0.2-0.1,0.3-0.3,0.4-0.3c0,0-0.1-0.1-0.1-0.1c0.1,0,0.2-0.1,0.2-0.2
		c0-0.1-1,0.3-1.1,0.4c-0.4,0.1-0.7,0.5-1.1,0.7c-0.1,0.1-0.8,0.3-0.8,0.5C31.5,21.2,31.5,21.2,31.6,21.3c-0.1-0.1-0.1-0.1-0.1,0
		C31.5,21.3,31.6,21.3,31.6,21.3z M36.4,20.3c0.1,0,0.3-0.1,0.3-0.1c0.2-0.1,0.3-0.1,0.5-0.2c0,0-0.1,0.1-0.1,0.1c0.1,0,0.2,0,0.3,0
		C37.1,20.3,36.8,20.3,36.4,20.3z M36.9,19.4c0.1,0,0.3,0,0.3,0c0,0,0,0,0,0c-0.1,0-0.3,0-0.5,0C36.8,19.5,36.8,19.4,36.9,19.4z
		 M37.1,19.5C37.1,19.6,37.1,19.6,37.1,19.5c-0.1,0-0.1,0-0.3,0.1C37,19.6,37,19.6,37.1,19.5z M36.4,19.8c0.2-0.1,0.7-0.2,0.7-0.2
		c0.1,0,0.2,0,0.3,0C37.1,19.8,36.7,19.9,36.4,19.8C36.4,19.8,36.4,19.8,36.4,19.8z M33.5,20.3C33.5,20.3,33.5,20.3,33.5,20.3
		C33.4,20.4,33.4,20.4,33.5,20.3c-0.2,0.1-0.2,0.1-0.3,0.1C33.3,20.4,33.4,20.3,33.5,20.3z"/>
	<path class="st0" d="M35.2,19.6C35.2,19.6,35.2,19.6,35.2,19.6c0.1,0,0.2-0.1,0.2-0.1c-0.1,0-0.5-0.1-0.5,0.1
		C35,19.7,35.1,19.7,35.2,19.6z"/>
	<path class="st0" d="M32.9,21.1C32.9,21.1,32.9,21.1,32.9,21.1c0.1,0.2,0.7-0.2,0.7-0.3C33.4,20.8,33,20.9,32.9,21.1
		C32.9,21,32.9,21,32.9,21.1z"/>
	<path class="st0" d="M65.5,33.1C65.5,32.9,65.5,33.1,65.5,33.1L65.5,33.1z"/>
	<path class="st0" d="M61.1,31.3c0,0-0.1,0-0.3,0c0.2,0.1,1.1,0.7,1.3,0.4C61.8,31.5,61.5,31.3,61.1,31.3z"/>
	<path class="st0" d="M25.4,31.7c0,0-0.1-0.1-0.1-0.1c0-0.2,0.1-0.3,0.1-0.5c0,0.1-0.1,0.2-0.2,0.2c0,0,0.1-0.1,0.1-0.2
		c-0.2,0-0.2-0.1-0.3,0.1c0.1,0.1,0.2,0.2,0.3,0.3C25.1,31.7,25.4,31.7,25.4,31.7z"/>
	<path class="st0" d="M24.5,30.3c0.1-0.1,0.1-0.3,0.1-0.4c0,0-0.1,0.1-0.1,0c0-0.2,0.1-0.3,0.1-0.4c-0.1,0.1-0.3,0.1-0.4,0.1
		c-0.2,0.1,0,0.3,0.2,0.3C24.4,30.1,24.4,30.2,24.5,30.3z"/>
	<path class="st0" d="M61,80.9c-0.2,0.1-0.3,0.1-0.5,0.1c0,0,0,0.1,0.1,0c-0.1,0.1-0.2,0.1-0.2,0.2C60.4,81.2,61,81.1,61,80.9z"/>
	<path class="st0" d="M61.6,80.8c-0.2,0.1-0.4,0.1-0.5,0.2c-0.1,0-0.1,0.2-0.2,0.2C61,81.1,61.5,81,61.6,80.8z"/>
	<path class="st0" d="M15.3,47.3c0.1-0.1,0.1-0.1,0.1-0.2c0,0-0.1,0-0.1,0.1C15.3,47.2,15.1,47.3,15.3,47.3z"/>
	<path class="st0" d="M16,48.2C15.9,49.2,16.6,48.2,16,48.2L16,48.2z"/>
	<path class="st0" d="M15,46.8C14.9,46.8,14.9,46.8,15,46.8C14.8,46.9,14.9,47.1,15,46.8z"/>
	<path class="st0" d="M15.5,47.5c0.1,0,0.1-0.1,0.2-0.2c-0.1,0-0.1,0-0.2,0C15.5,47.4,15.5,47.5,15.5,47.5z"/>
	<path class="st0" d="M15.8,47.5c0,0.1,0,0.2,0.1,0.2C16,47.7,15.9,47.6,15.8,47.5C15.8,47.5,15.8,47.5,15.8,47.5z"/>
	<path class="st0" d="M25.3,30.1c-0.2,0-0.3,0.1-0.4,0.3c0.1-0.1,0.1-0.1,0.3-0.1c-0.1,0.2,0.1,0.5,0.3,0.3
		C25.6,30.5,25.2,30.3,25.3,30.1z"/>
	<path class="st0" d="M61,81C61.1,80.9,61,81,61,81L61,81z"/>
	<path class="st0" d="M55,79.7C55.3,78.8,54.2,79.7,55,79.7L55,79.7z"/>
	<path class="st0" d="M51.8,29C51.6,29,51.8,29,51.8,29L51.8,29z"/>
	<path class="st0" d="M42.7,18.5C42.7,18.4,42.7,18.7,42.7,18.5L42.7,18.5z"/>
	<path class="st0" d="M42.8,18c-0.2,0-0.4,0-0.6,0c0,0.1,0.2,0.1,0.3,0.1C42.6,18.1,42.8,18.2,42.8,18z"/>
	<path class="st0" d="M35.8,19.1c0,0.2,0.4,0.1,0.5,0.1c0.1,0,0.1,0,0.1,0c0.3-0.1,1.1-0.5,0.5-0.4c0.2,0,0.3-0.1,0.5-0.2
		c-0.1,0-0.4,0-0.7,0c0.3-0.1,0.6-0.2,0.9-0.3c-0.2-0.3-1.7,0.2-1.8,0.5c0.2-0.1,0.3-0.1,0.5-0.1C36.1,18.8,35.8,18.9,35.8,19.1z"/>
	<path class="st0" d="M52.3,20.6c0.3,0,1.3,0.1,1.4,0c-0.2,0-2.4-0.6-2.4-0.3C51.3,20.4,52.1,20.6,52.3,20.6
		C52,20.5,52.2,20.6,52.3,20.6z"/>
	<path class="st0" d="M40.4,21.8C40.3,21.9,40.7,21.8,40.4,21.8L40.4,21.8z"/>
	<path class="st0" d="M71.9,74.4c-6.1,5.9-14.4,9.5-23.5,9.5c-5,0-9.7-1.1-13.9-3c0.6-0.3,1.1-0.6,1.7-1c4.5-2.8,8.7-6.1,12.5-9.7
		c-1.3-1.2-2.5-2.3-3.8-3.5c-3.2,3.7-6.9,7-10.9,9.9c-1.1,0.8-2.2,1.6-3.4,2.3C21,72.9,14.5,62.2,14.5,50c0-7.3,2.3-14.1,6.3-19.7
		c0,0,0,0,0,0c0.1-0.1,0.1-0.1,0.2-0.2c0,0,0,0-0.1,0c0.2-0.2,0.4-0.5,0.5-0.7c0.1,0,0.2,0,0.3,0c0.4-0.1,0.8-0.3,1.3-0.3
		c0.3-0.1,0.6,0.2,0.9,0.1c0.3-0.1,0.1-0.2,0.4-0.2c0.2,0,0.2-0.1,0.4,0c-0.4,0.5,0.1,0.2,0.4,0.1c0,0.2-0.2,0.2-0.3,0.3
		c0,0.2,0.4,0,0.5,0c0.2,0.1-0.2,0.3,0.3,0.4c0.1,0,0.5-0.1,0.4,0.1c0,0.2,0,0.5,0,0.7c0.1,0.2,0.2,0.1,0.4,0.2
		c0.1,0.1-0.1,0.2,0.1,0.3c0.4,0.1,0.3,0.6,0.9,0.5c0,0,0.8,0.3,0.9,0.3c0.2,0,0.4,0.1,0.6,0.2c0.2,0.1-0.1,0.5-0.3,0.4
		c-0.1,0-0.4-0.1-0.6,0c0,0,0,0-0.1,0c-0.4-0.2-1.2-0.5-1.6-0.3c0.1,0,0.2,0,0.3,0c0,0.1-0.1,0.1-0.2,0.1c0.1,0.2,0.6,0.1,0.7,0.1
		c-0.1,0-0.1,0.1-0.2,0.1c0.2,0.1,0.7,0.2,1,0.2c0.1,0.1,0.2,0.1,0.2,0.2c0.2,0.3-0.2,1-0.3,1.3c-0.1,0.3-0.3,0.8-0.2,1.2
		c0.1,0.3,0.1,0.5,0.1,0.8c0.1,0.3-0.2,0.3,0,0.7c0.2,0.4,0.8,1,0.8,1.2c0,0.2,0.1,0.3,0.2,0.4c0.2,0.2,0.2,0.4,0.3,0.7
		c0.1,0.2,1.2,0.5,1.4,0.7c0.4,0.3,0.4,0.7,0.7,1.2c0.3,0.4,0.1,0.8,0.6,1.2c0.3,0.3,1.1,1,0.3,1c0.2,0.3,0.6,0.2,0.9,0.5
		c0.2,0.2,0.4,0.4,0.5,0.6c0,0.2-0.1,0.5,0.1,0.6c0.2,0.2,0.4,0.5,0.7,0.6c0.1,0.1,0.4,0.4,0.5,0.4c0.1,0,0.1-0.3,0.1-0.4
		c-0.1-0.3-0.3-0.1-0.5-0.3c-0.4-0.4-0.4-1.1-0.8-1.5c-0.3-0.4-0.3-1.1-0.8-1.4c-0.4-0.2-1-1-0.6-1.5c0.2,0.2,0.6,0.2,0.8,0.3
		c0.1,0.1,0.1,0.4,0.2,0.5c0.2,0.5,0.4,0.8,0.8,1.2c0.2,0.2,0.3,0.1,0.4,0.3c0.1,0.2,0.3,0.3,0.5,0.4c0.3,0.2,0.2,0.3,0.3,0.6
		c0,0.3,0.4,0.4,0.6,0.5c0.5,0.3,0.9,1,1.2,1.6c0.1,0.2,0.3,0.5,0.3,0.7c0,0.3-0.3,0.4-0.2,0.7c0.2,0.4,0.7,0.5,1.1,0.8
		c0.2,0.1,0.3,0.2,0.6,0.3c0.4,0.1,0.6,0.3,0.9,0.5c0.3,0.2,0.5,0,0.8,0.1c0.2,0.1,0.4,0.2,0.6,0.3c0.4,0.2,0.8,0.1,1.2,0.3
		c0.5,0.3,0.6-0.3,1.1-0.3c0.7,0,1,0.5,1.4,1c0.4,0.6,0.9,0.6,1.5,0.7c0.3,0.1,0.5,0.2,0.7,0.3c0.3,0.1,0.5,0,0.8,0
		c0.2,0,0.6,0.6,0.9,0.9l1.5,0.2c0-0.5,0.1-1,0.2-1.4c0-0.3,0.2-1-0.1-1.1c-0.2-0.1-0.4-0.3-0.6-0.3c-0.4-0.1-0.9,0-1.3,0
		c-0.3,0-0.7,0.1-1,0.1c-0.2,0-0.3-0.3-0.2-0.4c0.3-0.2,0.3-0.3,0.3-0.6c0-0.2,0-0.3,0-0.5c0-0.3,0.2-0.3,0.2-0.1
		c0.1-0.2,0.3-0.4,0.3-0.6c0-0.4,0.4-0.6,0.4-1c0-0.3-1-0.3-1.3-0.3c-0.2,0-0.5,0-0.7,0.2c-0.3,0.2-0.2,0.5-0.4,0.7
		c-0.1,0.2-0.3,0.4-0.4,0.6c-0.2,0.4-0.4,0.1-0.7,0.1c-0.3,0-0.6,0.2-0.9,0.2c-0.3,0.1-0.5-0.2-0.8-0.3c-0.4-0.2-0.8-0.8-1.1-1.2
		c-0.3-0.3-0.3-1.1-0.3-1.5c0-0.4,0.1-0.7,0.2-1.1c0-0.2-0.1-0.5,0-0.6c0-0.2-0.1-0.4,0-0.6c0.1-0.2,0.2-0.5,0.4-0.7
		c0.2-0.2,0.4-0.2,0.7-0.2c0.2,0,0.4-0.4,0.6-0.5c0.2-0.2,0.4-0.3,0.7-0.3c0.1,0,0.3,0.1,0.4,0.1c0.3,0.1,0.3-0.1,0.5-0.1
		c0.5,0,0.9,0.6,1.5,0.4c-0.2-0.2-0.1-0.4,0-0.6c-0.1,0-0.2,0-0.3,0c0.1,0,0.3-0.1,0.5-0.1c-0.6-0.4-1-0.7-1.3-1
		c-1.5-1.1-3.2-2.6-3.2-4.7c0-0.8,0.2-2.1,1.5-3.1l0.1-0.1c0.3-0.3,0.5-0.4,1.8-1.3c0.8-0.6,1.8-0.9,3-0.9c2.1,0,4.4,0.9,4.9,1.1
		l5.2,2.2c0,0,0,0,0.1,0c0.2,0,0.3,0,0.5-0.1c0,0,0,0.1,0,0.1c0,0,0,0,0-0.1c0,0,0,0,0,0c0.2-0.1,0-0.2,0-0.3c0.2,0,0.4,0,0.6,0.1
		c0.4,0,0.4-0.3,0.7-0.3c0,0.2,0.1,0.3,0.3,0.3c-0.6,0-1.5,0.5-0.7,1c0.1,0.1,1.1-0.5,1.4-0.6c0.4-0.1,1.3-0.5,0.4-0.6
		c-0.4-0.1-0.7-0.2-1-0.4c-0.4-0.3-0.5-0.7-1-0.7c0.1-0.2,0.5-0.1,0.6-0.3c0.4-0.3-0.3-0.5-0.5-0.5c-0.4,0-0.8-0.1-1.2,0.1
		c-0.3,0.1-0.6,0.3-0.9,0.3c0.2-0.4,0.7-0.3,1-0.6c0.3-0.3,0.2-0.4,0.7-0.5c1-0.1,2,0.4,3,0.3c0.4,0,0.5-0.3,0.8-0.4
		c0.3-0.1,0.6-0.1,0.9-0.1c1-0.1-0.1-0.8-0.1-1.2c-0.3,0.1-1.6,0.4-1.8,0.1c0.3-0.1,1.2,0.1,1.4-0.3c0-0.2-1.1-0.4-1.3-0.5
		c-0.1-0.1-0.2-0.2-0.2-0.3c-0.3,0-0.6-0.2-0.9-0.4c0.7-0.3-0.5-0.6-0.6-0.9c-0.1-0.5-0.6-0.6-1-0.9c-0.1,0-0.3,0.1-0.4,0.2
		c-0.1,0.1,0.1,0.2-0.1,0.3c-0.3,0.1-0.9,0.4-1.2,0.3c-0.2-0.1-0.7-0.4-0.8-0.5c-0.1-0.2,0.1-0.6-0.2-0.8c-0.5-0.2-1-0.3-1.4-0.6
		c-0.4-0.2-0.8-0.1-1.2-0.2c-0.5-0.1-0.9-0.3-1.4-0.2c-0.4,0-0.4,0.2-0.1,0.4c0.3,0.2-0.3,0.3-0.2,0.4c0.1,0.2,0.5,0.3,0.4,0.5
		C53.5,26,53,26,52.8,26.1c0.2,0.2,0.6,0.3,0.9,0.4c0.3,0.1,0.4,0.8,0.2,1c-0.3,0.4-1.1,0.6-1.5,0.7c0.5,0.2,0.4,0.6,0.6,1
		c0.2,0.4-0.5,0.7-0.9,0.5c-0.4-0.2-1-0.5-1.2-0.9c-0.2-0.4,0-0.7-0.6-1c-1.3-0.3-2.6-0.6-3.9-0.9c-0.3-0.1-0.5-0.2-0.8-0.1
		c-0.2,0.1-0.5,0.3-0.5,0c-0.2-0.7-0.6-0.7-1.2-0.6c0.2-0.3,0-0.7,0.2-1.1c0.2-0.3,0.6-0.6,0.9-0.8c0.2-0.2,0.9-0.1,0.9-0.3
		c0-0.2-0.8-0.2-1-0.2c0.1,0,1.3,0.1,1.4,0c0.2-0.3,0.9-0.2,1.3-0.4c0.5-0.3,0.2-0.3-0.2-0.3c-0.3,0-0.8,0-1-0.2
		c0.5,0,0.9,0.2,1.3,0.2c0.1,0,1.2-0.1,0.8-0.4c0.5,0,0.9,0.2,1.4,0.2c-0.2-0.1,0.4,0,0.5-0.1c0.1,0,0.7-0.2,0.8-0.4
		c0-0.1-0.7-0.2-0.5-0.4c0.1-0.1,0.4-0.1,0.4-0.2c-0.1-0.2-0.3-0.1-0.6-0.2c0.4,0,0.7,0,1.1,0.1c-0.1,0.4,0.9-0.1,1.1,0
		c0.4,0.1,0.9,0.3,1.3,0.5c-0.1,0-0.4,0-0.4,0.1c0.6,0.1,1.2,0.1,1.8,0.4c1.3,0.6-0.5,0.5-0.5,0.7c0,0.1,0.3,0.2,0.3,0.2
		c-0.3,0-2.3-0.1-2.3,0.2c0.1,0.4,1.3,0.1,1.5,0.2c0.3,0.1,0.6,0,1,0.1c0.3,0.1,0.7,0.3,1,0.4c-0.2,0.2,1,0.4,1.1,0.4
		c0.2,0.1,1.8,0.5,1.8,0.4c-0.1-0.4-1.1-0.5-1.4-0.7c0.3,0.1,2.2,0.8,2.2,0.3c0-0.2-0.6-0.4-0.7-0.5c-0.2-0.1-0.4,0-0.6-0.1
		c-0.2-0.1-0.5-0.3-0.6-0.4c0.1,0,0.2,0,0.3,0c0-0.2-0.2-0.1-0.4-0.1c0.5-0.3,1.2,0.3,1.5,0.5c0.1,0.1,0.7,0.4,0.8,0.1
		c0.1-0.2,0.3,0.1,0.3-0.2c1.1,0.2-0.2-0.5-0.6-0.5c-0.5,0-0.6-0.3-1-0.4c-0.4-0.1-0.7-0.3-1.2-0.4c0.1-0.1,0.4-0.1,0.5-0.1
		c-0.2-0.2-0.6-0.2-0.8-0.2c0.2-0.1,0.4,0,0.6,0c-0.2-0.1-0.4-0.2-0.7-0.3c-0.2,0-0.4-0.2-0.7-0.3c-0.5-0.1-0.8-0.3-1.3-0.4
		c-0.5,0-0.9-0.2-1.4-0.4c-0.4-0.2-0.9-0.2-1.3-0.2c-0.3,0-0.4,0-0.7,0.1c-0.2,0.1-0.4-0.1-0.6-0.1c-0.3,0-0.3,0.1-0.4-0.1
		c0-0.2-0.2-0.3-0.3-0.3c-0.5-0.2-1.1-0.1-1.6,0c-0.2,0-0.4,0-0.6,0.1c-0.2,0.1,0.1,0.2,0.1,0.3c0,0.2-0.7,0.2-0.5-0.1
		c-0.5,0,0.6-0.4,0.6-0.4c-0.3,0-0.6-0.1-0.9-0.1c-0.3,0-0.6,0.1-0.9,0.2c-0.2,0.1-0.2,0.2-0.3,0.3c-0.4,0.1-0.5,0.3-0.1,0.5
		c0.3,0.1,0.7,0,1,0.1c0,0.2-0.6,0.1-0.8,0.1c0.1,0.4,1.1,0.2,1.4,0.3c0.1,0,0.8,0.1,0.8,0.3c0,0.1-0.4,0.1-0.4,0.1
		c-0.2,0.1-0.3,0.4-0.5,0.5c-0.2,0.1-0.5,0.2-0.7,0c-0.2-0.2,0.3-0.2,0.3-0.3c-0.1-0.3-0.9-0.4-1-0.1c-0.1,0.1-0.4,0.4-0.4,0.1
		c0-0.2-0.7-0.2-0.2-0.3c-0.3-0.1-0.6,0-0.9-0.1c0.3-0.1,0.7-0.3,0.2-0.4c-0.4-0.1-0.4-0.4-1-0.5c0.1,0,0.5-0.2,0.1-0.2
		c0.1-0.2,1.9-0.1,1.9-0.6c-0.2,0-2.2-0.1-2.2,0.1c0,0.2-0.4-0.1-0.4,0.3c0,0.2,0.2,0.1,0.2,0.3c-0.2,0-0.1,0-0.1,0.2
		c-0.1,0-0.3,0-0.4,0.1c-0.2,0.1,0.1,0.2,0,0.3c0,0.1-0.5,0.3-0.1,0.3c0.2,0,1.4-0.1,0.9,0.5c0.1,0,0.3-0.1,0.4-0.1
		c0.1,0.2-1.2,0.7-1.3,0.7c-0.2-0.1,0.3-0.3-0.2-0.4c-0.3,0-0.5,0-0.8,0c-0.2,0.1-0.2,0.3-0.4,0.3c-1-0.1-2,0.1-3,0
		c-0.4-0.1-0.6-0.3-0.9-0.3c-0.2,0-1,0.1-1.1,0.4c0,0.2,1-0.1,1.2-0.2c0,0.2-0.5,0.2-0.6,0.3c-0.2,0-0.3,0.4-0.2,0.4
		c-0.4,0-0.7-0.3-1.2-0.2c-0.5,0.1-1,0.1-1.5,0.3c-0.1,0-0.8,0.2-0.9,0.1c-0.1-0.1,0.5-0.2,0.6-0.2c-0.2-0.1-0.4-0.2-0.6-0.1
		c-0.6,0.1-1.2,0.3-1.9,0.2c-0.4,0-1.2-0.1-1.5,0.3c-0.2,0.3-0.4-0.1-0.6,0.1c-0.2,0.1-0.4,0.3-0.6,0.3c-0.1,0-0.3-0.2-0.4-0.1
		c-0.2,0.1-0.3,0.3-0.5,0.4c-0.4,0.1-0.8,0.2-1.3,0.5c-0.3,0.2-0.6,0.3-0.9,0.4c-0.3,0.1-0.4,0.2-0.4,0.3c0,0.1-0.5,0.2-0.7,0.3
		c4.4-4.2,9.8-7.2,15.9-8.6c0,0.5,0.8,0.3,0.9,0.4c0.5-0.1,0.9,0.2,1-0.6c-0.6,0.2-1.2,0.1-1.8,0.2c2.4-0.5,4.9-0.8,7.4-0.8
		c0.7,0,1.4,0,2.1,0.1c0,0-0.1,0-0.1,0c-0.4,0.1-0.9-0.1-1.2,0.2c-0.4,0-1-0.3-1.4-0.1c-0.4,0.2-0.8,0.1-1.2,0.2
		c-0.4,0-1.3-0.1-1.7,0.3c0.1,0,0.2,0,0.4,0c0,0,0,0,0,0c0,0,0,0,0,0c0.3,0,0.5-0.1,0.8-0.1c-0.2,0-0.3,0.1-0.5,0.1
		c0.1,0.1,0.2,0.1,0.4,0.1c0,0-0.1,0-0.1,0.1c0.3,0,0.6,0,0.9,0c-0.2,0-0.3,0-0.5,0.1c0.4,0.2,0.8,0.2,1.2,0.1
		c0.4-0.1,0.7,0.1,1.2,0.1c0.8,0,1.7-0.1,2.5-0.1c0,0-0.1,0-0.1,0c-0.3,0-0.7,0-1,0.1c-0.3,0-0.5,0-0.6,0c-0.3-0.1-0.6-0.1-0.9-0.1
		c-0.3-0.1-0.6-0.1-0.9,0c0,0,0.1,0.1,0.1,0.1c-0.1,0-0.3,0-0.3,0.1c-0.1,0-0.1,0-0.2,0c-0.1,0-0.3,0-0.5,0c-0.1,0-0.2,0-0.2,0
		c0,0,0,0,0,0c-0.1,0-0.2,0-0.3,0c-0.1,0-0.1-0.1-0.2-0.1c-0.3,0-0.6,0.1-0.9,0c-0.5-0.3-1-0.2-1.5-0.2c0,0.1,0.1,0.1,0.1,0.1
		c-0.2,0-0.4,0.1-0.6,0.1c0.2,0,0.5,0,0.7,0c-0.1,0.1-1.1,0-1.1,0.2c0,0.1,0.7,0.1,0.8,0.1c-0.3,0.1-0.6,0-1,0.1
		c0.1,0.3,0.5,0.2,0.8,0.2c-0.1,0-0.1,0,0.3,0c-0.1,0-0.2,0-0.3,0c0,0,0.1,0,0.2,0c-0.1,0-0.2,0.1-0.4,0.1c0,0,0.3,0.1,0.6,0
		c-0.1,0-0.1,0-0.1,0.1c0,0,0.1,0.1,0.2,0.1c0,0,0,0,0,0c0,0,0,0,0,0c-0.1,0-0.2,0-0.3,0c0,0,0,0,0,0c-0.5,0-1.1-0.1-1.1,0.1
		c0,0.1,0.1,0.2,0.2,0.2c0,0-0.1,0-0.1,0c0,0.1,0.1,0.1,0.2,0.1c0,0,0.1,0,0.2,0c0,0,0,0,0,0c-0.1,0-0.1,0-0.2,0.1
		c0,0.1,0.6,0,0.7,0c0.2,0,0.4,0,0.5-0.1c0-0.1,0-0.1-0.1-0.1c0,0,0,0,0.1-0.1c0,0,0-0.1,0-0.1c0.1,0,0.2,0,0.3,0
		c0.1,0,0.1,0.1,0.3,0.1c0,0,0,0,0,0c0,0.2,0.7,0.1,0.8,0.1c-0.1,0-0.1,0-0.2,0c0.1,0.2,0.9,0.1,1.1,0c0.1,0,0.2-0.1,0.3-0.1
		c0.1,0.2,0.5,0.1,0.6,0.2c-0.2,0.1-1.3,0-1.4,0.3c0,0,0.3,0,0.8,0c0,0,0,0,0,0.1c0,0,1.1,0,2.4,0.1c0.8,0,1.7,0.1,2.3,0.1
		c0.7,0,1.2,0,1.3-0.1c0,0-0.2-0.1-0.5-0.1c0,0-0.1,0-0.2-0.1c0.1-0.1,0.7,0.1,0.7-0.1c0,0-0.1-0.1-0.1-0.1c0.6,0.1,1-0.1,1.6-0.1
		c-0.2-0.1-0.3-0.1-0.5-0.2c0.1,0,0.4,0.1,0.5,0c0.1-0.1-0.5-0.1-0.5-0.1c0.8-0.1,1.7,0.1,2.5,0c0.9-0.1,1.8,0.1,2.7,0
		c-0.4-0.1-0.8-0.1-1.2-0.2c0.2,0,2.5,0.1,2.6,0.2c-0.1-0.2-0.8-0.2-1-0.3c-0.1-0.1-0.3-0.1-0.4-0.1h0c0,0,0,0,0,0
		C58.6,18,58.3,18,58.1,18c-0.2,0-0.4-0.1-0.6-0.2c0.1,0,1.2,0.1,1.9,0.2c0.9,0.3,1.8,0.7,2.7,1.1c-0.3,0-0.5-0.1-0.8-0.1
		c-0.3-0.1-0.6-0.1-1-0.2c-0.3,0-0.2,0.2-0.6,0.1c-0.2,0-2.3-0.2-2.3-0.1c0,0.2,0.8,0.2,1,0.2c0.6,0.1,0,0.2-0.3,0.2
		c-0.2,0-3-0.3-2.9-0.1c0.1,0.2,1.1,0.3,1.3,0.3c0.6,0.1,1.2,0.2,1.8,0.2c-0.2,0.3-2.2-0.4-2.4,0c0.4,0.1,0.9,0.2,1.3,0.2
		c-0.1,0-0.2,0.1-0.3,0.1c0.2,0.1,0.5,0.2,0.7,0.2c0.1,0,0.9,0.2,0.4,0c1.7,0.1,3.6,0.4,5,1.4c0.2,0.2,0.4,0.5,0.6,0.5
		c0.6,0.2-0.1,0.2,0,0.4c0,0,2.2,0.7,2,0.9c-0.1,0.1-1.1-0.3-1.3-0.4c0.1,0.1,0.2,0.2,0.3,0.3c-0.3-0.1-0.5-0.2-0.5,0
		c0.1,0.2,1.2,0.6,1.3,0.4c0,0,0,0,0,0c0,0-0.2-0.1-0.5-0.2c0.4,0.1,0.9,0.2,1.1,0.3c-0.1,0.2-0.3,0.2-0.3,0.4c0,0-0.4-0.2-0.4-0.1
		c-0.2,0-0.3,0.1-0.4,0.2c-0.3,0.2,0.1,0.2,0.2,0.3c-0.1,0.3,0.1,0.3,0.4,0.6c0.1,0.1,0.2,0.3,0.3,0.4c0.2,0.1,0.4,0,0.6,0.1
		c-0.7,0.1,1.4,1.4,1.5,1.6c0.3,0.1,0.5,0,0.8,0.1c0.2,0.2,0.4,0.4,0.7,0.4c0.2,0,0.3,0.2,0.5,0.1c0.2-0.1,0-0.3,0.3-0.3
		c-0.4-0.6,0.6-0.6,0.3-0.8c-0.4-0.3,0.3-0.3,0.5-0.2c0.2,0,0.3-0.1,0.4-0.1c0.1,0.2,0.3,0.2,0.5,0.3c0.9,0.2,0.3,0,0.3-0.4
		c0,0,0,0,0.1,0c2.6,2.6,4.8,5.7,6.4,9l2.5-1.9c-6.1-12-18.6-20.2-33-20.2c-20.4,0-37,16.6-37,37c0,12.7,6.4,23.9,16.2,30.6
		c-3,1.5-6.2,2.5-9.5,2.6c-2.4,0-4.8-0.5-6.9-1.7c-2.6-1.5-4.1-4.1-4.2-7.1c-0.1-3,0.8-6.1,2-8.8c0.8-1.8,1.7-3.7,2.8-5.3
		c-0.1,0.2-0.2,0.3-0.4,0.5c-1.4,2-2.7,4.1-3.7,6.4c-1.2,2.7-2.1,5.6-1.9,8.6c0.2,2.9,1.7,5.5,4.1,7.2c2.4,1.8,5.4,2.7,8.4,2.8
		c4.4,0.2,8.7-1.1,12.8-2.9c5.2,2.8,11.1,4.3,17.3,4.3c9.5,0,18.2-3.6,24.7-9.5c-0.2-0.5-0.4-1-0.5-1.3
		C72.5,75.9,72.2,75.2,71.9,74.4z M59.4,33.3c0,0,0-0.1-0.1-0.1C59.4,33.1,59.4,33.2,59.4,33.3z M59.3,33.1c0,0,0-0.1,0-0.2
		C59.3,33,59.3,33,59.3,33.1z M59.2,32.7c0-0.1,0-0.1,0-0.2C59.2,32.6,59.2,32.7,59.2,32.7z M44.3,18.3
		C44.3,18.3,44.3,18.3,44.3,18.3C44.3,18.3,44.3,18.3,44.3,18.3c0.1,0,0.2,0,0.2,0C44.4,18.3,44.3,18.3,44.3,18.3z M47.4,17.7
		C47.4,17.7,47.4,17.7,47.4,17.7C47.4,17.7,47.4,17.7,47.4,17.7L47.4,17.7z M47.9,18.5c-0.1,0-0.3-0.1-0.4-0.1
		C47.6,18.4,47.8,18.4,47.9,18.5c0.1-0.1,0.1-0.1,0.2-0.1C48,18.4,47.9,18.4,47.9,18.5z M48.6,17.9c-0.1,0-0.2,0-0.3,0
		c0,0,0.1,0,0.1,0c-0.1,0-0.2,0-0.2,0c-0.1,0-0.1,0-0.2,0c0.2,0,0.3-0.1,0.3-0.1C48.4,17.8,48.5,17.8,48.6,17.9
		C48.7,17.9,48.6,17.9,48.6,17.9z"/>
	<path class="st0" d="M39.5,19.3C39.3,19.3,39.6,19.3,39.5,19.3L39.5,19.3z"/>
	<path class="st0" d="M45,18.8c0-0.1-1.1,0-1.3,0.1C43.8,18.9,45,18.9,45,18.8z"/>
	<path class="st0" d="M45,18.8C45,18.9,45,18.8,45,18.8L45,18.8z"/>
	<path class="st0" d="M42.2,21.9C42.2,21.9,42.2,21.9,42.2,21.9c-0.1,0-0.4,0-0.4,0.1c0.6,0.2,1.4,0.1,2,0c-0.2-0.2-0.6-0.2-0.8-0.3
		C42.6,21.6,42.5,21.8,42.2,21.9z"/>
	<path class="st0" d="M41.2,19c-0.2,0-0.5,0.1-0.6,0.1C40.7,19.2,41.1,19.1,41.2,19C41.2,19,41.2,19,41.2,19z"/>
	<path class="st0" d="M39.9,19.5C40.3,19.4,39.8,19.4,39.9,19.5L39.9,19.5z"/>
	<path class="st0" d="M48.3,19.8C47.9,19.8,48.7,19.8,48.3,19.8L48.3,19.8z"/>
	<path class="st0" d="M41.4,19.8c0,0.1,0.6,0,0.6,0c0.4,0,0.7,0,0.8-0.5c0-0.2-1.5-0.1-1.7,0c0.1,0.1,0.4,0,0.6,0
		c-0.1,0.3-1,0-0.9,0.2c0.1,0,0.2,0.1,0.3,0.1c-0.4,0.1-0.8-0.2-1.2-0.1c-0.1,0-0.1,0-0.2,0c0.1,0,0,0.1,0,0.2
		c0.8,0.2,1.5-0.1,2.3-0.1C41.8,19.6,41.5,19.6,41.4,19.8z"/>
	<path class="st0" d="M39.6,20c0.1,0,0.2,0,0.3-0.1c0-0.2-0.5,0.1-0.6,0.1C39.4,20.1,39.5,20,39.6,20C39.5,20,39.6,20,39.6,20z"/>
	<path class="st0" d="M43.4,20.6c-0.1,0-0.3,0-0.4,0c0,0,0-0.1,0.1-0.1c0-0.1-0.6,0-0.6,0c0.1-0.1,0.5-0.1,0.6-0.3
		c0-0.1-1.9,0-2,0.2c0,0.1,0.5,0,0.5,0c0,0.3-0.6,0.2-0.8,0.2c-0.3,0-0.3,0.1,0,0.2c0.3,0.1,0.7,0,1,0.1c0.4,0.1,1.3,0.3,1.6-0.2
		C43.4,20.8,43.4,20.8,43.4,20.6z"/>
	<path class="st0" d="M42.5,18.3C42.5,18.1,42.5,18.5,42.5,18.3L42.5,18.3z"/>
	<path class="st0" d="M44.9,19.6C44.9,19.6,44.9,19.6,44.9,19.6c0-0.3-1.4-0.2-1.5,0.1C43.7,19.7,44.8,20,44.9,19.6
		C44.9,19.6,44.9,19.7,44.9,19.6z"/>
	<path class="st0" d="M41.2,18c-0.3,0.2-0.5-0.1-0.7-0.1c-0.3,0.2-0.5,0.2-0.9,0.1c-0.1,0-0.9,0.3-0.9,0.5c0.1,0,0.1,0,0.2,0
		c0,0,0,0,0.1,0c0,0.1-0.1,0.1-0.1,0.2c0.2,0.1,0.5-0.1,0.7-0.2c-0.1,0-0.1,0.1,0,0.2c-0.2,0.1-0.4,0.2-0.6,0.3
		c0.2,0.1,0.4,0.1,0.6,0.1c0.4,0.1,1-0.1,1.4-0.1c0.2,0,1.3,0.2,1.3,0c0,0-0.1-0.1-0.1-0.1c0.1,0,0.1-0.1,0.1-0.2
		c0-0.3-0.5-0.3-0.5-0.3C42.2,18.1,41.3,17.9,41.2,18z"/>
	<path class="st0" d="M50.2,19.8c0.2,0.1,1.7,0.2,1.7-0.1c-0.1,0-0.2,0-0.2,0c0.1-0.1,0.1-0.1,0.2-0.1c-0.4-0.3-5.1-0.2-5.1-0.2
		c0,0,0.1,0,0.1,0c-0.2-0.1-0.6,0.1-0.8-0.1c0.2,0,0.5,0,0.7,0c-0.4-0.2-1-0.1-1.5-0.1c-0.3,0-2-0.4-2,0c0,0.1,0.9,0.1,1,0.1
		c0.2,0,0.4,0,0.5-0.1c0.2,0.1,0.4,0.2,0.7,0.3c-0.3,0-0.2,0.2,0,0.2c0.3,0.1,0.7,0.1,1,0.1c0.2,0,0.5-0.2,0.7-0.1
		c-0.1,0.2,0.8,0.1,0.9,0.1c0.4,0,0.8,0,1.1,0C49.6,19.8,50,19.7,50.2,19.8z"/>
	<path class="st0" d="M49.7,23c0,0.1,0.1,0.1,0.4,0.1C50,23,49.9,22.9,49.7,23z"/>
	<path class="st0" d="M52.4,24.5C52.3,24.4,52.3,24.4,52.4,24.5c-0.3-0.1-0.6-0.2-0.6,0C52,24.7,52.1,24.6,52.4,24.5z"/>
	<path class="st0" d="M50,24.3c0,0,0,0.1,0,0.1c0.3,0,0.7-0.1,0.9-0.3C50.6,24.1,50.4,24.1,50,24.3C50.1,24.3,50,24.3,50,24.3z"/>
	<path class="st0" d="M52.7,21.8c-0.2,0-0.6,0.1-0.4,0.1C52.5,22,52.6,21.9,52.7,21.8z"/>
	<path class="st0" d="M39.7,21.6c-0.2,0-0.8-0.6-0.6-0.7c0.9-0.5-0.7-0.3-0.7-0.1c-0.3,0-1.1,0.2-0.5,0.7c-0.1,0.1-0.4,0.2-0.4-0.1
		c0-0.3-0.7-0.1-0.9-0.1c0,0,0.1,0.1,0.1,0.1c-0.4,0.1-0.5,0-0.8,0c-0.3,0-0.6,0.1-0.9,0.2c-0.2-0.2-0.5-0.1-0.8-0.1
		c0.1,0,0.1-0.1,0.1-0.1c0-0.3-3.4,0.5-3.7,0.6c0,0.2,0.3,0.1,0,0.3c-0.2,0.2-0.6,0.3-0.7,0.6c0,0,0.5-0.1,0.6-0.1c0,0,0.1,0,0,0
		c0.2,0.3,1.4-0.2,1.5-0.4c0.1-0.4,0.9-0.6,1.3-0.7c0.1-0.1,0.4-0.1,0.6-0.2c-0.1,0-0.1,0.1-0.2,0.1c-0.3,0.1-1,0.3-1.1,0.7
		c0,0.1,0.9-0.1,1-0.1c-0.2,0.1-1.1,0.4-0.3,0.3c0.7-0.1,1.3-0.3,2-0.3c-0.7,0.2-1.4,0.2-2.1,0.5c0.3,0.2,1.5-0.2,1.6,0
		c0.2,0.3,1.6-0.1,1.9-0.2c0.5-0.2,1.3-0.5,1.9-0.4c0.6,0.1,1.5,0.2,2-0.1c0,0-0.4-0.1-0.4-0.1c0.1-0.1,0.1-0.1,0.2-0.1
		c0.2,0,0.5,0,0.7-0.1C40.6,21.6,40.1,21.7,39.7,21.6z"/>
	<path class="st0" d="M51.9,23.8C51.8,23.8,51.8,23.8,51.9,23.8c-0.2-0.1-0.4-0.1-0.6-0.1c-0.3,0-0.3-0.2-0.5-0.3
		c-0.3-0.1-1.1-0.4-1.3-0.2c-0.3-0.3-0.8-0.3-0.9,0.2c-0.1,0.3-0.4,0.3-0.5,0.5c0.3,0,0.5,0,0.8,0C48.8,24.1,50,24,50,23.7
		C50.7,23.8,51.2,24,51.9,23.8z"/>
	<path class="st0" d="M53.5,22.3c-0.5,0.2,1,0.5,1,0.2c0,0,0,0,0,0c0-0.2,0-0.1,0,0C54.4,22.2,53.6,22.3,53.5,22.3z"/>
	<path class="st0" d="M55.3,22.6c-0.1,0-0.5-0.3-0.6-0.1C54.7,22.6,55.2,22.6,55.3,22.6z"/>
	<path class="st0" d="M51.8,29.4C51.6,29.4,51.8,29.4,51.8,29.4L51.8,29.4z"/>
	<path class="st0" d="M51.4,28.7c0,0.2,0.2,0.3,0.4,0.2C51.9,29,51.5,28.7,51.4,28.7z"/>
	<path class="st0" d="M52.8,24c0.2,0.1,0.2,0.1,0.4,0C53,24,53,23.9,52.8,24z"/>
	<path class="st0" d="M53.9,81.1c-0.2,0.1,0.2,0.5,0.1,0.7c0,0.2,0.1,0.2,0.2,0.2c0.4,0.1-0.2,0.2,0.1,0.3c-0.1,0.1-0.3,0-0.3,0.1
		c0,0.2,1.6,0.3,1.7,0.2c0.1,0,0.2,0,0.3,0.1c0.1,0.1,0.5,0,0.7,0c0.4-0.1,1-0.2,1.4-0.4c-0.2,0-1,0.1-1.2-0.1
		c-0.1-0.2-0.6-0.4-0.4-0.6c0.2-0.3,0.6-0.2,0.8-0.4c0.2-0.1,0.2-0.3,0.4-0.4c0.2-0.1,0.3-0.1,0.5-0.2c0.4-0.4-1.1-0.2-0.4-0.7
		c0.3-0.2,0.5-0.1,0.8-0.1c0.3,0,0.5-0.5,0.8-0.7c-0.1,0-0.1,0-0.1-0.1c0.2,0,0.3,0.1,0.5,0c0.3-0.2-0.2-0.1-0.3-0.1
		c-0.2,0-0.4-0.5-0.1-0.5c0.3-0.1,0.6,0.1,0.9,0c0.3-0.1,0.3-0.3,0.4-0.5c0.1-0.3,0.7-0.3,0.9-0.3c0.5-0.1,1.6-0.4,1.8-1
		c0.1-0.2-0.6-0.9-0.5-0.9c0.5-0.3,1.3,0.2,1.8-0.2c0.6-0.3,1-1.1,1.5-1.6c0.4-0.4,0.7-0.6,1-1c0.3-0.4,0.5-0.4,0.6-0.9
		c0-0.2,0-0.6,0.1-0.6c0.3-0.1,0.6-0.4,0.8-0.6c0.3-0.2,0.6-0.3,0.9-0.5c0.2-0.2,0.4-0.3,0.6-0.3c-0.9-2.4-2.1-5.4-3.4-8.9L62.7,64
		l-1.4,8.4l-5.1,3.9c0,0.1-0.1,0.1-0.1,0.2c-0.3,0.4-0.8,0.7-0.9,1.2c0,0.2,0,0.3,0.1,0.4c0.1,0.1-0.2,0.3-0.2,0.3
		C55,78.6,54.9,78.8,55,79c0,0.1,0.4-0.1,0.5-0.1c0,0.3-0.8,1.6-1.1,1.4c-0.2-0.2-0.6,0-0.3,0.3C54.3,80.9,53.9,81,53.9,81.1z"/>
	<path class="st1" d="M93.8,32.1c-0.9-1.2-5-1-6.6,0.2L73.1,43l-20.5-8.6c0,0-3.7-1.6-5.2-0.6c-1.5,1-1.4,1-1.8,1.3
		c-0.4,0.3-1.4,1.1,1.6,3.3c2.2,1.6,12.9,9.5,16.2,12l-7.9,6l-8.4-0.9L42.4,59l9.1,5.2l2.6,10.2l4.7-3.6l1.4-8.4l7.9-6
		c1.5,3.9,6.2,16.3,7.2,18.9c1.3,3.5,2.3,2.7,2.7,2.4c0.4-0.3,0.4-0.2,1.7-1.4c1.4-1.1,0.9-5.2,0.9-5.2l-2.8-22.1l14.1-10.7
		C93.4,37.2,94.7,33.2,93.8,32.1z"/>
</g>
</svg>
