<?xml version="1.0" encoding="utf-8"?>
<!-- Generator: Adobe Illustrator 18.1.1, SVG Export Plug-In . SVG Version: 6.00 Build 0)  -->
<svg version="1.1" id="Layer_1" xmlns="http://www.w3.org/2000/svg" xmlns:xlink="http://www.w3.org/1999/xlink" x="0px" y="0px"
	 viewBox="0 0 100 100" style="enable-background:new 0 0 100 100;" xml:space="preserve">
<style type="text/css">
	.st0{fill:#545758;}
	.st1{fill:#FAC312;}
</style>
<g>
	<path class="st1" d="M60.5,80.9c0,3.4-2.7,6.1-6.1,6.1c-3.4,0-6.1-2.7-6.1-6.1H60.5z"/>
	<path class="st1" d="M86.2,80.9c0,3.4-2.7,6.1-6.1,6.1c-3.4,0-6.1-2.7-6.1-6.1H86.2z"/>
	<g>
		<circle class="st0" cx="79.8" cy="20.9" r="7.9"/>
		<path class="st0" d="M76.9,31.2l-3.5,3.5v-1c0-1.5,1.2-2.7,2.7-2.7h1C77,31.1,76.9,31.2,76.9,31.2z"/>
		<path class="st0" d="M86.2,33.7v11.8c0,1.5-1.2,2.7-2.7,2.7h-7.4c-1.4,0-2.5-1-2.7-2.4h2.4l7.1-7.1c0,0,0.7-0.7,0.7-0.7
			c1.9-1.9,1.9-4.9,0-6.8c-0.1-0.1-0.2-0.1-0.2-0.2h0C84.9,31,86.2,32.2,86.2,33.7z"/>
		<path class="st0" d="M82,36.4c0,0-5.8,5.7-5.8,5.7l-1.4,1.3H63.5c-1.4,0-2.5-1.1-2.5-2.5c0-1.4,1.1-2.5,2.5-2.5c0,0,9.4,0,9.4,0
			l0.5-0.5l5.1-5.1c1-1,2.5-1,3.5,0C83,33.9,83,35.4,82,36.4z"/>
	</g>
	<path class="st0" d="M86.2,51.6v26.2H48.4V51.6h6.3v-5.9c0-1.7,1.4-3.2,3.2-3.2c0.4,0,0.8,0.1,1.2,0.2c1,0.4,1.7,1.2,1.9,2.2
		c0,0.2,0.1,0.4,0.1,0.7v5.9H86.2z"/>
	<polygon class="st0" points="44.4,14 44.4,77.8 37.7,77.8 37.7,42.6 12.3,42.6 12.3,35.6 37.7,35.6 37.7,14 	"/>
	<polygon class="st1" points="32.6,14 32.6,30.5 12.3,30.5 12.3,14 20.5,14 20.5,21.2 24.4,21.2 24.4,14 	"/>
</g>
</svg>
