<?xml version="1.0" encoding="utf-8"?>
<!-- Generator: Adobe Illustrator 18.1.1, SVG Export Plug-In . SVG Version: 6.00 Build 0)  -->
<svg version="1.1" id="Layer_1" xmlns="http://www.w3.org/2000/svg" xmlns:xlink="http://www.w3.org/1999/xlink" x="0px" y="0px"
	 viewBox="0 0 100 100" style="enable-background:new 0 0 100 100;" xml:space="preserve">
<style type="text/css">
	.st0{fill:#545757;}
	.st1{fill:#FAC312;}
	.st2{fill:none;}
</style>
<g>
	<polygon class="st2" points="28.4,68.1 20.6,76.2 47.1,76.2 39.4,68.1 	"/>
	<path class="st2" d="M48.6,33.6h-10c-1.6,0-2.9,1.3-2.9,2.9v10c0,1.6,1.3,2.9,2.9,2.9h10c1.6,0,2.9-1.3,2.9-2.9v-10
		C51.5,34.9,50.2,33.6,48.6,33.6z"/>
	<path class="st2" d="M31.4,46.5v-10c0-1.6-1.3-2.9-2.9-2.9h-4.9c-2.5,0-4,1.5-4.8,3.4c0,0-3.2,6.2-4.2,8.6
		c-1.1,2.6,0.2,3.9,2.3,3.9c2.1,0,11.8,0,11.8,0C30.2,49.3,31.4,48.1,31.4,46.5z"/>
	<path class="st2" d="M89.2,32c-1.8,0-3.4,1-4.2,2.5c1.1,0,2,0,2.6,0c4,0,3.7,3,2,4c-0.6,0.3-1.9,0.9-3.7,1.7
		c0.9,0.9,2.1,1.4,3.4,1.4c2.6,0,4.8-2.2,4.8-4.8C94,34.1,91.8,32,89.2,32z"/>
	<path class="st1" d="M45.7,20h10.1c0.6,0.9,1.7,1.5,2.9,1.5h20.5c1.9,0,3.5-1.6,3.5-3.5c0-1.9-1.6-3.5-3.5-3.5H58.6
		c-1.2,0-2.2,0.6-2.9,1.5H31.3c-0.6-0.9-1.7-1.5-2.9-1.5H8c-1.9,0-3.5,1.6-3.5,3.5C4.5,20,6,21.5,8,21.5h20.5c1.2,0,2.2-0.6,2.9-1.5
		h10.4v6h4V20z"/>
	<g>
		<polygon class="st2" points="20.6,76.2 47.1,76.2 47,76.2 20.6,76.2 		"/>
		<polygon class="st2" points="39.4,68.1 28.4,68.1 21.1,75.7 46.6,75.7 		"/>
		<path class="st2" d="M28.5,33.6h-4.9c-2.5,0-4,1.5-4.8,3.4c0,0-3.2,6.2-4.2,8.6c-1.1,2.6,0.2,3.9,2.3,3.9c2.1,0,11.8,0,11.8,0
			c1.5-0.2,2.6-1.4,2.6-2.9v-10C31.4,34.9,30.1,33.6,28.5,33.6z"/>
		<path class="st2" d="M48.6,33.6h-10c-1.6,0-2.9,1.3-2.9,2.9v10c0,1.6,1.3,2.9,2.9,2.9h10c1.6,0,2.9-1.3,2.9-2.9v-10
			C51.5,34.9,50.2,33.6,48.6,33.6z"/>
		<path class="st2" d="M89.2,32c-1.8,0-3.4,1-4.2,2.5c1.1,0,2,0,2.6,0c4,0,3.7,3,2,4c-0.6,0.3-1.9,0.9-3.7,1.7
			c0.9,0.9,2.1,1.4,3.4,1.4c2.6,0,4.8-2.2,4.8-4.8C94,34.1,91.8,32,89.2,32z"/>
		<path class="st0" d="M89.2,26c-5.2,0-9.5,3.6-10.5,8.5c-4.7,0-10.2,0-14.9,0c-0.3-4.6-4.1-8.2-8.8-8.2h-9.3v0h-4v0H27.3
			c-10.7,0-12.7,4.5-14.9,9L3,54.6c-4.8,8.8,1.5,13.5,6.3,13.5h13.6l-7.3,7.6h5.5l7.3-7.6h11l7.1,7.6h5.5l-7.1-7.6h10
			c4.9,0,8.8-3.9,8.8-8.8v-9.4c3.8-1.6,10.7-4.7,16.4-7.2c1.9,2.9,5.3,4.9,9,4.9c6,0,10.8-4.8,10.8-10.8C100,30.8,95.2,26,89.2,26z
			 M31.4,46.5c0,1.5-1.2,2.8-2.6,2.9c0,0-9.8,0-11.8,0c-2.1,0-3.4-1.3-2.3-3.9c1-2.3,4.2-8.6,4.2-8.6c0.8-1.9,2.3-3.4,4.8-3.4h4.9
			c1.6,0,2.9,1.3,2.9,2.9V46.5z M51.5,46.5c0,1.6-1.3,2.9-2.9,2.9h-10c-1.6,0-2.9-1.3-2.9-2.9v-10c0-1.6,1.3-2.9,2.9-2.9h10
			c1.6,0,2.9,1.3,2.9,2.9V46.5z M89.2,41.6c-1.3,0-2.5-0.5-3.4-1.4c1.8-0.8,3.1-1.4,3.7-1.7c1.8-0.9,2.1-4-2-4c-0.6,0-1.5,0-2.6,0
			c0.8-1.5,2.4-2.5,4.2-2.5c2.6,0,4.8,2.2,4.8,4.8C94,39.4,91.8,41.6,89.2,41.6z"/>
		<path class="st1" d="M47.1,76.2H20.6l0,0h-5.5l0,0H5.6c-3.1,0-5.6,2.1-5.6,4.6c0,2.6,2.5,4.6,5.6,4.6h59.2c3.1,0,5.6-2.1,5.6-4.6
			c0-2.6-2.5-4.6-5.6-4.6H52.5l0,0L47.1,76.2L47.1,76.2z"/>
	</g>
</g>
</svg>
