<?xml version="1.0" encoding="utf-8"?>
<!-- Generator: Adobe Illustrator 18.1.1, SVG Export Plug-In . SVG Version: 6.00 Build 0)  -->
<svg version="1.1" id="Layer_1" xmlns="http://www.w3.org/2000/svg" xmlns:xlink="http://www.w3.org/1999/xlink" x="0px" y="0px"
	 viewBox="0 0 100 100" style="enable-background:new 0 0 100 100;" xml:space="preserve">
<style type="text/css">
	.st0{fill:#545758;}
	.st1{fill:#FAC312;}
</style>
<g>
	<rect x="48.5" y="34.9" class="st1" width="32.7" height="17.3"/>
	<rect x="48.5" y="13" class="st1" width="32.7" height="17.3"/>
	<path class="st0" d="M35.2,25.3c2.3,0.4,4.1,2.4,4.1,4.9v29.4c0.8-0.1,1.5-0.2,2.3-0.2s1.6,0.1,2.3,0.2V30.2c0-5-3.8-9.1-8.7-9.6
		v-1.9H22.5c-2.1,0-3.7,1.7-3.7,3.7v0.8c0,2.1,1.7,3.7,3.7,3.7h12.7V25.3z"/>
	<path class="st1" d="M48.5,61c5,2.4,8.6,7.3,9.1,13.1h23.6V56.9H48.5V61z"/>
	<path class="st0" d="M55.6,83.4h25.5v-4.6H57.4C57,80.4,56.4,82,55.6,83.4z"/>
	<path class="st0" d="M41.6,64.1c-6.3,0-11.5,5.1-11.5,11.5S35.3,87,41.6,87C47.9,87,53,81.9,53,75.5S47.9,64.1,41.6,64.1z
		 M41.6,82.4c-3.8,0-6.8-3.1-6.8-6.8c0-3.8,3.1-6.8,6.8-6.8s6.8,3.1,6.8,6.8C48.4,79.3,45.3,82.4,41.6,82.4z"/>
</g>
</svg>
