<?xml version="1.0" encoding="utf-8"?>
<!-- Generator: Adobe Illustrator 18.1.1, SVG Export Plug-In . SVG Version: 6.00 Build 0)  -->
<svg version="1.1" id="Layer_1" xmlns="http://www.w3.org/2000/svg" xmlns:xlink="http://www.w3.org/1999/xlink" x="0px" y="0px"
	 viewBox="0 0 100 100" style="enable-background:new 0 0 100 100;" xml:space="preserve">
<style type="text/css">
	.st0{fill:#545758;}
	.st1{fill:#FAC312;}
</style>
<g>
	<path class="st0" d="M43.6,75.2c0.1,0.7,0.2,1.4,0.2,2.1s-0.1,1.4-0.2,2.1h1.7h31.6v-4.2H43.6z"/>
	<path class="st0" d="M32.8,67.5c-5.4,0-9.7,4.4-9.7,9.7c0,5.4,4.4,9.7,9.7,9.7c5.4,0,9.7-4.4,9.7-9.7
		C42.5,71.9,38.2,67.5,32.8,67.5z M32.8,83c-3.2,0-5.8-2.6-5.8-5.8c0-3.2,2.6-5.8,5.8-5.8c3.2,0,5.8,2.6,5.8,5.8
		C38.6,80.5,36,83,32.8,83z"/>
	<circle class="st1" cx="32.8" cy="77.3" r="4.7"/>
	<path class="st0" d="M34.2,22.4c-0.3,0.5-1,0.6-1.5,0.3l-7.7-5c-0.5-0.3-0.6-1-0.3-1.5l1.8-2.7c0.3-0.5,1-0.6,1.5-0.3l7.7,5
		c0.5,0.3,0.6,1,0.3,1.5L34.2,22.4z"/>
	<path class="st0" d="M39.1,21.9l-2.6-1.7l-1.7,2.6l0.5,0.3v14l-9.1,8.8v14.9v2.4v5.2c0.9-0.7,1.9-1.2,3.1-1.6v-3.6h6.1v3.4
		c1.5,0.4,3,1.1,4.2,2V22.2L39.1,21.9z M35.4,60.9h-6.1V47.2l6.1-5.8V60.9z"/>
	<rect x="55.1" y="39.6" class="st0" width="10.2" height="12.4"/>
	<polygon class="st1" points="71.8,80.3 69.1,80.3 70.1,87 71.8,87 73.6,87 74.5,80.3 	"/>
	<g>
		<path class="st1" d="M53.6,39.6h-10v33.6h25.3c-3.4-6.2-6.6-12.9-9.7-19.8h-5.4V40C53.7,39.8,53.6,39.7,53.6,39.6L53.6,39.6z"/>
		<path class="st1" d="M53.7,39.6h-0.1c0,0.1,0.1,0.2,0.1,0.3V39.6L53.7,39.6z M76.9,39.6H66.7v13.8h-7.6c3,6.9,6.3,13.6,9.7,19.8
			h8.1V39.6L76.9,39.6z"/>
	</g>
</g>
</svg>
