<?xml version="1.0" encoding="utf-8"?>
<!-- Generator: Adobe Illustrator 18.1.1, SVG Export Plug-In . SVG Version: 6.00 Build 0)  -->
<svg version="1.1" id="Layer_1" xmlns="http://www.w3.org/2000/svg" xmlns:xlink="http://www.w3.org/1999/xlink" x="0px" y="0px"
	 viewBox="0 0 100 100" style="enable-background:new 0 0 100 100;" xml:space="preserve">
<style type="text/css">
	.st0{fill:#545758;}
	.st1{fill:#FAC312;}
</style>
<g>
	<g>
		<polygon class="st1" points="100,27.5 91.2,27.5 91.2,16.3 75.3,37.9 91.2,59.5 91.2,48.3 100,48.3 		"/>
		<circle class="st0" cx="26.1" cy="79.9" r="7.1"/>
		<path class="st0" d="M76.9,64H21.3l0-40.3c0-2.2-1.2-4.1-3.2-5.1l-9.9-4.9c-2.8-1.4-6.2-0.3-7.6,2.6c-1.4,2.8-0.3,6.2,2.6,7.6
			l6.8,3.4l0,38.7c0,0,0,0.1,0,0.1v7.5c0,1.1,0.9,2.1,2.1,2.1h4.5c1.6-3.7,5.4-6.3,9.7-6.3c4.3,0,8,2.6,9.7,6.3h18.6
			c1.7-3.7,5.4-6.3,9.7-6.3c4.3,0,8,2.6,9.7,6.3h3.2c1.1,0,2.1-0.9,2.1-2.1V66C79,64.9,78.1,64,76.9,64z"/>
		<circle class="st0" cx="64" cy="79.9" r="7.1"/>
		<path class="st1" d="M31.1,60.4h33.3c3.2,0,5.9-2.6,5.9-5.9V21.2c0-3.2-2.6-5.9-5.9-5.9H31.1c-3.2,0-5.9,2.6-5.9,5.9v33.3
			C25.2,57.8,27.8,60.4,31.1,60.4z M52.4,27c0-2.3,1.9-4.1,4.1-4.1c2.3,0,4.1,1.9,4.1,4.1v21.8c0,2.3-1.9,4.1-4.1,4.1
			c-2.3,0-4.1-1.9-4.1-4.1V27z M34.8,27c0-2.3,1.9-4.1,4.1-4.1c2.3,0,4.1,1.9,4.1,4.1v21.8c0,2.3-1.9,4.1-4.1,4.1
			c-2.3,0-4.1-1.9-4.1-4.1V27z"/>
	</g>
</g>
</svg>
