<?xml version="1.0" encoding="utf-8"?>
<!-- Generator: Adobe Illustrator 18.1.1, SVG Export Plug-In . SVG Version: 6.00 Build 0)  -->
<svg version="1.1" id="Layer_1" xmlns="http://www.w3.org/2000/svg" xmlns:xlink="http://www.w3.org/1999/xlink" x="0px" y="0px"
	 viewBox="0 0 100 100" style="enable-background:new 0 0 100 100;" xml:space="preserve">
<style type="text/css">
	.st0{fill:#545758;}
	.st1{fill:#FAC312;}
</style>
<g>
	<g>
		<path class="st0" d="M54.6,45.7l2.4,1L51,69.3c-0.7-0.3-1.4-0.6-2.2-0.8c-0.8-0.2-1.5-0.3-2.3-0.4l6.3-23.5
			C53.4,45,54,45.4,54.6,45.7z"/>
		<path class="st0" d="M66.3,38.4l-5.1-2l1.6-0.9c1.4-0.8,3.1-0.6,3.7,0.5C67,36.7,66.8,37.6,66.3,38.4z"/>
		<path class="st0" d="M54.6,45.7l2.4,1L51,69.3c-0.7-0.3-1.4-0.6-2.2-0.8c-0.8-0.2-1.5-0.3-2.3-0.4l6.3-23.5
			C53.4,45,54,45.4,54.6,45.7z"/>
		<path class="st0" d="M66.3,38.4l-5.1-2l1.6-0.9c1.4-0.8,3.1-0.6,3.7,0.5C67,36.7,66.8,37.6,66.3,38.4z"/>
		<path class="st0" d="M12.3,67.8L36,74.2c-0.3,0.7-0.6,1.4-0.8,2.2c-0.2,0.8-0.3,1.5-0.4,2.3l-23.7-6.3L12.3,67.8z"/>
		<g>
			<path class="st1" d="M46,48.7l-5.6,20.8c-0.8,0.4-1.5,1-2.1,1.6l-25-6.7l6.1-22.8l10.7,2.9l-2.5,9.4l5.2,1.4l2.5-9.4L46,48.7z"/>
		</g>
		<path class="st0" d="M53.4,81.2c-1.1,4.1-5.4,6.6-9.5,5.5c-3.4-0.9-5.6-3.9-5.7-7.2c0-0.8,0.1-1.5,0.3-2.3
			c0.2-0.8,0.5-1.5,0.9-2.1c0.9-1.5,2.3-2.6,3.9-3.1c0.7-0.3,1.5-0.4,2.4-0.5c0.8,0,1.5,0.1,2.3,0.3c0.8,0.2,1.5,0.5,2.1,0.9
			c0.7,0.4,1.3,1,1.8,1.6C53.5,76.1,54.1,78.7,53.4,81.2z"/>
	</g>
	<g>
		<circle class="st0" cx="78.6" cy="23.3" r="10.3"/>
		<path class="st1" d="M78.4,35.7c-0.2,0.1-8.1,3.4-8.1,3.4c0.1-1.9,1.6-3.4,3.5-3.4H78.4z"/>
		<path class="st1" d="M86.9,39.2v16.7c0,1.9-1.6,3.5-3.5,3.5h-9.6c-1.9,0-3.5-1.6-3.5-3.5v-4.8l11-4.6c0,0,0.9-0.4,0.9-0.4
			c2.8-1.2,4.1-4.5,2.9-7.3c-0.6-1.4-1.7-2.4-3-3c-0.2-0.1-0.3-0.1-0.5-0.2h1.8C85.4,35.7,86.9,37.2,86.9,39.2z"/>
		<g>
			<path class="st0" d="M81.3,44c0,0-12,5.1-12,5.1l-13.8-5.5c-0.8-0.3-1.4-0.9-1.7-1.6c-0.4-0.8-0.4-1.7-0.1-2.6
				c0.7-1.7,2.5-2.5,4.2-1.8c0,0,11.3,4.5,11.3,4.5l9.6-4.1c1.6-0.7,3.5,0.1,4.2,1.7C83.7,41.4,82.9,43.3,81.3,44z"/>
		</g>
		<path class="st0" d="M73.6,61.8V79c0,2.8,2.2,5,5,5c2.8,0,5-2.2,5-5V61.8H73.6z"/>
	</g>
</g>
</svg>
