<?xml version="1.0" encoding="utf-8"?>
<!-- Generator: Adobe Illustrator 18.1.1, SVG Export Plug-In . SVG Version: 6.00 Build 0)  -->
<svg version="1.1" id="Layer_1" xmlns="http://www.w3.org/2000/svg" xmlns:xlink="http://www.w3.org/1999/xlink" x="0px" y="0px"
	 viewBox="0 0 100 100" style="enable-background:new 0 0 100 100;" xml:space="preserve">
<style type="text/css">
	.st0{fill:#545758;}
	.st1{fill:#FAC312;}
</style>
<g>
	<path class="st0" d="M23.6,67.9c-2-0.2-1.4-0.2-0.8-0.1c-5.9-1.4-6.2-11.4-2.1-15.2c0.4-0.3,0.8-0.6,1.2-0.8c0,0.4-0.1,0.9-0.1,1.3
		C21.5,58.1,21.9,63.1,23.6,67.9z"/>
	<path class="st0" d="M82,59.6c0,3.4-1.7,7.9-5.6,8.3c1.7-4.8,2.2-9.8,1.8-14.9c0-0.4-0.1-0.8-0.1-1.3c0.4,0.2,0.8,0.5,1.2,0.8
		C81.2,54.3,82,57.1,82,59.6z"/>
	<path class="st0" d="M75.1,57.6c0,16.2-11.2,29.4-25,29.4c-13.8,0-25-13.2-25-29.4c0-0.9,0-1.8,0.1-2.6c5.3,1.1,14.7,1.8,24.9,1.8
		c10.3,0,19.6-0.7,24.9-1.8C75.1,55.8,75.1,56.7,75.1,57.6z"/>
	<path class="st0" d="M55.6,13.6v29.5C53.8,43,52,43,50.1,43c-1.9,0-3.7,0-5.5,0.1V13.6c1.8-0.4,3.6-0.6,5.5-0.6
		C52,13,53.8,13.2,55.6,13.6z"/>
	<path class="st1" d="M41.5,15.7v27.5c-6.9,0.3-12.8,0.9-16.6,1.7c-0.6,0.1-1.4,0.3-2.2,0.6C23.9,31.5,31.4,19.9,41.5,15.7z"/>
	<path class="st1" d="M77.4,45.4c-0.8-0.3-1.6-0.4-2.2-0.6c-3.8-0.8-9.7-1.4-16.6-1.7V15.7C68.7,19.9,76.2,31.5,77.4,45.4z"/>
	<path class="st0" d="M78.5,49.8c0,0.6-1.1,1.1-3,1.6c-4.7,1.2-14.3,2-25.4,2s-20.7-0.8-25.4-2c-1.9-0.5-3-1-3-1.6
		c0-0.7,1.4-1.3,3.8-1.8c4.9-1.1,14.1-1.8,24.6-1.8c10.5,0,19.7,0.7,24.6,1.8C77.1,48.5,78.5,49.2,78.5,49.8z"/>
</g>
</svg>
