<?xml version="1.0" encoding="utf-8"?>
<!-- Generator: Adobe Illustrator 18.1.1, SVG Export Plug-In . SVG Version: 6.00 Build 0)  -->
<svg version="1.1" id="Layer_1" xmlns="http://www.w3.org/2000/svg" xmlns:xlink="http://www.w3.org/1999/xlink" x="0px" y="0px"
	 viewBox="0 0 100 100" style="enable-background:new 0 0 100 100;" xml:space="preserve">
<style type="text/css">
	.st0{fill:#545758;}
	.st1{fill:#FAC312;}
</style>
<g>
	<path class="st0" d="M52.1,87l5-1l-4.8-35H28.9c-0.1,1.3,0,4.8,0,5.9c-0.1,1.2-0.5,2.6-2,3.3c-5.1,2.3-9.4,4.5-9.5,4.5l2.4,4.8
		c0,0,4.3-2.2,9.3-4.5c3.7-1.7,5-5,5.1-7.9L48,57.1L52.1,87z"/>
	<path class="st1" d="M84.6,43H82c-1.7-0.5-4.3-1.4-7-2.7l-1.1-9.7C70.4,20.4,59,13,45.5,13c-16.3,0-29.5,10.9-29.5,24.3V43h-0.6
		c-1,0-1.8,0.8-1.8,1.8c0,1,0.8,1.8,1.8,1.8h69.1c1,0,1.8-0.8,1.8-1.8C86.3,43.8,85.5,43,84.6,43z M41.8,24c-8.2,0.6-15,4-18.4,8.4
		c-1.6,2-1.9,0.8-1-1.2c3-6.6,10.2-11.6,19.2-12.9c1.1-0.2,3.6-0.2,3.5,2.7C44.9,23.3,43.6,23.9,41.8,24z"/>
</g>
</svg>
