<?xml version="1.0" encoding="utf-8"?>
<!-- Generator: Adobe Illustrator 18.1.1, SVG Export Plug-In . SVG Version: 6.00 Build 0)  -->
<svg version="1.1" id="Layer_1" xmlns="http://www.w3.org/2000/svg" xmlns:xlink="http://www.w3.org/1999/xlink" x="0px" y="0px"
	 viewBox="0 0 100 100" style="enable-background:new 0 0 100 100;" xml:space="preserve">
<style type="text/css">
	.st0{fill:#545758;}
	.st1{fill:#FAC312;}
</style>
<g>
	<path class="st0" d="M67.5,20.3c0.6,1.5,1,3.1,1.1,4.8h19.2v15.8h-22v-4.1c-1.4,3-3.2,6.1-5,8.9H61v15.8H39V45.7h0.1
		c-1.8-2.8-3.6-5.9-5-8.9v4.1h-22V25.1h19.2c0.2-1.7,0.6-3.3,1.1-4.8H7.4V87h85.2V20.3H67.5z M34.2,82.2h-22V66.4h22V82.2z
		 M34.2,61.5h-22V45.7h22V61.5z M61,82.2H39V66.4H61V82.2z M87.8,82.2h-22V66.4h22V82.2z M87.8,61.5h-22V45.7h22V61.5z"/>
	<path class="st1" d="M63.9,26.9C63.9,19.2,57.7,13,50,13c-7.7,0-13.9,6.2-13.9,13.9s13.9,26,13.9,26S63.9,34.6,63.9,26.9z
		 M43.1,26.9c0-3.8,3.1-6.9,6.9-6.9s6.9,3.1,6.9,6.9s-3.1,6.9-6.9,6.9S43.1,30.7,43.1,26.9z"/>
</g>
</svg>
