<?xml version="1.0" encoding="utf-8"?>
<!-- Generator: Adobe Illustrator 18.1.1, SVG Export Plug-In . SVG Version: 6.00 Build 0)  -->
<svg version="1.1" id="Layer_1" xmlns="http://www.w3.org/2000/svg" xmlns:xlink="http://www.w3.org/1999/xlink" x="0px" y="0px"
	 viewBox="0 0 100 100" style="enable-background:new 0 0 100 100;" xml:space="preserve">
<style type="text/css">
	.st0{fill:#545758;}
	.st1{fill:#FAC312;}
</style>
<g>
	<path class="st0" d="M57.9,57.8h-2.6l0.2-6.2h3.9c0.8,0,1.5,0.1,1.9,0.2c0.4,0.1,0.8,0.3,1.1,0.5c0.3,0.2,0.5,0.5,0.7,0.9
		c0.1,0.4,0.2,0.7,0.2,1.1c0,0.4-0.1,0.8-0.2,1.2c-0.1,0.4-0.4,0.8-0.6,1.1s-0.7,0.6-1.1,0.7c-0.4,0.2-0.8,0.3-1.2,0.3
		C59.8,57.7,59,57.8,57.9,57.8z"/>
	<path class="st0" d="M63.3,62.8c0.2,0.4,0.3,0.8,0.3,1.3c0,0.4,0,0.7-0.1,1.1c-0.1,0.3-0.2,0.7-0.4,0.9c-0.2,0.3-0.4,0.5-0.6,0.7
		c-0.2,0.2-0.5,0.3-0.9,0.5c-0.4,0.2-0.8,0.3-1.2,0.3c-0.4,0.1-1,0.1-1.8,0.1h-3.7l0.2-6.7h4.1c0.9,0,1.6,0.1,2.1,0.2
		c0.5,0.1,0.9,0.3,1.2,0.6C62.9,62.1,63.1,62.4,63.3,62.8z"/>
	<path class="st1" d="M51.9,26.1v4.4h-3.8v-4.4c0.2-4.4,0.4-8.7,0.6-13.1h2.5C51.5,17.4,51.7,21.7,51.9,26.1z"/>
	<path class="st0" d="M71.9,13H56.6c1.1,4.4,2.2,8.7,3.3,13.1v11.3H40.1V26.1c1.1-4.4,2.2-8.7,3.3-13.1H28.1
		c-3.6,4.4-7.3,8.7-10.9,13.1c0,0,0,60.9,0,60.9h65.6V26.1h0C79.2,21.7,75.5,17.4,71.9,13z M47.3,70.9c-2.9,0-5.3,0-7.4,0l-5.2,0
		l-3.1,0c0.3-3.3,0.6-7,0.8-11c0.2-4,0.3-7.9,0.3-11.4c1.1,0,2.1,0,2.8,0c0.5,0,1.3,0,2.4,0c-0.1,2-0.3,4.2-0.4,6.7l-0.3,6.6
		c-0.1,1.9-0.2,3.8-0.2,5.6l2.8,0c2.7,0,4.4,0,5.2,0c0.8,0,1.7,0,2.5-0.1C47.5,68.4,47.4,69.6,47.3,70.9z M67.7,67.5
		c-0.5,0.9-1.1,1.6-1.9,2.1c-0.8,0.5-1.7,0.8-2.7,1c-1,0.2-3.1,0.3-6.3,0.3l-4,0l-3,0c0.2-2.3,0.4-4.2,0.4-5.7
		c0.1-1.5,0.2-4,0.3-7.6c0.1-3.6,0.2-6,0.2-7.4c0-0.4,0-1,0-1.8c1.4,0,2.5,0,3.4,0c0.9,0,2.1,0,3.4,0c1.3,0,2.5,0,3.3,0
		c1.2,0,2.2,0.1,2.8,0.2c0.6,0.1,1.2,0.3,1.7,0.5c0.5,0.2,0.9,0.5,1.2,0.8c0.3,0.3,0.6,0.7,0.8,1.1c0.2,0.4,0.4,0.9,0.5,1.3
		c0.1,0.5,0.2,1,0.2,1.5c0,0.6-0.1,1.2-0.2,1.8c-0.1,0.6-0.4,1.1-0.6,1.5c-0.3,0.4-0.6,0.8-1,1.1c-0.4,0.3-0.7,0.6-1.1,0.7
		c-0.3,0.2-0.8,0.4-1.4,0.6c0.5,0.1,0.9,0.2,1.2,0.3c0.3,0.1,0.6,0.3,1,0.5c0.4,0.2,0.7,0.5,1,0.8c0.3,0.3,0.6,0.7,0.7,1.1
		c0.2,0.4,0.3,0.8,0.4,1.2c0.1,0.5,0.2,0.9,0.2,1.4C68.4,65.7,68.1,66.7,67.7,67.5z"/>
</g>
</svg>
