<?xml version="1.0" encoding="utf-8"?>
<!-- Generator: Adobe Illustrator 18.1.1, SVG Export Plug-In . SVG Version: 6.00 Build 0)  -->
<svg version="1.1" id="Layer_1" xmlns="http://www.w3.org/2000/svg" xmlns:xlink="http://www.w3.org/1999/xlink" x="0px" y="0px"
	 viewBox="0 0 100 100" style="enable-background:new 0 0 100 100;" xml:space="preserve">
<style type="text/css">
	.st0{fill:#545758;}
	.st1{fill:#FAC312;}
</style>
<g>
	<path class="st1" d="M2.2,16.1L0,14.3h100l-2.2,1.8l0,0L61.5,46.9c-0.7,0.6-1.4,1.1-2.2,1.5c-2.5,1.5-5.4,2.3-8.4,2.4
		c-0.6,0-1.3,0-1.9,0c-3-0.1-5.9-0.9-8.4-2.4c-0.8-0.4-1.5-1-2.2-1.5L2.2,16.1L2.2,16.1z"/>
	<polygon class="st0" points="31,50 0,76.2 0,23.8 	"/>
	<path class="st1" d="M100,85.7H0l36.8-31.1c1.6,1,3.2,1.8,5,2.3c2.6,0.9,5.4,1.3,8.2,1.3c2.9,0,5.6-0.5,8.2-1.3
		c1.8-0.6,3.5-1.4,5-2.3L100,85.7z"/>
	<polygon class="st0" points="100,23.8 100,76.2 69,50 	"/>
</g>
</svg>
