<?xml version="1.0" encoding="utf-8"?>
<!-- Generator: Adobe Illustrator 18.1.1, SVG Export Plug-In . SVG Version: 6.00 Build 0)  -->
<svg version="1.1" id="Layer_1" xmlns="http://www.w3.org/2000/svg" xmlns:xlink="http://www.w3.org/1999/xlink" x="0px" y="0px"
	 viewBox="0 0 100 100" style="enable-background:new 0 0 100 100;" xml:space="preserve">
<style type="text/css">
	.st0{fill:#545758;}
	.st1{fill:#FAC312;}
</style>
<g>
	<polygon class="st0" points="29,57.9 39.6,57.9 39.8,58.3 39.9,58.3 49.6,77.6 20,77.6 	"/>
	<polygon class="st0" points="80,77.6 50.5,77.6 60.3,57.9 71,57.9 	"/>
	<path class="st1" d="M94,87H6c5.9-12.8,11.7-25.7,17.6-38.5h11.4l2.7,5.5l0.2,0.4H26.8L14.6,81.1h70.7L73.2,54.4H62l2.9-5.9h11.4
		C82.2,61.3,88.1,74.2,94,87z"/>
	<polygon class="st0" points="39.9,58.3 49.6,77.6 20,77.6 29,57.9 39.6,57.9 39.8,58.3 	"/>
	<polygon class="st0" points="80,77.6 50.5,77.6 60.3,57.9 71,57.9 	"/>
	<polygon class="st0" points="49.6,77.6 20,77.6 29,57.9 39.6,57.9 39.8,58.3 39.9,58.3 	"/>
	<polygon class="st0" points="80,77.6 50.5,77.6 60.3,57.9 71,57.9 	"/>
	<path class="st1" d="M50.1,13c-15.9,0-17.8,13.3-17.8,17.8c0,4.5,2.4,7.8,2.4,7.8l4.9,9.9l3,5.9l1.7,3.5l5.9,11.8l5.9-11.8l1.7-3.5
		l2.9-5.9l4.9-9.9c0,0,2.4-3.4,2.4-7.8C67.8,26.3,66,13,50.1,13z M50,41.3c-6.3,0-11.5-5.1-11.5-11.5c0-6.3,5.1-11.5,11.5-11.5
		c6.3,0,11.5,5.1,11.5,11.5C61.5,36.2,56.3,41.3,50,41.3z"/>
</g>
</svg>
