<?xml version="1.0" encoding="utf-8"?>
<!-- Generator: Adobe Illustrator 18.1.1, SVG Export Plug-In . SVG Version: 6.00 Build 0)  -->
<svg version="1.1" id="Layer_1" xmlns="http://www.w3.org/2000/svg" xmlns:xlink="http://www.w3.org/1999/xlink" x="0px" y="0px"
	 viewBox="0 0 100 100" style="enable-background:new 0 0 100 100;" xml:space="preserve">
<style type="text/css">
	.st0{fill:#545758;}
	.st1{fill:#FAC312;}
</style>
<g>
	<path class="st0" d="M80,22.2c-1.4-1.3-3.2-2-5.1-2s-3.7,0.7-5.1,2c-1.8,1.7-2.4,4-1.9,6.2c1.9,1.5,3.7,3.2,5.2,5
		c0.6,0.1,1.2,0.2,1.8,0.2c1.9,0,3.7-0.7,5.1-2C82.8,29.1,82.8,24.9,80,22.2z"/>
	<path class="st1" d="M78.7,43.5c0.9,2.7,1.3,5.6,1.3,8.6C80,69,65.3,82.8,47.3,82.8S14.6,69,14.6,52.1s14.7-30.7,32.7-30.7
		c3.5,0,6.9,0.5,10.1,1.5c0.5-2,1.4-3.9,2.7-5.7H25.6c-8.6,0-15.5,6.5-15.5,14.5v40.6c0,8,6.9,14.5,15.5,14.5h43.3
		c8.6,0,15.5-6.5,15.5-14.5V41.4C82.7,42.4,80.7,43.1,78.7,43.5z"/>
	<path class="st1" d="M85.5,17.1c-5.8-5.5-15.3-5.5-21.1,0c-4.4,4.1-5.5,10.2-3.2,15.3l-9.9,16.9l18-9.3c5.4,2.1,11.9,1.1,16.3-3
		C91.4,31.4,91.4,22.6,85.5,17.1z M67.7,33.8c-4-3.8-4-9.9,0-13.6c4-3.8,10.5-3.8,14.5,0s4,9.9,0,13.6
		C78.2,37.6,71.7,37.6,67.7,33.8z"/>
	<path class="st0" d="M80.5,32.2c-3.1,2.9-8,2.9-11.1,0s-3.1-7.5,0-10.4s8-2.9,11.1,0S83.6,29.3,80.5,32.2z"/>
	<path class="st0" d="M52.7,40.6c-1.5,0.1-3,0.2-4.5,0.2v7.4L52.7,40.6z"/>
	<path class="st0" d="M53.6,51.3h11.1c-0.1-1.8-0.3-3.6-0.8-5.3L53.6,51.3z"/>
	<g>
		<path class="st0" d="M48.3,63.5c4.5,0.1,8.9,0.5,13,1.4c2.1-3.8,3.3-7.8,3.4-11.9H48.3V63.5z"/>
		<path class="st0" d="M46.3,46.6v-5.7c-4.5-0.1-8.9-0.5-13-1.4c-2.1,3.8-3.3,7.8-3.4,11.9h15.2h1.2V46.6z"/>
		<path class="st0" d="M74.3,43.9c-1.6-0.1-3.2-0.3-4.8-0.8l-3.8,2c0.6,2,0.9,4.1,1,6.2h7.8c0,0.3,0,0.6,0,0.9c0,0.3,0,0.6,0,0.9
			h-7.8c-0.1,4.2-1.3,8.4-3.4,12.3c2.1,0.5,4.1,1.1,6.1,1.8c-0.3,0.4-0.6,0.8-1,1.2c-1.9-0.6-3.8-1.2-5.9-1.7
			c-2.2,3.7-5.4,7.2-9.3,10.4c-1.2,0.2-2.4,0.4-3.6,0.5c4.7-3.4,8.4-7.3,11-11.4c-3.9-0.8-8-1.2-12.2-1.3v12.7c-0.3,0-0.6,0-1,0
			c-0.3,0-0.6,0-1,0V65c-2.1,0-4.2,0.1-6.2,0.4c-2.1,0.2-4.1,0.5-6.1,0.9c1,1.6,2.1,3.1,3.4,4.6c2.1,2.4,4.6,4.7,7.5,6.8
			c-1.2-0.1-2.4-0.3-3.6-0.5c-1.8-1.5-3.4-3-4.9-4.6c-1.7-1.9-3.2-3.9-4.4-5.9c-2,0.5-4,1.1-5.9,1.7c-0.3-0.4-0.6-0.8-1-1.2
			c2-0.7,4-1.3,6.1-1.8c-2.1-3.9-3.3-8.1-3.4-12.3h-7.8c0-0.3,0-0.6,0-0.9c0-0.3,0-0.6,0-0.9h7.8c0.1-4.2,1.3-8.4,3.4-12.3
			c-2.1-0.5-4.1-1.1-6.1-1.8c0.3-0.4,0.6-0.8,1-1.2c1.9,0.6,3.8,1.2,5.9,1.7c2.2-3.7,5.4-7.2,9.3-10.4c1.2-0.2,2.4-0.4,3.6-0.5
			c-4.7,3.4-8.4,7.3-11,11.4c3.9,0.8,8,1.2,12.2,1.3V26.7c0.3,0,0.6,0,1,0c0.3,0,0.6,0,1,0v10.2v2.4c1.8,0,3.6-0.1,5.4-0.3l3.3-5.7
			c-2.1-2.3-4.5-4.6-7.4-6.6c0,0,0,0-0.1,0c0,0,0,0,0.1,0c1.2,0.1,2.4,0.3,3.6,0.5c1.6,1.3,3,2.6,4.3,4c-0.4-1.4-0.6-2.8-0.6-4.2
			c-2.3-0.8-4.7-1.3-7.2-1.5c-0.8-0.1-1.6-0.1-2.4-0.1c-15.7,0-28.4,11.9-28.4,26.6l0,0c0,10.4,6.4,19.4,15.6,23.8
			c3.8,1.8,8.2,2.9,12.8,2.9c15.7,0,28.4-11.9,28.4-26.6l0,0C75.7,49.3,75.2,46.5,74.3,43.9z"/>
		<path class="st0" d="M29.9,53c0.1,4.1,1.3,8.1,3.4,11.9c2.4-0.5,4.9-0.9,7.5-1.1c1.8-0.2,3.7-0.3,5.5-0.3V53h-1.7H29.9z"/>
	</g>
</g>
</svg>
