<?xml version="1.0" encoding="utf-8"?>
<!-- Generator: Adobe Illustrator 18.1.1, SVG Export Plug-In . SVG Version: 6.00 Build 0)  -->
<svg version="1.1" id="Layer_1" xmlns="http://www.w3.org/2000/svg" xmlns:xlink="http://www.w3.org/1999/xlink" x="0px" y="0px"
	 viewBox="0 0 100 100" style="enable-background:new 0 0 100 100;" xml:space="preserve">
<style type="text/css">
	.st0{fill:#545758;}
	.st1{fill:#FAC312;}
</style>
<g>
	<rect x="21.7" y="79" class="st0" width="56.7" height="8"/>
	<rect x="21.7" y="64.9" class="st0" width="56.7" height="8"/>
	<g>
		<path class="st1" d="M38.8,44.7V13h-6.5c-2,3.2-6.3,5.8-12.9,7.8v7.8c2.5-1,6.1-2.9,10.6-5.7v21.8H18.5v7h30.9v-7H38.8z"/>
		<path class="st1" d="M63.3,44.1c6.8-4,11.4-7.4,13.9-10c2.5-2.7,3.8-5.7,3.8-9.1c0-3.3-1.2-6.1-3.6-8.5C75,14.2,71.5,13,67,13
			c-8,0-12.9,4.2-14.7,12.6l7.9,1.8c0.6-4.9,2.8-7.3,6.5-7.3c1.6,0,2.9,0.5,3.8,1.4c0.9,1,1.4,2.2,1.4,3.6c0,2-1.2,4.2-3.6,6.6
			c-2.4,2.4-6.2,5.5-11.4,9.2c-2.1,1.5-3.7,2.6-4.6,3.3v7.4h28.6l0.6-7.6H63.3z"/>
	</g>
</g>
</svg>
