<?xml version="1.0" encoding="utf-8"?>
<!-- Generator: Adobe Illustrator 18.1.1, SVG Export Plug-In . SVG Version: 6.00 Build 0)  -->
<svg version="1.1" id="Layer_1" xmlns="http://www.w3.org/2000/svg" xmlns:xlink="http://www.w3.org/1999/xlink" x="0px" y="0px"
	 viewBox="0 0 100 100" style="enable-background:new 0 0 100 100;" xml:space="preserve">
<style type="text/css">
	.st0{fill:#545758;}
	.st1{fill:#FAC312;}
</style>
<g>
	<rect x="23.9" y="79.7" class="st0" width="52.1" height="7.3"/>
	<rect x="23.9" y="66.6" class="st0" width="52.1" height="7.3"/>
	<g>
		<path class="st1" d="M65.4,23.6c-1.5-3.7-3.6-6.4-6.3-8.1c-2.8-1.7-6-2.5-9.7-2.5c-5.2,0-9.3,1.4-12.3,4.2
			c-3,2.8-4.6,6.5-4.6,11.1c0,4.2,1.3,7.6,4,10.2c2.7,2.6,6.1,3.9,10.2,3.9c4.2,0,7.7-1.6,10.3-4.8C56.8,44,56,48,54.5,49.8
			c-1.5,1.7-3.3,2.6-5.5,2.6c-3.1,0-5.2-1.6-6.1-4.9l-9.4,1.7c2,7.5,7,11.2,15.1,11.2c6.3,0,11.1-2.3,14.2-7
			c3.2-4.7,4.8-10.5,4.8-17.4C67.6,31.5,66.8,27.3,65.4,23.6z M54.4,32.5c-1.3,1.4-3,2.2-5,2.2c-2,0-3.7-0.7-4.9-2.1
			c-1.2-1.4-1.8-3-1.8-4.9c0-1.8,0.6-3.4,1.9-4.9c1.3-1.4,2.9-2.1,4.9-2.1c2,0,3.6,0.7,4.9,2.1c1.3,1.4,1.9,3,1.9,4.8
			C56.4,29.4,55.7,31,54.4,32.5z"/>
	</g>
</g>
</svg>
