<?xml version="1.0" encoding="utf-8"?>
<!-- Generator: Adobe Illustrator 18.1.1, SVG Export Plug-In . SVG Version: 6.00 Build 0)  -->
<svg version="1.1" id="Layer_1" xmlns="http://www.w3.org/2000/svg" xmlns:xlink="http://www.w3.org/1999/xlink" x="0px" y="0px"
	 viewBox="0 0 100 100" style="enable-background:new 0 0 100 100;" xml:space="preserve">
<style type="text/css">
	.st0{fill:#545758;}
	.st1{fill:#FAC312;}
</style>
<g>
	<g>
		<rect x="44" y="63.2" class="st0" width="1.7" height="1.7"/>
		<circle class="st1" cx="43.5" cy="53.6" r="4.4"/>
		<rect x="47.4" y="63.2" class="st0" width="1.7" height="1.7"/>
		<rect x="50.8" y="63.2" class="st0" width="1.7" height="1.7"/>
		<rect x="54.3" y="63.2" class="st0" width="1.7" height="1.7"/>
		<circle class="st1" cx="56.5" cy="53.6" r="4.4"/>
		<path class="st0" d="M73.4,13H57c1.2,4.7,2.4,9.4,3.5,14H52c-0.2-4.7-0.5-9.4-0.7-14h-2.7c-0.2,4.7-0.5,9.4-0.7,14h-8.6
			c1.2-4.7,2.3-9.4,3.5-14H26.6c-3.9,4.7-7.8,9.4-11.7,14c0,0,0,60,0,60h70.2V27h0C81.2,22.4,77.3,17.7,73.4,13z M48,33
			c0.7-0.1,1.3-0.1,2-0.1s1.4,0,2,0.1C61,34,66.2,42.1,66.2,51.9c0,4-3.3,6-4.3,8.4c-2.5,6.6-5.3,10.6-11.9,10.6
			c-6.6,0-9.4-4-11.9-10.6c-0.9-2.4-4.3-4.2-4.3-8.4C33.8,42.1,38.9,34,48,33z M70.1,78.7c0,2.2-1.8,3.9-3.9,3.9
			c-2.2,0-3.9-1.8-3.9-3.9c-11.5-0.9-12.2-0.9-24.4,0.1c-0.1,2.1-1.8,3.8-3.9,3.8c-2.2,0-3.9-1.8-3.9-3.9c0-1.3,0.6-2.5,1.6-3.2
			c-1-0.7-1.6-1.9-1.6-3.2c0-2.2,1.8-3.9,3.9-3.9c2.1,0,3.9,1.7,3.9,3.8c12.3,1,13,1,24.4,0.1c0-2.2,1.8-3.9,3.9-3.9
			c2.2,0,3.9,1.8,3.9,3.9c0,1.3-0.6,2.5-1.6,3.2C69.5,76.2,70.1,77.4,70.1,78.7z"/>
	</g>
</g>
</svg>
