<?xml version="1.0" encoding="utf-8"?>
<!-- Generator: Adobe Illustrator 18.1.1, SVG Export Plug-In . SVG Version: 6.00 Build 0)  -->
<svg version="1.1" id="Layer_1" xmlns="http://www.w3.org/2000/svg" xmlns:xlink="http://www.w3.org/1999/xlink" x="0px" y="0px"
	 viewBox="0 0 100 100" style="enable-background:new 0 0 100 100;" xml:space="preserve">
<style type="text/css">
	.st0{fill:#545758;}
	.st1{fill:#FAC312;}
</style>
<g>
	<rect x="23.9" y="79.7" class="st0" width="52.1" height="7.3"/>
	<rect x="23.9" y="66.6" class="st0" width="52.1" height="7.3"/>
	<g>
		<path class="st1" d="M63.7,35c-2.7-2.8-6.2-4.2-10.5-4.2c-4.7,0-8.1,1.8-10.3,5.3c0-10.3,2.7-15.4,8.1-15.4c3.7,0,6,2.4,6.9,7.1
			l9.3-2.5c-0.7-3.5-2.4-6.4-5.1-8.7c-2.7-2.4-6.4-3.6-10.9-3.6c-6.2,0-10.9,2.3-14.1,6.9c-3.2,4.6-4.8,10.4-4.8,17.4
			c0,3.3,0.5,6.7,1.5,10.2c1,3.5,3,6.5,5.8,9.1c2.9,2.5,6.8,3.8,11.7,3.8c5,0,9-1.6,12-4.7c3-3.1,4.5-6.7,4.5-10.8
			C67.8,41.1,66.4,37.8,63.7,35z M55.2,50.7c-1.3,1.3-2.9,2-4.9,2c-2,0-3.6-0.7-5-2c-1.3-1.4-2-3.1-2-5.1c0-2.2,0.7-3.9,2.1-5.3
			c1.4-1.3,3-2,4.8-2c1.7,0,3.3,0.6,4.7,1.9c1.4,1.2,2.1,2.9,2.1,5.1C57.2,47.5,56.5,49.4,55.2,50.7z"/>
	</g>
</g>
</svg>
