<?xml version="1.0" encoding="utf-8"?>
<!-- Generator: Adobe Illustrator 18.1.1, SVG Export Plug-In . SVG Version: 6.00 Build 0)  -->
<svg version="1.1" id="Layer_1" xmlns="http://www.w3.org/2000/svg" xmlns:xlink="http://www.w3.org/1999/xlink" x="0px" y="0px"
	 viewBox="0 0 100 100" style="enable-background:new 0 0 100 100;" xml:space="preserve">
<style type="text/css">
	.st0{fill:#545758;}
	.st1{fill:#FAC312;}
</style>
<g>
	<path class="st0" d="M71.9,13H56.6c1.1,4.4,2.2,8.7,3.3,13.1V33H40.1v-6.9c1.1-4.4,2.2-8.7,3.3-13.1H28.1
		c-3.6,4.4-7.3,8.7-10.9,13.1c0,0,0,60.9,0,60.9h65.6V26.1h0C79.2,21.7,75.5,17.4,71.9,13z M42.2,39.8h16.1c1.7,0,3.8,1.2,4.6,2.7
		l1.7,3l3.2-1.9L66.2,48l-2.6,6.5l-7.4-1.1l-4.2-0.6l2.9-1.7l-4.5-7.9l-4.6,8l-9.9-5.7l1.8-3.2C38.4,41,40.5,39.8,42.2,39.8z
		 M46.7,78.4h-4.4c-1.7,0-3.8-1.2-4.6-2.7l-8.1-14c-0.8-1.5-0.8-3.9,0-5.3l1.8-3.1l-3-1.7l4.3-0.6l7.3-1l2.7,6.6l1.7,4.3L41.2,59
		l-4.6,8h10.1V78.4z M71,61.7l-8.1,14c-0.8,1.5-2.9,2.7-4.6,2.7h-2.8V82l-2.8-3.6l-4.4-5.7l4.4-5.7l2.8-3.6v3.6H64l-4.7-8.2l9.9-5.7
		l1.9,3.3C71.9,57.9,71.9,60.3,71,61.7z"/>
	<path class="st0" d="M51.9,26.1h-3.8c0.2-4.4,0.4-8.7,0.6-13.1h2.5C51.5,17.4,51.7,21.7,51.9,26.1z"/>
	<path class="st0" d="M51.9,26.1h-3.8c0.2-4.4,0.4-8.7,0.6-13.1h2.5C51.5,17.4,51.7,21.7,51.9,26.1z"/>
	<path class="st1" d="M51.9,26.1h-3.8c0.2-4.4,0.4-8.7,0.6-13.1h2.5C51.5,17.4,51.7,21.7,51.9,26.1z"/>
</g>
</svg>
