<?xml version="1.0" encoding="utf-8"?>
<!-- Generator: Adobe Illustrator 18.1.1, SVG Export Plug-In . SVG Version: 6.00 Build 0)  -->
<svg version="1.1" id="Layer_1" xmlns="http://www.w3.org/2000/svg" xmlns:xlink="http://www.w3.org/1999/xlink" x="0px" y="0px"
	 viewBox="0 0 100 100" style="enable-background:new 0 0 100 100;" xml:space="preserve">
<style type="text/css">
	.st0{fill:#545758;}
	.st1{fill:#FAC312;}
</style>
<g>
	<rect x="23.9" y="79.7" class="st0" width="52.1" height="7.3"/>
	<rect x="23.9" y="66.6" class="st0" width="52.1" height="7.3"/>
	<g>
		<path class="st1" d="M58.8,35.6c5.3-1.8,7.9-5.3,7.9-10.3c0-3.8-1.6-6.8-4.7-9c-3.2-2.2-7-3.3-11.7-3.3c-4.4,0-8.1,1.2-11.2,3.5
			c-3,2.3-4.9,5.3-5.7,8.8l9.5,1.5c1-3.9,3.3-5.9,7-5.9c2,0,3.5,0.6,4.6,1.7c1.1,1.1,1.6,2.4,1.6,3.9c0,1.3-0.5,2.5-1.5,3.7
			c-1,1.1-2.9,1.7-5.6,1.7h-4.8V40h4.2c3.4,0,5.7,0.5,6.9,1.5c1.2,1,1.8,2.5,1.8,4.5c0,1.9-0.7,3.4-2,4.5c-1.3,1.1-3,1.7-5.1,1.7
			c-4.5,0-7.3-2.4-8.2-7.1L32,46.4c0.6,4,2.5,7.3,5.6,10c3.1,2.7,7.3,4,12.6,4c5.5,0,9.9-1.3,13-3.9c3.2-2.6,4.7-5.9,4.7-10
			C68,40.9,64.9,37.2,58.8,35.6z"/>
	</g>
</g>
</svg>
