<?xml version="1.0" encoding="utf-8"?>
<!-- Generator: Adobe Illustrator 18.1.1, SVG Export Plug-In . SVG Version: 6.00 Build 0)  -->
<svg version="1.1" id="Layer_1" xmlns="http://www.w3.org/2000/svg" xmlns:xlink="http://www.w3.org/1999/xlink" x="0px" y="0px"
	 viewBox="0 0 100 100" style="enable-background:new 0 0 100 100;" xml:space="preserve">
<style type="text/css">
	.st0{fill:#545758;}
	.st1{fill:#FAC312;}
</style>
<g>
	<g>
		<g>
			<polygon class="st0" points="60.2,51.5 63.5,74.9 57,74.9 			"/>
			
				<rect x="37.5" y="41.4" transform="matrix(0.7071 0.7071 -0.7071 0.7071 44.8149 -15.2613)" class="st0" width="6.7" height="10.1"/>
			<rect x="55.2" y="35.6" class="st0" width="10.1" height="6.7"/>
			<path class="st0" d="M74.3,25L74.3,25v16.4l-3.7,3.7c-0.4-0.2-0.7-0.3-1.1-0.5s-0.7-0.3-1.1-0.4V32.5H52.1v11.7
				c-0.4,0.1-0.7,0.3-1.1,0.4c-0.2,0.1-0.3,0.1-0.5,0.2L42,36.3L30.6,47.7l8.4,8.4c-0.2,0.4-0.3,0.7-0.5,1.1c-1.2,2.9-1.9,6-1.9,9.2
				s0.6,6.3,1.9,9.2c0.7,1.8,1.7,3.4,2.8,4.9H14.4V25c3.3-4,6.7-8,10-12h13.9c-1,4-2,8-3,12h7.3c0.2-4,0.4-8,0.6-12h2.3
				c0.2,4,0.4,8,0.6,12h7.3c-1-4-2-8-3-12h14C67.6,17,71,21,74.3,25z"/>
		</g>
	</g>
	<g>
		<polygon class="st1" points="60.2,51.5 63.5,74.9 57,74.9 		"/>
		<polygon class="st0" points="60.2,51.5 63.5,74.9 57,74.9 		"/>
		<path class="st0" d="M74.3,51.3c-3.7-3.4-8.6-5.5-14-5.5c-11.4,0-20.6,9.2-20.6,20.6c0,5.5,2.1,10.5,5.6,14.1
			c3.8,4,9.1,6.5,15,6.5c11.4,0,20.6-9.2,20.6-20.6C80.8,60.5,78.3,55.1,74.3,51.3z M74.3,75.1c-1.4,2.2-3.3,4.1-5.5,5.4
			c-2.5,1.5-5.4,2.4-8.5,2.4s-6-0.9-8.5-2.4c-4.8-2.9-8-8.1-8-14.1c0-9.1,7.4-16.5,16.5-16.5c5.9,0,11.1,3.1,14,7.8
			c1.6,2.5,2.5,5.5,2.5,8.7C76.8,69.6,75.8,72.6,74.3,75.1z"/>
		<polygon class="st1" points="57,74.9 60.2,51.5 63.5,74.9 		"/>
		<rect x="55.2" y="35.6" class="st0" width="10.1" height="6.7"/>
		<rect x="55.2" y="35.6" class="st1" width="10.1" height="6.7"/>
		
			<rect x="37.5" y="41.5" transform="matrix(-0.7071 -0.7071 0.7071 -0.7071 36.7541 108.3401)" class="st1" width="6.7" height="10.1"/>
		
			<rect x="35.8" y="43.2" transform="matrix(-0.7071 0.7071 -0.7071 -0.7071 102.6593 50.5123)" class="st1" width="10.1" height="6.7"/>
		
			<rect x="76.3" y="42.4" transform="matrix(-0.7071 0.7071 -0.7071 -0.7071 169.5365 24.7072)" class="st1" width="6.7" height="10.1"/>
		<polygon class="st1" points="63.5,74.9 57,74.9 60.2,51.5 		"/>
		<path class="st1" d="M60.3,74.9c-0.1,0.1-0.1,0.3-0.2,0.4C60.2,75.2,60.3,75.1,60.3,74.9z"/>
	</g>
</g>
</svg>
