<?xml version="1.0" encoding="utf-8"?>
<!-- Generator: Adobe Illustrator 18.1.1, SVG Export Plug-In . SVG Version: 6.00 Build 0)  -->
<svg version="1.1" id="Layer_1" xmlns="http://www.w3.org/2000/svg" xmlns:xlink="http://www.w3.org/1999/xlink" x="0px" y="0px"
	 viewBox="0 0 100 100" style="enable-background:new 0 0 100 100;" xml:space="preserve">
<style type="text/css">
	.st0{fill:#545758;}
	.st1{fill:#FAC312;}
</style>
<g>
	<g>
		<rect x="23.9" y="47" class="st0" width="7.7" height="5.8"/>
		<rect x="47.1" y="68.3" class="st0" width="5.8" height="7.7"/>
		<rect x="68.4" y="47" class="st0" width="7.7" height="5.8"/>
		<path class="st0" d="M86.5,43.4c-0.6-3.4-1.7-6.7-3.2-9.7c-4.1-8.4-11.4-15-20.2-18.4v8.7c5.7,2.9,10.2,7.5,13,13.2
			c1.2,2.4,2,5,2.5,7.6c0.3,1.7,0.5,3.4,0.5,5.2c0,0.9,0,1.7-0.1,2.6c-0.2,2.7-0.8,5.2-1.7,7.6c-1.2,3.3-3,6.2-5.2,8.8
			c-2.8,3.3-6.4,5.9-10.4,7.6C58,78.2,54.1,79,50,79c-16.1,0-29.1-13-29.1-29.1c0-11.4,6.5-21.2,16-26v-8.7c-14,5.3-24,18.8-24,34.7
			C12.9,70.4,29.5,87,50,87c5.3,0,10.3-1.1,14.8-3.1c5.1-2.2,9.6-5.6,13.2-9.7c2.8-3.3,5.1-7.1,6.7-11.2c1.2-3.1,1.9-6.3,2.2-9.7
			c0.1-1.1,0.1-2.2,0.1-3.3C87.1,47.7,86.9,45.5,86.5,43.4z"/>
		<rect x="23.9" y="47" class="st0" width="7.7" height="5.8"/>
		<rect x="47.1" y="68.3" class="st0" width="5.8" height="7.7"/>
		<rect x="68.4" y="47" class="st0" width="7.7" height="5.8"/>
		<g>
			<polygon class="st0" points="56.5,61.9 43.5,61.9 50,34.1 			"/>
		</g>
		<g>
			<rect x="23.9" y="47" class="st1" width="7.7" height="5.8"/>
		</g>
		<g>
			<rect x="47.1" y="68.3" class="st1" width="5.8" height="7.7"/>
		</g>
		<g>
			<rect x="68.4" y="47" class="st1" width="7.7" height="5.8"/>
		</g>
		<g>
			<path class="st0" d="M58,13v20.9h-4.2L46.4,21l-0.7-1.3c0,0.4,0,0.6,0,0.7c0,0.2,0,0.5,0.1,0.7c0,0.1,0,0.2,0,0.2v12.5H42V13h5.3
				l4.5,7.9l2.6,4.4c-0.1-0.6-0.1-1.1-0.1-1.4V13H58z"/>
		</g>
	</g>
</g>
</svg>
