<?xml version="1.0" encoding="utf-8"?>
<!-- Generator: Adobe Illustrator 18.1.1, SVG Export Plug-In . SVG Version: 6.00 Build 0)  -->
<svg version="1.1" id="Layer_1" xmlns="http://www.w3.org/2000/svg" xmlns:xlink="http://www.w3.org/1999/xlink" x="0px" y="0px"
	 viewBox="0 0 100 100" style="enable-background:new 0 0 100 100;" xml:space="preserve">
<style type="text/css">
	.st0{fill:#545758;}
	.st1{fill:#FAC312;}
</style>
<g>
	<path class="st1" d="M59.8,51.1v9.6l10.9,4l10.4-4v-9.6c-3,2.4-6.6,4-10.6,4C66.4,55.1,62.8,53.5,59.8,51.1z"/>
	<path class="st0" d="M83.4,54.1v6.8l-12.7,5.9L57.4,61v-6.8c-9,3.5-15.4,12.3-15.4,22.5v6.2h56.9v-6.2
		C98.8,66.4,92.4,57.6,83.4,54.1z M66.1,80.8l4.3-12.4L75,80.8H66.1z M90,74.5H77.2v-3.4H90V74.5z"/>
	<path class="st1" d="M35.3,58.9l11.6-0.7c1.9-2.2,4.2-4.1,6.8-5.5v-0.5l-10-1.6l-10.8-1.2L1.2,52.8v30.7L32.3,87v0l0.1,0l0.1,0v0
		l6.9-0.8l0.6-2.3v-0.8l-4.8,0.5v-7.9l4.8-0.5c0.1-2.9,0.7-5.8,1.7-8.4l-6.5,0.7V58.9z M29.6,83.7L4.2,80.9v-7.6L29.6,76V83.7z
		 M29.6,67.2L4.2,64.4v-8.2l25.4,2.8V67.2z"/>
	<path class="st0" d="M70.4,54.1c9.6,0,17.4-13.8,17.4-23.5c0-3.9-1.3-7.6-3.5-10.5c-3.2-4.3-8.2-7-13.9-7c-4,0-7.7,1.4-10.6,3.7h0
		v0c-1.7,1.3-3.1,2.9-4.2,4.7C53.9,24,53,27.2,53,30.5C53,40.2,60.8,54.1,70.4,54.1z M75.1,24.1c0.7,2.4,8.5,8.2,9.9,9.3
		c-1.3,8.5-7.9,18.1-14.6,18.1c-6.3,0-12.6-8.6-14.3-16.6C67.3,35.6,75.1,24.1,75.1,24.1z"/>
</g>
</svg>
