<?xml version="1.0" encoding="utf-8"?>
<!-- Generator: Adobe Illustrator 18.1.1, SVG Export Plug-In . SVG Version: 6.00 Build 0)  -->
<svg version="1.1" id="Layer_1" xmlns="http://www.w3.org/2000/svg" xmlns:xlink="http://www.w3.org/1999/xlink" x="0px" y="0px"
	 viewBox="0 0 100 100" style="enable-background:new 0 0 100 100;" xml:space="preserve">
<style type="text/css">
	.st0{fill:#545758;}
	.st1{fill:#FAC312;}
</style>
<g>
	<path class="st0" d="M100,51.5c0-4.5-16.8,0.1-38.2-0.6c-0.4-1.2-0.9-2.4-1.6-3.4c4.4-0.2,7.5-0.7,7.5-1.3c0-0.7-4.2-1.3-9.8-1.4
		c-1.6-1.5-3.6-2.5-5.8-2.9c-0.2-9.8-1.1-17-2.1-17c-1,0-1.9,7.2-2.1,17c-2.2,0.4-4.2,1.4-5.8,2.9c-5.7,0.1-9.9,0.7-9.9,1.4
		c0,0.6,3.1,1.1,7.6,1.3c-0.7,1.1-1.2,2.3-1.6,3.6C16.8,51.7,0,47.2,0,51.7c0,2.8,6.4,5.6,16.5,7.5l-0.8,1.4
		c-2.9,0.2-5.1,2.6-5.1,5.5c0,3.1,2.5,5.5,5.6,5.5c3.1,0,5.6-2.5,5.6-5.5c0-2.4-1.6-4.5-3.8-5.2l0.7-1.2c2.8,0.5,5.8,0.9,9,1.2v5.3
		c0,0.6,0.5,1.1,1.1,1.1c0.6,0,1.1-0.5,1.1-1.1v-5.1c2.9,0.3,6,0.5,9.2,0.6v-0.1c1.9,4,5.6,6.9,10,7.3v5.3c0,0.6,0.5,1.1,1.1,1.1
		c0.6,0,1.1-0.5,1.1-1.1v-5.3c4.4-0.4,8.1-3.3,10-7.4c2.5-0.1,5-0.2,7.3-0.4v5.1c0,0.6,0.5,1.1,1.1,1.1c0.6,0,1.1-0.5,1.1-1.1v-5.3
		c3.1-0.3,6-0.7,8.7-1.1l0.9,1.6c-2.2,0.7-3.8,2.8-3.8,5.3c0,3.1,2.5,5.5,5.6,5.5s5.6-2.5,5.6-5.5c0-2.9-2.2-5.2-5-5.5
		c0-0.1,0-0.1-0.1-0.2l-0.9-1.5C92.7,57.4,100,54.4,100,51.5z M15.7,69.7c-1.7-0.2-3-1.5-3.2-3.1h2.2c0.2,0.5,0.5,0.9,1,1V69.7z
		 M15.7,64.6c-0.5,0.2-0.9,0.5-1,1h-2.2c0.2-1.6,1.5-2.9,3.2-3.1V64.6z M16.6,69.7v-2.1c0.5-0.2,0.9-0.5,1-1h2.2
		C19.6,68.2,18.3,69.5,16.6,69.7z M19.8,65.6h-2.2c-0.2-0.5-0.5-0.8-1-1v-2.1C18.3,62.7,19.6,64,19.8,65.6z M49.1,56
		c-1,0-2-0.2-2.9-0.3v-5.1c0.9,0.1,1.9,0.2,2.9,0.2V56z M41.8,54.2l0.5-4.6c0.8,0.3,1.8,0.5,2.8,0.7v5.1c-1.7-0.4-2.8-0.8-2.8-0.8
		L41.8,54.2z M51.3,50.7c1-0.1,1.9-0.2,2.8-0.3v5.1c-0.8,0.2-1.8,0.3-2.8,0.4V50.7z M57.5,54.6c0,0-0.8,0.4-2.2,0.7v-5.1
		c0.8-0.2,1.6-0.4,2.2-0.6l0.6,4.6L57.5,54.6z M82.5,63c1.7,0.2,3,1.5,3.2,3.1h-2.2c-0.2-0.5-0.5-0.8-1-1V63z M82.5,68.1
		c0.5-0.2,0.9-0.5,1-1h2.2c-0.2,1.6-1.5,2.9-3.2,3.1V68.1z M81.5,70.2c-1.7-0.2-3-1.5-3.2-3.1h2.2c0.2,0.5,0.5,0.9,1,1V70.2z
		 M81.5,65.1c-0.5,0.2-0.9,0.5-1,1h-2.2c0.2-1.6,1.5-2.9,3.2-3.1V65.1z"/>
	<path class="st1" d="M48.2,71.1h-0.8c-0.2,0-0.4,0.2-0.4,0.4v3.2c0,0.2,0.2,0.4,0.4,0.4h0.8c0.2,0,0.4-0.2,0.4-0.4v-3.2
		C48.6,71.3,48.5,71.1,48.2,71.1z"/>
	<path class="st1" d="M52.7,71.1h-0.8c-0.2,0-0.4,0.2-0.4,0.4v3.2c0,0.2,0.2,0.4,0.4,0.4h0.8c0.2,0,0.4-0.2,0.4-0.4v-3.2
		C53.1,71.3,52.9,71.1,52.7,71.1z"/>
	<path class="st1" d="M26.9,63.2h-0.8c-0.2,0-0.4,0.2-0.4,0.4v3.2c0,0.2,0.2,0.4,0.4,0.4h0.8c0.2,0,0.4-0.2,0.4-0.4v-3.2
		C27.3,63.3,27.1,63.2,26.9,63.2z"/>
	<path class="st1" d="M31.4,63.2h-0.8c-0.2,0-0.4,0.2-0.4,0.4v3.2c0,0.2,0.2,0.4,0.4,0.4h0.8c0.2,0,0.4-0.2,0.4-0.4v-3.2
		C31.8,63.3,31.6,63.2,31.4,63.2z"/>
	<path class="st0" d="M67.7,63.2h-0.8c-0.2,0-0.4,0.2-0.4,0.4v3.2c0,0.2,0.2,0.4,0.4,0.4h0.8c0.2,0,0.4-0.2,0.4-0.4v-3.2
		C68.1,63.3,67.9,63.2,67.7,63.2z"/>
	<path class="st1" d="M72.2,63.2h-0.8c-0.2,0-0.4,0.2-0.4,0.4v3.2c0,0.2,0.2,0.4,0.4,0.4h0.8c0.2,0,0.4-0.2,0.4-0.4v-3.2
		C72.6,63.3,72.4,63.2,72.2,63.2z"/>
</g>
</svg>
