<?xml version="1.0" encoding="utf-8"?>
<!-- Generator: Adobe Illustrator 18.1.1, SVG Export Plug-In . SVG Version: 6.00 Build 0)  -->
<svg version="1.1" id="Layer_1" xmlns="http://www.w3.org/2000/svg" xmlns:xlink="http://www.w3.org/1999/xlink" x="0px" y="0px"
	 viewBox="0 0 100 100" style="enable-background:new 0 0 100 100;" xml:space="preserve">
<style type="text/css">
	.st0{fill:#545758;}
	.st1{fill:#FAC312;}
</style>
<g>
	<g>
		<path class="st1" d="M54.2,63V46.8c0-2-1.7-3.7-3.7-3.7H48c0,0,0,0,0,0h-4.1h-2.2l-10.5,0c-1.1,0-1.9-0.9-1.9-1.9
			c0-1.1,0.9-1.9,1.9-1.9l10.2,0c1.2-0.3,2.1-1.4,2.1-2.7c0-0.7-0.3-1.4-0.8-2c-0.5-0.5-1.2-0.8-2-0.8l-16.8,0c-0.5,0-1,0.1-1.4,0.4
			l-8.3,9.1c-1.4,1.5-2.2,3-2.2,4.5l0,15.2c0,2,1.7,3.7,3.7,3.7h34.8C52.6,66.7,54.2,65,54.2,63z"/>
		<path class="st0" d="M97.4,21.7H20.6c-1.4,0-2.6,1.1-2.6,2.6v9.3l2.1-2.2l0.2-0.1c1.1-0.8,2.4-1.2,3.8-1.2l16.8,0
			c1.8,0,3.4,0.7,4.7,1.9c1.1,1.1,1.8,2.6,1.9,4.2h20.4c1.1,0,1.9,0.9,1.9,1.9c0,1.1-0.9,1.9-1.9,1.9H53.6c2.6,1.2,4.4,3.8,4.4,6.9
			v2h9.7c1.1,0,1.9,0.9,1.9,1.9c0,1.1-0.9,1.9-1.9,1.9h-9.7v8.9h9.7c1.1,0,1.9,0.9,1.9,1.9c0,1.1-0.9,1.9-1.9,1.9H57.7
			c-1,3-3.8,5.2-7.2,5.2H18v5.3c0,1.4,1.1,2.6,2.6,2.6h76.9c1.4,0,2.6-1.1,2.6-2.6V24.2C100,22.8,98.9,21.7,97.4,21.7z M92.7,40.3
			c0,1.4-1.1,2.6-2.6,2.6H80c-1.4,0-2.6-1.1-2.6-2.6V30.2c0-1.4,1.1-2.6,2.6-2.6h10.2c1.4,0,2.6,1.1,2.6,2.6V40.3z"/>
		<path class="st0" d="M5.7,40.5l-3.1,0C1.1,40.5,0,41.6,0,43v23.5c0,1.4,1.1,2.6,2.6,2.6h3.1c1.4,0,2.6-1.1,2.6-2.6V43
			C8.2,41.6,7.1,40.5,5.7,40.5z"/>
	</g>
</g>
</svg>
