<?xml version="1.0" encoding="utf-8"?>
<!-- Generator: Adobe Illustrator 18.1.1, SVG Export Plug-In . SVG Version: 6.00 Build 0)  -->
<svg version="1.1" id="Layer_1" xmlns="http://www.w3.org/2000/svg" xmlns:xlink="http://www.w3.org/1999/xlink" x="0px" y="0px"
	 viewBox="0 0 100 100" style="enable-background:new 0 0 100 100;" xml:space="preserve">
<style type="text/css">
	.st0{fill:#545758;}
	.st1{fill:#FAC312;}
	.st2{fill:none;}
</style>
<g>
	<polygon class="st2" points="31.4,70.5 29.6,66.6 27.9,70.5 24,71.1 26.8,74.1 26.1,78.4 29.6,76.4 33,78.4 32.4,74.1 35.2,71.1 	
		"/>
	<polygon class="st2" points="46.3,70.5 44.6,66.6 42.8,70.5 38.9,71.1 41.7,74.1 41,78.4 44.5,76.4 48,78.4 47.3,74.1 50.2,71.1 	
		"/>
	<rect x="56.3" y="68.3" class="st2" width="12.6" height="7.9"/>
	<rect x="10.9" y="38.9" class="st2" width="58.6" height="7.9"/>
	<rect x="10.3" y="53.4" class="st2" width="58.6" height="7.9"/>
	<polygon class="st2" points="16.7,70.5 15,66.6 13.2,70.5 9.3,71.1 12.1,74.1 11.4,78.4 14.9,76.4 18.4,78.4 17.7,74.1 20.6,71.1 	
		"/>
	<rect x="77.5" y="33.1" class="st2" width="0.8" height="16.6"/>
	<path class="st1" d="M89.6,13H29.1c-3.6,0-6.6,3.3-6.6,7.3v2.6h6.6v-2.6h60.5v12.9H78.3v16.6h11.3v15.3h-7.8v7.3h7.8
		c3.6,0,6.6-3.3,6.6-7.3V20.3C96.2,16.3,93.3,13,89.6,13z"/>
	<path class="st0" d="M77.5,33.1v1.8c0-4-2.9-7.3-6.6-7.3H10.4c-3.6,0-6.6,3.3-6.6,7.3v44.8c0,4,2.9,7.3,6.6,7.3h60.6
		c3.6,0,6.6-3.2,6.6-7.3v-30h0L77.5,33.1L77.5,33.1z M18.4,78.4l-3.5-2l-3.5,2l0.7-4.3l-2.8-3l3.9-0.6l1.8-3.9l1.7,3.9l3.9,0.7
		l-2.8,3L18.4,78.4z M33,78.4l-3.5-2l-3.5,2l0.7-4.3l-2.8-3l3.9-0.6l1.8-3.9l1.7,3.9l3.9,0.7l-2.8,3L33,78.4z M48,78.4l-3.5-2
		l-3.5,2l0.7-4.3l-2.8-3l3.9-0.6l1.8-3.9l1.7,3.9l3.9,0.7l-2.8,3L48,78.4z M68.9,76.3H56.3v-7.9h12.6V76.3z M68.9,61.3H10.3v-7.9
		h58.6V61.3z M69.5,46.9H10.9v-7.9h58.6V46.9z"/>
</g>
</svg>
