<?xml version="1.0" encoding="utf-8"?>
<!-- Generator: Adobe Illustrator 18.1.1, SVG Export Plug-In . SVG Version: 6.00 Build 0)  -->
<svg version="1.1" id="Layer_1" xmlns="http://www.w3.org/2000/svg" xmlns:xlink="http://www.w3.org/1999/xlink" x="0px" y="0px"
	 viewBox="0 0 100 100" style="enable-background:new 0 0 100 100;" xml:space="preserve">
<style type="text/css">
	.st0{fill:#545758;}
	.st1{fill:#FAC312;}
</style>
<g>
	<g>
		<path class="st1" d="M29,35.9c0,0,0,0.1,0,0.1c0,0,0,0.1,0,0.1l-6.2,3.7v-3.7c0,0,0-0.1,0-0.1c0,0,0-0.1,0-0.1
			c0-0.1-0.1-0.2,0-0.3c0-0.1,0.1-0.2,0.1-0.3c0.2-0.3,0.5-0.6,0.7-0.9c0.4-0.6,0.8-1.1,1.2-1.5c0.1-0.1,0.2-0.2,0.3-0.3
			c0.1-0.1,0.2-0.2,0.2-0.3c0.1-0.2,0.3-0.3,0.4-0.4c0.1-0.1,0.2-0.2,0.2-0.3c0.1-0.1,0.1-0.1,0.1-0.1s0,0,0.1,0.1
			c0.1,0.1,0.1,0.1,0.2,0.3c0.1,0.1,0.2,0.3,0.4,0.4c0.1,0.1,0.2,0.2,0.2,0.3c0.1,0.1,0.2,0.2,0.3,0.3c0.4,0.4,0.8,0.9,1.2,1.5
			c0.2,0.3,0.4,0.6,0.7,0.9c0.1,0.1,0.1,0.2,0.1,0.3C29.1,35.7,29.1,35.8,29,35.9z"/>
		<path class="st1" d="M29.1,58.4c0,0.1,0,0.2-0.1,0.3c-0.2,0.3-0.5,0.6-0.7,0.9c-0.1,0.1-0.2,0.3-0.3,0.4c-0.1,0.1-0.2,0.3-0.3,0.4
			c-0.2,0.3-0.4,0.5-0.6,0.7c-0.1,0.1-0.2,0.2-0.3,0.3c-0.1,0.1-0.2,0.2-0.2,0.3c-0.1,0.1-0.1,0.2-0.2,0.2c-0.1,0.1-0.1,0.1-0.2,0.2
			c-0.1,0.1-0.2,0.2-0.3,0.3c-0.1,0.1-0.1,0.1-0.1,0.1s0,0-0.1-0.1c-0.1-0.1-0.1-0.1-0.3-0.3c-0.1-0.1-0.1-0.1-0.2-0.2
			c-0.1-0.1-0.1-0.1-0.2-0.2c-0.1-0.1-0.2-0.2-0.2-0.3c-0.1-0.1-0.2-0.2-0.3-0.3c-0.2-0.2-0.4-0.4-0.6-0.7c-0.1-0.1-0.2-0.3-0.3-0.4
			c-0.1-0.1-0.2-0.3-0.3-0.4c-0.2-0.3-0.4-0.6-0.7-0.9c-0.1-0.1-0.1-0.2-0.1-0.3c0-0.1,0-0.2,0.1-0.3c0-0.1,0-0.2,0-0.3v-2.5
			l6.2-1.7v4.2c0,0.1,0,0.2,0,0.3C29.1,58.3,29.1,58.3,29.1,58.4z"/>
		<path class="st1" d="M71,35.9c0-0.1-0.1-0.2,0-0.3c0-0.1,0.1-0.2,0.1-0.3c0.2-0.3,0.5-0.6,0.7-0.9c0.4-0.6,0.8-1.1,1.2-1.5
			c0.1-0.1,0.2-0.2,0.3-0.3c0.1-0.1,0.2-0.2,0.2-0.3c0.1-0.2,0.3-0.3,0.4-0.4c0.1-0.1,0.2-0.2,0.2-0.3c0.1-0.1,0.1-0.1,0.1-0.1
			s0,0,0.1,0.1c0.1,0.1,0.1,0.1,0.2,0.3c0.1,0.1,0.2,0.3,0.4,0.4c0.1,0.1,0.2,0.2,0.2,0.3c0.1,0.1,0.2,0.2,0.3,0.3
			c0.4,0.4,0.8,0.9,1.2,1.5c0.2,0.3,0.4,0.6,0.7,0.9c0.1,0.1,0.1,0.2,0.1,0.3c0,0.1,0,0.2,0,0.3c0,0,0,0.1,0,0.1c0,0,0,0.1,0,0.1
			v3.7L71,36.1c0,0,0-0.1,0-0.1C71,36,71,35.9,71,35.9z"/>
		<path class="st1" d="M77.3,58.4c0,0.1,0,0.2-0.1,0.3c-0.2,0.3-0.5,0.6-0.7,0.9c-0.1,0.1-0.2,0.3-0.3,0.4c-0.1,0.1-0.2,0.3-0.3,0.4
			c-0.2,0.3-0.4,0.5-0.6,0.7c-0.1,0.1-0.2,0.2-0.3,0.3c-0.1,0.1-0.2,0.2-0.2,0.3c-0.1,0.1-0.1,0.2-0.2,0.2c-0.1,0.1-0.1,0.1-0.2,0.2
			c-0.1,0.1-0.2,0.2-0.3,0.3c-0.1,0.1-0.1,0.1-0.1,0.1s0,0-0.1-0.1c-0.1-0.1-0.1-0.1-0.3-0.3c-0.1-0.1-0.1-0.1-0.2-0.2
			c-0.1-0.1-0.1-0.1-0.2-0.2c-0.1-0.1-0.2-0.2-0.2-0.3c-0.1-0.1-0.2-0.2-0.3-0.3c-0.2-0.2-0.4-0.4-0.6-0.7c-0.1-0.1-0.2-0.3-0.3-0.4
			c-0.1-0.1-0.2-0.3-0.3-0.4c-0.2-0.3-0.4-0.6-0.7-0.9c-0.1-0.1-0.1-0.2-0.1-0.3c0-0.1,0-0.2,0.1-0.3c0-0.1,0-0.2,0-0.3v-4.2
			l6.2,1.7v2.5c0,0.1,0,0.2,0,0.3C77.3,58.3,77.3,58.3,77.3,58.4z"/>
	</g>
	<g>
		<path class="st0" d="M34.6,50L29,51.5l-6.2,1.7l-8.2,2.2c-2.6,0.7-4-0.7-3.2-3c0.8-2.4,3.4-5.4,5.7-6.8l5.6-3.3l6.2-3.7l5.5-3.3
			c2.3-1.4,4.3-0.3,4.4,2.4l0.3,6.2C39.3,46.5,37.2,49.3,34.6,50z"/>
		<path class="st0" d="M85.4,55.4l-8.2-2.2L71,51.5L65.4,50c-2.6-0.7-4.6-3.5-4.5-6.1l0.3-6.2c0.1-2.7,2.1-3.7,4.4-2.4l5.5,3.3
			l6.2,3.7l5.6,3.3c2.3,1.4,4.9,4.4,5.7,6.8C89.4,54.8,88,56.1,85.4,55.4z"/>
	</g>
	<polygon class="st0" points="50.1,53.6 50.1,53.6 49.9,53.6 	"/>
	<g>
		<path class="st0" d="M55.3,74.2c1-17.9,2-33.4,3-51.4c0.3-4-2.3-9.8-8.2-9.8c-5.8,0-8.4,5.9-8.2,9.8c0.5,9.1,1,17.6,1.5,26.1
			c0.5,8.2,1,16.4,1.5,25.2l-9,6.6V87l14.2-4.9l14,4.9v-6.4L55.3,74.2z M50.1,53.6h-0.1H50.1L50.1,53.6z"/>
		<polygon class="st0" points="50.1,53.6 50.1,53.6 49.9,53.6 		"/>
	</g>
</g>
</svg>
