<?xml version="1.0" encoding="utf-8"?>
<!-- Generator: Adobe Illustrator 18.1.1, SVG Export Plug-In . SVG Version: 6.00 Build 0)  -->
<svg version="1.1" id="Layer_1" xmlns="http://www.w3.org/2000/svg" xmlns:xlink="http://www.w3.org/1999/xlink" x="0px" y="0px"
	 viewBox="0 0 100 100" style="enable-background:new 0 0 100 100;" xml:space="preserve">
<style type="text/css">
	.st0{fill:#545758;}
	.st1{fill:#FAC312;}
</style>
<g>
	<g>
		<polygon class="st1" points="62.8,58.7 37.9,58.7 37.9,68.7 24.5,68.7 50.4,87 76.2,68.7 62.8,68.7 		"/>
		<path class="st0" d="M91.5,46.1c-0.3-3.2-15.8-5.6-26.5-6.8c-0.2-1.8-0.7-3.7-1.4-5.7c-2.7-7.1-7.8-9.5-10.8-10.4
			c0-0.1,0-0.2,0-0.3c0-5.6-1.2-10.1-2.7-10.1s-2.7,4.5-2.7,10.1c0,0.1,0,0.2,0,0.3c-3.1,0.8-8.1,3.3-10.8,10.4
			c-0.8,2-1.2,3.9-1.4,5.7c-10.7,1.2-26.2,3.5-26.5,6.8C8.4,48,13.8,49,20.5,49.5v2.9c-0.9,0.4-1.6,1.3-1.6,2.3
			c0,1.4,1.1,2.5,2.5,2.5c1.4,0,2.5-1.1,2.5-2.5c0-1.1-0.7-2-1.6-2.3v-2.8c2.6,0.1,5.3,0.2,7.9,0.3c-0.4,0.6-0.6,1.3-0.6,2.1
			c0,2.1,1.7,3.8,3.8,3.8c2.1,0,3.8-1.7,3.8-3.8c0-0.8-0.2-1.5-0.6-2.1c0,0,0,0,0,0c1.8,2.4,6,4.9,13.4,4.9v0c0,0,0,0,0,0
			c0,0,0,0,0,0v0c7.4,0,11.6-2.5,13.4-4.9c0,0,0,0,0,0c-0.4,0.6-0.6,1.3-0.6,2.1c0,2.1,1.7,3.8,3.8,3.8c2.1,0,3.8-1.7,3.8-3.8
			c0-0.8-0.2-1.5-0.6-2.1c2.6,0,5.3-0.1,7.9-0.3v2.8c-0.9,0.4-1.6,1.3-1.6,2.3c0,1.4,1.1,2.5,2.5,2.5c1.4,0,2.5-1.1,2.5-2.5
			c0-1.1-0.7-2-1.6-2.3v-2.9C86.2,49,91.6,48,91.5,46.1z M59.8,39.2c0,0-3.7-2.2-9.8-2.2c-6.3,0-9.8,2.2-9.8,2.2c0,0,0,0,0,0
			c0.2-4,1.9-6.5,1.9-6.5s2.6-2.2,7.8-2.2v0c0,0,0,0,0,0c0,0,0,0,0,0v0c5.2,0,7.8,2.2,7.8,2.2S59.6,35.2,59.8,39.2
			C59.8,39.2,59.8,39.2,59.8,39.2z"/>
	</g>
</g>
</svg>
