<?xml version="1.0" encoding="utf-8"?>
<!-- Generator: Adobe Illustrator 18.1.1, SVG Export Plug-In . SVG Version: 6.00 Build 0)  -->
<svg version="1.1" id="Layer_1" xmlns="http://www.w3.org/2000/svg" xmlns:xlink="http://www.w3.org/1999/xlink" x="0px" y="0px"
	 viewBox="0 0 100 100" style="enable-background:new 0 0 100 100;" xml:space="preserve">
<style type="text/css">
	.st0{fill:#545758;}
	.st1{fill:#FAC312;}
	.st2{fill:#FFFFFF;stroke:#000000;stroke-width:5.391400e-002;stroke-miterlimit:10;}
</style>
<g>
	<path class="st0" d="M20.4,44.3c-0.1-0.5-0.2-1.1-0.3-1.6c-0.1-0.6-0.8-1.1-1.3-1.1c-1.4,0-2.8,0-4.2,0c-0.6,0-1.2,0.5-1.3,1.1
		c-0.4,2-0.6,4-0.5,6L20.4,44.3z"/>
	<path class="st0" d="M31.8,37.7c-0.1-0.6-0.2-1.3-0.3-1.9c-0.1-0.6-0.8-1.1-1.3-1.1c-1.4,0-2.8,0-4.2,0c-0.6,0-1.2,0.5-1.3,1.1
		c-0.5,2.1-0.6,4.2-0.4,6.3L31.8,37.7z"/>
	<path class="st0" d="M75.8,42.1c0.2-2.1,0-4.2-0.4-6.3c-0.1-0.6-0.8-1.1-1.3-1.1c-1.4,0-2.8,0-4.2,0c-0.6,0-1.2,0.5-1.3,1.1
		c-0.1,0.6-0.2,1.2-0.3,1.9L75.8,42.1z"/>
	<path class="st1" d="M40.7,79.7l-0.9-10.6l-13,6.4v7.1l13.9-1.7C40.7,80.5,40.7,80.1,40.7,79.7z"/>
	<path class="st0" d="M50,13c-6.6,0-12,8.8-12,19.6l3.8,47.1c0,4.1,3.7,7.4,8.3,7.4c4.6,0,8.3-3.3,8.3-7.4L62,32.6
		C62,21.7,56.6,13,50,13z M50,22.3c-2.8,0-5.3,0.6-7.5,1.6c1.3-3.6,4.2-6.1,7.5-6.1c3.3,0,6.2,2.5,7.5,6.1
		C55.3,22.9,52.8,22.3,50,22.3z"/>
	<path class="st2" d="M51.5,79.4c0,0.4-0.3,0.7-0.7,0.7h-1.5c-0.4,0-0.7-0.3-0.7-0.7V62.5c0-0.4,0.3-0.7,0.7-0.7h1.5
		c0.4,0,0.7,0.3,0.7,0.7V79.4z"/>
	<g>
		<path class="st1" d="M62.8,35.9l-1.6,19.8l11,3.4c1.6-5.1,3.4-10,5.3-14.7L62.8,35.9L62.8,35.9z"/>
		<path class="st1" d="M37.2,35.9L34,37.7c-0.7,6.6-1.9,13.5-3.5,20.5l8.2-2.5L37.2,35.9L37.2,35.9z"/>
		<path class="st1" d="M60.2,69.1l-0.8,10.6c0,0.4,0,0.8-0.1,1.2l7.2,0.9c0.5-2.9,1.2-5.7,1.9-8.7L60.2,69.1L60.2,69.1z"/>
		<path class="st1" d="M34,37.7L9.3,51.9v12.8l21.2-6.5C32.1,51.2,33.3,44.3,34,37.7L34,37.7z"/>
		<path class="st1" d="M77.5,44.3C75.6,49,73.8,54,72.2,59l18.5,5.6V51.9L77.5,44.3L77.5,44.3z"/>
		<path class="st1" d="M68.3,73.1c-0.7,2.9-1.3,5.8-1.9,8.7l6.7,0.8v-7.1L68.3,73.1L68.3,73.1z"/>
	</g>
</g>
</svg>
