<?xml version="1.0" encoding="utf-8"?>
<!-- Generator: Adobe Illustrator 18.1.1, SVG Export Plug-In . SVG Version: 6.00 Build 0)  -->
<svg version="1.1" id="Layer_1" xmlns="http://www.w3.org/2000/svg" xmlns:xlink="http://www.w3.org/1999/xlink" x="0px" y="0px"
	 viewBox="0 0 100 100" style="enable-background:new 0 0 100 100;" xml:space="preserve">
<style type="text/css">
	.st0{fill:#545758;}
	.st1{fill:#FAC312;}
</style>
<g>
	<polygon class="st1" points="35.4,43.9 35.4,40.7 10.9,54.1 10.9,61.3 36.7,56.7 	"/>
	<polygon class="st1" points="64.6,40.7 64.6,43.9 63.3,56.7 89.1,61.3 89.1,54.1 	"/>
	<path class="st0" d="M60.4,43.7L60.4,43.7l0-8.7c0-6.8-4.6-22-10.4-22S39.6,28.2,39.6,35v8.7l3,28.4L30.9,82.5V87l14-5.2v0h2.2
		l1.3,5.2h3l1.3-5.2H55v0l14,5.2v-4.5L57.4,72.1L60.4,43.7z M45.4,26.7c1.4-0.6,3-1,4.6-1c1.7,0,3.2,0.4,4.6,1
		c0.5,1.7,0.9,3.4,1.1,4.9c-1.8-0.6-3.7-1-5.8-1s-4,0.3-5.8,1C44.5,30,44.9,28.3,45.4,26.7z"/>
</g>
</svg>
