<?xml version="1.0" encoding="utf-8"?>
<!-- Generator: Adobe Illustrator 18.1.1, SVG Export Plug-In . SVG Version: 6.00 Build 0)  -->
<svg version="1.1" id="Layer_1" xmlns="http://www.w3.org/2000/svg" xmlns:xlink="http://www.w3.org/1999/xlink" x="0px" y="0px"
	 viewBox="0 0 100 100" style="enable-background:new 0 0 100 100;" xml:space="preserve">
<style type="text/css">
	.st0{fill:#545758;}
	.st1{fill:#FAC312;}
</style>
<g>
	<rect x="10.3" y="62.4" class="st0" width="74.1" height="4.6"/>
	<path class="st0" d="M20.1,71.6c-4.3,0-7.7,3.5-7.7,7.7c0,4.3,3.5,7.7,7.7,7.7s7.7-3.5,7.7-7.7C27.8,75,24.3,71.6,20.1,71.6z
		 M20.1,82.4c-1.7,0-3.1-1.4-3.1-3.1c0-1.7,1.4-3.1,3.1-3.1s3.1,1.4,3.1,3.1C23.2,81,21.8,82.4,20.1,82.4z"/>
	<path class="st0" d="M74.6,71.6c-4.3,0-7.7,3.5-7.7,7.7c0,4.3,3.5,7.7,7.7,7.7c4.3,0,7.7-3.5,7.7-7.7C82.3,75,78.8,71.6,74.6,71.6z
		 M74.6,82.4c-1.7,0-3.1-1.4-3.1-3.1c0-1.7,1.4-3.1,3.1-3.1s3.1,1.4,3.1,3.1C77.7,81,76.3,82.4,74.6,82.4z"/>
	<rect x="33.7" y="71.6" class="st0" width="27.2" height="10.1"/>
	<path class="st0" d="M64.2,36.4c0-1.9,0.6-4.2,1.6-6.7H53v-4.6h2.9v-4.6H38.7v4.6h2.9v4.6h-20c-7.8,0-14.1,6.3-14.1,14.1
		c0,3.1,1,5.9,2.7,8.2v5.8h74.1v-5.5c-1.2,0.3-2.5,0.5-3.8,0.5C71.5,52.8,64.2,45.5,64.2,36.4z"/>
	<path class="st1" d="M80.6,13c0,0-11.8,16.9-11.8,23.4c0,6.5,5.3,11.8,11.8,11.8c6.5,0,11.8-5.3,11.8-11.8
		C92.4,29.9,80.6,13,80.6,13z M75.7,41.4c-1.3,0-2.3-2.1-2.3-4.8c0-2.6,1-4.8,2.3-4.8c1.3,0,2.3,2.1,2.3,4.8
		C78,39.2,77,41.4,75.7,41.4z"/>
</g>
</svg>
