<?xml version="1.0" encoding="utf-8"?>
<!-- Generator: Adobe Illustrator 18.1.1, SVG Export Plug-In . SVG Version: 6.00 Build 0)  -->
<svg version="1.1" id="Layer_1" xmlns="http://www.w3.org/2000/svg" xmlns:xlink="http://www.w3.org/1999/xlink" x="0px" y="0px"
	 viewBox="0 0 100 100" style="enable-background:new 0 0 100 100;" xml:space="preserve">
<style type="text/css">
	.st0{fill:#545758;}
	.st1{fill:#FAC312;}
</style>
<g>
	<g>
		<path class="st0" d="M89.8,72.2V67h-7.5c1.7-1,2.8-2.7,3-4.6h4.5v-6.5H49.3v6.5h5c0.2,2,1.3,3.7,3,4.6H33.9c1.7-1,2.8-2.7,3-4.6
			h7.6v-27h-7.6v-6h-5.7v6c-2.7,0.1-5.8,0.9-8.6,2.3c-2.3,1.1-4.4,2.5-5.8,4.1c0,0-0.1,0.1-0.1,0.1l-0.6,0.6
			c-1.6,1.7-3.1,4.1-4.1,6.4c-1.1,2.4-1.8,4.9-1.8,6.8c0,3.7,4,6.8,8.9,6.8h5.3c0.2,2,1.3,3.7,3,4.6H10.2v20h79.5v-5.2
			C89.8,81.8,89.8,72.2,89.8,72.2z M25.2,81.8h-10v-9.6h10V81.8z M15.4,52.3c0.2-0.5,0.4-1.1,0.7-1.7c0.9-2,2.1-4,3.4-5.3l0.6-0.6
			l0.1-0.1c1-1.1,2.6-2.2,4.5-3.1c2.4-1.2,5-1.8,6.9-1.8h6.4v12.6H15.4z M40.1,81.8h-10v-9.6h10V81.8z M55,81.8H45v-9.6h10V81.8z
			 M66.6,62.4h6.2c0.2,2,1.3,3.7,3,4.6H63.6C65.3,66.1,66.5,64.4,66.6,62.4z M69.9,81.8h-10v-9.6h10V81.8z M84.8,81.8h-10v-9.6h10
			V81.8z"/>
	</g>
	<g>
		<rect x="49.3" y="35.4" class="st1" width="40.5" height="16.6"/>
		<g>
			<path class="st1" d="M34.6,29.4c-0.8-1.9-1.9-3.7-1.6-5.8c0.4-2.2,1.9-4.5,4.6-5.9c4.5-2.4,11.6-1.8,15.7-4.7
				c-1.1,0.5-1.7,1.6-2.4,2.4c-0.9,0.8-2.1,1.5-3.1,2.2c-1.8,1.2-4.4,2.5-6.7,3.3c-4.2,1.5-6.9,5.1-6.6,7.2
				C34.5,28.6,34.6,29.4,34.6,29.4z"/>
		</g>
	</g>
</g>
</svg>
