<?xml version="1.0" encoding="utf-8"?>
<!-- Generator: Adobe Illustrator 18.1.1, SVG Export Plug-In . SVG Version: 6.00 Build 0)  -->
<svg version="1.1" id="Layer_1" xmlns="http://www.w3.org/2000/svg" xmlns:xlink="http://www.w3.org/1999/xlink" x="0px" y="0px"
	 viewBox="0 0 100 100" style="enable-background:new 0 0 100 100;" xml:space="preserve">
<style type="text/css">
	.st0{fill:#545758;}
	.st1{fill:#FAC312;}
</style>
<g>
	<rect x="4.7" y="15.8" class="st0" width="90.6" height="5.1"/>
	<path class="st0" d="M11.6,71c2.9,0,5.4-1.7,6.5-4.2h4.4c1.1,2.5,3.6,4.2,6.5,4.2c3.9,0,7.1-3.2,7.1-7.1s-3.2-7.1-7.1-7.1H11.6
		c-3.9,0-7.1,3.2-7.1,7.1S7.7,71,11.6,71z"/>
	<path class="st0" d="M71,71c2.9,0,5.4-1.7,6.5-4.2H82c1.1,2.5,3.6,4.2,6.5,4.2c3.9,0,7.1-3.2,7.1-7.1s-3.2-7.1-7.1-7.1H71
		c-3.9,0-7.1,3.2-7.1,7.1S67.1,71,71,71z"/>
	<polygon class="st0" points="0,76 0,84.2 9,84.2 9,81 18.2,81 18.2,84.2 27.2,84.2 27.2,81 36.4,81 36.4,84.2 45.4,84.2 45.4,81 
		54.6,81 54.6,84.2 63.6,84.2 63.6,81 72.8,81 72.8,84.2 81.8,84.2 81.8,81 91,81 91,84.2 100,84.2 100,76 	"/>
	<path class="st1" d="M95.1,26.1H4.9v25.6h90.3V26.1z M37.2,44.1h-5.1V32.5h5.1V44.1z M47.4,44.1h-5.1V32.5h5.1V44.1z M57.7,44.1
		h-5.1V32.5h5.1V44.1z M67.9,44.1h-5.1V32.5h5.1V44.1z"/>
	<polygon class="st0" points="54.7,64.4 59.7,56.8 40.3,56.8 45.3,64.4 	"/>
</g>
</svg>
