<?xml version="1.0" encoding="utf-8"?>
<!-- Generator: Adobe Illustrator 18.1.1, SVG Export Plug-In . SVG Version: 6.00 Build 0)  -->
<svg version="1.1" id="Layer_1" xmlns="http://www.w3.org/2000/svg" xmlns:xlink="http://www.w3.org/1999/xlink" x="0px" y="0px"
	 viewBox="0 0 100 100" style="enable-background:new 0 0 100 100;" xml:space="preserve">
<style type="text/css">
	.st0{fill:#545758;}
	.st1{fill:#FAC312;}
</style>
<g>
	<polygon class="st0" points="90.2,59.2 9.8,59.2 6.2,59.2 6.2,62.6 6.2,68.9 9.8,68.9 9.8,62.6 90.2,62.6 90.2,68.9 93.8,68.9 
		93.8,62.6 93.8,59.2 	"/>
	<path class="st0" d="M18.8,66.5c-2.9,0-5.3,2.4-5.3,5.3s2.4,5.3,5.3,5.3s5.3-2.4,5.3-5.3C24.1,68.9,21.7,66.5,18.8,66.5z
		 M18.8,74.7c-1.6,0-2.8-1.3-2.8-2.8c0-1.6,1.3-2.8,2.8-2.8c1.6,0,2.8,1.3,2.8,2.8C21.6,73.4,20.3,74.7,18.8,74.7z"/>
	<circle class="st1" cx="18.8" cy="71.8" r="2.4"/>
	<path class="st0" d="M31.7,66.5c-2.9,0-5.3,2.4-5.3,5.3s2.4,5.3,5.3,5.3s5.3-2.4,5.3-5.3C37.1,68.9,34.7,66.5,31.7,66.5z
		 M31.7,74.7c-1.6,0-2.8-1.3-2.8-2.8c0-1.6,1.3-2.8,2.8-2.8c1.6,0,2.8,1.3,2.8,2.8C34.6,73.4,33.3,74.7,31.7,74.7z"/>
	<circle class="st1" cx="31.7" cy="71.8" r="2.4"/>
	<path class="st0" d="M68.3,66.5c-2.9,0-5.3,2.4-5.3,5.3s2.4,5.3,5.3,5.3s5.3-2.4,5.3-5.3C73.6,68.9,71.2,66.5,68.3,66.5z
		 M68.3,74.7c-1.6,0-2.8-1.3-2.8-2.8c0-1.6,1.3-2.8,2.8-2.8c1.6,0,2.8,1.3,2.8,2.8C71.1,73.4,69.9,74.7,68.3,74.7z"/>
	<circle class="st1" cx="68.3" cy="71.8" r="2.4"/>
	<path class="st0" d="M81.3,66.5c-3,0-5.3,2.4-5.3,5.3s2.4,5.3,5.3,5.3s5.3-2.4,5.3-5.3C86.6,68.9,84.2,66.5,81.3,66.5z M81.3,74.7
		c-1.6,0-2.8-1.3-2.8-2.8c0-1.6,1.3-2.8,2.8-2.8c1.6,0,2.8,1.3,2.8,2.8C84.1,73.4,82.8,74.7,81.3,74.7z"/>
	<circle class="st1" cx="81.3" cy="71.8" r="2.4"/>
	<path class="st1" d="M60.3,63.4v6.8c0,1.2,0.8,2.2,1.9,2.5c0-0.3-0.1-0.5-0.1-0.8c0-3.4,2.7-6.1,6.1-6.1s6.1,2.7,6.1,6.1
		c0,0.3,0,0.6-0.1,0.9H75c0-0.3-0.1-0.6-0.1-0.9c0-3.4,2.7-6.1,6.1-6.1s6.1,2.7,6.1,6.1c0,0.3,0,0.5-0.1,0.8
		c1.1-0.3,1.9-1.3,1.9-2.5v-6.8C88.9,63.4,60.3,63.4,60.3,63.4z"/>
	<rect x="3.4" y="62.4" class="st1" width="2.2" height="5.4"/>
	<rect x="2.3" y="62.9" class="st0" width="0.8" height="4.4"/>
	<rect x="94.5" y="62.4" class="st1" width="2.1" height="5.4"/>
	<path class="st0" d="M8.5,84.2v-1.7c0-0.7-0.5-1.2-1.2-1.2H5c-0.7,0-1.2,0.5-1.2,1.2v1.7H8.5z"/>
	<path class="st0" d="M20.9,84.2v-1.7c0-0.7-0.5-1.2-1.2-1.2h-2.3c-0.7,0-1.2,0.5-1.2,1.2v1.7H20.9z"/>
	<path class="st0" d="M33.4,84.2v-1.7c0-0.7-0.5-1.2-1.2-1.2h-2.3c-0.7,0-1.2,0.5-1.2,1.2v1.7H33.4z"/>
	<path class="st0" d="M45.5,84.1v-1.7c0-0.7-0.5-1.2-1.2-1.2H42c-0.7,0-1.2,0.5-1.2,1.2v1.7H45.5z"/>
	<path class="st0" d="M57.9,84.2v-1.7c0-0.7-0.5-1.2-1.2-1.2h-2.3c-0.7,0-1.2,0.5-1.2,1.2v1.7H57.9z"/>
	<path class="st0" d="M70.3,84.1v-1.7c0-0.7-0.5-1.2-1.2-1.2h-2.3c-0.7,0-1.2,0.5-1.2,1.2v1.7H70.3z"/>
	<path class="st0" d="M82.9,84.1v-1.7c0-0.7-0.5-1.2-1.2-1.2h-2.3c-0.7,0-1.2,0.5-1.2,1.2v1.7H82.9z"/>
	<path class="st0" d="M0,78.7v4h3.1v-0.2c0-1.1,0.9-1.9,1.9-1.9h2.3c1.1,0,1.9,0.9,1.9,1.9v0.2h6.2v-0.2c0-1.1,0.9-1.9,1.9-1.9h2.3
		c1.1,0,1.9,0.9,1.9,1.9v0.2h6.3v-0.2c0-1.1,0.9-1.9,1.9-1.9H32c1.1,0,1.9,0.9,1.9,1.9v0.2h6.2v-0.2c0-1.1,0.9-1.9,1.9-1.9h2.3
		c1.1,0,1.9,0.9,1.9,1.9v0.2h6.3v-0.2c0-1.1,0.9-1.9,1.9-1.9h2.3c1.1,0,1.9,0.9,1.9,1.9v0.2h6.3v-0.2c0-1.1,0.9-1.9,1.9-1.9h2.3
		c1.1,0,1.9,0.9,1.9,1.9v0.2h6.3v-0.2c0-1.1,0.9-1.9,1.9-1.9h2.3c1.1,0,1.9,0.9,1.9,1.9v0.2h6.3v-0.2c0-1.1,0.9-1.9,1.9-1.9h2.3
		c1.1,0,1.9,0.9,1.9,1.9v0.2h3.7v-4H0z"/>
	<path class="st0" d="M95.2,84.1v-1.7c0-0.7-0.5-1.2-1.2-1.2h-2.4c-0.7,0-1.2,0.5-1.2,1.2v1.7H95.2z"/>
	<g>
		<path class="st1" d="M25.6,71.7c-0.2,0.2-0.5,0.3-0.7,0.5c0,0.2,0,0.4-0.1,0.6h0.8c0-0.3-0.1-0.6-0.1-0.9
			C25.6,71.8,25.6,71.7,25.6,71.7L25.6,71.7z M39.7,63.4h-2.1c-1.2,0.9-2.5,1.8-3.7,2.7c2.3,0.9,4,3.1,4,5.7c0,0.3,0,0.5-0.1,0.8
			c1.1-0.3,1.9-1.3,1.9-2.5L39.7,63.4L39.7,63.4z"/>
		<path class="st1" d="M37.6,63.4H10.8v6.8c0,1.2,0.8,2.2,1.9,2.5c0-0.3-0.1-0.5-0.1-0.8c0-3.4,2.7-6.1,6.1-6.1s6.1,2.7,6.1,6.1
			c0,0.1,0,0.2,0,0.3c0.2-0.2,0.5-0.3,0.7-0.5c0.1-3.3,2.8-5.9,6.1-5.9c0.8,0,1.5,0.1,2.1,0.4C35.1,65.2,36.3,64.3,37.6,63.4
			L37.6,63.4z"/>
		<path class="st1" d="M86.6,15.8h-2.2h-71c-3.8,0-6.9,3.1-6.9,6.9v33.1v1.8H18h3.9h4.7h3.9h4.7h3.9h4.7H45h2.7h4.7h3.9H61h3.9h4.7
			h3.9h4.7H82h9.4h2.1V22.7C93.6,18.9,90.5,15.8,86.6,15.8z M21.9,55.8H18V22.4c0-0.7,0.6-1.4,1.4-1.4h1.2c0.7,0,1.4,0.6,1.4,1.4
			v33.4H21.9z M30.5,55.8h-3.9V22.4c0-0.7,0.6-1.4,1.4-1.4h1.2c0.8,0,1.4,0.6,1.4,1.4v33.4H30.5z M39.1,55.8h-3.9V22.4
			c0-0.7,0.6-1.4,1.4-1.4h1.2c0.7,0,1.4,0.6,1.4,1.4v33.4H39.1z M47.7,55.8h-0.5h-3.4V22.4c0-0.7,0.6-1.4,1.4-1.4h1.2
			c0.7,0,1.4,0.6,1.4,1.4v33v0.4H47.7z M56.3,55.8h-3.9v-4.5V22.4c0-0.7,0.6-1.4,1.4-1.4H55c0.7,0,1.4,0.6,1.4,1.4v25.3v8.1H56.3z
			 M64.9,55.8H61V43.1V22.4c0-0.7,0.6-1.4,1.4-1.4h1.2c0.8,0,1.4,0.6,1.4,1.4v16.7L64.9,55.8L64.9,55.8z M73.4,55.8h-3.9V34.1V22.4
			c0-0.7,0.6-1.4,1.4-1.4h1.2c0.7,0,1.4,0.6,1.4,1.4v7.3L73.4,55.8L73.4,55.8z M82,55.8h-3.9V24v-1.7c0-0.7,0.6-1.4,1.4-1.4h1h0.2
			c0.8,0,1.4,0.6,1.4,1.4L82,55.8L82,55.8z"/>
	</g>
</g>
</svg>
