<?xml version="1.0" encoding="utf-8"?>
<!-- Generator: Adobe Illustrator 18.1.1, SVG Export Plug-In . SVG Version: 6.00 Build 0)  -->
<svg version="1.1" id="Layer_1" xmlns="http://www.w3.org/2000/svg" xmlns:xlink="http://www.w3.org/1999/xlink" x="0px" y="0px"
	 viewBox="0 0 100 100" style="enable-background:new 0 0 100 100;" xml:space="preserve">
<style type="text/css">
	.st0{fill:#545758;}
	.st1{fill:#FAC312;}
</style>
<g>
	<path class="st0" d="M59.4,23.8c0.2-0.7,0.5-1.5,0.8-2.2c0.4-0.8,0.8-1.5,1.4-2.3c1.1-1.4,2.4-2.7,3.8-3.7c1.5-1,3.1-1.7,4.9-2.2
		c0.9-0.2,1.8-0.4,2.8-0.5c0.8-0.1,1.5-0.1,2.3,0c0.8,0,1.6,0.2,2.4,0.3c0.6,0.1,1.1,0.3,1.6,0.4c0.6,0.2,1.3,0.5,1.8,0.7
		c0.8,0.4,1.5,0.8,2.2,1.3c0.7,0.5,1.4,1,2,1.6c0.5,0.5,1,0.9,1.4,1.5c0.2,0.3,0.5,0.6,0.7,0.9c0.2,0.2,0.3,0.5,0.5,0.7
		c0.4,0.6,0.8,1.3,1.1,2c0.2,0.5,0.5,1.1,0.7,1.6c0.2,0.6,0.4,1.2,0.5,1.8c0.2,0.9,0.3,1.8,0.4,2.7c0,0.6,0,1.3,0,2
		c0,0.4-0.1,0.8-0.1,1.3c-0.1,0.5-0.2,1-0.3,1.5c-0.3,1.4-0.8,2.7-1.5,3.9c-0.3,0.6-0.7,1.2-1.1,1.8c-0.3,0.5-0.7,0.9-1,1.3
		c-0.6,0.6-1.1,1.2-1.8,1.7c-0.7,0.6-1.4,1.1-2.1,1.5c-0.6,0.4-1.3,0.8-2,1.1c-0.3,0.1-0.6,0.2-0.9,0.4c-0.3,0.1-0.7,0.2-1.1,0.3
		c-0.5,0.2-1,0.3-1.6,0.4c-0.9,0.2-1.9,0.3-2.8,0.3c-0.8,0-1.5,0-2.3-0.1c-0.9-0.1-1.8-0.3-2.7-0.6c-1.7-0.5-3.3-1.4-4.8-2.5
		c-1.4-1.1-2.7-2.4-3.6-3.9c-0.4-0.6-0.8-1.3-1.1-2c-0.3-0.6-0.5-1.2-0.7-1.8c0.3,0.6,0.6,1.1,1,1.7c0.4,0.7,0.9,1.3,1.5,1.9
		c1.1,1.3,2.5,2.4,4,3.2c1.6,0.9,3.4,1.5,5.2,1.8C72,44,72.9,44,73.9,44c0.4,0,0.9-0.1,1.3-0.1c0.3,0,0.5-0.1,0.8-0.1
		c0.4-0.1,0.8-0.2,1.2-0.3c0.2-0.1,0.5-0.1,0.7-0.2c0.7-0.2,1.4-0.5,2.1-0.9c0.7-0.4,1.4-0.8,2.1-1.3c0.7-0.5,1.3-1,1.9-1.6
		c0.2-0.3,0.5-0.5,0.7-0.8c0.1-0.2,0.3-0.3,0.4-0.5c0.5-0.6,0.9-1.3,1.3-2c0.4-0.8,0.7-1.6,1-2.5c0.1-0.5,0.3-1,0.4-1.5
		c0.1-0.5,0.2-0.9,0.2-1.4c0-0.3,0-0.7,0.1-1c0-0.1,0-0.3,0-0.4c0,0,0,0,0,0c0-0.1,0-0.3,0-0.4c0-0.2,0-0.4,0-0.6
		c0-0.6-0.1-1.3-0.3-1.9c-0.1-0.6-0.3-1.2-0.5-1.8c-0.3-0.8-0.7-1.7-1.1-2.4c-0.3-0.6-0.8-1.2-1.2-1.8c-0.4-0.5-0.8-0.9-1.2-1.3
		c-0.5-0.5-1.1-1-1.6-1.4c-0.6-0.5-1.3-0.8-1.9-1.2c-0.6-0.3-1.2-0.6-1.9-0.8c-0.5-0.2-1.1-0.4-1.7-0.5c-0.4-0.1-0.8-0.2-1.3-0.2
		c-0.2,0-0.5-0.1-0.7-0.1c-0.2,0-0.5,0-0.7,0c0,0,0,0,0,0c-0.9,0-1.7,0-2.6,0.1c-0.9,0.1-1.8,0.3-2.7,0.6c-1.7,0.6-3.4,1.5-4.8,2.6
		c-1.3,1-2.4,2.2-3.3,3.6C60.1,22.6,59.7,23.2,59.4,23.8z"/>
	<path class="st0" d="M65.8,26.6c0-0.2,0.1-0.3,0.1-0.5c0.1-0.2,0.1-0.4,0.2-0.6c0.1-0.2,0.2-0.4,0.3-0.6c0-0.1,0.1-0.2,0.2-0.3
		c0.1-0.1,0.1-0.2,0.2-0.3c0.3-0.4,0.5-0.7,0.8-1.1c0.3-0.3,0.5-0.6,0.9-0.8c0.3-0.3,0.6-0.5,1-0.7c0.4-0.2,0.8-0.4,1.2-0.6
		c0.4-0.2,0.9-0.3,1.3-0.4c0.2,0,0.5-0.1,0.7-0.1c0.2,0,0.3,0,0.5,0c0.2,0,0.5,0,0.7,0c0.4,0,0.8,0,1.1,0.1c0.5,0.1,0.9,0.2,1.3,0.3
		c0.4,0.1,0.9,0.3,1.3,0.5c1.1,0.6,2,1.3,2.8,2.2c0.6,0.7,1,1.5,1.4,2.3c0.5,1.3,0.8,2.6,0.7,4c-0.1,0.7-0.2,1.5-0.4,2.2
		c-0.2,0.6-0.5,1.2-0.8,1.8c-0.2,0.3-0.3,0.5-0.5,0.8c-0.2,0.3-0.4,0.5-0.6,0.8c-0.4,0.5-1,0.9-1.5,1.3c-0.8,0.5-1.6,0.9-2.4,1.1
		c-1.5,0.4-3.1,0.4-4.5,0c-1.6-0.4-3.1-1.4-4.2-2.7c-0.4-0.5-0.7-1-0.9-1.5c-0.1-0.2-0.2-0.5-0.3-0.8c-0.1-0.2-0.1-0.4-0.2-0.7
		c0.2,0.3,0.3,0.5,0.5,0.8c0.2,0.3,0.5,0.6,0.8,0.9c0.6,0.6,1.3,1.1,2.1,1.5c0.3,0.1,0.6,0.3,0.9,0.4c0.2,0.1,0.4,0.1,0.6,0.2
		c0.2,0,0.4,0.1,0.6,0.1c0.6,0.1,1.2,0.1,1.8,0.1c0,0,0,0,0,0c0,0,0.1,0,0.1,0c0.1,0,0.2,0,0.4,0c0.2,0,0.4-0.1,0.7-0.1
		c0.4-0.1,0.9-0.3,1.3-0.4c0.8-0.4,1.5-0.9,2.1-1.5c0.9-1,1.5-2.2,1.7-3.5c0-0.3,0.1-0.5,0.1-0.8c0-0.1,0-0.3,0-0.4c0,0,0,0,0,0
		c0-0.9-0.2-1.8-0.5-2.6c-0.2-0.6-0.6-1.1-0.9-1.6c-1-1.2-2.4-2.1-4-2.4c-0.2,0-0.4-0.1-0.6-0.1c-0.1,0-0.1,0-0.2,0
		c-0.1,0-0.1,0-0.2,0c0,0,0,0,0,0c-0.4,0-0.7,0-1.1,0c-0.4,0-0.9,0.1-1.3,0.2c-0.9,0.2-1.7,0.6-2.5,1.1c-0.3,0.2-0.5,0.4-0.7,0.6
		c-0.2,0.2-0.4,0.4-0.6,0.6c-0.2,0.2-0.4,0.5-0.6,0.7C66.1,26.2,66,26.4,65.8,26.6z"/>
	<path class="st1" d="M57.1,17.9c-1.9,6.4-3.8,12.8-5.7,19.2h-9.9v3.5h-2.5c0.5-1.1,0.8-2.3,0.8-3.5c0-1.7-0.5-3.4-1.6-4.8
		c-1.5-2-3.9-3.2-6.4-3.2c-1.7,0-3.3,0.5-4.7,1.6l-4.3,3.2l-4.4,3.3h-2.1c-1.9-6.4-3.8-12.8-5.7-19.2H57.1z"/>
	<path class="st1" d="M41.4,82.5C41,85.1,38.8,87,36.2,87h-8c-2.6,0-4.8-1.9-5.2-4.5H41.4z"/>
	<g>
		<path class="st0" d="M50.3,66.6c0,1.5-0.8,2.9-2,3.7H37.7v1.6h7.8c1,0.7,1.6,1.9,1.6,3.2c0,2.2-1.8,4-4,4H16.9l-7.6-7.6V48.3
			l20-14.8c2-1.5,4.8-1.1,6.3,0.9c0.6,0.8,0.9,1.8,0.9,2.8c0,1.3-0.7,2.7-1.8,3.5L29,44.8h18c1.2,0.8,2,2.2,2,3.7
			c0,1.5-0.8,2.9-2,3.7h-9.4v1.6h10.7c1.2,0.8,2,2.2,2,3.7c0,1.4-0.6,2.6-1.6,3.5h-11v1.6h10.3C49.4,63.4,50.3,64.9,50.3,66.6z"/>
	</g>
</g>
</svg>
