<?xml version="1.0" encoding="utf-8"?>
<!-- Generator: Adobe Illustrator 18.1.1, SVG Export Plug-In . SVG Version: 6.00 Build 0)  -->
<svg version="1.1" id="Layer_1" xmlns="http://www.w3.org/2000/svg" xmlns:xlink="http://www.w3.org/1999/xlink" x="0px" y="0px"
	 viewBox="0 0 100 100" style="enable-background:new 0 0 100 100;" xml:space="preserve">
<style type="text/css">
	.st0{fill:#545758;}
	.st1{fill:#FAC312;}
</style>
<g>
	<path class="st0" d="M43.2,79.4c-0.2,0-0.4,0-0.6,0c-1.4,0-2.9-0.1-4.2-0.3c-2.5-0.4-5-1.1-7.2-2.1c-3.5-1.6-6.7-3.9-9.3-6.8
		c-4.5-5-7.2-11.5-7.2-18.7c0-15.4,12.5-27.9,27.9-27.9V29c-6,0-11.7,2.3-15.9,6.6s-6.6,9.9-6.6,15.9c0,3.1,0.6,6.1,1.8,8.9
		c1.1,2.6,2.7,5,4.8,7.1c1.4,1.4,2.9,2.5,4.5,3.5c2.2,1.3,4.7,2.2,7.2,2.7c1.4,0.3,2.8,0.4,4.2,0.4c0.2,0,0.4,0,0.6,0v-6.7l4.9,4.6
		l1.2,1.1l4.4,4.1l0,0l-5.6,5.3l-1.9,1.7L43.2,87V79.4z"/>
	<g>
		<path class="st0" d="M71.4,13.6c-3.4,2.7-6.9,5.2-10.4,7.6c-1.9,1.4-2.4,4.1-1.3,6.2c0.9,1.8,1.7,3.8,2.3,5.7
			c0.7,2.3,3,3.9,5.3,3.4c1.5-0.3,3.1-0.7,4.6-1c1.1,2.4,2.3,8.3,2.3,13.9c0,5.6-1.2,11.6-2.3,13.9c-1.5-0.3-3.1-0.7-4.6-1
			c-2.3-0.4-4.5,1.1-5.3,3.4c-0.6,2-1.4,3.9-2.3,5.7c-1.1,2.1-0.6,4.8,1.3,6.2c3.5,2.4,7,5,10.4,7.6c1.8,1.5,5.1,0.2,6.9-3.3
			c0-0.1,0.1-0.1,0.1-0.2c1.5-2.8,2.7-5.8,3.7-8.9c1.8-5.5,3.2-14.5,3.2-23.5c0-9-1.3-18-3.2-23.5c-0.8-2.6-1.9-5.1-3-7.6
			c-0.2-0.5-0.5-1-0.8-1.5C76.6,13.4,73.3,12.1,71.4,13.6z"/>
	</g>
	<g>
		<path class="st1" d="M32.5,56.5c4-2.4,6.8-4.4,8.3-6c1.5-1.6,2.3-3.4,2.3-5.4c0-2-0.7-3.6-2.2-5c-1.4-1.4-3.5-2.1-6.2-2.1
			c-4.8,0-7.7,2.5-8.8,7.5l4.7,1c0.4-2.9,1.6-4.3,3.9-4.3c1,0,1.7,0.3,2.3,0.9c0.6,0.6,0.8,1.3,0.8,2.2c0,1.2-0.7,2.5-2.1,4
			c-1.4,1.4-3.7,3.3-6.8,5.5c-1.3,0.9-2.2,1.6-2.7,2v4.4H43l0.4-4.5H32.5z"/>
		<path class="st1" d="M60.6,51.8V38h-6.1l-9.2,13.9v4h9.9v5.2h5.3v-5.2h3.2v-4H60.6z M55.6,43.1c0,0.4,0,0.8,0,1.1v7.7h-6.2
			l6.2-9.7L55.6,43.1z"/>
	</g>
</g>
</svg>
