<?xml version="1.0" encoding="utf-8"?>
<!-- Generator: Adobe Illustrator 18.1.1, SVG Export Plug-In . SVG Version: 6.00 Build 0)  -->
<svg version="1.1" id="Layer_1" xmlns="http://www.w3.org/2000/svg" xmlns:xlink="http://www.w3.org/1999/xlink" x="0px" y="0px"
	 viewBox="0 0 100 100" style="enable-background:new 0 0 100 100;" xml:space="preserve">
<style type="text/css">
	.st0{fill:#545758;}
	.st1{fill:#FAC312;}
</style>
<g>
	<rect x="33.8" y="64.9" class="st1" width="31.7" height="4.3"/>
	<rect x="33.8" y="71.4" class="st1" width="31.7" height="3.8"/>
	<rect x="33.8" y="77.4" class="st1" width="31.7" height="3.6"/>
	<rect x="33.8" y="83.2" class="st1" width="31.7" height="3.8"/>
	<rect x="33.8" y="58.6" class="st1" width="31.7" height="4.1"/>
	<path class="st0" d="M76.8,34.5c2.4,0,4.3-1.9,4.3-4.3V17.3c0-2.4-1.9-4.3-4.3-4.3H23.5c-2.4,0-4.3,1.9-4.3,4.3v12.9
		c0,2.4,1.9,4.3,4.3,4.3h2v4.3h-3.2c-2,0-3.5,1.6-3.5,3.5V87h11.4V58.1c0-1.9,1.6-3.5,3.5-3.5h31.9c1.9,0,3.5,1.6,3.5,3.5V87h10.8
		V42.4c0-2-1.6-3.5-3.5-3.5h-2.1v-4.3H76.8z M22.8,30.2V17.3c0-0.4,0.3-0.7,0.7-0.7h53.3c0.4,0,0.7,0.3,0.7,0.7v12.9
		c0,0.4-0.3,0.7-0.7,0.7H23.5C23.1,30.9,22.8,30.6,22.8,30.2z M66.7,38.9H33.1v-4.3h33.6V38.9z"/>
	<path class="st0" d="M28.1,22.9c-1.1-0.4-1.6-0.6-1.6-1.2c0-0.4,0.4-0.8,1.2-0.8c0.8,0,1.4,0.2,1.7,0.4l0.4-1.5
		c-0.5-0.2-1.2-0.4-2.1-0.4c-2,0-3.2,1.1-3.2,2.5c0,1.2,0.9,2,2.3,2.5c1,0.3,1.4,0.6,1.4,1.2c0,0.5-0.5,0.9-1.3,0.9
		c-0.8,0-1.6-0.3-2.1-0.5l-0.4,1.6c0.5,0.3,1.4,0.5,2.4,0.5c2.3,0,3.4-1.2,3.4-2.6C30.2,24.2,29.5,23.5,28.1,22.9z"/>
	<polygon class="st0" points="30.9,21.1 33.1,21.1 33.1,27.9 35,27.9 35,21.1 37.3,21.1 37.3,19.5 30.9,19.5 	"/>
	<path class="st0" d="M41.7,19.4c-2.5,0-4.1,1.9-4.1,4.4c0,2.4,1.5,4.3,3.9,4.3c2.5,0,4.1-1.7,4.1-4.4
		C45.6,21.3,44.2,19.4,41.7,19.4z M41.6,26.5c-1.3,0-2-1.2-2-2.8c0-1.6,0.7-2.8,2-2.8c1.3,0,2,1.3,2,2.8
		C43.6,25.3,42.9,26.5,41.6,26.5z"/>
	<path class="st0" d="M51.4,24L51.4,24c0.7-0.3,1.5-1,1.5-2.1c0-0.8-0.3-1.4-0.8-1.8c-0.6-0.5-1.5-0.7-2.7-0.7c-1,0-1.9,0.1-2.5,0.2
		v8.3h1.9v-3.3h0.6c0.8,0,1.1,0.3,1.4,1.3c0.2,1,0.4,1.7,0.6,2h1.9c-0.2-0.3-0.4-1.4-0.7-2.4C52.3,24.8,52,24.2,51.4,24z M49.5,23.2
		h-0.7v-2.3c0.1,0,0.4-0.1,0.9-0.1c0.9,0,1.4,0.4,1.4,1.2C51,22.8,50.4,23.2,49.5,23.2z"/>
	<path class="st0" d="M56.3,19.5l-2.5,8.4h2l0.6-2.1h2.4l0.6,2.1h2.1l-2.6-8.4H56.3z M56.6,24.3l0.5-1.8c0.1-0.5,0.3-1.1,0.4-1.6h0
		c0.1,0.5,0.3,1.1,0.4,1.6l0.5,1.8H56.6z"/>
	<path class="st0" d="M66.1,24.6h1.3v1.8c-0.1,0.1-0.5,0.1-0.9,0.1c-1.6,0-2.6-1-2.6-2.7c0-1.8,1.2-2.7,2.8-2.7
		c0.9,0,1.5,0.1,1.9,0.4l0.4-1.5c-0.4-0.2-1.2-0.4-2.3-0.4c-2.7,0-4.8,1.6-4.8,4.4c0,1.2,0.4,2.3,1.2,3.1c0.8,0.7,1.9,1.1,3.4,1.1
		c1.1,0,2.2-0.3,2.8-0.5v-4.4h-3.1V24.6z"/>
	<polygon class="st0" points="72.6,24.4 75.7,24.4 75.7,22.8 72.6,22.8 72.6,21.1 75.8,21.1 75.8,19.5 70.7,19.5 70.7,27.9 76,27.9 
		76,26.3 72.6,26.3 	"/>
</g>
</svg>
