<?xml version="1.0" encoding="utf-8"?>
<!-- Generator: Adobe Illustrator 18.1.1, SVG Export Plug-In . SVG Version: 6.00 Build 0)  -->
<svg version="1.1" id="Layer_1" xmlns="http://www.w3.org/2000/svg" xmlns:xlink="http://www.w3.org/1999/xlink" x="0px" y="0px"
	 viewBox="0 0 100 100" style="enable-background:new 0 0 100 100;" xml:space="preserve">
<style type="text/css">
	.st0{fill:#545758;}
	.st1{fill:#FAC312;}
</style>
<g>
	<path class="st0" d="M71.6,46.1c0,0.1,0,0.2-0.1,0.2c-0.1-0.1-0.2-0.2-0.3-0.2H71.6z"/>
	
		<ellipse transform="matrix(-0.9848 -0.1737 0.1737 -0.9848 68.9187 116.2571)" class="st0" cx="39.5" cy="55.1" rx="6.4" ry="2.6"/>
	
		<ellipse transform="matrix(-0.9848 0.1737 -0.1737 -0.9848 124.1731 99.3622)" class="st0" cx="57.7" cy="55.1" rx="6.4" ry="2.6"/>
	
		<ellipse transform="matrix(-0.1737 0.9848 -0.9848 -0.1737 100.6907 25.7414)" class="st0" cx="39.5" cy="55.1" rx="2.6" ry="6.4"/>
	<ellipse transform="matrix(0.1738 0.9848 -0.9848 0.1738 101.9783 -11.327)" class="st0" cx="57.7" cy="55.1" rx="2.6" ry="6.4"/>
	<path class="st0" d="M71.6,46.1c0,0.1,0,0.2-0.1,0.2c-0.1-0.1-0.2-0.2-0.3-0.2H71.6z"/>
	<path class="st0" d="M76,48.6h-3.1c-0.4-1-0.8-1.8-1.4-2.3c-0.1-0.1-0.2-0.2-0.3-0.2h0.4c0-0.1,0.1-0.3,0.1-0.4
		C73.3,39,72,33,67.8,28.6c-1.1-1.2-2.5-2.3-4.1-3.2c0.1-6.7-6.5-12.2-14.9-12.4c-8.3-0.2-15.2,5.1-15.3,11.8c0,0.2,0,0.4,0,0.5
		c-1.6,0.9-2.9,2-4.1,3.2C25.3,33,24,39,25.6,45.7c0.1,0.2,0.1,0.4,0.2,0.7c-1.4,1.3-2.3,4.4-2,7.9c0.4,4.5,2.4,8.1,4.6,7.9
		c0.2,0,0.5-0.1,0.7-0.2c3,9.5,10.6,16.2,19.5,16.2c8.9,0,16.6-6.8,19.5-16.2c0.2,0.1,0.5,0.2,0.7,0.2c0.1,0,0.1,0,0.2,0
		c1.3,0,2.5-1.2,3.3-3.2c-0.9,5.3-3.1,10.1-6.4,14.1c-2.2,2.7-4.8,4.8-7.7,6.2c-1.5,0.8-3.1,1.4-4.7,1.7v-1.2H43.2V87
		c0.1,0,0.1,0,0.2,0h10.2v-2.5c2.1-0.4,4.2-1.2,6.2-2.2c3.3-1.7,6.3-4.1,8.8-7.1c5-5.9,7.7-13.8,7.7-22.1
		C76.3,51.6,76.2,50.1,76,48.6z M66.6,57c-0.1,0.8-0.3,1.7-0.5,2.5c-2.2,9.3-9.2,16.2-17.5,16.2c-8.3,0-15.3-6.8-17.5-16.2
		c-0.2-0.8-0.3-1.6-0.5-2.5c-0.2-1.2-0.3-2.5-0.3-3.8c0-1.7,0.1-3,0.4-4c0.1-0.2,0.1-0.4,0.2-0.6h35.3c0.1,0.2,0.1,0.4,0.2,0.6
		c0.3,1,0.4,2.3,0.4,3.9C66.9,54.5,66.8,55.7,66.6,57z"/>
	<path class="st1" d="M43.4,87h-0.2v0C43.3,87,43.3,87,43.4,87z"/>
	
		<ellipse transform="matrix(-0.9848 -0.1737 0.1737 -0.9848 68.9187 116.2571)" class="st0" cx="39.5" cy="55.1" rx="6.4" ry="2.6"/>
	
		<ellipse transform="matrix(-0.9848 0.1737 -0.1737 -0.9848 124.1731 99.3622)" class="st0" cx="57.7" cy="55.1" rx="6.4" ry="2.6"/>
	<path class="st1" d="M55.3,68.6c0,1.9-3.1,3.4-6.9,3.4c-3.8,0-6.9-1.5-6.9-3.4c0-0.3,0.1-0.5,0.2-0.7c0.8-0.8,3.5,0.1,6.6,0.1
		c3.4,0,6.2-1.1,6.8,0.1C55.2,68.3,55.3,68.4,55.3,68.6z"/>
	<g>
		<ellipse transform="matrix(0.9848 0.1737 -0.1737 0.9848 10.1728 -6.0306)" class="st0" cx="39.5" cy="55.1" rx="6.4" ry="2.6"/>
		<ellipse transform="matrix(0.1738 0.9848 -0.9848 0.1738 101.9783 -11.327)" class="st0" cx="57.7" cy="55.1" rx="2.6" ry="6.4"/>
	</g>
</g>
</svg>
