<?xml version="1.0" encoding="utf-8"?>
<!-- Generator: Adobe Illustrator 18.1.1, SVG Export Plug-In . SVG Version: 6.00 Build 0)  -->
<svg version="1.1" id="Layer_1" xmlns="http://www.w3.org/2000/svg" xmlns:xlink="http://www.w3.org/1999/xlink" x="0px" y="0px"
	 viewBox="0 0 100 100" style="enable-background:new 0 0 100 100;" xml:space="preserve">
<style type="text/css">
	.st0{fill:#545758;}
	.st1{fill:#FAC312;}
</style>
<g>
	<path class="st0" d="M56.1,57.4c0,0-2.1-11.2-2.1-11.2L56.1,57.4z"/>
	<path class="st0" d="M44.9,65.5l-12.3-6.8C32.6,58.8,44.9,65.5,44.9,65.5z"/>
	<path class="st0" d="M46.6,60.5l-13.9-1.8C32.6,58.8,46.6,60.5,46.6,60.5z"/>
	<polygon class="st0" points="60.3,60.5 66.3,47.8 56.1,57.4 66.3,47.8 	"/>
	<path class="st0" d="M70.9,60.6c0,0-9,4.9-9,4.9L70.9,60.6z"/>
	<path class="st0" d="M70.9,59.2l-10.6,1.3L70.9,59.2z"/>
	<path class="st0" d="M56.1,57.4c0,0-2.1-11.2-2.1-11.2L56.1,57.4z"/>
	<polygon class="st0" points="60.3,60.5 66.3,47.8 56.1,57.4 66.3,47.8 	"/>
	<path class="st0" d="M63.9,13l-1.7,5.8h9.1v4.8H60.7l-1.5,4.9h12v4.8H57.8l-1.3,4.3l-16.1,2.7c-2.5-5.8-9-8.7-16.6-8.7
		c-9.8,0-17.7,4.8-17.7,14.6v19.3h38.9l-12.3-6.8c0,0,13.9,1.8,13.9,1.8l-6-12.7l10.2,9.6c0,0,2.6-13.8,2.6-13.8l2.6,13.8l10.2-9.6
		c0,0-6,12.7-6,12.7l13.9-1.8c0,0-12.3,6.8-12.3,6.8h31.9V13H63.9z"/>
	<path class="st0" d="M70.9,60.6c0,0-9,4.9-9,4.9L70.9,60.6z"/>
	<path class="st0" d="M74.3,58.8l-3.3,1.8C70.9,60.6,74.3,58.8,74.3,58.8z"/>
	<polygon class="st0" points="74.3,58.8 70.9,59.2 60.3,60.5 70.9,59.2 	"/>
	<polygon class="st1" points="48.5,75.8 47.2,87 5.4,82 7,69.2 45.1,73.7 40.6,83.2 	"/>
	<polygon class="st1" points="94.6,82.1 59.2,86.9 57.6,75.1 66.3,83.2 61.7,73.5 92.8,69.3 	"/>
	<g>
		<path class="st0" d="M46.6,60.5l-13.9-1.8C32.6,58.8,46.6,60.5,46.6,60.5z"/>
		<path class="st0" d="M56.1,57.4c0,0-2.1-11.2-2.1-11.2L56.1,57.4z"/>
		<path class="st0" d="M66.3,47.8l-6,12.7C60.3,60.5,66.3,47.8,66.3,47.8z"/>
		<polygon class="st0" points="74.3,58.8 70.9,59.2 60.3,60.5 70.9,59.2 		"/>
		<path class="st0" d="M44.9,65.5l-12.3-6.8C32.6,58.8,44.9,65.5,44.9,65.5z"/>
		<line class="st0" x1="50.6" y1="57.2" x2="50.6" y2="57.2"/>
		<path class="st0" d="M50.6,57.2l0.2,0.2C50.8,57.4,50.6,57.2,50.6,57.2z"/>
		<path class="st0" d="M66.3,47.8c0,0-10.2,9.6-10.2,9.6C56.1,57.4,66.3,47.8,66.3,47.8z"/>
		<path class="st0" d="M70.9,60.6c0,0-9,4.9-9,4.9L70.9,60.6z"/>
		<path class="st0" d="M74.3,58.8l-3.3,1.8C70.9,60.6,74.3,58.8,74.3,58.8z"/>
	</g>
</g>
</svg>
