<?xml version="1.0" encoding="utf-8"?>
<!-- Generator: Adobe Illustrator 18.1.1, SVG Export Plug-In . SVG Version: 6.00 Build 0)  -->
<svg version="1.1" id="Layer_1" xmlns="http://www.w3.org/2000/svg" xmlns:xlink="http://www.w3.org/1999/xlink" x="0px" y="0px"
	 viewBox="0 0 100 100" style="enable-background:new 0 0 100 100;" xml:space="preserve">
<style type="text/css">
	.st0{fill:#545758;}
	.st1{fill:#FAC312;}
</style>
<g>
	<g>
		<path class="st0" d="M79.4,43.6h-3.5c-0.2-0.4-0.3-0.8-0.5-1.2c-0.3-0.6-0.7-1-1-1.4c0.1-0.2,0.1-0.5,0.2-0.7
			c0.1-0.3,0.1-0.6,0.2-0.9c1.5-7.2,0-13.7-4.6-18.4c-4.7-4.9-12.6-8-21.6-8c-9,0-17,3.1-21.6,8c-4.6,4.7-6.1,11.2-4.6,18.4
			c0.1,0.3,0.1,0.6,0.2,0.9c0.1,0.2,0.1,0.5,0.2,0.7c-0.4,0.3-0.7,0.8-1,1.4v0c-1,1.8-1.5,4.5-1.2,7.6c0.2,2,0.6,3.9,1.3,5.4
			c0,0,0,0,0,0c1,2.3,2.5,3.7,4,3.6c0.3,0,0.5-0.1,0.8-0.2c2.7,8.5,8.6,15,15.9,17.4c2,0.6,4,1,6.1,1c10.1,0,18.7-7.6,22.1-18.4
			c0.2,0.1,0.5,0.2,0.8,0.2c1.5,0.1,3-1.3,4-3.6c-1.1,6-3.5,11.5-7.2,15.9c-2.5,3-5.4,5.4-8.7,7c-1.7,0.9-3.5,1.5-5.3,2v-1.3H42.3
			V87h11.7v-2.8c2.4-0.5,4.8-1.3,7.1-2.5c3.7-1.9,7.1-4.6,9.9-8c5.6-6.7,8.7-15.6,8.7-24.9C79.7,47,79.6,45.3,79.4,43.6z M68.8,53
			c-0.1,1-0.3,1.9-0.5,2.8c-2.5,10.6-10.4,18.3-19.8,18.3c-2.1,0-4.2-0.4-6.1-1.1c-6.6-2.5-11.7-9-13.7-17.1
			c-0.2-0.9-0.4-1.9-0.5-2.8c-0.2-1.4-0.3-2.8-0.3-4.3c0-1.9,0.2-3.4,0.5-4.5c2-7.3,10-0.7,19.9-0.7c9.5,0,17.8-6.2,20.2,0
			c0.1,0.2,0.2,0.5,0.2,0.7c0.3,1.1,0.5,2.6,0.5,4.4C69.1,50.2,69,51.7,68.8,53z"/>
	</g>
	<path class="st1" d="M56,66.3c0,2.1-3.5,3.9-7.8,3.9c-2.4,0-4.5-0.5-5.9-1.3c-1.2-0.7-1.9-1.6-1.9-2.5c0-0.3,0.1-0.6,0.3-0.8
		c0.3-0.3,0.9-0.4,1.6-0.4c1.4,0.1,3.5,0.5,5.9,0.5c3.8,0,7-1.2,7.7,0.1C55.9,65.9,56,66,56,66.3z"/>
	<g>
		<path class="st0" d="M45.4,51c0,1-1.2,1.8-3.1,2.4c-1.2,0.3-2.6,0.5-4.1,0.5c-4,0-7.2-1.3-7.2-2.9c0-1.6,3.2-2.9,7.2-2.9
			c1.5,0,3,0.2,4.1,0.5C44.2,49.1,45.4,50,45.4,51z"/>
		<ellipse class="st0" cx="58.7" cy="51" rx="7.2" ry="2.9"/>
	</g>
</g>
</svg>
