<?xml version="1.0" encoding="utf-8"?>
<!-- Generator: Adobe Illustrator 18.1.1, SVG Export Plug-In . SVG Version: 6.00 Build 0)  -->
<svg version="1.1" id="Layer_1" xmlns="http://www.w3.org/2000/svg" xmlns:xlink="http://www.w3.org/1999/xlink" x="0px" y="0px"
	 viewBox="0 0 100 100" style="enable-background:new 0 0 100 100;" xml:space="preserve">
<style type="text/css">
	.st0{fill:#545758;}
	.st1{fill:#FAC312;}
</style>
<g>
	<g>
		<path class="st0" d="M57.9804268,63.7883911c0,0-0.050045,0.1551437-0.1457825,0.4543991
			c-0.0490761,0.1500168-0.1103783,0.3354492-0.182785,0.5570831c-0.0767326,0.2181015-0.171566,0.4699402-0.2777061,0.7579727
			c-0.215519,0.5734253-0.4983673,1.2702026-0.8725853,2.0721512c-0.088829,0.2034454-0.1940842,0.4060974-0.2975731,0.619072
			c-0.106842,0.2121887-0.210331,0.4371796-0.3311272,0.6588135c-0.1207047,0.2225189-0.2448578,0.4510422-0.373333,0.6872406
			c-0.127594,0.23806-0.2724953,0.4708252-0.4147491,0.7174454c-1.1520576,1.9532089-2.7774925,4.2054901-5.0359573,6.360466
			c-0.284481,0.2655182-0.5690956,0.5441055-0.8743286,0.802742c-0.1518135,0.1311264-0.3043938,0.2639313-0.4578629,0.3975296
			c-0.1561127,0.1302414-0.3164673,0.2570419-0.4769096,0.3871994c-0.6372643,0.525116-1.3253899,1.0141296-2.0428352,1.5021667
			c-0.1802216,0.1198196-0.3646812,0.2336426-0.5492287,0.3517914c-0.1854324,0.1164627-0.3690948,0.2406158-0.5622978,0.3475494
			c-0.382782,0.2207489-0.76828,0.4518356-1.1700478,0.6570435c-0.7959633,0.4355011-1.6393242,0.8097153-2.5085526,1.1727219
			c-1.7479095,0.6950989-3.6362839,1.2520981-5.6342812,1.5573578c-0.4984589,0.087944-1.0045967,0.1414566-1.5159454,0.1983185
			c-0.2552757,0.0276413-0.5122337,0.03965-0.7709541,0.0604019c-0.1284752,0.0086517-0.2586327,0.0180969-0.38797,0.0267487
			c-0.1414795,0.0034485-0.2837296,0.0085678-0.42519,0.0120087c-0.2414131,0.0060959-0.4837074,0.0129852-0.7260056,0.0181046
			c-0.1215897,0.0034409-0.2431793,0.0069733-0.364769,0.0104218c-0.029295,0.0016785-0.0620766,0.0007935-0.09828-0.000885
			l-0.1026936-0.0043259l-0.2068882-0.0068893c-0.2768211-0.0112152-0.5536442-0.0224304-0.8312607-0.033638
			c-0.1396923-0.0060043-0.2793827-0.0128937-0.419075-0.0189896c-0.1336861-0.0128937-0.2682571-0.0258713-0.4027386-0.038765
			c-0.5381031-0.0569534-1.0830936-0.0913849-1.6254368-0.1897583c-0.2716122-0.0439682-0.5449905-0.087944-0.8183689-0.1319199
			c-0.1379261-0.0197754-0.2733574-0.0499725-0.4095383-0.0801773c-0.1362476-0.0293121-0.2724953-0.0586319-0.409626-0.088829
			c-0.2742615-0.0595169-0.5484352-0.1207047-0.8243752-0.1811066c-0.2724953-0.0749664-0.5458736-0.1509018-0.8191643-0.2267532
			c-0.1371307-0.0388489-0.2751236-0.0776138-0.4130688-0.1163788l-0.2060947-0.0586319
			c-0.0681667-0.021637-0.1362476-0.0457382-0.2044163-0.0690536c-0.2724953-0.0930634-0.5449009-0.1871033-0.8191643-0.2802658
			c-0.1362476-0.0474167-0.2741718-0.0948334-0.4113026-0.1422501c-0.1353645-0.054306-0.2708187-0.1078186-0.4070663-0.163002
			c-0.2707291-0.1094971-0.5432243-0.2198715-0.8157196-0.330246l-0.2043285-0.0836182l-0.201767-0.0948334
			c-0.1336861-0.0629578-0.2682571-0.1259232-0.4018555-0.1906433c-0.2690525-0.127594-0.5397816-0.2526321-0.8088322-0.3863144
			c-0.2639313-0.1422501-0.5294304-0.2853851-0.7950592-0.4285202c-0.2664909-0.1440201-0.5346603-0.2853928-0.7924976-0.4492798
			c-0.261282-0.1595535-0.522562-0.3190308-0.7847061-0.4794693c-0.2647457-0.1551437-0.5147915-0.3405762-0.7717476-0.5130234
			c-0.255188-0.1767807-0.5130253-0.3509979-0.7674408-0.5328979c-0.2492723-0.1906433-0.498456-0.3811951-0.7494068-0.5717468
			l-0.3751001-0.288826c-0.1250343-0.0966034-0.2439747-0.202652-0.3655643-0.3044662
			c-0.2431593-0.2060928-0.4863596-0.4138641-0.7295399-0.620842c-0.1232672-0.1017227-0.2397356-0.2129745-0.3569984-0.3233566
			l-0.3526726-0.3311234l-0.3526726-0.3336868c-0.1181459-0.1112595-0.237175-0.2207565-0.3484344-0.3406677
			c-0.2267551-0.23452-0.4543943-0.4699326-0.6811504-0.7053452c-0.1121416-0.1190262-0.2302876-0.2337265-0.3380146-0.3578796
			l-0.3268881-0.3725433c-0.2172871-0.250061-0.4346161-0.5009232-0.6527185-0.7509918
			c-0.2069759-0.2621689-0.4148359-0.5243301-0.6234894-0.7864914l-0.3112602-0.3957672
			c-0.1043711-0.1310349-0.1992054-0.2724915-0.2992506-0.4087448c-0.1974401-0.2741699-0.3940849-0.5501099-0.5924082-0.8252563
			c-0.1008396-0.1362457-0.1923189-0.2810593-0.285387-0.4241943l-0.2785888-0.4311676l-0.2785001-0.4320602l-0.1388083-0.216423
			l-0.1310382-0.2233124c-0.3449903-0.5985031-0.7054329-1.1882629-1.0184584-1.8134308
			c-0.1603541-0.310463-0.3268003-0.6166-0.4811502-0.9321899c-0.1474619-0.3190231-0.2958069-0.6381454-0.4440632-0.9571762
			l-0.2198687-0.4811478l-0.2018342-0.492363c-0.1345024-0.3285675-0.2689843-0.657135-0.4026508-0.986496
			c-0.125937-0.3328934-0.2423172-0.6709061-0.3639069-1.0071564c-0.1199124-0.3363342-0.2440629-0.6726723-0.3441076-1.0184593
			c-0.105166-0.3431358-0.209537-0.6880379-0.3138201-1.0321426c-0.025872-0.0862694-0.0543931-0.172451-0.0768216-0.2595177
			l-0.0680797-0.2621613l-0.1344817-0.5251236c-0.37254-1.3978882-0.6321437-2.8335686-0.8485684-4.2762222l-0.1250336-1.0874214
			l-0.0611923-0.5449905l-0.014658-0.136158L2.1130142,53.460495l-0.0197794-0.2733803l-0.0750554-1.0942192l-0.0181017-0.2733803
			l-0.0077704-0.2742615l-0.0137749-0.5484352l-0.0112143-0.5475502l-0.0052097-0.2750549l-0.0025607-0.1362495
			c-0.0025607,0.0620766,0.000883-0.1646805,0.000883-0.1612358l0.000883-0.0612831l0.0241061-0.9804001l0.0120971-0.4906845
			L1.9984,48.283165l0.0051215-0.0716095l0.0086534-0.1439285l0.0181017-0.2880402l0.0784991-1.1520538
			c0.0068874-0.0948372,0.011126-0.1957626,0.0223401-0.2845955l0.0310819-0.2724953l0.0611923-0.5441055l0.0620754-0.5432281
			c0.0216336-0.1811028,0.0414128-0.3622093,0.0733776-0.5415459l0.1741288-1.0778847
			c0.0310817-0.1793404,0.0560708-0.3595619,0.0922742-0.53722l0.1103756-0.5328941
			c0.5734239-2.84478,1.462522-5.59552,2.6438956-8.1419296c0.1500225-0.3173523,0.2948356-0.6363831,0.4475069-0.9502907
			c0.1612368-0.3078156,0.3215909-0.6165161,0.4829159-0.9244194l0.2414136-0.4612827l0.2587209-0.4475956
			c0.1733341-0.2974854,0.3466001-0.5940857,0.5191188-0.891571c0.1784554-0.2923622,0.3690081-0.5743065,0.5535564-0.8605766
			c0.187109-0.2837105,0.3656521-0.5743065,0.5665359-0.8451252c0.1966457-0.2732906,0.3924084-0.5475521,0.5889654-0.8200474
			l0.1465788-0.2043266c0.050066-0.0672855,0.103488-0.1319218,0.1543493-0.1974411l0.3095818-0.3932915
			c0.2086544-0.2586308,0.409626-0.5251217,0.6242847-0.7760735c0.217308-0.2483006,0.4338207-0.4958076,0.6510401-0.7424297
			l0.3242397-0.3690968l0.3388977-0.3517895c0.2259607-0.2328491,0.4510393-0.4664917,0.6761169-0.6993408
			c0.2293377-0.2276382,0.4664927-0.4440632,0.6984577-0.664814l0.3509064-0.3276844
			c0.0586319-0.0543041,0.1155853-0.1103764,0.1758947-0.1621189l0.1811256-0.1543503
			c0.4854555-0.4069767,0.9580612-0.828701,1.4616184-1.1977978c0.2475061-0.1887856,0.4949245-0.3776608,0.7415476-0.5665359
			c0.2552776-0.1741276,0.5087891-0.3483448,0.7622986-0.5233574c0.5019016-0.3569984,1.0287895-0.6596928,1.5435829-0.976162
			c0.255188-0.1621208,0.522562-0.2992516,0.7846394-0.4423866c0.2639503-0.1413689,0.5260048-0.2837086,0.7872868-0.4241962
			c0.2664909-0.1293602,0.5346603-0.2527161,0.8002892-0.3777485c0.133667-0.0620766,0.26647-0.1250343,0.3983917-0.187109
			l0.1992054-0.0922756l0.2025623-0.082737c0.2690506-0.109581,0.5381031-0.2181911,0.8062725-0.3267994
			c0.1336861-0.0543938,0.267374-0.1078167,0.4009724-0.1613255c0.1354523-0.0474186,0.2708168-0.0930691,0.4070644-0.1404858
			c0.2698689-0.0914803,0.5397816-0.1828709,0.8088341-0.2742634l0.201767-0.0672836l0.2035332-0.0577488
			c0.1362476-0.0379696,0.2716331-0.0758495,0.4069767-0.1138191c0.2707291-0.074173,0.5406647-0.1491394,0.8097153-0.2241955
			c0.270731-0.0646362,0.5415478-0.1207066,0.8113937-0.1802216c0.2699356-0.0569534,0.5372219-0.1215897,0.8071556-0.1690083
			c0.2699566-0.0422955,0.5389881-0.0836201,0.8071556-0.1259155c0.1336002-0.0206623,0.2672863-0.0414124,0.4009743-0.0611935
			l0.2000217-0.0310802l0.2000675-0.0197792c0.2672863-0.0267563,0.5337772-0.0526276,0.7993851-0.0785007
			c0.5285664-0.064724,1.0571346-0.0672846,1.5796967-0.08883c0.1302433-0.0043259,0.2604866-0.0086527,0.3906422-0.0128918
			c0.1293602-0.0069752,0.2603989,0.0025606,0.3897591,0.0034437c0.2587185,0.0051222,0.5165577,0.0112143,0.7726307,0.0163355
			c0.1284752,0.0034437,0.2561569,0.0060053,0.3837509,0.0095367l0.1344833,0.0025606l0.088829,0.0068874l0.1758957,0.0128918
			c0.2346153,0.0198679,0.4691429,0.0379696,0.7019882,0.0560703c0.2595177,0.0284328,0.5191193,0.0578384,0.7760773,0.0853882
			c0.127594,0.0164242,0.2603951,0.0267544,0.3819847,0.0474167c0.1232681,0.0189838,0.2457428,0.0370865,0.3682137,0.0560703
			c0.1223869,0.0189857,0.2439766,0.0379696,0.3664474,0.0560722c0.1215897,0.0189838,0.2431793,0.0378799,0.3639107,0.0629578
			c0.2405968,0.0482121,0.4803543,0.0957184,0.7183037,0.1431351c0.2388725,0.0465336,0.4742622,0.1094933,0.708786,0.1629143
			c0.2346153,0.0551872,0.4673767,0.1103764,0.6976624,0.1785431c0.2302208,0.0637531,0.4587212,0.128479,0.6863632,0.1914368
			c0.2250786,0.0732899,0.4492722,0.1465778,0.6725845,0.2181911c0.1112595,0.0362034,0.2216339,0.073288,0.3320084,0.1094913
			c0.1103783,0.0405312,0.2190742,0.0801773,0.3285675,0.1198254c0.2181892,0.0819416,0.4346161,0.1586761,0.6484795,0.2415009
			c0.4259605,0.1758957,0.8484802,0.3405762,1.2554588,0.5354557c0.8218117,0.3656521,1.6004448,0.7820778,2.3472023,1.208128
			c1.4866295,0.8700256,2.8214684,1.8332081,4.0020485,2.8352432c2.3592148,2.0151939,4.0942307,4.1580734,5.3454514,6.0318985
			c1.2485695,1.8823929,2.0324135,3.4906101,2.5178909,4.603817c0.118145,0.2793808,0.2234001,0.526886,0.3139076,0.7398682
			c0.083622,0.2164268,0.1534653,0.3984146,0.2104187,0.5449905c0.1112595,0.2931595,0.1690102,0.4440651,0.1690102,0.4440651
			s-0.0888329-0.1310387-0.2578392-0.3854332c-0.0845032-0.126709-0.1896706-0.2845917-0.3147049-0.4717026
			c-0.1285629-0.1827812-0.2768211-0.3948784-0.4458275-0.635498c-0.0819435-0.1207047-0.1758728-0.2440605-0.2724953-0.374218
			c-0.0974846-0.1293602-0.2000694-0.2664909-0.3070221-0.409626c-0.2129822-0.2862701-0.4578362-0.5880814-0.7147942-0.9157639
			c-0.1345482-0.1595592-0.2733765-0.3251228-0.4165115-0.4958076c-0.0724945-0.0853882-0.1440201-0.1733341-0.2199554-0.2596035
			c-0.0767365-0.0861816-0.1543503-0.172451-0.2327385-0.261282c-0.0785217-0.0888309-0.1578178-0.1784554-0.2388763-0.269846
			c-0.0793839-0.0922756-0.1621208-0.1836662-0.2492714-0.2742615c-0.1715698-0.1811047-0.3465805-0.3682137-0.5285683-0.5596504
			c-1.4702034-1.4995193-3.3724632-3.1560383-5.7473068-4.5978107c-1.1873779-0.7156754-2.48946-1.3762512-3.8924675-1.9402275
			c-0.7062263-0.2672863-1.428791-0.53722-2.1832962-0.748436c-0.3743286-0.118145-0.759758-0.2044163-1.14431-0.3079033
			c-0.1931992-0.0465355-0.3897591-0.0861816-0.5854988-0.1301556c-0.0983887-0.0215454-0.1957817-0.0439739-0.2949219-0.064724
			c-0.0991859-0.0181026-0.1983452-0.0362034-0.2975082-0.0551872c-0.1992073-0.0353203-0.3992958-0.0715237-0.6001778-0.1069336
			c-0.201767-0.029314-0.4044189-0.05863-0.6079483-0.0879459c-0.202652-0.0327606-0.4078407-0.0534229-0.6139565-0.0749683
			c-0.206974-0.0198669-0.4121857-0.0482998-0.620842-0.0612793c-0.8286781-0.0671978-1.6944847-0.0887432-2.5015526-0.0740852
			c-0.2328491,0.009449-0.4673767,0.0188961-0.7027855,0.0275497l-0.1758957,0.0077705l-0.088829,0.0025616
			c-0.0017662,0.0043259-0.0422974,0.0077705-0.0422974,0.0077705c-0.1086082,0.0095367-0.2173042,0.0198669-0.3250313,0.0293159
			c-0.2181931,0.0189838-0.4363823,0.0388508-0.6545734,0.0577469c-0.1094933,0.0120983-0.2198677,0.014658-0.3284779,0.0336437
			c-0.1086979,0.0155411-0.2181911,0.0319653-0.3276844,0.0482998c-0.4380589,0.0681686-0.8795605,0.1172638-1.3176193,0.217308
			c-0.2198696,0.0439739-0.4398251,0.0879478-0.6613712,0.1319218l-0.1655636,0.0327587l-0.1647701,0.0431786
			c-0.1094913,0.0293159-0.2189846,0.0577488-0.329361,0.0861816c-0.2190514,0.0578365-0.4406185,0.1147022-0.6613712,0.1716557
			c-0.1103745,0.0266666-0.2190514,0.068964-0.3285446,0.1017227c-0.1094933,0.0345249-0.2189865,0.0689621-0.3285885,0.104372
			c-0.2198677,0.0698452-0.4406185,0.1353645-0.6604881,0.2095375c-0.2164249,0.0818539-0.4354973,0.1646805-0.6536884,0.2474174
			c-0.1086102,0.0414124-0.2181015,0.0828266-0.3275948,0.1233559l-0.1638641,0.0620747l-0.1621418,0.0715237
			c-0.2155418,0.094923-0.4319668,0.1906414-0.6484585,0.2854767c-0.1086102,0.0465336-0.217329,0.0939522-0.3259392,0.1405735
			c-0.1060486,0.054306-0.2129803,0.1077271-0.319912,0.1621208c-0.2138634,0.1060486-0.4277287,0.2129803-0.6423874,0.3207073
			c-1.7057018,0.8856544-3.343235,2.0238495-4.8798409,3.3535671c-0.3923206,0.3207951-0.75453,0.6898041-1.1296291,1.0399151
			l-0.1405754,0.1328049c-0.0456505,0.044857-0.0897141,0.0940399-0.1344814,0.1396904l-0.2699356,0.282032
			c-0.1784554,0.1879921-0.3621864,0.3698921-0.5381031,0.5630932c-0.1733341,0.196558-0.3457851,0.3932018-0.5191193,0.591526
			L15.5840807,30.191l-0.2475271,0.3104649c-0.1655636,0.2069759-0.3302441,0.4139519-0.4966908,0.6217232
			c-0.0845041,0.1009274-0.157793,0.2147465-0.2379704,0.3216801l-0.2362919,0.3233566l-0.2370872,0.3242397
			c-0.0388527,0.0543022-0.080265,0.1069298-0.1173515,0.1621208l-0.1111708,0.1690063
			c-0.1492281,0.224987-0.2983675,0.4491844-0.4475956,0.6751442c-0.1534662,0.2207527-0.285387,0.4604874-0.4268446,0.6933365
			c-0.1379251,0.2336426-0.2837095,0.463932-0.4164257,0.7027855c-0.1311264,0.2396469-0.2621431,0.4811478-0.3932905,0.7216797
			l-0.196557,0.3622093l-0.1802216,0.3725395c-0.1207066,0.2483025-0.2422962,0.4966927-0.3638868,0.7449913
			c-0.1138191,0.2527161-0.2207508,0.5105553-0.3320093,0.7648621c-0.1103764,0.2552757-0.2259617,0.5087852-0.3199129,0.7718315
			c-0.1017227,0.2612839-0.201767,0.5225639-0.3026943,0.7829628c-0.0249891,0.0655174-0.0526066,0.1301537-0.0749674,0.1965561
			l-0.0664024,0.2000885l-0.133687,0.4000931l-0.1344814,0.4009705c-0.0457191,0.1328049-0.0914793,0.2656097-0.1276827,0.4027405
			c-0.1500225,0.545784-0.3242188,1.083889-0.4458294,1.6400948c-0.0671968,0.2759399-0.1335783,0.5518761-0.201767,0.828701
			l-0.1637974,0.8390312l-0.0828266,0.4199562c-0.0275497,0.1404877-0.043973,0.2828293-0.0664015,0.4241982l-0.1284771,0.8493614
			c-0.0249891,0.1405754-0.0370865,0.2837105-0.0517445,0.4268456l-0.0465345,0.4286118l-0.0474176,0.4277267l-0.0241938,0.2138634
			c-0.0085649,0.0732918-0.0094481,0.1362495-0.0137749,0.2034454l-0.053422,0.8045959l-0.014658,0.200882l-0.0068874,0.1009293
			l-0.0043058,0.0499763l-0.0008831,0.0603981L8.620059,49.0255966l-0.0198679,0.9812851l0.0189848,0.7803993l0.0077705,0.4329376
			l0.0034647,0.2155418l0.0155201,0.2164268l0.0560036,0.8623428l0.0129595,0.2155418l0.0068874,0.1078148l0.0120964,0.1069298
			l0.0474176,0.428524l0.0939522,0.8571358c0.172451,1.1322746,0.3492289,2.2670288,0.6347046,3.3682251
			c0.2578373,1.1106415,0.6079493,2.1868515,0.9726305,3.252636c0.1018105,0.2612839,0.2026501,0.5225639,0.3035774,0.784729
			l0.1509056,0.3923187l0.1673298,0.3828735c0.1120529,0.2560692,0.2233114,0.5113487,0.3345709,0.7666245
			c0.1154966,0.2535095,0.2422962,0.4992523,0.3612375,0.7493172c0.970953,1.9936523,2.1618624,3.8312759,3.5027065,5.4808197
			c1.3306017,1.6634064,2.8378916,3.1086197,4.4331293,4.3469467c0.3924084,0.3207932,0.8089218,0.5949707,1.2150154,0.8864517
			c0.201767,0.1500168,0.4130707,0.2776108,0.6217251,0.4096222c0.2086544,0.1327133,0.4182796,0.2655182,0.6260509,0.397438
			c0.2120972,0.1224747,0.4259624,0.2397385,0.6389427,0.3596497l0.3182354,0.1793442l0.1586761,0.0913849l0.1629143,0.0801773
			c0.2165127,0.1087036,0.4329376,0.2165146,0.6475964,0.3242416c0.1078148,0.0535126,0.2156506,0.1069336,0.3234444,0.1612396
			c0.1094933,0.0474167,0.2189865,0.0949173,0.3284779,0.1423416c0.2190742,0.0957108,0.4380608,0.1905518,0.6553669,0.2853851
			c0.0551891,0.0233078,0.1086979,0.0491791,0.163887,0.0707245l0.166357,0.0611954
			c0.1103764,0.0405273,0.2207527,0.0819397,0.3311272,0.1224747c0.2216358,0.0836182,0.4415035,0.1673279,0.6605778,0.2500687
			c0.2233124,0.0698395,0.4449463,0.1396866,0.6673756,0.2095337c0.1112576,0.0353165,0.2216339,0.0698471,0.3320103,0.1051636
			c0.1112576,0.035408,0.2216339,0.0716171,0.3336868,0.0974884c0.2242832,0.0560684,0.4467335,0.1129379,0.6692505,0.1690063
			c0.443161,0.127594,0.8924332,0.2000885,1.3373795,0.2931595c0.1112595,0.0224228,0.2225189,0.0448532,0.3328934,0.0681686
			c0.1060486,0.0146561,0.2129822,0.0309906,0.3190308,0.0456467c0.2120972,0.0310822,0.424284,0.0621643,0.6346149,0.0931549
			l0.1586761,0.0242004l0.0793839,0.0120087c0.0258713,0.0043259,0.053421,0.0077667,0.0845032,0.0095367
			c0.1215897,0.0103302,0.2431793,0.0206604,0.3639069,0.0301056c0.2422752,0.020752,0.4836884,0.040535,0.724308,0.0612793
			l0.1802216,0.0146637l0.0897369,0.0077667c0.068058,0.0025635-0.0423203,0.000885-0.0164452,0.0016785l0.0414124,0.00177
			c0.1103745,0.0043259,0.2198677,0.0085602,0.3302422,0.012886c0.2181931,0.0060959,0.4380608,0.0215454,0.65625,0.0215454
			c0.2181015,0,0.4346161,0,0.6510391,0c0.217308,0.0052109,0.4319878-0.0120087,0.6467133-0.0180969
			c1.7202721-0.0586319,3.3793526-0.3276825,4.9548111-0.7200089c1.5720139-0.4078598,3.0568771-0.9545288,4.4331512-1.600441
			c0.6837769-0.332016,1.3495636-0.6717072,1.9789696-1.0433655c0.1570206-0.0922699,0.3156738-0.1819839,0.4700241-0.2751389
			c0.1534691-0.0973969,0.3052559-0.1931152,0.4552803-0.2888336c0.3061371-0.1854324,0.5949669-0.3897552,0.8847046-0.5846405
			c0.0715904-0.0491791,0.1439934-0.0982742,0.2156067-0.1465759c0.0698471-0.0517426,0.1396904-0.1026077,0.2095375-0.1543503
			c0.1388092-0.1018066,0.276844-0.2035294,0.4147491-0.3035736c0.1388054-0.0973969,0.2699318-0.2052155,0.4018555-0.3078156
			c0.1328049-0.1034927,0.2638397-0.2061005,0.3940849-0.3087006c0.2587204-0.2060928,0.5044594-0.4217224,0.7518806-0.6260529
			c0.2440605-0.2095337,0.4760246-0.4242859,0.7088737-0.6303787c0.9149055-0.8441544,1.7142677-1.6866302,2.4110489-2.4843369
			c0.6984558-0.7967377,1.2778854-1.5615921,1.7763405-2.2376251c0.2422981-0.3432236,0.473381-0.6588058,0.6691437-0.9606171
			c0.1983223-0.2983704,0.3871956-0.568306,0.5381012-0.819252c0.1560516-0.2500687,0.294838-0.4708252,0.413887-0.661377
			c0.1146812-0.1957626,0.2120781-0.3613205,0.2896919-0.4941254
			C57.8993683,63.9254341,57.9804268,63.7883911,57.9804268,63.7883911z"/>
	</g>
	<g>
		<path class="st0" d="M56.461834,63.7883911c0,0-0.181015,0.3664474-0.5337791,1.039032
			c-0.097393,0.163887-0.2068863,0.3475571-0.3267975,0.5493164c-0.0602875,0.1026077-0.1258278,0.2069778-0.1939964,0.3173523
			c-0.0336418,0.055191-0.0672874,0.1120605-0.1043739,0.169014c-0.0370827,0.0542984-0.0749664,0.1103745-0.1138191,0.1672363
			c-0.1577911,0.2285233-0.3267975,0.4742661-0.507019,0.7364273c-0.1896706,0.2526321-0.4000931,0.5131149-0.621727,0.7950592
			c-0.4492722,0.5527649-0.9778404,1.1390762-1.5961189,1.7323685c-0.1500244,0.1543503-0.3147926,0.2958069-0.4811516,0.4423828
			c-0.1682129,0.1465836-0.3388977,0.296608-0.5131149,0.4483948c-0.1767769,0.1483459-0.363884,0.2871552-0.5527611,0.4355011
			c-0.0948334,0.072403-0.1905518,0.1456909-0.2871513,0.2189789c-0.048214,0.0370865-0.0965118,0.074173-0.1456985,0.1121445
			c-0.0499763,0.0353241-0.1009254,0.0680771-0.1509056,0.1034851c-0.4078598,0.2732925-0.8252563,0.5725479-1.2805328,0.824379
			c-0.1129379,0.0655212-0.2276382,0.1327133-0.3414574,0.1991196c-0.1155853,0.0656052-0.2294044,0.1388931-0.3501129,0.1957626
			c-0.2406197,0.1190262-0.4837112,0.2406158-0.7303123,0.3630905c-0.9968452,0.4638443-2.0833855,0.8924484-3.2569885,1.1752777
			c-0.1465797,0.0379715-0.2940407,0.0793839-0.4423866,0.1155853c-0.1491394,0.0293198-0.300045,0.0586319-0.4509506,0.0879517
			c-0.1509056,0.0293121-0.3035545,0.0577469-0.4561615,0.087059c-0.153553,0.0293198-0.3079033,0.0604019-0.4639282,0.0767365
			c-0.311348,0.0388489-0.6269341,0.0793839-0.9468498,0.1147003c-0.3095818,0.0215454-0.6226044,0.0422974-0.9390526,0.0629578
			c-0.0732918,0.0052109-0.1465797,0.0103302-0.2207527,0.0146561c-0.0862007,0-0.1724701,0-0.2586517,0.000885
			c-0.1742172-0.0017624-0.3492317-0.0026474-0.5243301-0.0043259c-0.3604431,0.0025635-0.6881065-0.0258713-1.029583-0.0483017
			c-0.1698914-0.0128937-0.3414612-0.0189819-0.5122337-0.0379715c-0.1706848-0.0215454-0.3423424-0.0430908-0.5147934-0.0655136
			c-0.171566-0.0224304-0.3457832-0.0430908-0.5191154-0.0698471c-0.1724319-0.0318756-0.345787-0.0646362-0.5191193-0.0966034
			c-0.1741295-0.0335541-0.3492317-0.0671921-0.5242424-0.1008377c-0.1742172-0.0422974-0.3492279-0.0862656-0.5234451-0.1293564
			c-0.1750107-0.0448608-0.3509941-0.0897141-0.5268898-0.1344833c-0.1749916-0.055191-0.3492279-0.109581-0.5242386-0.164772
			c-0.1758957-0.0551834-0.3518562-0.1111679-0.528656-0.1681213c-0.1732483-0.0646362-0.3483467-0.129364-0.5233574-0.1957626
			c-0.1751022-0.0680847-0.3518791-0.1319199-0.5268898-0.2043304c-0.172451-0.0767288-0.345787-0.1543503-0.5200043-0.2319641
			c-0.1733322-0.0793839-0.3509064-0.1517868-0.5216789-0.2388535c-0.172451-0.088829-0.344902-0.1758957-0.5173531-0.2647247
			c-0.3492279-0.1698914-0.6837997-0.3759842-1.0253448-0.5760727c-0.6794739-0.4044189-1.3442879-0.8596954-1.9936504-1.3572693
			c-2.598156-1.9910889-4.8918514-4.7512741-6.5543537-8.0324364C20.10602,58.971508,19.1135216,55.165226,18.9375381,51.315937
			l-0.0163345-0.7208862l-0.0060043-0.3604431l-0.0035324-0.1811028l-0.0007954-0.044857l0.0016785-0.1344833l0.0017662-0.0776138
			l0.0155392-0.6166039l0.0085659-0.3078156l0.0017662-0.0767326c0-0.0241966,0.0025616-0.0629578,0.0043259-0.0931587
			l0.0120106-0.1931114l0.0517426-0.7718353c0.0095367-0.127594,0.0173073-0.2595177,0.0293159-0.3828735l0.0423183-0.3577919
			l0.0861588-0.7139969l0.0215664-0.1785469l0.0293846-0.1767769l0.0577469-0.354351l0.1181469-0.7071114l0.1456966-0.699337
			c0.0517426-0.2328491,0.0948334-0.4673767,0.1569099-0.6959c0.0603962-0.2285194,0.1208153-0.4579239,0.1811047-0.6863594
			l0.0905952-0.3423424c0.0318985-0.1138191,0.068985-0.2259598,0.1034222-0.3380127
			c0.0707073-0.2250786,0.1405525-0.4492722,0.2103977-0.6734695c0.0664024-0.2250786,0.1509056-0.4423866,0.2294064-0.6631355
			c0.0810585-0.2181931,0.1612358-0.4371758,0.2414131-0.6553688c1.351263-3.4665031,3.3992176-6.4690742,5.7947445-8.76021
			c2.4023724-2.2911339,5.1497574-3.8622665,7.8711796-4.7116299c1.3598289-0.4286098,2.7145348-0.6795597,4.0227089-0.7821655
			c0.3276825-0.0172195,0.6518555-0.0430908,0.9726295-0.0508614c0.320797-0.0017662,0.6390533,0,0.9528542,0.0034447
			c0.3139076,0.014658,0.6243706,0.0370846,0.9304237,0.0560703c0.0922737,0.0060043,0.1845474,0.0120964,0.2768211,0.0172176
			c0.0689621,0.0095367,0.1380119,0.0181026,0.2061157,0.0276394c0.1371078,0.0188961,0.2733574,0.0378799,0.4087219,0.0568657
			c0.0681,0.0086536,0.1353645,0.0181007,0.2026482,0.0284328l0.1008377,0.0129795l0.0509491,0.0077705l0.0577507,0.0094471
			c0.1525841,0.0276394,0.3043709,0.0551891,0.4561615,0.0819435c0.300045,0.0551872,0.6045036,0.1051655,0.8769989,0.1819
			c0.2784996,0.0716114,0.5535583,0.1380138,0.8226089,0.213068c0.2672844,0.0861816,0.5312157,0.1706848,0.7916145,0.2535114
			c0.1301765,0.0396461,0.2569542,0.0888309,0.3837547,0.1379261c0.1250343,0.0482998,0.2500687,0.0965996,0.3742409,0.1449013
			c0.1241264,0.0474167,0.2466011,0.0957165,0.3690948,0.1431351c0.1189194,0.0543041,0.2388306,0.1086102,0.3569756,0.1621189
			c0.2345276,0.1103764,0.467289,0.2104206,0.6923676,0.3233566c0.2216339,0.1181469,0.4407082,0.2345276,0.65625,0.3492298
			c0.8502464,0.477705,1.6142197,0.9796066,2.2799187,1.5047302c0.1664467,0.1310368,0.3311272,0.2552757,0.4881248,0.3837528
			c0.1525841,0.1336002,0.3026085,0.2638435,0.4491844,0.3923206c0.2966919,0.2475052,0.5562286,0.5182362,0.8080406,0.7622986
			c0.2535095,0.2397366,0.4742622,0.4958076,0.6872444,0.7234459c0.2138634,0.2259617,0.3984108,0.4596043,0.5717659,0.670908
			c0.3526497,0.4147491,0.6173744,0.8071556,0.8390121,1.1089668c0.1120529,0.1500244,0.1974373,0.2974854,0.2767334,0.4173088
			c0.0768204,0.1224709,0.1432228,0.2241936,0.1948776,0.3061371c0.1043739,0.1655655,0.1569977,0.2509499,0.1569977,0.2509499
			s-0.3086967-0.2259598-0.8873291-0.6484795c-0.1456985-0.0991592-0.3095818-0.2104187-0.4898033-0.3320084
			c-0.1750145-0.1259155-0.3759842-0.2483025-0.5906448-0.3819885c-0.1069298-0.0664024-0.2181892-0.1353645-0.3328934-0.2060928
			c-0.1129341-0.075058-0.2388535-0.1344833-0.3621178-0.207859c-0.2500687-0.1388092-0.5071106-0.2982826-0.7950592-0.4337349
			c-0.2845917-0.1422501-0.5777512-0.2957191-0.8968697-0.4310818c-0.157795-0.0707302-0.3181458-0.1432247-0.4828262-0.2165146
			c-0.1673317-0.0655174-0.3372192-0.132803-0.5113487-0.200882c-0.3432236-0.1440201-0.7123222-0.256073-1.0865173-0.3854332
			c-0.0465584-0.0155411-0.0940628-0.0310822-0.1405983-0.0474167c-0.0482979-0.0129814-0.0965996-0.0267563-0.1448097-0.0397358
			c-0.0974846-0.0266666-0.1949463-0.053421-0.2932472-0.0818539c-0.1965561-0.0526276-0.3914375-0.11903-0.5983925-0.1595592
			c-0.2035522-0.0457401-0.4096489-0.0922737-0.6191826-0.1405754c-0.2086563-0.044857-0.4242859-0.0758495-0.6398277-0.1154976
			c-0.1078148-0.0181007-0.216423-0.0370846-0.3259163-0.0551872c-0.1103783-0.0138626-0.2207527-0.0267544-0.3328934-0.0397358
			c-0.1103783-0.0137749-0.2224312-0.0275497-0.335453-0.0422077c-0.1111717-0.014658-0.2241974-0.0284328-0.339695-0.0336418
			c-0.2268448-0.0155411-0.4579239-0.0309925-0.690773-0.0465336c-0.2336464-0.0103321-0.4699135-0.0086536-0.7070236-0.0138645
			c-0.242363-0.0111256-0.4656982,0.0104198-0.6951027,0.0164242c-0.1138191,0.0043278-0.2284317,0.0086536-0.344017,0.0129814
			l-0.0430908,0.0007935l-0.0508614,0.0043278l-0.1017914,0.0077705c-0.0673065,0.0060043-0.1353836,0.0112133-0.2035522,0.0164223
			c-0.1361618,0.0112152-0.2732697,0.0223408-0.4113045,0.033556c-0.0680809,0.005209-0.137043,0.0104179-0.2060928,0.0155392
			c-0.054306,0,0.0431786,0.0017662,0.0241928,0.0025616l-0.0233116,0.0043259l-0.0465355,0.006094l-0.0931549,0.0137749
			c-0.2483025,0.0370865-0.4984589,0.0698452-0.7502022,0.1086102c-0.2500687,0.0526257-0.5018997,0.103487-0.7545052,0.1509056
			c-0.2526512,0.0551872-0.5053673,0.1267986-0.7588768,0.1888733c-1.0131607,0.2759399-2.0289726,0.65625-3.0250015,1.1486149
			c-1.9909782,0.9830513-3.9010315,2.4291496-5.5264683,4.2916718c-1.6203136,1.8669395-2.9439392,4.1425323-3.8131714,6.6501808
			c-0.0499783,0.1586761-0.0991611,0.3173523-0.1509056,0.4751434c-0.0508614,0.1586761-0.1086082,0.3138237-0.1491394,0.4768257
			l-0.1336861,0.4820328c-0.0224285,0.0810585-0.0474186,0.1604424-0.0664024,0.2422943l-0.0560703,0.2457428l-0.113821,0.4906845
			c-0.0206623,0.0810623-0.0353203,0.163887-0.0491829,0.247509l-0.0474167,0.2475052l-0.0957184,0.4966888l-0.0724068,0.502697
			l-0.0370865,0.2509499l-0.0189838,0.1259155l-0.0119877,0.1267128l-0.0509701,0.5061378l-0.0266666,0.2527161
			l-0.0138645,0.2310829l-0.0301094,0.4570427l-0.0095367,0.1138191c-0.0008831,0.0206642-0.0034447,0.0344391-0.0034447,0.0611954
			l-0.0016766,0.0776138l-0.0052109,0.3078156l-0.0129795,0.6166039l-0.0007954,0.0767326
			c0-0.0293159-0.0017662,0.1224747,0.0007954-0.0577469l0.0008831,0.0318756l0.0034657,0.128479l0.0068665,0.2560692
			c0.0043259,0.1707726,0.0095348,0.3415489,0.0112133,0.5122337c0.1250343,2.7249527,0.759737,5.4015198,1.8479538,7.8013535
			l0.2120991,0.4449463c0.0690498,0.1491394,0.1380138,0.2983665,0.2173061,0.4397354
			c0.1552334,0.2871552,0.3001347,0.5804024,0.4682579,0.8563423c0.0819435,0.1404839,0.1630039,0.2810593,0.2440643,0.4207497
			c0.0827579,0.1380157,0.1733322,0.2708168,0.2587204,0.4070663c0.0887413,0.1335983,0.1706848,0.2732887,0.2629585,0.4035339
			c0.0922737,0.1302414,0.1845474,0.2603989,0.276823,0.3897591c0.17766,0.2664909,0.379427,0.5087852,0.5690956,0.7614136
			c0.0940399,0.128479,0.1966457,0.2457428,0.2983894,0.3647728c0.1009064,0.1207047,0.201746,0.2397346,0.3026733,0.3586769
			c0.1008606,0.1207924,0.211235,0.227726,0.314703,0.3441048c0.104372,0.1147003,0.2095375,0.2285233,0.3139076,0.3423386
			c0.1094933,0.1086121,0.2189865,0.2164307,0.3276844,0.3242416l0.1637974,0.1621246
			c0.0535107,0.0551834,0.1086979,0.1077271,0.1664467,0.1577911c1.7832279,1.6641998,3.8131733,2.8818665,5.8852329,3.6251755
			c0.1293602,0.0465393,0.2587204,0.093956,0.3880806,0.1404877c0.1293602,0.0414124,0.2603989,0.0776215,0.3906403,0.1164703
			c0.1310387,0.0405273,0.2603989,0.0801773,0.3897591,0.1189423c0.1293602,0.0397339,0.2604218,0.0656052,0.3906441,0.0991592
			c0.2595139,0.0629578,0.5267982,0.1354523,0.7622986,0.1742172c0.1207047,0.0233154,0.2422943,0.0474167,0.3630028,0.072403
			l0.1819,0.0388565c0.074173,0.0094452,0.1466866,0.0189819,0.2199783,0.0275497
			c0.2707062,0.0336456,0.5388756,0.0672836,0.8044853,0.1000443c0.2569542,0.0172195,0.5122299,0.0388489,0.7657394,0.0603943
			c0.127594,0.0146637,0.2535133,0.0146637,0.3794518,0.0154572c0.1258049,0.0017624,0.2517204,0.0035324,0.3767548,0.0060883
			c0.1250343,0.0025635,0.2500687,0.0043335,0.3743057,0.0068893c0.1241531-0.0025558,0.2474174-0.0103302,0.3698921-0.0137711
			c0.9873772-0.0189896,1.9315948-0.1621246,2.8335648-0.3372192c0.2250786-0.0508652,0.4466248-0.1008453,0.665699-0.1491394
			c0.2198677-0.0517502,0.4319649-0.1207123,0.6450348-0.1785507c0.428524-0.1086044,0.8294945-0.2681656,1.2304688-0.4009705
			c0.0491829-0.0180969,0.0991592-0.0335541,0.1492271-0.0517426c0.048233-0.0206604,0.0965118-0.0405273,0.1439285-0.0603104
			c0.0957184-0.0405273,0.1914368-0.0801773,0.2863617-0.1190262c0.1896667-0.0801773,0.3802223-0.1509094,0.5622101-0.2336426
			c0.1811028-0.0871582,0.3586769-0.1716614,0.5328941-0.2561646c0.1750107-0.0827332,0.3501091-0.161232,0.513134-0.255188
			c0.6647949-0.3518753,1.2657661-0.7157669,1.8029861-1.0675507c0.2639313-0.182785,0.5191193-0.3526764,0.7537346-0.5225677
			c0.2319679-0.1758957,0.4492722-0.3414536,0.6518364-0.4950104c0.0509491-0.038765,0.1009483-0.0767365,0.1501083-0.1138229
			c0.0483017-0.0387573,0.093071-0.0776138,0.137928-0.1154938c0.0905952-0.0767365,0.1767769-0.1500244,0.2603989-0.2190704
			c0.1682129-0.1413727,0.3216782-0.2681732,0.4596024-0.3828735C56.1695595,64.0470276,56.461834,63.7883911,56.461834,63.7883911z
			"/>
	</g>
	<path class="st0" d="M85.0267334,13.3251495c-5.3005905,2.1954174-10.6011887,4.3908348-15.9018021,6.5862503
		c-2.8914032,1.2495422-4.2150269,4.6996212-3.2414246,7.7461681c0.8467102,2.6309147,1.5400696,5.2980328,2.0807114,7.9893475
		c0.6320572,3.1120644,3.4673843,5.4256287,6.5992508,5.102272c2.1230164-0.2518349,4.2460251-0.5035782,6.3682404-0.754528
		c0.4630432,3.3112679,0.965744,5.4247437,0.965744,9.9786682c0,5.5575485-0.4630508,6.7104912-0.965744,10.031208
		c-2.1222153-0.2509499-4.245224-0.5026932-6.3682404-0.754528c-3.1327438-0.3233566-5.9671936,1.9893227-6.5992508,5.103157
		c-0.5406418,2.6904297-1.2340012,5.3575439-2.0807114,7.9884644c-0.9736023,3.0465469,0.3500214,6.4975052,3.2414246,7.7461624
		c5.3006134,2.1954193,10.6012115,4.3908386,15.9018021,6.5871353c2.8818665,1.2477798,6.7312393-1.201149,8.1281586-5.5541077
		c0.0267563-0.0819397,0.0526276-0.1646805,0.0793839-0.2475052c1.1442871-3.5846481,2.0841522-7.216713,2.8197021-10.879776
		c2.6498947-13.1959,2.6498947-26.7919807,0-39.9878807c-0.6225204-3.0982914-1.3900299-6.1750355-2.3049164-9.2190208
		c-0.1914291-0.6371765-0.3897552-1.2735596-0.5941696-1.9091473
		C91.7579727,14.5254192,87.9085999,12.0773745,85.0267334,13.3251495z"/>
	<g>
		<path class="st1" d="M37.7290459,56.3172836c3.5803223-2.1307831,6.0379257-3.9010315,7.3736267-5.3109283
			c1.3366051-1.409893,2.0039825-3.0121078,2.0039825-4.8074341c0-1.7349319-0.6372681-3.228447-1.9151535-4.4805489
			c-1.2761841-1.2520142-3.1078262-1.8789482-5.4955597-1.8789482c-4.2589149,0-6.857933,2.223938-7.7934971,6.670845
			l4.1709652,0.9320984c0.3147049-2.5739594,1.4598732-3.8605003,3.4319801-3.8605003
			c0.847683,0,1.522831,0.2535133,2.0247307,0.7614174c0.5044594,0.5087852,0.7554092,1.1511726,0.7554092,1.9306908
			c0,1.0649948-0.6312599,2.2351532-1.893692,3.5130386c-1.262413,1.2754135-3.278511,2.9017334-6.049118,4.8729553
			c-1.1347313,0.7985001-1.9479103,1.3865814-2.4402752,1.7607994v3.9183388h15.1464596l0.339695-4.0218239H37.7290459z"/>
		<path class="st1" d="M62.7412415,52.1454315V39.8394241h-5.4049683l-8.1436958,12.3060074v3.5346718h8.8300552v4.6590042
			h4.7186089v-4.6590042h2.824913v-3.5346718H62.7412415z M58.2744675,44.3510551
			c-0.020752,0.374218-0.0293159,0.6950111-0.0293159,0.9614143v6.832962h-5.4860268l5.5446587-8.6230774L58.2744675,44.3510551z"/>
	</g>
</g>
</svg>
