<?xml version="1.0" encoding="utf-8"?>
<!-- Generator: Adobe Illustrator 18.1.1, SVG Export Plug-In . SVG Version: 6.00 Build 0)  -->
<svg version="1.1" id="Layer_1" xmlns="http://www.w3.org/2000/svg" xmlns:xlink="http://www.w3.org/1999/xlink" x="0px" y="0px"
	 viewBox="0 0 100 100" style="enable-background:new 0 0 100 100;" xml:space="preserve">
<style type="text/css">
	.st0{fill:#545758;}
	.st1{fill:#FAC312;}
</style>
<g>
	<path class="st0" d="M71.2,26.4l-24.5-8c-2-0.7-4.2,0.4-4.9,2.5l-16.1,49c-0.7,2,0.4,4.2,2.5,4.9l24.5,8c2,0.7,4.2-0.4,4.9-2.5
		l16.1-49C74.4,29.2,73.2,27,71.2,26.4z M37.4,72.5c-0.2,0.5-0.7,0.8-1.3,0.6l-4.8-1.6c-0.5-0.2-0.8-0.7-0.6-1.3l1-3.2
		c0.2-0.5,0.7-0.8,1.3-0.6l4.8,1.6c0.5,0.2,0.8,0.7,0.6,1.3L37.4,72.5z M39.7,65.4c-0.2,0.5-0.7,0.8-1.3,0.6l-4.8-1.6
		c-0.5-0.2-0.8-0.7-0.6-1.3l1-3.2c0.2-0.5,0.7-0.8,1.3-0.6l4.8,1.6c0.5,0.2,0.8,0.7,0.6,1.3L39.7,65.4z M42.1,58.2
		c-0.2,0.5-0.7,0.8-1.3,0.6l-4.8-1.6c-0.5-0.2-0.8-0.7-0.6-1.3l1-3.2c0.2-0.5,0.7-0.8,1.3-0.6l4.8,1.6c0.5,0.2,0.8,0.7,0.6,1.3
		L42.1,58.2z M45.6,75.2c-0.2,0.5-0.7,0.8-1.3,0.6l-4.8-1.6c-0.5-0.2-0.8-0.7-0.6-1.3l1-3.2c0.2-0.5,0.7-0.8,1.3-0.6l4.8,1.6
		c0.5,0.2,0.8,0.7,0.6,1.3L45.6,75.2z M47.9,68.1c-0.2,0.5-0.7,0.8-1.3,0.6l-4.8-1.6c-0.5-0.2-0.8-0.7-0.6-1.3l1-3.2
		c0.2-0.5,0.7-0.8,1.3-0.6l4.8,1.6c0.5,0.2,0.8,0.7,0.6,1.3L47.9,68.1z M50.3,60.9c-0.2,0.5-0.7,0.8-1.3,0.6L44.2,60
		c-0.5-0.2-0.8-0.7-0.6-1.3l1-3.2c0.2-0.5,0.7-0.8,1.3-0.6l4.8,1.6c0.5,0.2,0.8,0.7,0.6,1.3L50.3,60.9z M53.8,77.9
		c-0.2,0.5-0.7,0.8-1.3,0.6l-4.8-1.6c-0.5-0.2-0.8-0.7-0.6-1.3l1-3.2c0.2-0.5,0.7-0.8,1.3-0.6l4.8,1.6c0.5,0.2,0.8,0.7,0.6,1.3
		L53.8,77.9z M56.1,70.7c-0.2,0.5-0.7,0.8-1.3,0.6L50,69.8c-0.5-0.2-0.8-0.7-0.6-1.3l1-3.2c0.2-0.5,0.7-0.8,1.3-0.6l4.8,1.6
		c0.5,0.2,0.8,0.7,0.6,1.3L56.1,70.7z M58.5,63.6c-0.2,0.5-0.7,0.8-1.3,0.6l-4.8-1.6c-0.5-0.2-0.8-0.7-0.6-1.3l1-3.2
		c0.2-0.5,0.7-0.8,1.3-0.6l4.8,1.6c0.5,0.2,0.8,0.7,0.6,1.3L58.5,63.6z M63,55.7c-0.2,0.7-1,1.1-1.7,0.9l-24.5-8
		c-0.7-0.2-1.1-1-0.9-1.7l8.3-25.3c0.2-0.7,1-1.1,1.7-0.9l24.5,8c0.7,0.2,1.1,1,0.9,1.7L63,55.7z"/>
	<g>
		<path class="st1" d="M47.9,29.9c-0.1,0-0.3,0-0.4,0c-0.7,0.1-1.4,0.4-1.9,0.8c-0.5,0.5-1.1,1.2-1.6,2.1l3.2,1.5
			c0.4-0.7,0.7-1.2,1.1-1.4c0.2-0.1,0.4-0.2,0.7-0.2c0.2,0,0.3,0,0.5,0.1c0.4,0.1,0.7,0.4,0.9,0.8c0.2,0.4,0.2,0.8,0,1.2
			c-0.1,0.4-0.4,0.7-0.8,1c-0.4,0.3-1.2,0.7-2.5,1.1c-2,0.7-3.5,1.5-4.4,2.2c-0.9,0.7-1.6,1.6-2.1,2.7l9.9,3.5l1-3l-5.1-1.8
			c0.4-0.2,0.8-0.4,1.1-0.5c0.3-0.1,0.9-0.3,1.7-0.6c1.4-0.5,2.5-1,3.2-1.6c0.1-0.1,0.3-0.2,0.4-0.4c-1-1.9-1.9-3.9-2.8-5.8
			c-0.3-0.6-0.5-1.1-0.8-1.7C48.6,30,48.2,29.9,47.9,29.9L47.9,29.9z"/>
		<path class="st1" d="M81.2,63.4l-3.7-4.8c-1.2,3.8-3.1,7.3-5.7,10.2c-3.1,3.6-7,6.4-11.4,8.1l-1.3,3.9c-0.7,2.2-2.8,3.8-5.2,3.8
			c-0.6,0-1.2-0.1-1.7-0.3l-24.5-8c-2.9-0.9-4.4-4-3.5-6.9l1.3-3.9c-2.5-4-4.1-8.6-4.4-13.5l8.2,0.6L18.7,38.6L6.2,50.9l6.7,0.5
			C13.7,71.1,30,87,49.9,87c10.7,0,20.3-4.5,27-11.8c4.2-4.5,7.4-10.2,8.9-16.4L81.2,63.4z"/>
		<path class="st1" d="M86.9,48.8C86.3,29,69.9,13,49.9,13c-2.5,0-5,0.3-7.4,0.7c-14.1,2.9-25.4,13.8-28.6,27.8l4.9-4.8l3.6,4.7
			c2.6-8.4,8.9-15.1,17-18.3l0.9-2.8c0.5-1.6,1.8-2.9,3.3-3.4c0.6-0.2,1.2-0.3,1.9-0.3c0.6,0,1.1,0.1,1.7,0.3l24.5,8
			c1.4,0.5,2.5,1.4,3.2,2.7c0.7,1.3,0.8,2.8,0.3,4.2l-0.9,2.8c2.5,4,4.1,8.7,4.4,13.7l-8.1-0.5l6.3,8.2l4.3,5.6l6.8-6.7l5.7-5.6
			L86.9,48.8z"/>
		<path class="st1" d="M49.1,30.1c0.3,0.6,0.5,1.1,0.8,1.7c0.9,2,1.8,3.9,2.8,5.8c0.5-0.5,0.8-1.1,1.1-1.7c0.3-0.7,0.3-1.5,0.2-2.2
			c-0.2-0.7-0.5-1.4-1-1.9c-0.5-0.5-1.4-1-2.6-1.4C49.8,30.2,49.4,30.1,49.1,30.1L49.1,30.1z"/>
		<path class="st1" d="M65.1,35.6l-2.9-1l-8.3,5.4l-0.5,0.3l-1.1,3l4,1.4l2,0.7l-0.6,1.8l-0.2,0.7l0.8,0.3l2.1,0.7l0.9-2.4l1.5,0.5
			l1-2.8l-1.5-0.5L65.1,35.6z M59.4,42.7l-3.2-1.1l4.6-3L59.4,42.7z"/>
	</g>
</g>
</svg>
