<?xml version="1.0" encoding="utf-8"?>
<!-- Generator: Adobe Illustrator 18.1.1, SVG Export Plug-In . SVG Version: 6.00 Build 0)  -->
<svg version="1.1" id="Layer_1" xmlns="http://www.w3.org/2000/svg" xmlns:xlink="http://www.w3.org/1999/xlink" x="0px" y="0px"
	 viewBox="0 0 100 100" style="enable-background:new 0 0 100 100;" xml:space="preserve">
<style type="text/css">
	.st0{fill:#545758;}
	.st1{fill:#FAC312;}
</style>
<g>
	<path class="st1" d="M21.2,12.9v13.5c1.8-3.1,5.1-5.3,9-5.3h39.1c3.8,0,7.2,2.1,9,5.3V12.9H21.2z"/>
	<g>
		<path class="st0" d="M21.2,57.3v13.8h1.9v12.8c0,1.7,1.4,3.2,3.1,3.2h1.5c1.7,0,3.1-1.4,3.1-3.2c0,1.7,1.4,3.2,3.1,3.2h1.5
			c1.7,0,3.1-1.4,3.1-3.2v-3.2H61v3.2c0,1.7,1.4,3.2,3.1,3.2h1.5c1.7,0,3.1-1.4,3.1-3.2c0,1.7,1.4,3.2,3.1,3.2h1.5
			c1.7,0,3.1-1.4,3.1-3.2V71.1h1.9V57.3H21.2z M40.1,67.4H28.3v-5.9h11.8V67.4z M71.2,67.4H59.4v-5.9h11.8V67.4z"/>
	</g>
	<g>
		<path class="st0" d="M80.1,38.7h-3.5c0,0-0.1,0-0.1,0v-7.2c0-3.9-3.2-7.1-7.1-7.1H30.2c-3.9,0-7.1,3.2-7.1,7.1v7.2h-3.2
			c0,0,0,0,0,0c-1.8,0-3.2,1.5-3.2,3.2v9c0,1.8,1.4,3.2,3.2,3.2c0,0,0,0,0,0h56.5v0c0,0,0.1,0,0.1,0h3.5c1.8,0,3.2-1.4,3.2-3.2v-9
			C83.3,40.1,81.8,38.7,80.1,38.7z M72.4,50.1H27.1V31.5c0-1.7,1.4-3.1,3.1-3.1h39.1c1.7,0,3.1,1.4,3.1,3.1V50.1z"/>
	</g>
</g>
</svg>
