<?xml version="1.0" encoding="utf-8"?>
<!-- Generator: Adobe Illustrator 18.1.1, SVG Export Plug-In . SVG Version: 6.00 Build 0)  -->
<svg version="1.1" id="Layer_1" xmlns="http://www.w3.org/2000/svg" xmlns:xlink="http://www.w3.org/1999/xlink" x="0px" y="0px"
	 viewBox="0 0 100 100" style="enable-background:new 0 0 100 100;" xml:space="preserve">
<style type="text/css">
	.st0{fill:#545758;}
	.st1{fill:#FAC312;}
</style>
<g>
	<rect y="20.6" class="st1" width="71.2" height="36.6"/>
	<rect x="34.5" y="62.2" class="st0" width="25.6" height="11.3"/>
	<path class="st1" d="M95.9,31.1H76.2v26.2c6.2,0.8,11.1,5.8,11.8,12.1H100V35.1C100,32.9,98.2,31.1,95.9,31.1z M94.9,46.4h-9.4
		V36.2h9.4V46.4z"/>
	<path class="st0" d="M74.5,62.2c-4.7,0-8.6,3.8-8.6,8.6c0,4.7,3.8,8.6,8.6,8.6c4.7,0,8.6-3.8,8.6-8.6
		C83.1,66.1,79.2,62.2,74.5,62.2z M74.5,74.3c-1.9,0-3.5-1.6-3.5-3.5c0-1.9,1.6-3.5,3.5-3.5c1.9,0,3.5,1.6,3.5,3.5
		C78,72.7,76.4,74.3,74.5,74.3z"/>
	<path class="st0" d="M0,67.3h6.9c0.5-1.9,1.4-3.6,2.6-5.1H0V67.3z"/>
	<path class="st0" d="M20.1,62.2c-4.7,0-8.6,3.8-8.6,8.6c0,4.7,3.8,8.6,8.6,8.6c4.7,0,8.6-3.8,8.6-8.6
		C28.7,66.1,24.9,62.2,20.1,62.2z M20.1,74.3c-1.9,0-3.5-1.6-3.5-3.5c0-1.9,1.6-3.5,3.5-3.5c1.9,0,3.5,1.6,3.5,3.5
		C23.6,72.7,22,74.3,20.1,74.3z"/>
</g>
</svg>
