<?xml version="1.0" encoding="utf-8"?>
<!-- Generator: Adobe Illustrator 18.1.1, SVG Export Plug-In . SVG Version: 6.00 Build 0)  -->
<svg version="1.1" id="Layer_1" xmlns="http://www.w3.org/2000/svg" xmlns:xlink="http://www.w3.org/1999/xlink" x="0px" y="0px"
	 viewBox="0 0 100 100" style="enable-background:new 0 0 100 100;" xml:space="preserve">
<style type="text/css">
	.st0{fill:#545758;}
	.st1{fill:#FAC312;}
</style>
<g>
	<path class="st1" d="M38.3,46.5l-6,24.4c0.7,0.4,1.4,0.6,2.3,0.6c2,0,2.9-0.9,4.8-2.8c2.1-2.3,5.1-5.4,10.7-5.4
		c5.6,0,8.5,3.1,10.7,5.4c1.8,1.9,2.7,2.8,4.8,2.8c0.9,0,1.6-0.2,2.3-0.6l-6-24.4c3.9-0.2,7-3.4,7-7.3v-9.3c0-4-3.3-7.3-7.3-7.3
		H38.7c-4,0-7.3,3.3-7.3,7.3v9.3C31.4,43.1,34.4,46.3,38.3,46.5z M52.4,27.4h8.9c1.3,0,2.4,1.1,2.4,2.4V32H52.4V27.4z M52.4,36.9
		h11.3v2.2c0,1.3-1.1,2.4-2.4,2.4h-8.9V36.9z M36.3,29.8c0-1.3,1.1-2.4,2.4-2.4h8.9V32H36.3V29.8z M36.3,36.9h11.3v4.6h-8.9
		c-1.3,0-2.4-1.1-2.4-2.4V36.9z"/>
	<path class="st0" d="M65.4,75.5c-7.7,0-7.7-8.2-15.4-8.2c-7.7,0-7.7,8.2-15.4,8.2c-7.7,0-7.7-8.1-15.4-8.2V87h61.6V67.4
		C73.1,67.4,73.1,75.5,65.4,75.5z"/>
	<polygon class="st0" points="50,13 39.6,16.5 39.6,18.4 60.4,18.4 60.4,16.5 	"/>
</g>
</svg>
