<?xml version="1.0" encoding="utf-8"?>
<!-- Generator: Adobe Illustrator 18.1.1, SVG Export Plug-In . SVG Version: 6.00 Build 0)  -->
<svg version="1.1" id="Layer_1" xmlns="http://www.w3.org/2000/svg" xmlns:xlink="http://www.w3.org/1999/xlink" x="0px" y="0px"
	 viewBox="0 0 100 100" style="enable-background:new 0 0 100 100;" xml:space="preserve">
<style type="text/css">
	.st0{fill:#545758;}
	.st1{fill:#FAC312;}
</style>
<g>
	<path class="st0" d="M40.1,58.2v-25c0-2.8-2.3-5.2-5.2-5.2H19c-2.8,0-6.4,2-7.9,4.4L2.7,45.9C1.2,48.3,0,52.6,0,55.5v11.9
		c0,2.8,2.3,5.2,5.2,5.2h3.6c1.7-5.7,6.9-9.9,13.2-9.9c6.2,0,11.5,4.2,13.2,9.9h0v0h29.5c1.7-5.7,6.9-9.9,13.2-9.9
		c6.2,0,11.5,4.2,13.2,9.9h9.1V58.2H40.1z M36,44.5H8.5l6.2-9.9c0.3-0.4,0.9-1.1,1.9-1.7c1-0.6,1.9-0.8,2.4-0.8h15.9
		c0.6,0,1,0.5,1,1V44.5z"/>
	<rect x="47.2" y="14.3" class="st1" width="52.8" height="37.7"/>
	<path class="st0" d="M87.2,76.3c0,5.2-4.2,9.4-9.4,9.4c-5.2,0-9.4-4.2-9.4-9.4c0-5.2,4.2-9.4,9.4-9.4C83,66.9,87.2,71.1,87.2,76.3z
		"/>
	<path class="st0" d="M31.3,76.3c0,5.2-4.2,9.4-9.4,9.4c-5.2,0-9.4-4.2-9.4-9.4c0-5.2,4.2-9.4,9.4-9.4
		C27.1,66.9,31.3,71.1,31.3,76.3z"/>
	<path class="st0" d="M87.2,76.3c0,5.2-4.2,9.4-9.4,9.4c-5.2,0-9.4-4.2-9.4-9.4c0-5.2,4.2-9.4,9.4-9.4C83,66.9,87.2,71.1,87.2,76.3z
		"/>
	<path class="st0" d="M31.3,76.3c0,5.2-4.2,9.4-9.4,9.4c-5.2,0-9.4-4.2-9.4-9.4c0-5.2,4.2-9.4,9.4-9.4
		C27.1,66.9,31.3,71.1,31.3,76.3z"/>
</g>
</svg>
