<?xml version="1.0" encoding="utf-8"?>
<!-- Generator: Adobe Illustrator 18.1.1, SVG Export Plug-In . SVG Version: 6.00 Build 0)  -->
<svg version="1.1" id="Layer_1" xmlns="http://www.w3.org/2000/svg" xmlns:xlink="http://www.w3.org/1999/xlink" x="0px" y="0px"
	 viewBox="0 0 100 100" style="enable-background:new 0 0 100 100;" xml:space="preserve">
<style type="text/css">
	.st0{fill:#545758;}
	.st1{fill:#FAC312;}
</style>
<g>
	<rect x="40.8" y="18.2" class="st1" width="59.2" height="35.5"/>
	<path class="st0" d="M27.5,73.6c0,4.5-3.7,8.2-8.2,8.2c-4.5,0-8.2-3.7-8.2-8.2c0-4.5,3.7-8.2,8.2-8.2C23.8,65.3,27.5,69,27.5,73.6z
		"/>
	<path class="st0" d="M27.5,73.6c0,4.5-3.7,8.2-8.2,8.2c-4.5,0-8.2-3.7-8.2-8.2c0-4.5,3.7-8.2,8.2-8.2C23.8,65.3,27.5,69,27.5,73.6z
		"/>
	<path class="st0" d="M35.2,59.1V35.7c0-2.5-2-4.5-4.5-4.5h-14c-2.5,0-5.6,1.7-6.9,3.8L2.4,46.9C1.1,49,0,52.8,0,55.3v10.4
		c0,2.5,2,4.5,4.5,4.5h3.1c1.5-5,6.1-8.7,11.6-8.7c5.5,0,10.1,3.7,11.6,8.7v0h8.9c1.5-5,6.1-8.7,11.6-8.7c5.5,0,10.1,3.7,11.6,8.7h0
		V59.1H35.2z M31.6,45.7H7.4l5.4-8.7c0.2-0.4,0.8-1,1.7-1.5c0.9-0.5,1.7-0.7,2.1-0.7h14c0.5,0,0.9,0.4,0.9,0.9V45.7z"/>
	<path class="st0" d="M59.5,73.6c0,4.5-3.7,8.2-8.2,8.2s-8.2-3.7-8.2-8.2c0-1.2,0.3-2.3,0.7-3.4c1.3-2.9,4.2-4.9,7.5-4.9
		c3.3,0,6.2,2,7.5,4.9C59.3,71.2,59.5,72.4,59.5,73.6z"/>
	<path class="st0" d="M100,59.1v11.1c-1.5-5-6.1-8.7-11.6-8.7c-5.5,0-10.1,3.7-11.6,8.7V59.1H100z"/>
	<path class="st0" d="M96.7,73.6c0,4.5-3.7,8.2-8.2,8.2c-4.5,0-8.2-3.7-8.2-8.2c0-1.2,0.3-2.3,0.7-3.4c1.3-2.9,4.2-4.9,7.5-4.9
		c3.3,0,6.2,2,7.5,4.9C96.4,71.2,96.7,72.4,96.7,73.6z"/>
</g>
</svg>
