<?xml version="1.0" encoding="utf-8"?>
<!-- Generator: Adobe Illustrator 18.1.1, SVG Export Plug-In . SVG Version: 6.00 Build 0)  -->
<svg version="1.1" id="Layer_1" xmlns="http://www.w3.org/2000/svg" xmlns:xlink="http://www.w3.org/1999/xlink" x="0px" y="0px"
	 viewBox="0 0 100 100" style="enable-background:new 0 0 100 100;" xml:space="preserve">
<style type="text/css">
	.st0{fill:#545758;}
	.st1{fill:#FAC312;}
</style>
<g>
	<g>
		<path class="st0" d="M14.7,63.8V33c0-11,8.9-20,20-20h30.6c11,0,20,8.9,20,20v30.8H14.7z M74.5,51.5c-2,0-3.7,1.6-3.7,3.7
			c0,2,1.6,3.7,3.7,3.7c2,0,3.7-1.6,3.7-3.7C78.2,53.1,76.5,51.5,74.5,51.5z M53.7,25.6v15.2h22.9V30.6c0-2.8-2.2-5-5-5H53.7z
			 M36,19.7c0,1.2,1,2.2,2.2,2.2h23.6c1.2,0,2.2-1,2.2-2.2c0-1.2-1-2.2-2.2-2.2H38.2C37,17.4,36,18.4,36,19.7z M23.4,40.9h22.9V25.6
			H28.4c-2.8,0-5,2.2-5,5V40.9z M21.8,55.1c0,2,1.6,3.7,3.7,3.7c2,0,3.7-1.6,3.7-3.7c0-2-1.6-3.7-3.7-3.7
			C23.5,51.5,21.8,53.1,21.8,55.1z M14.7,66.6V74h70.5v-7.5H14.7z"/>
	</g>
	<path class="st1" d="M66.3,82.7c0,2.4,2.7,4.3,6.1,4.3c3.4,0,6.1-1.9,6.1-4.3v-6.2H66.3V82.7z"/>
	<path class="st1" d="M21.5,82.7c0,2.4,2.7,4.3,6.1,4.3c3.4,0,6.1-1.9,6.1-4.3v-6.2H21.5V82.7z"/>
</g>
</svg>
