<?xml version="1.0" encoding="utf-8"?>
<!-- Generator: Adobe Illustrator 18.1.1, SVG Export Plug-In . SVG Version: 6.00 Build 0)  -->
<svg version="1.1" id="Layer_1" xmlns="http://www.w3.org/2000/svg" xmlns:xlink="http://www.w3.org/1999/xlink" x="0px" y="0px"
	 viewBox="0 0 100 100" style="enable-background:new 0 0 100 100;" xml:space="preserve">
<style type="text/css">
	.st0{fill:#545758;}
	.st1{fill:#FAC312;}
</style>
<g>
	<path class="st0" d="M51.4,60.2H37.7c1.7,2.9,2.6,6.3,2.6,10c0,0.8-0.1,1.7-0.2,2.5H49c-0.1-0.8-0.2-1.7-0.2-2.5
		C48.8,66.6,49.7,63.2,51.4,60.2z"/>
	<path class="st0" d="M19.9,54.8c-8.5,0-15.4,6.9-15.4,15.4c0,8.5,6.9,15.4,15.4,15.4c8.5,0,15.4-6.9,15.4-15.4
		C35.2,61.7,28.3,54.8,19.9,54.8z M19.9,75.9c-3.1,0-5.7-2.5-5.7-5.7c0-3.1,2.5-5.7,5.7-5.7c3.1,0,5.7,2.5,5.7,5.7
		C25.5,73.3,23,75.9,19.9,75.9z"/>
	<path class="st0" d="M69.2,54.8c-8.5,0-15.4,6.9-15.4,15.4c0,8.5,6.9,15.4,15.4,15.4s15.4-6.9,15.4-15.4
		C84.6,61.7,77.7,54.8,69.2,54.8z M69.2,75.9c-3.1,0-5.7-2.5-5.7-5.7c0-3.1,2.5-5.7,5.7-5.7s5.7,2.5,5.7,5.7
		C74.9,73.3,72.3,75.9,69.2,75.9z"/>
	<path class="st0" d="M85.6,39.4V26.7H65.3v23.1h12.9l11.4,11.4v11H100V39.4L85.6,39.4z M70.4,39.4v-7.6h10.1v7.6H70.4z"/>
	<path class="st1" d="M52.4,14.6v-0.1l-7.8,7.8H0v20l39.7,13h12.7l7.2-34h11.9v-6.7H52.4z M30.7,31.2h6.5L34.5,44l-6-2L30.7,31.2z
		 M24.1,40.6l-6-2l1.6-7.4h6.5L24.1,40.6z M9,31.2h6.1l-1.3,6L9,35.7V31.2z M45.1,46.2h-3.9l-2.4-0.8l3-14.2h6.5L45.1,46.2z"/>
</g>
</svg>
