<?xml version="1.0" encoding="utf-8"?>
<!-- Generator: Adobe Illustrator 18.1.1, SVG Export Plug-In . SVG Version: 6.00 Build 0)  -->
<svg version="1.1" id="Layer_1" xmlns="http://www.w3.org/2000/svg" xmlns:xlink="http://www.w3.org/1999/xlink" x="0px" y="0px"
	 viewBox="0 0 100 100" style="enable-background:new 0 0 100 100;" xml:space="preserve">
<style type="text/css">
	.st0{fill:#545758;}
	.st1{fill:#FAC312;}
	.st2{fill:#FFFFFF;}
</style>
<g>
	<g>
		<path class="st0" d="M60.2,65.2c-4.3,0-7.8,3.5-7.8,7.8c0,4.3,3.5,7.8,7.8,7.8c4.3,0,7.8-3.5,7.8-7.8C68,68.6,64.5,65.2,60.2,65.2
			z M60.2,76.5c-2,0-3.6-1.6-3.6-3.6c0-2,1.6-3.6,3.6-3.6c2,0,3.6,1.6,3.6,3.6C63.8,74.9,62.2,76.5,60.2,76.5z M79.4,65.2
			c-4.3,0-7.8,3.5-7.8,7.8c0,4.3,3.5,7.8,7.8,7.8c4.3,0,7.8-3.5,7.8-7.8C87.2,68.6,83.7,65.2,79.4,65.2z M79.4,76.5
			c-2,0-3.6-1.6-3.6-3.6c0-2,1.6-3.6,3.6-3.6c2,0,3.6,1.6,3.6,3.6C83,74.9,81.4,76.5,79.4,76.5z M8.8,69.9H3c-1.4,0-2.5-1.1-2.5-2.5
			v-4.8C0.5,61.2,1.6,60,3,60h11.5C11.3,62.2,9.1,65.8,8.8,69.9z M95.9,62.6v4.8c0,1.4-1.1,2.5-2.5,2.5h-4c-1.3-4.3-5.3-7.4-10-7.4
			c-4.3,0-8,2.6-9.6,6.4c-1.6-3.7-5.3-6.4-9.6-6.4c-4.7,0-8.7,3.1-10,7.4h-16c-0.2-4.1-2.4-7.7-5.7-9.8h64.9
			C94.8,60,95.9,61.2,95.9,62.6z M21.5,60.6c-5.5,0-10.1,4.5-10.1,10.1c0,5.5,4.5,10.1,10.1,10.1c5.5,0,10.1-4.5,10.1-10.1
			C31.6,65.1,27.1,60.6,21.5,60.6z M21.5,75.1c-2.5,0-4.5-2-4.5-4.5c0-2.5,2-4.5,4.5-4.5c2.5,0,4.5,2,4.5,4.5
			C26,73.1,24,75.1,21.5,75.1z M40.7,22.6c-0.1-1.8-1.6-3.3-3.5-3.3H10.6c-1.9,0-3.5,1.6-3.5,3.5c0,1.2,0.6,2.2,1.5,2.9L2,39
			c-1.2,0.7-2,2.2-2,3.8V53c0,2.4,1.7,4.3,3.9,4.3h32.9c2.2,0,3.9-1.9,3.9-4.3L40.7,22.6L40.7,22.6z M23.4,39.2c0,1.6-1.2,2.9-2.8,3
			c0,0-10.2,0-12.4,0c-2.2,0-3.6-1.3-2.4-4.1c1-2.4,4.4-8.9,4.4-8.9c0.8-2,2.5-3.5,5-3.5h5.1c1.7,0,3,1.4,3,3.1V39.2z M35.9,39.2
			c0,1.7-1.4,3.1-3.1,3.1h-2.7c-1.7,0-3.1-1.4-3.1-3.1V28.7c0-1.7,1.4-3.1,3.1-3.1h2.7c1.7,0,3.1,1.4,3.1,3.1V39.2z"/>
	</g>
	<g>
		<g>
			<path class="st1" d="M47.7,58.3h45.6c4.2-4.1,6.7-9.4,6.7-15.1c0-13.2-13.2-23.9-29.5-23.9c-11.4,0-21.2,5.2-26.1,12.8v22.1
				C45.3,55.7,46.4,57,47.7,58.3z"/>
			<path class="st2" d="M48.4,35.3C48.6,35.1,60.8,19,82.3,28c1,0.4,1.5,1.6,1.1,2.6c-0.4,1-1.6,1.5-2.6,1.1
				c-18.5-7.8-28.7,5.4-29.2,6c-0.4,0.5-1,0.8-1.6,0.8c-0.4,0-0.8-0.1-1.2-0.4C48,37.4,47.8,36.1,48.4,35.3z"/>
		</g>
	</g>
</g>
</svg>
