<?xml version="1.0" encoding="utf-8"?>
<!-- Generator: Adobe Illustrator 18.1.1, SVG Export Plug-In . SVG Version: 6.00 Build 0)  -->
<svg version="1.1" id="Layer_1" xmlns="http://www.w3.org/2000/svg" xmlns:xlink="http://www.w3.org/1999/xlink" x="0px" y="0px"
	 viewBox="0 0 100 100" style="enable-background:new 0 0 100 100;" xml:space="preserve">
<style type="text/css">
	.st0{fill:#545758;}
	.st1{fill:#FAC312;}
</style>
<g>
	<g>
		<path class="st1" d="M51.6,47.6L51.6,47.6c0,0.1-0.1,0.1-0.1,0.1C51.5,47.7,51.5,47.7,51.6,47.6z"/>
		<path class="st1" d="M43.4,47.7c0,0-0.1,0-0.1,0v0C43.3,47.7,43.3,47.7,43.4,47.7z"/>
		<path class="st1" d="M71.9,52.1c-1.2,0-2.3,0.6-3,1.5v7.2h-1.5v-9.9c-0.4-0.6-1-1.1-1.7-1.4c-0.5-0.2-1.1-0.4-1.7-0.4
			c0,0-0.1,0-0.1,0c-1.5,0-2.9,0.9-3.6,2.2v2c-0.2,0.1-0.3,0.3-0.5,0.4c-0.3,0.3-0.6,0.5-1,0.8v-3.8c-0.8-0.9-1.9-1.5-3.2-1.5
			c-1.4,0-2.7,0.7-3.4,1.8v9.9h-1.5V36.6c-0.8-1.1-2-1.8-3.4-1.8c-1.4,0-2.7,0.7-3.4,1.8v32.1l-3.8-5.1c-1.4-1.8-4-2.2-5.8-0.9
			c-1.8,1.4-2.2,4-0.9,5.8L47.2,87h21.4l7.1-7.1V55.8C75.6,53.8,74,52.1,71.9,52.1z M60.4,60.8h-1.5v-5.6c0.3-0.2,0.6-0.3,1-0.5
			c0.2-0.1,0.3-0.2,0.5-0.3V60.8z"/>
		<path class="st1" d="M52.3,47.1v0.4c-0.2,0.1-0.5,0.1-0.7,0.2c0,0-0.1,0-0.1,0c0,0,0.1-0.1,0.1-0.1C51.8,47.5,52.1,47.3,52.3,47.1
			z"/>
		<path class="st1" d="M43.4,47.7c0,0-0.1,0-0.1,0c-0.2,0-0.3-0.1-0.5-0.1c-0.1,0-0.1,0-0.2-0.1v-0.4c0.2,0.2,0.5,0.3,0.7,0.5
			C43.3,47.7,43.3,47.7,43.4,47.7z"/>
	</g>
	<path class="st0" d="M70.5,35.6c0,1.1,0,2.1-0.2,3.2c-0.2,1.3-0.5,2.5-0.8,3.8c-0.7,2.4-1.9,4.7-3.4,6.6c-0.1,0.1-0.1,0.2-0.2,0.3
		c-0.5-0.2-1.1-0.4-1.7-0.4c0,0-0.1,0-0.1,0c0.3-0.5,0.6-0.9,0.9-1.4c1.2-2.2,2.1-4.7,2.5-7.3c0.2-1.3,0.2-2.6,0.2-3.9
		c0-0.6-0.1-1.2-0.2-1.8c0-0.4-0.1-0.7-0.2-1.1c-0.1-0.6-0.2-1.1-0.4-1.7c-0.1-0.3-0.2-0.6-0.3-0.9c-0.3-1-0.7-2-1.2-2.9
		c-0.5-1-1.1-2-1.8-2.9c-0.7-0.9-1.4-1.8-2.3-2.6c-0.4-0.3-0.7-0.7-1.1-1c-0.2-0.2-0.5-0.4-0.7-0.5c-0.9-0.7-1.8-1.2-2.8-1.8
		c-1.1-0.6-2.3-1-3.4-1.4c-0.7-0.2-1.3-0.4-2-0.5c-0.6-0.1-1.3-0.2-1.9-0.3c-0.5,0-0.9-0.1-1.4-0.1c-0.2,0-0.4,0-0.5,0
		c-0.2,0-0.4,0-0.6,0c-0.3,0-0.6,0-0.8,0c-0.9,0.1-1.8,0.2-2.6,0.4c-0.8,0.2-1.7,0.4-2.5,0.7c-1.2,0.4-2.3,0.9-3.4,1.5
		c-0.9,0.5-1.7,1.1-2.5,1.7c-0.6,0.5-1.2,1-1.8,1.6c-0.7,0.7-1.4,1.5-2,2.3c-0.6,0.8-1.2,1.7-1.7,2.7c-0.5,0.8-0.8,1.7-1.1,2.6
		c-0.3,0.8-0.5,1.6-0.7,2.4c-0.1,0.6-0.2,1.2-0.3,1.8c0,0.3-0.1,0.6-0.1,0.9c0,0.3,0,0.7-0.1,1c0,1.2,0,2.4,0.2,3.5
		c0.2,1.3,0.5,2.5,0.9,3.8c0.8,2.4,2,4.7,3.6,6.7c1.4,1.8,3.1,3.3,5,4.6c0.8,0.5,1.6,1,2.4,1.4c-1-0.3-2.1-0.7-3-1.2
		c-1.1-0.6-2.2-1.2-3.1-1.9c-2-1.5-3.8-3.3-5.1-5.3c-1.4-2.1-2.4-4.4-3.1-6.8c-0.3-1.3-0.5-2.5-0.6-3.8c-0.1-1-0.1-2.1,0-3.1
		c0.1-1.1,0.2-2.3,0.5-3.4c0.2-0.8,0.4-1.5,0.6-2.3c0.3-0.9,0.6-1.7,1-2.6c0.5-1.1,1.1-2.1,1.7-3.1c0.7-1,1.4-2,2.3-2.8
		c0.6-0.7,1.3-1.3,2-1.9c0.4-0.3,0.8-0.7,1.2-1c0.3-0.2,0.7-0.5,1-0.7c0.9-0.6,1.8-1.1,2.8-1.6c0.7-0.3,1.5-0.6,2.3-0.9
		c0.8-0.3,1.7-0.5,2.6-0.7c1.2-0.3,2.5-0.4,3.8-0.5c0.9,0,1.8,0,2.7,0c0.6,0,1.2,0.1,1.8,0.2c0.7,0.1,1.4,0.2,2.1,0.4
		c1.9,0.4,3.7,1.1,5.4,2c0.9,0.4,1.7,0.9,2.5,1.5c0.6,0.5,1.3,0.9,1.8,1.4c0.9,0.8,1.7,1.6,2.4,2.4c0.8,0.9,1.5,1.9,2.1,2.9
		c0.6,0.9,1.1,1.8,1.5,2.8c0.2,0.4,0.3,0.8,0.5,1.2c0.2,0.5,0.3,1,0.5,1.5c0.2,0.7,0.4,1.4,0.5,2.2C70.3,33,70.4,34.3,70.5,35.6z"/>
	<path class="st0" d="M38,37.6C38,37.6,38,37.6,38,37.6C38,37.6,38,37.6,38,37.6L38,37.6z"/>
	<path class="st0" d="M59.4,39.9c-0.6,2.3-2,4.3-3.8,5.8c-0.6,0.5-1.4,0.9-2.1,1.3c-0.3,0.2-0.7,0.3-1.1,0.4c0,0,0,0-0.1,0v-0.4
		c0.1-0.1,0.1-0.1,0.2-0.2c0.4-0.3,0.9-0.7,1.3-1.1c0.8-0.9,1.5-1.9,2.1-3c0.2-0.4,0.4-0.8,0.5-1.3c0.1-0.3,0.2-0.5,0.2-0.8
		c0.1-0.3,0.1-0.5,0.2-0.8c0.1-0.8,0.1-1.6,0.1-2.5c0,0,0,0,0,0c0,0,0-0.1,0-0.1c0-0.2,0-0.3-0.1-0.5c-0.1-0.3-0.1-0.6-0.2-0.9
		c-0.2-0.6-0.4-1.2-0.6-1.8c-0.5-1.1-1.2-2.1-2.1-3c-0.5-0.4-1-0.8-1.5-1.1c-0.5-0.3-1-0.5-1.5-0.7c-0.6-0.2-1.2-0.4-1.9-0.5
		c-0.4-0.1-0.7-0.1-1.1-0.1c-0.2,0-0.4,0-0.6,0c0,0,0,0,0,0c-1.2,0-2.3,0.2-3.4,0.7c-0.1,0-0.2,0.1-0.3,0.1
		c-0.4,0.2-0.8,0.4-1.2,0.6c-0.3,0.2-0.7,0.4-1,0.7c-1.7,1.4-2.9,3.3-3.4,5.5c-0.1,0.3-0.1,0.5-0.1,0.8c0,0.1,0,0.2,0,0.3
		c0,0.1,0,0.2,0,0.3c0,0.5-0.1,1,0,1.5c0.1,0.6,0.2,1.2,0.3,1.8c0.3,1.2,0.8,2.4,1.6,3.4c0.2,0.4,0.5,0.7,0.8,1
		c0.3,0.3,0.5,0.6,0.8,0.9c0.3,0.3,0.7,0.6,1,0.8c0,0,0,0,0.1,0v0.4c-0.2-0.1-0.4-0.1-0.6-0.2c-0.3-0.1-0.6-0.2-0.8-0.4
		c-0.1-0.1-0.3-0.1-0.4-0.2c-0.1-0.1-0.3-0.2-0.4-0.2c-0.5-0.4-1-0.7-1.5-1.1c-0.4-0.4-0.8-0.8-1.1-1.2c-0.4-0.4-0.7-0.9-1-1.4
		c-0.3-0.5-0.6-1.1-0.8-1.6c-0.2-0.6-0.4-1.2-0.5-1.8c-0.1-0.3-0.1-0.6-0.2-0.9c0-0.2,0-0.4-0.1-0.7c0-0.3,0-0.7,0-1
		c0-0.5,0-1.1,0.1-1.6c0.1-0.6,0.2-1.3,0.4-1.9c0.2-0.6,0.4-1.2,0.7-1.8c0.8-1.5,1.8-2.8,3.1-3.9c1-0.8,2-1.4,3.2-1.9
		c1.8-0.7,3.7-1.1,5.6-0.9c1,0.1,2.1,0.3,3.1,0.6c0.9,0.3,1.7,0.7,2.5,1.1c0.4,0.2,0.8,0.5,1.1,0.7c0.4,0.3,0.7,0.6,1.1,0.9
		c0.7,0.6,1.3,1.4,1.8,2.1c0.7,1.1,1.2,2.2,1.6,3.4C59.9,35.7,59.9,37.9,59.4,39.9z"/>
	<path class="st0" d="M43.4,47.7c0,0-0.1,0-0.1,0c-0.2,0-0.3-0.1-0.5-0.1c-0.1,0-0.1,0-0.2-0.1v-0.4c0.2,0.2,0.5,0.3,0.7,0.5
		C43.3,47.7,43.3,47.7,43.4,47.7z"/>
	<path class="st0" d="M52.3,47.1v0.4c-0.2,0.1-0.5,0.1-0.7,0.2c0,0-0.1,0-0.1,0c0,0,0.1-0.1,0.1-0.1C51.8,47.5,52.1,47.3,52.3,47.1z
		"/>
</g>
</svg>
