<?xml version="1.0" encoding="utf-8"?>
<!-- Generator: Adobe Illustrator 18.1.1, SVG Export Plug-In . SVG Version: 6.00 Build 0)  -->
<svg version="1.1" id="Layer_1" xmlns="http://www.w3.org/2000/svg" xmlns:xlink="http://www.w3.org/1999/xlink" x="0px" y="0px"
	 viewBox="0 0 100 100" style="enable-background:new 0 0 100 100;" xml:space="preserve">
<style type="text/css">
	.st0{fill:#545758;}
	.st1{fill:#FAC312;}
</style>
<g>
	<path class="st0" d="M30.2,33.8H14.4c-2.3,0-4.1,1.8-4.1,4.1v8.2h24v-8.2C34.3,35.6,32.5,33.8,30.2,33.8z"/>
	<path class="st0" d="M77.7,51c-3.3,3.6-8.1,5.9-13.4,5.9c-5.3,0-10-2.3-13.4-5.9H0.4v18.5c0,0,18.2,2,18.3,17.4h62.1
		c0,0,18.8-16.5,18.8-36H77.7z M78.8,81.9H23.2c-1.4-5.8-4.9-9.8-9-12.6c3.8-2,4.8-7.5,10.2-7.5C31,61.8,31,70,37.7,70
		c6.6,0,6.6-8.2,13.3-8.2c6.6,0,6.6,8.2,13.3,8.2c6.6,0,6.6-8.2,13.3-8.2c5.8,0,6.5,6.2,11,7.8C85,75.4,80.8,79.8,78.8,81.9z"/>
	<path class="st1" d="M64.3,13c0,0-13,18.6-13,25.8c0,7.2,5.8,13,13,13c7.2,0,13-5.8,13-13C77.4,31.6,64.3,13,64.3,13z M57.1,43.8
		c-1.4,0-2.6-2.3-2.6-5.2c0-2.9,1.1-5.2,2.6-5.2c1.4,0,2.6,2.3,2.6,5.2C59.6,41.5,58.5,43.8,57.1,43.8z"/>
</g>
</svg>
