<?xml version="1.0" encoding="utf-8"?>
<!-- Generator: Adobe Illustrator 18.1.1, SVG Export Plug-In . SVG Version: 6.00 Build 0)  -->
<svg version="1.1" id="Layer_1" xmlns="http://www.w3.org/2000/svg" xmlns:xlink="http://www.w3.org/1999/xlink" x="0px" y="0px"
	 viewBox="0 0 100 100" style="enable-background:new 0 0 100 100;" xml:space="preserve">
<style type="text/css">
	.st0{fill:#545758;}
	.st1{fill:#FAC312;}
</style>
<g>
	<path class="st1" d="M18.9,59.7c-4.9,0-8.9,3.8-8.9,8.4s4,8.4,8.9,8.4c4.9,0,8.9-3.8,8.9-8.4S23.8,59.7,18.9,59.7z M18.9,72.1
		c-2.4,0-4.4-1.8-4.4-4c0-2.2,2-4,4.4-4c2.4,0,4.4,1.8,4.4,4C23.3,70.3,21.3,72.1,18.9,72.1z"/>
	<path class="st1" d="M60.8,59.7c-4.9,0-8.9,3.8-8.9,8.4c0,4.7,4,8.4,8.9,8.4c4.9,0,8.9-3.8,8.9-8.4C69.7,63.5,65.7,59.7,60.8,59.7z
		 M60.8,72.1c-2.4,0-4.4-1.8-4.4-4c0-2.2,2-4,4.4-4c2.4,0,4.4,1.8,4.4,4C65.3,70.3,63.3,72.1,60.8,72.1z"/>
	<path class="st1" d="M84.3,59.4c-4.9,0-8.9,3.8-8.9,8.4c0,4.7,4,8.4,8.9,8.4c4.9,0,8.9-3.8,8.9-8.4C93.2,63.2,89.2,59.4,84.3,59.4z
		 M84.3,71.8c-2.4,0-4.4-1.8-4.4-4c0-2.2,2-4,4.4-4c2.4,0,4.4,1.8,4.4,4C88.7,70,86.7,71.8,84.3,71.8z"/>
	<path class="st0" d="M100,27.2c0-2.1-1.6-3.8-3.5-3.8H38.2c-1.9,0-3.5,1.7-3.5,3.8v8.7H28H14.8L9.4,49.8H0v5.3V68h7.2
		c0-6.1,5.2-11.1,11.6-11.1c6.4,0,11.6,5,11.6,11.1H31h18.2c0.1-6.1,5.3-11.1,11.6-11.1c6.4,0,11.6,5,11.6,11.1h0.2
		c0-0.1,0-0.1,0-0.2c0-6.2,5.2-11.2,11.6-11.2c6.4,0,11.6,5,11.6,11.2c0,0.1,0,0.1,0,0.2h4.1v-6.6h-1.2c0.7-0.7,1.2-1.7,1.2-2.8
		V27.2z M28,49.8H12.6l4.2-10.7H28V49.8z M35.7,61.5v-0.2c0.1,0.1,0.1,0.1,0.2,0.2H35.7z M42.1,52.4H40V27.3h2.1V52.4z M49.9,52.4
		h-2.1V27.3h2.1V52.4z M57.2,52.1h-2.1V27h2.1V52.1z M65,52.1h-2.1V27H65V52.1z M73.2,52.5h-2.1V27.4h2.1V52.5z M81,52.5h-2.1V27.4
		H81V52.5z M88.3,52.3h-2.1V27.1h2.1V52.3z M95.8,52.3h-2.1V27.1h2.1V52.3z"/>
</g>
</svg>
