<?xml version="1.0" encoding="utf-8"?>
<!-- Generator: Adobe Illustrator 18.1.1, SVG Export Plug-In . SVG Version: 6.00 Build 0)  -->
<svg version="1.1" id="Layer_1" xmlns="http://www.w3.org/2000/svg" xmlns:xlink="http://www.w3.org/1999/xlink" x="0px" y="0px"
	 viewBox="0 0 100 100" style="enable-background:new 0 0 100 100;" xml:space="preserve">
<style type="text/css">
	.st0{fill:#545758;}
	.st1{fill:#FAC312;}
</style>
<g>
	<path class="st0" d="M9.8,68.8c-5,0-9.1,4.1-9.1,9.1c0,5,4.1,9.1,9.1,9.1c5,0,9.1-4.1,9.1-9.1C18.9,72.9,14.9,68.8,9.8,68.8z
		 M9.8,81.6c-2,0-3.7-1.7-3.7-3.7c0-2,1.7-3.7,3.7-3.7s3.7,1.7,3.7,3.7C13.5,79.9,11.9,81.6,9.8,81.6z"/>
	<path class="st0" d="M34.6,68.8c-5,0-9.1,4.1-9.1,9.1c0,5,4.1,9.1,9.1,9.1c5,0,9.1-4.1,9.1-9.1C43.7,72.9,39.7,68.8,34.6,68.8z
		 M34.6,81.6c-2,0-3.7-1.7-3.7-3.7c0-2,1.7-3.7,3.7-3.7s3.7,1.7,3.7,3.7C38.3,79.9,36.7,81.6,34.6,81.6z"/>
	<rect x="0.7" y="58.4" class="st0" width="98.5" height="5.4"/>
	<path class="st1" d="M0.7,13v40h98.5V13H0.7z M11.1,47.6h-5V18.4h5V47.6z M21.5,47.6h-5.2V18.4h5.2V47.6z M31.8,47.6h-5.2V18.4h5.2
		V47.6z M42.2,47.6H37V18.4h5.2V47.6z M52.5,47.6h-5.2V18.4h5.2V47.6z M62.8,47.6h-5.2V18.4h5.2V47.6z M73.2,47.6H68V18.4h5.2V47.6z
		 M83.5,47.6h-5.2V18.4h5.2V47.6z M93.9,47.6h-5.2V18.4h5.2V47.6z"/>
	<path class="st0" d="M72.4,82.7V69h-0.2H50v5.4h17v8.3c-1.3,0.9-2.2,2.4-2.2,4.1h9.8C74.6,85.1,73.7,83.6,72.4,82.7z"/>
</g>
</svg>
