<?xml version="1.0" encoding="utf-8"?>
<!-- Generator: Adobe Illustrator 18.1.1, SVG Export Plug-In . SVG Version: 6.00 Build 0)  -->
<svg version="1.1" id="Layer_1" xmlns="http://www.w3.org/2000/svg" xmlns:xlink="http://www.w3.org/1999/xlink" x="0px" y="0px"
	 viewBox="0 0 100 100" style="enable-background:new 0 0 100 100;" xml:space="preserve">
<style type="text/css">
	.st0{fill:#545758;}
	.st1{fill:#FAC312;}
</style>
<g>
	<path class="st0" d="M39.6,63.3V41.7c0-2.5-2-4.5-4.5-4.5H22.8c-2.5,0-5.5,1.7-6.8,3.8L8.7,52.7c-1.3,2.1-2.4,5.8-2.4,8.2v10.2
		c0,2.4,2,4.5,4.5,4.5h3.1c1.4-4.9,6-8.5,11.4-8.5c5.3,0,9.8,3.5,11.3,8.3c0,0,0,0,0.1,0v0.3h25.5c1.4-4.9,6-8.5,11.4-8.5
		c5.4,0,9.9,3.6,11.4,8.5h8.8V63.3H39.6z M36.1,51.5H13.7l5.3-8.6c0.2-0.4,0.8-0.9,1.7-1.4c0.9-0.5,1.7-0.7,2.1-0.7h12.4
		c0.5,0,0.9,0.4,0.9,0.9V51.5z"/>
	<path class="st0" d="M81.6,79c0,4.5-3.6,8.1-8.1,8.1c-4.5,0-8.1-3.6-8.1-8.1c0-4.5,3.6-8.1,8.1-8.1C78,70.9,81.6,74.5,81.6,79z"/>
	<path class="st0" d="M33.4,79c0,4.5-3.6,8.1-8.1,8.1c-4.5,0-8.1-3.6-8.1-8.1c0-4.5,3.6-8.1,8.1-8.1C29.7,70.9,33.4,74.5,33.4,79z"
		/>
	<path class="st0" d="M81.6,79c0,4.5-3.6,8.1-8.1,8.1c-4.5,0-8.1-3.6-8.1-8.1c0-4.5,3.6-8.1,8.1-8.1C78,70.9,81.6,74.5,81.6,79z"/>
	<path class="st0" d="M33.4,79c0,4.5-3.6,8.1-8.1,8.1c-4.5,0-8.1-3.6-8.1-8.1c0-4.5,3.6-8.1,8.1-8.1C29.7,70.9,33.4,74.5,33.4,79z"
		/>
	<g>
		<polygon class="st1" points="78.9,12.9 78.9,33.9 58,33.9 58,12.9 66.2,12.9 66.2,19.4 70.7,19.4 70.7,12.9 		"/>
	</g>
	<g>
		<polygon class="st1" points="66.7,37.1 66.7,58 45.8,58 45.8,37.1 54,37.1 54,43.6 58.5,43.6 58.5,37.1 		"/>
	</g>
	<g>
		<polygon class="st1" points="91.1,37.1 91.1,58 70.1,58 70.1,37.1 78.3,37.1 78.3,43.6 82.9,43.6 82.9,37.1 		"/>
	</g>
</g>
</svg>
