<?xml version="1.0" encoding="utf-8"?>
<!-- Generator: Adobe Illustrator 18.1.1, SVG Export Plug-In . SVG Version: 6.00 Build 0)  -->
<svg version="1.1" id="Layer_1" xmlns="http://www.w3.org/2000/svg" xmlns:xlink="http://www.w3.org/1999/xlink" x="0px" y="0px"
	 viewBox="0 0 100 100" style="enable-background:new 0 0 100 100;" xml:space="preserve">
<style type="text/css">
	.st0{fill:#545758;}
	.st1{fill:#FAC312;}
</style>
<g>
	<path class="st0" d="M100,60.3v-41c0-1.4-1.1-2.5-2.5-2.5H39.1c-1.4,0-2.5,1.1-2.5,2.5v41H100z"/>
	<path class="st0" d="M19.5,62.2c-5.8,0-10.5,4.7-10.5,10.5c0,5.8,4.7,10.5,10.5,10.5S30,78.5,30,72.7C30,66.9,25.3,62.2,19.5,62.2z
		 M19.5,77.9c-2.9,0-5.2-2.3-5.2-5.2c0-2.9,2.3-5.2,5.2-5.2c2.9,0,5.2,2.3,5.2,5.2C24.8,75.6,22.4,77.9,19.5,77.9z"/>
	<circle class="st1" cx="19.5" cy="72.7" r="4.1"/>
	<path class="st0" d="M79.4,62.2c-5.8,0-10.5,4.7-10.5,10.5c0,5.8,4.7,10.5,10.5,10.5c5.8,0,10.5-4.7,10.5-10.5
		C89.9,66.9,85.2,62.2,79.4,62.2z M79.4,77.9c-2.9,0-5.2-2.3-5.2-5.2c0-2.9,2.3-5.2,5.2-5.2c2.9,0,5.2,2.3,5.2,5.2
		C84.6,75.6,82.3,77.9,79.4,77.9z"/>
	<circle class="st1" cx="79.4" cy="72.7" r="4.1"/>
	<path class="st1" d="M86.2,62.4c3.3,2.2,5.5,5.9,5.6,10.2H95c-0.2-0.4-0.4-0.8-0.4-1.3v-2c0-1.4,1.1-2.6,2.5-2.6h2.3v-4.3H86.2z"/>
	<path class="st0" d="M57.8,73.5c0,1.2-1,2.2-2.2,2.2H38.8c-1.2,0-2.2-1-2.2-2.2V67c0-1.2,1-2.2,2.2-2.2h16.8c1.2,0,2.2,1,2.2,2.2
		V73.5z"/>
	<path class="st0" d="M22.7,50.6c1.2,1.3,2.8,2.1,4.7,2.1c1.9,0,3.5-0.8,4.7-2.1H22.7z"/>
	<g>
		<path class="st1" d="M69.5,65.3c-2.1,0.1-4.2,0.1-6.3,0.1c-1.6,0-3.3,0-4.9-0.1c0.3,0.5,0.5,1.1,0.5,1.7v5.5H67
			C67.1,69.8,68,67.3,69.5,65.3L69.5,65.3z M26.2,62.3c3.4,2.2,5.7,6,5.7,10.3h3.8V67c0-1.5,1-2.7,2.4-3.1
			C34,63.5,30.1,62.9,26.2,62.3L26.2,62.3z M0,56.2v10.5h2.7c1.4,0,2.6,1.1,2.6,2.6v2c0,0.5-0.1,0.9-0.4,1.3h2.3
			c0.1-5.9,4.3-10.8,9.9-12C11.2,59.3,5.5,57.9,0,56.2L0,56.2z"/>
		<path class="st1" d="M22.3,54.3c-0.4,0-0.7-0.3-0.7-0.7v-3c0-0.4,0.3-0.7,0.7-0.7h10.2c0.4,0,0.7,0.3,0.7,0.7v3
			c0,0.4-0.3,0.7-0.7,0.7H22.3L22.3,54.3z M3.3,48.5l8.3-22.8h21.5v22.8H3.3L3.3,48.5z M34.4,24.4H10.7L0,53.9v2.3
			c5.5,1.7,11.2,3.1,17.1,4.4c0.8-0.2,1.6-0.2,2.4-0.2c2.4,0,4.7,0.7,6.6,1.9c3.9,0.6,7.9,1.2,11.9,1.7c0.2-0.1,0.5-0.1,0.7-0.1
			h16.8c1.1,0,2.1,0.6,2.6,1.4c1.7,0,3.3,0.1,4.9,0.1c2.1,0,4.2,0,6.3-0.1c0.8-1.1,1.9-2.1,3.1-2.9H34.4V24.4L34.4,24.4z"/>
	</g>
</g>
</svg>
