<?xml version="1.0" encoding="utf-8"?>
<!-- Generator: Adobe Illustrator 18.1.1, SVG Export Plug-In . SVG Version: 6.00 Build 0)  -->
<svg version="1.1" id="Layer_1" xmlns="http://www.w3.org/2000/svg" xmlns:xlink="http://www.w3.org/1999/xlink" x="0px" y="0px"
	 viewBox="0 0 100 100" style="enable-background:new 0 0 100 100;" xml:space="preserve">
<style type="text/css">
	.st0{fill:#545758;}
	.st1{fill:#FAC312;}
</style>
<g>
	<path class="st1" d="M78.7,23.5L50,13L21.3,23.5L6,49.9c0.8-1.4,3.9-2.7,8.8-2.7c4.9,0,8.8,1.2,8.8,2.7c0-1.5,3.9-2.7,8.8-2.7
		c4.9,0,8.8,1.2,8.8,2.7c0-1.5,3.9-2.7,8.8-2.7c4.9,0,8.8,1.2,8.8,2.7c0-1.5,3.9-2.7,8.8-2.7c4.9,0,8.8,1.2,8.8,2.7
		c0-1.5,3.9-2.7,8.8-2.7c4.9,0,8,1.3,8.8,2.7L78.7,23.5z"/>
	<rect x="47.7" y="52.4" class="st0" width="4.6" height="19.8"/>
	<path class="st0" d="M66.8,77.5c0,12.7-19.1,12.7-19.1,0v-2.3h4.6v2.3c0,6.6,9.9,6.6,9.9,0c0-1.3,1-2.3,2.3-2.3
		C65.8,75.2,66.8,76.2,66.8,77.5z"/>
</g>
</svg>
