<?xml version="1.0" encoding="utf-8"?>
<!-- Generator: Adobe Illustrator 18.1.1, SVG Export Plug-In . SVG Version: 6.00 Build 0)  -->
<svg version="1.1" id="Layer_1" xmlns="http://www.w3.org/2000/svg" xmlns:xlink="http://www.w3.org/1999/xlink" x="0px" y="0px"
	 viewBox="0 0 100 100" style="enable-background:new 0 0 100 100;" xml:space="preserve">
<style type="text/css">
	.st0{fill:#545758;}
	.st1{fill:#FAC312;}
</style>
<g>
	<polygon class="st0" points="50,13 11.3,35.8 11.3,35.8 11.3,42 11.3,42 50,19.2 88.7,42 88.7,35.8 	"/>
	<rect x="28.3" y="43.9" class="st0" width="43.4" height="2.7"/>
	<rect x="28.3" y="47.2" class="st0" width="43.4" height="2.7"/>
	<rect x="28.3" y="50.6" class="st0" width="43.4" height="2.7"/>
	<rect x="28.2" y="82.2" class="st0" width="9.5" height="4.8"/>
	<rect x="39.5" y="82.2" class="st0" width="9.5" height="4.8"/>
	<rect x="50.8" y="82.2" class="st0" width="9.5" height="4.8"/>
	<rect x="62.1" y="82.2" class="st0" width="9.5" height="4.8"/>
	<rect x="28.2" y="76.2" class="st0" width="9.5" height="4.8"/>
	<rect x="39.5" y="76.2" class="st0" width="9.5" height="4.8"/>
	<rect x="50.8" y="76.2" class="st0" width="9.5" height="4.8"/>
	<rect x="62.1" y="76.2" class="st0" width="9.5" height="4.8"/>
	<rect x="28.2" y="70.2" class="st0" width="9.5" height="4.8"/>
	<rect x="39.5" y="70.2" class="st0" width="9.5" height="4.8"/>
	<rect x="50.8" y="70.2" class="st0" width="9.5" height="4.8"/>
	<rect x="28.2" y="64.3" class="st0" width="9.5" height="4.8"/>
	<rect x="39.5" y="64.3" class="st0" width="9.5" height="4.8"/>
	<g>
		<path class="st1" d="M73.9,81.4V87h4.9C77.2,85.2,75.5,83.3,73.9,81.4L73.9,81.4z M38,39.4c-0.5,0-0.9-0.4-0.9-0.9v-3.9
			c0-0.5,0.4-0.9,0.9-0.9h0.3c0.5,0,0.9,0.4,0.9,0.9v3.9c0,0.5-0.4,0.9-0.9,0.9H38L38,39.4z M41.9,39.4c-0.5,0-0.9-0.4-0.9-0.9v-3.9
			c0-0.5,0.4-0.9,0.9-0.9h0.3c0.5,0,0.9,0.4,0.9,0.9v3.9c0,0.5-0.4,0.9-0.9,0.9H41.9L41.9,39.4z M41.4,26.7L16.6,41.3V87h9.5V41.4
			H48c-0.4-0.8-0.8-1.5-1.1-2.3c-0.2,0.2-0.4,0.3-0.7,0.3h-0.3c-0.5,0-0.9-0.4-0.9-0.9V35C43.7,32.2,42.5,29.4,41.4,26.7L41.4,26.7z
			"/>
		<path class="st1" d="M49.8,39.4c-0.5,0-0.9-0.4-0.9-0.9v-3.9c0-0.5,0.4-0.9,0.9-0.9h0.3c0.5,0,0.9,0.4,0.9,0.9v3.9
			c0,0.5-0.4,0.9-0.9,0.9H49.8L49.8,39.4z M53.8,39.4c-0.5,0-0.9-0.4-0.9-0.9v-3.9c0-0.5,0.4-0.9,0.9-0.9h0.3c0.5,0,0.9,0.4,0.9,0.9
			v3.9c0,0.5-0.4,0.9-0.9,0.9H53.8L53.8,39.4z M57.8,39.4c-0.5,0-0.9-0.4-0.9-0.9v-3.9c0-0.5,0.4-0.9,0.9-0.9h0.3
			c0.5,0,0.9,0.4,0.9,0.9v3.9c0,0.5-0.4,0.9-0.9,0.9H57.8L57.8,39.4z M61.7,39.4c-0.5,0-0.9-0.4-0.9-0.9v-3.9c0-0.5,0.4-0.9,0.9-0.9
			H62c0.5,0,0.9,0.4,0.9,0.9v3.9c0,0.5-0.4,0.9-0.9,0.9H61.7L61.7,39.4z M50,21.6l-8.6,5.1c1.1,2.8,2.3,5.6,3.6,8.4v-0.5
			c0-0.5,0.4-0.9,0.9-0.9h0.3c0.5,0,0.9,0.4,0.9,0.9v3.9c0,0.3-0.1,0.5-0.3,0.7c0.4,0.8,0.7,1.5,1.1,2.3h25.9v40
			c1.6,1.9,3.3,3.8,4.9,5.6h4.6V41.3L50,21.6L50,21.6z"/>
	</g>
</g>
</svg>
