<?xml version="1.0" encoding="utf-8"?>
<!-- Generator: Adobe Illustrator 18.1.1, SVG Export Plug-In . SVG Version: 6.00 Build 0)  -->
<svg version="1.1" id="Layer_1" xmlns="http://www.w3.org/2000/svg" xmlns:xlink="http://www.w3.org/1999/xlink" x="0px" y="0px"
	 viewBox="0 0 100 100" style="enable-background:new 0 0 100 100;" xml:space="preserve">
<style type="text/css">
	.st0{fill:#545758;}
	.st1{fill:#FAC312;}
</style>
<g>
	<path class="st0" d="M88.3,51.3L88.3,51.3l-0.1-2.2C88.3,49.9,88.3,50.6,88.3,51.3z"/>
	<path class="st0" d="M11.7,51.3h6.6H11.7z"/>
	<path class="st0" d="M75.1,51.3l-50.4,0L75.1,51.3z"/>
	<path class="st0" d="M88.2,51.3l-6.3,0L88.2,51.3z"/>
	<path class="st0" d="M88.2,48.4v0.7c-0.1-1.5-0.3-3-0.5-4.5C88.1,45.9,88.2,47.2,88.2,48.4z"/>
	<path class="st0" d="M18.3,80.7c0,0-6.6,0-6.6,0C11.7,80.7,18.3,80.7,18.3,80.7z"/>
	<rect x="31.4" y="55.4" class="st1" width="16.4" height="9.6"/>
	<rect x="31.4" y="68.4" class="st1" width="16.4" height="9.6"/>
	<rect x="52.1" y="55.4" class="st1" width="16.4" height="9.6"/>
	<rect x="52.1" y="68.4" class="st1" width="16.4" height="9.6"/>
	<path class="st0" d="M88.2,80.7c0,0-6.3,0-6.3,0C81.9,80.7,88.2,80.7,88.2,80.7z"/>
	<rect x="31.4" y="55.4" class="st1" width="16.4" height="9.6"/>
	<rect x="31.4" y="68.4" class="st1" width="16.4" height="9.6"/>
	<rect x="52.1" y="55.4" class="st1" width="16.4" height="9.6"/>
	<rect x="52.1" y="68.4" class="st1" width="16.4" height="9.6"/>
	<path class="st0" d="M75.1,51.3l-50.4,0L75.1,51.3z"/>
	<rect x="31.4" y="68.4" class="st1" width="16.4" height="9.6"/>
	<rect x="31.4" y="55.4" class="st1" width="16.4" height="9.6"/>
	<rect x="52.1" y="68.4" class="st1" width="16.4" height="9.6"/>
	<rect x="52.1" y="55.4" class="st1" width="16.4" height="9.6"/>
	<path class="st0" d="M18.3,51.3l-6.6,0L18.3,51.3z"/>
	<path class="st0" d="M18.3,80.7c0,0-6.6,0-6.6,0C11.7,80.7,18.3,80.7,18.3,80.7z"/>
	<path class="st0" d="M88.2,80.7c0,0-6.3,0-6.3,0C81.9,80.7,88.2,80.7,88.2,80.7z"/>
	<path class="st0" d="M88.3,51.3l-6.4,0L88.3,51.3z"/>
	<path class="st0" d="M81.9,51.3h6.3v-2.2c-0.1-1.5-0.3-3-0.5-4.5C84.6,26.7,68.9,13,50,13c-7.1,0-13.8,1.9-19.5,5.3
		c-11.2,6.7-18.8,18.9-18.8,33h6.6v29.4h-6.6V87h76.6v-6.3h-6.3V51.3z M75.1,80.7H24.8V51.3h50.4V80.7z M75.1,46.4H24.8v-3.5h50.4
		V46.4z M75.1,38.5H24.8V35h50.4V38.5z"/>
	<path class="st0" d="M18.3,80.7c0,0-6.6,0-6.6,0C11.7,80.7,18.3,80.7,18.3,80.7z"/>
	<path class="st0" d="M88.2,80.7c0,0-6.3,0-6.3,0C81.9,80.7,88.2,80.7,88.2,80.7z"/>
</g>
</svg>
