<?xml version="1.0" encoding="utf-8"?>
<!-- Generator: Adobe Illustrator 18.1.1, SVG Export Plug-In . SVG Version: 6.00 Build 0)  -->
<svg version="1.1" id="Layer_1" xmlns="http://www.w3.org/2000/svg" xmlns:xlink="http://www.w3.org/1999/xlink" x="0px" y="0px"
	 viewBox="0 0 100 100" style="enable-background:new 0 0 100 100;" xml:space="preserve">
<style type="text/css">
	.st0{fill:#545758;}
	.st1{fill:#FAC312;}
</style>
<g>
	<rect x="30.7" y="54.2" class="st1" width="17" height="9.9"/>
	<rect x="30.7" y="67.7" class="st1" width="17" height="9.9"/>
	<rect x="52.3" y="54.2" class="st1" width="17" height="9.9"/>
	<rect x="52.3" y="67.7" class="st1" width="17" height="9.9"/>
	<rect x="30.7" y="54.2" class="st1" width="17" height="9.9"/>
	<rect x="30.7" y="67.7" class="st1" width="17" height="9.9"/>
	<rect x="52.3" y="54.2" class="st1" width="17" height="9.9"/>
	<rect x="52.3" y="67.7" class="st1" width="17" height="9.9"/>
	<rect x="30.7" y="67.7" class="st1" width="17" height="9.9"/>
	<rect x="30.7" y="54.2" class="st1" width="17" height="9.9"/>
	<rect x="52.3" y="67.7" class="st1" width="17" height="9.9"/>
	<rect x="52.3" y="54.2" class="st1" width="17" height="9.9"/>
	<path class="st0" d="M89.7,50v-3c0-7.1-5.5-14.6-12.3-16.7c0,0,0,0,0,0L22.6,13.6c-6.8-2.1-12.3,1.7-12.3,8.4v28h6.9v30.5h-6.9V87
		h79.4v-6.5h-6.6V50H89.7z M23.9,33.1h50.3v3.7H23.9V33.1z M23.9,41.2h52.2v3.6H23.9V41.2z M76.1,80.5H23.9V50h52.2V80.5z"/>
</g>
</svg>
